G04 #@! TF.GenerationSoftware,KiCad,Pcbnew,5.1.5+dfsg1-2build2*
G04 #@! TF.CreationDate,2020-06-17T17:13:45+02:00*
G04 #@! TF.ProjectId,termint-wifi,7465726d-696e-4742-9d77-6966692e6b69,rev?*
G04 #@! TF.SameCoordinates,Original*
G04 #@! TF.FileFunction,Soldermask,Bot*
G04 #@! TF.FilePolarity,Negative*
%FSLAX46Y46*%
G04 Gerber Fmt 4.6, Leading zero omitted, Abs format (unit mm)*
G04 Created by KiCad (PCBNEW 5.1.5+dfsg1-2build2) date 2020-06-17 17:13:45*
%MOMM*%
%LPD*%
G04 APERTURE LIST*
%ADD10C,0.100000*%
G04 APERTURE END LIST*
D10*
G36*
X146568512Y-80733927D02*
G01*
X146717812Y-80763624D01*
X146881784Y-80831544D01*
X147029354Y-80930147D01*
X147154853Y-81055646D01*
X147253456Y-81203216D01*
X147321376Y-81367188D01*
X147356000Y-81541259D01*
X147356000Y-81718741D01*
X147321376Y-81892812D01*
X147253456Y-82056784D01*
X147154853Y-82204354D01*
X147029354Y-82329853D01*
X146881784Y-82428456D01*
X146717812Y-82496376D01*
X146568512Y-82526073D01*
X146543742Y-82531000D01*
X146366258Y-82531000D01*
X146341488Y-82526073D01*
X146192188Y-82496376D01*
X146028216Y-82428456D01*
X145880646Y-82329853D01*
X145755147Y-82204354D01*
X145656544Y-82056784D01*
X145588624Y-81892812D01*
X145554000Y-81718741D01*
X145554000Y-81541259D01*
X145588624Y-81367188D01*
X145656544Y-81203216D01*
X145755147Y-81055646D01*
X145880646Y-80930147D01*
X146028216Y-80831544D01*
X146192188Y-80763624D01*
X146341488Y-80733927D01*
X146366258Y-80729000D01*
X146543742Y-80729000D01*
X146568512Y-80733927D01*
G37*
G36*
X131803578Y-80737048D02*
G01*
X131876249Y-80759093D01*
X131943225Y-80794892D01*
X132001930Y-80843070D01*
X132050108Y-80901775D01*
X132085907Y-80968751D01*
X132107952Y-81041422D01*
X132116000Y-81123140D01*
X132116000Y-82136860D01*
X132107952Y-82218578D01*
X132085907Y-82291249D01*
X132050108Y-82358225D01*
X132001930Y-82416930D01*
X131943225Y-82465108D01*
X131876249Y-82500907D01*
X131803578Y-82522952D01*
X131721860Y-82531000D01*
X130708140Y-82531000D01*
X130626422Y-82522952D01*
X130553751Y-82500907D01*
X130486775Y-82465108D01*
X130428070Y-82416930D01*
X130379892Y-82358225D01*
X130344093Y-82291249D01*
X130322048Y-82218578D01*
X130314000Y-82136860D01*
X130314000Y-81123140D01*
X130322048Y-81041422D01*
X130344093Y-80968751D01*
X130379892Y-80901775D01*
X130428070Y-80843070D01*
X130486775Y-80794892D01*
X130553751Y-80759093D01*
X130626422Y-80737048D01*
X130708140Y-80729000D01*
X131721860Y-80729000D01*
X131803578Y-80737048D01*
G37*
G36*
X128788512Y-80733927D02*
G01*
X128937812Y-80763624D01*
X129101784Y-80831544D01*
X129249354Y-80930147D01*
X129374853Y-81055646D01*
X129473456Y-81203216D01*
X129541376Y-81367188D01*
X129576000Y-81541259D01*
X129576000Y-81718741D01*
X129541376Y-81892812D01*
X129473456Y-82056784D01*
X129374853Y-82204354D01*
X129249354Y-82329853D01*
X129101784Y-82428456D01*
X128937812Y-82496376D01*
X128788512Y-82526073D01*
X128763742Y-82531000D01*
X128586258Y-82531000D01*
X128561488Y-82526073D01*
X128412188Y-82496376D01*
X128248216Y-82428456D01*
X128100646Y-82329853D01*
X127975147Y-82204354D01*
X127876544Y-82056784D01*
X127808624Y-81892812D01*
X127774000Y-81718741D01*
X127774000Y-81541259D01*
X127808624Y-81367188D01*
X127876544Y-81203216D01*
X127975147Y-81055646D01*
X128100646Y-80930147D01*
X128248216Y-80831544D01*
X128412188Y-80763624D01*
X128561488Y-80733927D01*
X128586258Y-80729000D01*
X128763742Y-80729000D01*
X128788512Y-80733927D01*
G37*
G36*
X133868512Y-80733927D02*
G01*
X134017812Y-80763624D01*
X134181784Y-80831544D01*
X134329354Y-80930147D01*
X134454853Y-81055646D01*
X134553456Y-81203216D01*
X134621376Y-81367188D01*
X134656000Y-81541259D01*
X134656000Y-81718741D01*
X134621376Y-81892812D01*
X134553456Y-82056784D01*
X134454853Y-82204354D01*
X134329354Y-82329853D01*
X134181784Y-82428456D01*
X134017812Y-82496376D01*
X133868512Y-82526073D01*
X133843742Y-82531000D01*
X133666258Y-82531000D01*
X133641488Y-82526073D01*
X133492188Y-82496376D01*
X133328216Y-82428456D01*
X133180646Y-82329853D01*
X133055147Y-82204354D01*
X132956544Y-82056784D01*
X132888624Y-81892812D01*
X132854000Y-81718741D01*
X132854000Y-81541259D01*
X132888624Y-81367188D01*
X132956544Y-81203216D01*
X133055147Y-81055646D01*
X133180646Y-80930147D01*
X133328216Y-80831544D01*
X133492188Y-80763624D01*
X133641488Y-80733927D01*
X133666258Y-80729000D01*
X133843742Y-80729000D01*
X133868512Y-80733927D01*
G37*
G36*
X136408512Y-80733927D02*
G01*
X136557812Y-80763624D01*
X136721784Y-80831544D01*
X136869354Y-80930147D01*
X136994853Y-81055646D01*
X137093456Y-81203216D01*
X137161376Y-81367188D01*
X137196000Y-81541259D01*
X137196000Y-81718741D01*
X137161376Y-81892812D01*
X137093456Y-82056784D01*
X136994853Y-82204354D01*
X136869354Y-82329853D01*
X136721784Y-82428456D01*
X136557812Y-82496376D01*
X136408512Y-82526073D01*
X136383742Y-82531000D01*
X136206258Y-82531000D01*
X136181488Y-82526073D01*
X136032188Y-82496376D01*
X135868216Y-82428456D01*
X135720646Y-82329853D01*
X135595147Y-82204354D01*
X135496544Y-82056784D01*
X135428624Y-81892812D01*
X135394000Y-81718741D01*
X135394000Y-81541259D01*
X135428624Y-81367188D01*
X135496544Y-81203216D01*
X135595147Y-81055646D01*
X135720646Y-80930147D01*
X135868216Y-80831544D01*
X136032188Y-80763624D01*
X136181488Y-80733927D01*
X136206258Y-80729000D01*
X136383742Y-80729000D01*
X136408512Y-80733927D01*
G37*
G36*
X138948512Y-80733927D02*
G01*
X139097812Y-80763624D01*
X139261784Y-80831544D01*
X139409354Y-80930147D01*
X139534853Y-81055646D01*
X139633456Y-81203216D01*
X139701376Y-81367188D01*
X139736000Y-81541259D01*
X139736000Y-81718741D01*
X139701376Y-81892812D01*
X139633456Y-82056784D01*
X139534853Y-82204354D01*
X139409354Y-82329853D01*
X139261784Y-82428456D01*
X139097812Y-82496376D01*
X138948512Y-82526073D01*
X138923742Y-82531000D01*
X138746258Y-82531000D01*
X138721488Y-82526073D01*
X138572188Y-82496376D01*
X138408216Y-82428456D01*
X138260646Y-82329853D01*
X138135147Y-82204354D01*
X138036544Y-82056784D01*
X137968624Y-81892812D01*
X137934000Y-81718741D01*
X137934000Y-81541259D01*
X137968624Y-81367188D01*
X138036544Y-81203216D01*
X138135147Y-81055646D01*
X138260646Y-80930147D01*
X138408216Y-80831544D01*
X138572188Y-80763624D01*
X138721488Y-80733927D01*
X138746258Y-80729000D01*
X138923742Y-80729000D01*
X138948512Y-80733927D01*
G37*
G36*
X141488512Y-80733927D02*
G01*
X141637812Y-80763624D01*
X141801784Y-80831544D01*
X141949354Y-80930147D01*
X142074853Y-81055646D01*
X142173456Y-81203216D01*
X142241376Y-81367188D01*
X142276000Y-81541259D01*
X142276000Y-81718741D01*
X142241376Y-81892812D01*
X142173456Y-82056784D01*
X142074853Y-82204354D01*
X141949354Y-82329853D01*
X141801784Y-82428456D01*
X141637812Y-82496376D01*
X141488512Y-82526073D01*
X141463742Y-82531000D01*
X141286258Y-82531000D01*
X141261488Y-82526073D01*
X141112188Y-82496376D01*
X140948216Y-82428456D01*
X140800646Y-82329853D01*
X140675147Y-82204354D01*
X140576544Y-82056784D01*
X140508624Y-81892812D01*
X140474000Y-81718741D01*
X140474000Y-81541259D01*
X140508624Y-81367188D01*
X140576544Y-81203216D01*
X140675147Y-81055646D01*
X140800646Y-80930147D01*
X140948216Y-80831544D01*
X141112188Y-80763624D01*
X141261488Y-80733927D01*
X141286258Y-80729000D01*
X141463742Y-80729000D01*
X141488512Y-80733927D01*
G37*
G36*
X144028512Y-80733927D02*
G01*
X144177812Y-80763624D01*
X144341784Y-80831544D01*
X144489354Y-80930147D01*
X144614853Y-81055646D01*
X144713456Y-81203216D01*
X144781376Y-81367188D01*
X144816000Y-81541259D01*
X144816000Y-81718741D01*
X144781376Y-81892812D01*
X144713456Y-82056784D01*
X144614853Y-82204354D01*
X144489354Y-82329853D01*
X144341784Y-82428456D01*
X144177812Y-82496376D01*
X144028512Y-82526073D01*
X144003742Y-82531000D01*
X143826258Y-82531000D01*
X143801488Y-82526073D01*
X143652188Y-82496376D01*
X143488216Y-82428456D01*
X143340646Y-82329853D01*
X143215147Y-82204354D01*
X143116544Y-82056784D01*
X143048624Y-81892812D01*
X143014000Y-81718741D01*
X143014000Y-81541259D01*
X143048624Y-81367188D01*
X143116544Y-81203216D01*
X143215147Y-81055646D01*
X143340646Y-80930147D01*
X143488216Y-80831544D01*
X143652188Y-80763624D01*
X143801488Y-80733927D01*
X143826258Y-80729000D01*
X144003742Y-80729000D01*
X144028512Y-80733927D01*
G37*
G36*
X163346189Y-74210483D02*
G01*
X163346192Y-74210484D01*
X163346191Y-74210484D01*
X163874139Y-74429167D01*
X164349280Y-74746646D01*
X164753354Y-75150720D01*
X165070833Y-75625861D01*
X165070834Y-75625863D01*
X165289517Y-76153811D01*
X165401000Y-76714275D01*
X165401000Y-77285725D01*
X165289517Y-77846189D01*
X165147851Y-78188201D01*
X165070833Y-78374139D01*
X164753354Y-78849280D01*
X164349280Y-79253354D01*
X163874139Y-79570833D01*
X163874138Y-79570834D01*
X163874137Y-79570834D01*
X163346189Y-79789517D01*
X162785725Y-79901000D01*
X162214275Y-79901000D01*
X161653811Y-79789517D01*
X161125863Y-79570834D01*
X161125862Y-79570834D01*
X161125861Y-79570833D01*
X160650720Y-79253354D01*
X160246646Y-78849280D01*
X159929167Y-78374139D01*
X159852149Y-78188201D01*
X159710483Y-77846189D01*
X159599000Y-77285725D01*
X159599000Y-76714275D01*
X159710483Y-76153811D01*
X159929166Y-75625863D01*
X159929167Y-75625861D01*
X160246646Y-75150720D01*
X160650720Y-74746646D01*
X161125861Y-74429167D01*
X161653809Y-74210484D01*
X161653808Y-74210484D01*
X161653811Y-74210483D01*
X162214275Y-74099000D01*
X162785725Y-74099000D01*
X163346189Y-74210483D01*
G37*
G36*
X58346189Y-74210483D02*
G01*
X58346192Y-74210484D01*
X58346191Y-74210484D01*
X58874139Y-74429167D01*
X59349280Y-74746646D01*
X59753354Y-75150720D01*
X60070833Y-75625861D01*
X60070834Y-75625863D01*
X60289517Y-76153811D01*
X60401000Y-76714275D01*
X60401000Y-77285725D01*
X60289517Y-77846189D01*
X60147851Y-78188201D01*
X60070833Y-78374139D01*
X59753354Y-78849280D01*
X59349280Y-79253354D01*
X58874139Y-79570833D01*
X58874138Y-79570834D01*
X58874137Y-79570834D01*
X58346189Y-79789517D01*
X57785725Y-79901000D01*
X57214275Y-79901000D01*
X56653811Y-79789517D01*
X56125863Y-79570834D01*
X56125862Y-79570834D01*
X56125861Y-79570833D01*
X55650720Y-79253354D01*
X55246646Y-78849280D01*
X54929167Y-78374139D01*
X54852149Y-78188201D01*
X54710483Y-77846189D01*
X54599000Y-77285725D01*
X54599000Y-76714275D01*
X54710483Y-76153811D01*
X54929166Y-75625863D01*
X54929167Y-75625861D01*
X55246646Y-75150720D01*
X55650720Y-74746646D01*
X56125861Y-74429167D01*
X56653809Y-74210484D01*
X56653808Y-74210484D01*
X56653811Y-74210483D01*
X57214275Y-74099000D01*
X57785725Y-74099000D01*
X58346189Y-74210483D01*
G37*
G36*
X146621823Y-77391313D02*
G01*
X146782242Y-77439976D01*
X146867875Y-77485748D01*
X146930078Y-77518996D01*
X147059659Y-77625341D01*
X147166004Y-77754922D01*
X147166005Y-77754924D01*
X147245024Y-77902758D01*
X147293687Y-78063178D01*
X147306000Y-78188197D01*
X147306000Y-78671804D01*
X147293687Y-78796823D01*
X147245024Y-78957242D01*
X147192504Y-79055500D01*
X147166004Y-79105078D01*
X147160438Y-79111860D01*
X147059659Y-79234659D01*
X146930077Y-79341005D01*
X146782241Y-79420024D01*
X146621822Y-79468687D01*
X146455000Y-79485117D01*
X146288177Y-79468687D01*
X146127758Y-79420024D01*
X145979924Y-79341005D01*
X145979922Y-79341004D01*
X145850341Y-79234659D01*
X145836942Y-79218332D01*
X145743995Y-79105077D01*
X145664976Y-78957241D01*
X145616313Y-78796822D01*
X145604000Y-78671803D01*
X145604000Y-78188196D01*
X145616313Y-78063177D01*
X145664976Y-77902758D01*
X145743995Y-77754924D01*
X145743996Y-77754922D01*
X145850342Y-77625341D01*
X145979923Y-77518996D01*
X146042126Y-77485748D01*
X146127759Y-77439976D01*
X146288178Y-77391313D01*
X146455000Y-77374883D01*
X146621823Y-77391313D01*
G37*
G36*
X128841823Y-77391313D02*
G01*
X129002242Y-77439976D01*
X129087875Y-77485748D01*
X129150078Y-77518996D01*
X129279659Y-77625341D01*
X129386004Y-77754922D01*
X129386005Y-77754924D01*
X129465024Y-77902758D01*
X129513687Y-78063178D01*
X129526000Y-78188197D01*
X129526000Y-78671804D01*
X129513687Y-78796823D01*
X129465024Y-78957242D01*
X129412504Y-79055500D01*
X129386004Y-79105078D01*
X129380438Y-79111860D01*
X129279659Y-79234659D01*
X129150077Y-79341005D01*
X129002241Y-79420024D01*
X128841822Y-79468687D01*
X128675000Y-79485117D01*
X128508177Y-79468687D01*
X128347758Y-79420024D01*
X128199924Y-79341005D01*
X128199922Y-79341004D01*
X128070341Y-79234659D01*
X128056942Y-79218332D01*
X127963995Y-79105077D01*
X127884976Y-78957241D01*
X127836313Y-78796822D01*
X127824000Y-78671803D01*
X127824000Y-78188196D01*
X127836313Y-78063177D01*
X127884976Y-77902758D01*
X127963995Y-77754924D01*
X127963996Y-77754922D01*
X128070342Y-77625341D01*
X128199923Y-77518996D01*
X128262126Y-77485748D01*
X128347759Y-77439976D01*
X128508178Y-77391313D01*
X128675000Y-77374883D01*
X128841823Y-77391313D01*
G37*
G36*
X133921823Y-77391313D02*
G01*
X134082242Y-77439976D01*
X134167875Y-77485748D01*
X134230078Y-77518996D01*
X134359659Y-77625341D01*
X134466004Y-77754922D01*
X134466005Y-77754924D01*
X134545024Y-77902758D01*
X134593687Y-78063178D01*
X134606000Y-78188197D01*
X134606000Y-78671804D01*
X134593687Y-78796823D01*
X134545024Y-78957242D01*
X134492504Y-79055500D01*
X134466004Y-79105078D01*
X134460438Y-79111860D01*
X134359659Y-79234659D01*
X134230077Y-79341005D01*
X134082241Y-79420024D01*
X133921822Y-79468687D01*
X133755000Y-79485117D01*
X133588177Y-79468687D01*
X133427758Y-79420024D01*
X133279924Y-79341005D01*
X133279922Y-79341004D01*
X133150341Y-79234659D01*
X133136942Y-79218332D01*
X133043995Y-79105077D01*
X132964976Y-78957241D01*
X132916313Y-78796822D01*
X132904000Y-78671803D01*
X132904000Y-78188196D01*
X132916313Y-78063177D01*
X132964976Y-77902758D01*
X133043995Y-77754924D01*
X133043996Y-77754922D01*
X133150342Y-77625341D01*
X133279923Y-77518996D01*
X133342126Y-77485748D01*
X133427759Y-77439976D01*
X133588178Y-77391313D01*
X133755000Y-77374883D01*
X133921823Y-77391313D01*
G37*
G36*
X136461823Y-77391313D02*
G01*
X136622242Y-77439976D01*
X136707875Y-77485748D01*
X136770078Y-77518996D01*
X136899659Y-77625341D01*
X137006004Y-77754922D01*
X137006005Y-77754924D01*
X137085024Y-77902758D01*
X137133687Y-78063178D01*
X137146000Y-78188197D01*
X137146000Y-78671804D01*
X137133687Y-78796823D01*
X137085024Y-78957242D01*
X137032504Y-79055500D01*
X137006004Y-79105078D01*
X137000438Y-79111860D01*
X136899659Y-79234659D01*
X136770077Y-79341005D01*
X136622241Y-79420024D01*
X136461822Y-79468687D01*
X136295000Y-79485117D01*
X136128177Y-79468687D01*
X135967758Y-79420024D01*
X135819924Y-79341005D01*
X135819922Y-79341004D01*
X135690341Y-79234659D01*
X135676942Y-79218332D01*
X135583995Y-79105077D01*
X135504976Y-78957241D01*
X135456313Y-78796822D01*
X135444000Y-78671803D01*
X135444000Y-78188196D01*
X135456313Y-78063177D01*
X135504976Y-77902758D01*
X135583995Y-77754924D01*
X135583996Y-77754922D01*
X135690342Y-77625341D01*
X135819923Y-77518996D01*
X135882126Y-77485748D01*
X135967759Y-77439976D01*
X136128178Y-77391313D01*
X136295000Y-77374883D01*
X136461823Y-77391313D01*
G37*
G36*
X139001823Y-77391313D02*
G01*
X139162242Y-77439976D01*
X139247875Y-77485748D01*
X139310078Y-77518996D01*
X139439659Y-77625341D01*
X139546004Y-77754922D01*
X139546005Y-77754924D01*
X139625024Y-77902758D01*
X139673687Y-78063178D01*
X139686000Y-78188197D01*
X139686000Y-78671804D01*
X139673687Y-78796823D01*
X139625024Y-78957242D01*
X139572504Y-79055500D01*
X139546004Y-79105078D01*
X139540438Y-79111860D01*
X139439659Y-79234659D01*
X139310077Y-79341005D01*
X139162241Y-79420024D01*
X139001822Y-79468687D01*
X138835000Y-79485117D01*
X138668177Y-79468687D01*
X138507758Y-79420024D01*
X138359924Y-79341005D01*
X138359922Y-79341004D01*
X138230341Y-79234659D01*
X138216942Y-79218332D01*
X138123995Y-79105077D01*
X138044976Y-78957241D01*
X137996313Y-78796822D01*
X137984000Y-78671803D01*
X137984000Y-78188196D01*
X137996313Y-78063177D01*
X138044976Y-77902758D01*
X138123995Y-77754924D01*
X138123996Y-77754922D01*
X138230342Y-77625341D01*
X138359923Y-77518996D01*
X138422126Y-77485748D01*
X138507759Y-77439976D01*
X138668178Y-77391313D01*
X138835000Y-77374883D01*
X139001823Y-77391313D01*
G37*
G36*
X141541823Y-77391313D02*
G01*
X141702242Y-77439976D01*
X141787875Y-77485748D01*
X141850078Y-77518996D01*
X141979659Y-77625341D01*
X142086004Y-77754922D01*
X142086005Y-77754924D01*
X142165024Y-77902758D01*
X142213687Y-78063178D01*
X142226000Y-78188197D01*
X142226000Y-78671804D01*
X142213687Y-78796823D01*
X142165024Y-78957242D01*
X142112504Y-79055500D01*
X142086004Y-79105078D01*
X142080438Y-79111860D01*
X141979659Y-79234659D01*
X141850077Y-79341005D01*
X141702241Y-79420024D01*
X141541822Y-79468687D01*
X141375000Y-79485117D01*
X141208177Y-79468687D01*
X141047758Y-79420024D01*
X140899924Y-79341005D01*
X140899922Y-79341004D01*
X140770341Y-79234659D01*
X140756942Y-79218332D01*
X140663995Y-79105077D01*
X140584976Y-78957241D01*
X140536313Y-78796822D01*
X140524000Y-78671803D01*
X140524000Y-78188196D01*
X140536313Y-78063177D01*
X140584976Y-77902758D01*
X140663995Y-77754924D01*
X140663996Y-77754922D01*
X140770342Y-77625341D01*
X140899923Y-77518996D01*
X140962126Y-77485748D01*
X141047759Y-77439976D01*
X141208178Y-77391313D01*
X141375000Y-77374883D01*
X141541823Y-77391313D01*
G37*
G36*
X144081823Y-77391313D02*
G01*
X144242242Y-77439976D01*
X144327875Y-77485748D01*
X144390078Y-77518996D01*
X144519659Y-77625341D01*
X144626004Y-77754922D01*
X144626005Y-77754924D01*
X144705024Y-77902758D01*
X144753687Y-78063178D01*
X144766000Y-78188197D01*
X144766000Y-78671804D01*
X144753687Y-78796823D01*
X144705024Y-78957242D01*
X144652504Y-79055500D01*
X144626004Y-79105078D01*
X144620438Y-79111860D01*
X144519659Y-79234659D01*
X144390077Y-79341005D01*
X144242241Y-79420024D01*
X144081822Y-79468687D01*
X143915000Y-79485117D01*
X143748177Y-79468687D01*
X143587758Y-79420024D01*
X143439924Y-79341005D01*
X143439922Y-79341004D01*
X143310341Y-79234659D01*
X143296942Y-79218332D01*
X143203995Y-79105077D01*
X143124976Y-78957241D01*
X143076313Y-78796822D01*
X143064000Y-78671803D01*
X143064000Y-78188196D01*
X143076313Y-78063177D01*
X143124976Y-77902758D01*
X143203995Y-77754924D01*
X143203996Y-77754922D01*
X143310342Y-77625341D01*
X143439923Y-77518996D01*
X143502126Y-77485748D01*
X143587759Y-77439976D01*
X143748178Y-77391313D01*
X143915000Y-77374883D01*
X144081823Y-77391313D01*
G37*
G36*
X131773698Y-77386568D02*
G01*
X131841685Y-77407192D01*
X131904335Y-77440679D01*
X131959252Y-77485748D01*
X132004321Y-77540665D01*
X132037808Y-77603315D01*
X132058432Y-77671302D01*
X132066000Y-77748140D01*
X132066000Y-79111860D01*
X132058432Y-79188698D01*
X132037808Y-79256685D01*
X132004321Y-79319335D01*
X131959252Y-79374252D01*
X131904335Y-79419321D01*
X131841685Y-79452808D01*
X131773698Y-79473432D01*
X131696860Y-79481000D01*
X130733140Y-79481000D01*
X130656302Y-79473432D01*
X130588315Y-79452808D01*
X130525665Y-79419321D01*
X130470748Y-79374252D01*
X130425679Y-79319335D01*
X130392192Y-79256685D01*
X130371568Y-79188698D01*
X130364000Y-79111860D01*
X130364000Y-77748140D01*
X130371568Y-77671302D01*
X130392192Y-77603315D01*
X130425679Y-77540665D01*
X130470748Y-77485748D01*
X130525665Y-77440679D01*
X130588315Y-77407192D01*
X130656302Y-77386568D01*
X130733140Y-77379000D01*
X131696860Y-77379000D01*
X131773698Y-77386568D01*
G37*
G36*
X72884512Y-69903927D02*
G01*
X73033812Y-69933624D01*
X73197784Y-70001544D01*
X73345354Y-70100147D01*
X73470853Y-70225646D01*
X73569456Y-70373216D01*
X73637376Y-70537188D01*
X73672000Y-70711259D01*
X73672000Y-70888741D01*
X73637376Y-71062812D01*
X73569456Y-71226784D01*
X73470853Y-71374354D01*
X73345354Y-71499853D01*
X73197784Y-71598456D01*
X73033812Y-71666376D01*
X72884512Y-71696073D01*
X72859742Y-71701000D01*
X72682258Y-71701000D01*
X72657488Y-71696073D01*
X72508188Y-71666376D01*
X72344216Y-71598456D01*
X72196646Y-71499853D01*
X72071147Y-71374354D01*
X71972544Y-71226784D01*
X71904624Y-71062812D01*
X71870000Y-70888741D01*
X71870000Y-70711259D01*
X71904624Y-70537188D01*
X71972544Y-70373216D01*
X72071147Y-70225646D01*
X72196646Y-70100147D01*
X72344216Y-70001544D01*
X72508188Y-69933624D01*
X72657488Y-69903927D01*
X72682258Y-69899000D01*
X72859742Y-69899000D01*
X72884512Y-69903927D01*
G37*
G36*
X72884512Y-67363927D02*
G01*
X73033812Y-67393624D01*
X73197784Y-67461544D01*
X73345354Y-67560147D01*
X73470853Y-67685646D01*
X73569456Y-67833216D01*
X73637376Y-67997188D01*
X73672000Y-68171259D01*
X73672000Y-68348741D01*
X73637376Y-68522812D01*
X73569456Y-68686784D01*
X73470853Y-68834354D01*
X73345354Y-68959853D01*
X73197784Y-69058456D01*
X73033812Y-69126376D01*
X72884512Y-69156073D01*
X72859742Y-69161000D01*
X72682258Y-69161000D01*
X72657488Y-69156073D01*
X72508188Y-69126376D01*
X72344216Y-69058456D01*
X72196646Y-68959853D01*
X72071147Y-68834354D01*
X71972544Y-68686784D01*
X71904624Y-68522812D01*
X71870000Y-68348741D01*
X71870000Y-68171259D01*
X71904624Y-67997188D01*
X71972544Y-67833216D01*
X72071147Y-67685646D01*
X72196646Y-67560147D01*
X72344216Y-67461544D01*
X72508188Y-67393624D01*
X72657488Y-67363927D01*
X72682258Y-67359000D01*
X72859742Y-67359000D01*
X72884512Y-67363927D01*
G37*
G36*
X72884512Y-64823927D02*
G01*
X73033812Y-64853624D01*
X73197784Y-64921544D01*
X73345354Y-65020147D01*
X73470853Y-65145646D01*
X73569456Y-65293216D01*
X73637376Y-65457188D01*
X73672000Y-65631259D01*
X73672000Y-65808741D01*
X73637376Y-65982812D01*
X73569456Y-66146784D01*
X73470853Y-66294354D01*
X73345354Y-66419853D01*
X73197784Y-66518456D01*
X73033812Y-66586376D01*
X72884512Y-66616073D01*
X72859742Y-66621000D01*
X72682258Y-66621000D01*
X72657488Y-66616073D01*
X72508188Y-66586376D01*
X72344216Y-66518456D01*
X72196646Y-66419853D01*
X72071147Y-66294354D01*
X71972544Y-66146784D01*
X71904624Y-65982812D01*
X71870000Y-65808741D01*
X71870000Y-65631259D01*
X71904624Y-65457188D01*
X71972544Y-65293216D01*
X72071147Y-65145646D01*
X72196646Y-65020147D01*
X72344216Y-64921544D01*
X72508188Y-64853624D01*
X72657488Y-64823927D01*
X72682258Y-64819000D01*
X72859742Y-64819000D01*
X72884512Y-64823927D01*
G37*
G36*
X73359578Y-62287048D02*
G01*
X73432249Y-62309093D01*
X73499225Y-62344892D01*
X73557930Y-62393070D01*
X73606108Y-62451775D01*
X73641907Y-62518751D01*
X73663952Y-62591422D01*
X73672000Y-62673140D01*
X73672000Y-63686860D01*
X73663952Y-63768578D01*
X73641907Y-63841249D01*
X73606108Y-63908225D01*
X73557930Y-63966930D01*
X73499225Y-64015108D01*
X73432249Y-64050907D01*
X73359578Y-64072952D01*
X73277860Y-64081000D01*
X72264140Y-64081000D01*
X72182422Y-64072952D01*
X72109751Y-64050907D01*
X72042775Y-64015108D01*
X71984070Y-63966930D01*
X71935892Y-63908225D01*
X71900093Y-63841249D01*
X71878048Y-63768578D01*
X71870000Y-63686860D01*
X71870000Y-62673140D01*
X71878048Y-62591422D01*
X71900093Y-62518751D01*
X71935892Y-62451775D01*
X71984070Y-62393070D01*
X72042775Y-62344892D01*
X72109751Y-62309093D01*
X72182422Y-62287048D01*
X72264140Y-62279000D01*
X73277860Y-62279000D01*
X73359578Y-62287048D01*
G37*
G36*
X58346189Y-54210483D02*
G01*
X58346192Y-54210484D01*
X58346191Y-54210484D01*
X58874139Y-54429167D01*
X59349280Y-54746646D01*
X59753354Y-55150720D01*
X60070833Y-55625861D01*
X60070834Y-55625863D01*
X60289517Y-56153811D01*
X60401000Y-56714275D01*
X60401000Y-57285725D01*
X60289517Y-57846189D01*
X60289516Y-57846191D01*
X60070833Y-58374139D01*
X59753354Y-58849280D01*
X59349280Y-59253354D01*
X58874139Y-59570833D01*
X58874138Y-59570834D01*
X58874137Y-59570834D01*
X58346189Y-59789517D01*
X57785725Y-59901000D01*
X57214275Y-59901000D01*
X56653811Y-59789517D01*
X56125863Y-59570834D01*
X56125862Y-59570834D01*
X56125861Y-59570833D01*
X55650720Y-59253354D01*
X55246646Y-58849280D01*
X54929167Y-58374139D01*
X54710484Y-57846191D01*
X54710483Y-57846189D01*
X54599000Y-57285725D01*
X54599000Y-56714275D01*
X54710483Y-56153811D01*
X54929166Y-55625863D01*
X54929167Y-55625861D01*
X55246646Y-55150720D01*
X55650720Y-54746646D01*
X56125861Y-54429167D01*
X56653809Y-54210484D01*
X56653808Y-54210484D01*
X56653811Y-54210483D01*
X57214275Y-54099000D01*
X57785725Y-54099000D01*
X58346189Y-54210483D01*
G37*
G36*
X163346189Y-54210483D02*
G01*
X163346192Y-54210484D01*
X163346191Y-54210484D01*
X163874139Y-54429167D01*
X164349280Y-54746646D01*
X164753354Y-55150720D01*
X165070833Y-55625861D01*
X165070834Y-55625863D01*
X165289517Y-56153811D01*
X165401000Y-56714275D01*
X165401000Y-57285725D01*
X165289517Y-57846189D01*
X165289516Y-57846191D01*
X165070833Y-58374139D01*
X164753354Y-58849280D01*
X164349280Y-59253354D01*
X163874139Y-59570833D01*
X163874138Y-59570834D01*
X163874137Y-59570834D01*
X163346189Y-59789517D01*
X162785725Y-59901000D01*
X162214275Y-59901000D01*
X161653811Y-59789517D01*
X161125863Y-59570834D01*
X161125862Y-59570834D01*
X161125861Y-59570833D01*
X160650720Y-59253354D01*
X160246646Y-58849280D01*
X159929167Y-58374139D01*
X159710484Y-57846191D01*
X159710483Y-57846189D01*
X159599000Y-57285725D01*
X159599000Y-56714275D01*
X159710483Y-56153811D01*
X159929166Y-55625863D01*
X159929167Y-55625861D01*
X160246646Y-55150720D01*
X160650720Y-54746646D01*
X161125861Y-54429167D01*
X161653809Y-54210484D01*
X161653808Y-54210484D01*
X161653811Y-54210483D01*
X162214275Y-54099000D01*
X162785725Y-54099000D01*
X163346189Y-54210483D01*
G37*
G36*
X128841823Y-54531313D02*
G01*
X129002242Y-54579976D01*
X129134906Y-54650886D01*
X129150078Y-54658996D01*
X129279659Y-54765341D01*
X129386004Y-54894922D01*
X129386005Y-54894924D01*
X129465024Y-55042758D01*
X129513687Y-55203178D01*
X129526000Y-55328197D01*
X129526000Y-55811804D01*
X129513687Y-55936823D01*
X129465024Y-56097242D01*
X129434788Y-56153809D01*
X129386004Y-56245078D01*
X129279659Y-56374659D01*
X129150077Y-56481005D01*
X129002241Y-56560024D01*
X128841822Y-56608687D01*
X128675000Y-56625117D01*
X128508177Y-56608687D01*
X128347758Y-56560024D01*
X128199924Y-56481005D01*
X128199922Y-56481004D01*
X128070341Y-56374659D01*
X127963995Y-56245077D01*
X127884976Y-56097241D01*
X127836313Y-55936822D01*
X127824000Y-55811803D01*
X127824000Y-55328196D01*
X127836313Y-55203177D01*
X127884976Y-55042758D01*
X127963995Y-54894924D01*
X127963996Y-54894922D01*
X128070342Y-54765341D01*
X128199923Y-54658996D01*
X128215095Y-54650886D01*
X128347759Y-54579976D01*
X128508178Y-54531313D01*
X128675000Y-54514883D01*
X128841823Y-54531313D01*
G37*
G36*
X131381823Y-54531313D02*
G01*
X131542242Y-54579976D01*
X131674906Y-54650886D01*
X131690078Y-54658996D01*
X131819659Y-54765341D01*
X131926004Y-54894922D01*
X131926005Y-54894924D01*
X132005024Y-55042758D01*
X132053687Y-55203178D01*
X132066000Y-55328197D01*
X132066000Y-55811804D01*
X132053687Y-55936823D01*
X132005024Y-56097242D01*
X131974788Y-56153809D01*
X131926004Y-56245078D01*
X131819659Y-56374659D01*
X131690077Y-56481005D01*
X131542241Y-56560024D01*
X131381822Y-56608687D01*
X131215000Y-56625117D01*
X131048177Y-56608687D01*
X130887758Y-56560024D01*
X130739924Y-56481005D01*
X130739922Y-56481004D01*
X130610341Y-56374659D01*
X130503995Y-56245077D01*
X130424976Y-56097241D01*
X130376313Y-55936822D01*
X130364000Y-55811803D01*
X130364000Y-55328196D01*
X130376313Y-55203177D01*
X130424976Y-55042758D01*
X130503995Y-54894924D01*
X130503996Y-54894922D01*
X130610342Y-54765341D01*
X130739923Y-54658996D01*
X130755095Y-54650886D01*
X130887759Y-54579976D01*
X131048178Y-54531313D01*
X131215000Y-54514883D01*
X131381823Y-54531313D01*
G37*
G36*
X133921823Y-54531313D02*
G01*
X134082242Y-54579976D01*
X134214906Y-54650886D01*
X134230078Y-54658996D01*
X134359659Y-54765341D01*
X134466004Y-54894922D01*
X134466005Y-54894924D01*
X134545024Y-55042758D01*
X134593687Y-55203178D01*
X134606000Y-55328197D01*
X134606000Y-55811804D01*
X134593687Y-55936823D01*
X134545024Y-56097242D01*
X134514788Y-56153809D01*
X134466004Y-56245078D01*
X134359659Y-56374659D01*
X134230077Y-56481005D01*
X134082241Y-56560024D01*
X133921822Y-56608687D01*
X133755000Y-56625117D01*
X133588177Y-56608687D01*
X133427758Y-56560024D01*
X133279924Y-56481005D01*
X133279922Y-56481004D01*
X133150341Y-56374659D01*
X133043995Y-56245077D01*
X132964976Y-56097241D01*
X132916313Y-55936822D01*
X132904000Y-55811803D01*
X132904000Y-55328196D01*
X132916313Y-55203177D01*
X132964976Y-55042758D01*
X133043995Y-54894924D01*
X133043996Y-54894922D01*
X133150342Y-54765341D01*
X133279923Y-54658996D01*
X133295095Y-54650886D01*
X133427759Y-54579976D01*
X133588178Y-54531313D01*
X133755000Y-54514883D01*
X133921823Y-54531313D01*
G37*
G36*
X139001823Y-54531313D02*
G01*
X139162242Y-54579976D01*
X139294906Y-54650886D01*
X139310078Y-54658996D01*
X139439659Y-54765341D01*
X139546004Y-54894922D01*
X139546005Y-54894924D01*
X139625024Y-55042758D01*
X139673687Y-55203178D01*
X139686000Y-55328197D01*
X139686000Y-55811804D01*
X139673687Y-55936823D01*
X139625024Y-56097242D01*
X139594788Y-56153809D01*
X139546004Y-56245078D01*
X139439659Y-56374659D01*
X139310077Y-56481005D01*
X139162241Y-56560024D01*
X139001822Y-56608687D01*
X138835000Y-56625117D01*
X138668177Y-56608687D01*
X138507758Y-56560024D01*
X138359924Y-56481005D01*
X138359922Y-56481004D01*
X138230341Y-56374659D01*
X138123995Y-56245077D01*
X138044976Y-56097241D01*
X137996313Y-55936822D01*
X137984000Y-55811803D01*
X137984000Y-55328196D01*
X137996313Y-55203177D01*
X138044976Y-55042758D01*
X138123995Y-54894924D01*
X138123996Y-54894922D01*
X138230342Y-54765341D01*
X138359923Y-54658996D01*
X138375095Y-54650886D01*
X138507759Y-54579976D01*
X138668178Y-54531313D01*
X138835000Y-54514883D01*
X139001823Y-54531313D01*
G37*
G36*
X136461823Y-54531313D02*
G01*
X136622242Y-54579976D01*
X136754906Y-54650886D01*
X136770078Y-54658996D01*
X136899659Y-54765341D01*
X137006004Y-54894922D01*
X137006005Y-54894924D01*
X137085024Y-55042758D01*
X137133687Y-55203178D01*
X137146000Y-55328197D01*
X137146000Y-55811804D01*
X137133687Y-55936823D01*
X137085024Y-56097242D01*
X137054788Y-56153809D01*
X137006004Y-56245078D01*
X136899659Y-56374659D01*
X136770077Y-56481005D01*
X136622241Y-56560024D01*
X136461822Y-56608687D01*
X136295000Y-56625117D01*
X136128177Y-56608687D01*
X135967758Y-56560024D01*
X135819924Y-56481005D01*
X135819922Y-56481004D01*
X135690341Y-56374659D01*
X135583995Y-56245077D01*
X135504976Y-56097241D01*
X135456313Y-55936822D01*
X135444000Y-55811803D01*
X135444000Y-55328196D01*
X135456313Y-55203177D01*
X135504976Y-55042758D01*
X135583995Y-54894924D01*
X135583996Y-54894922D01*
X135690342Y-54765341D01*
X135819923Y-54658996D01*
X135835095Y-54650886D01*
X135967759Y-54579976D01*
X136128178Y-54531313D01*
X136295000Y-54514883D01*
X136461823Y-54531313D01*
G37*
G36*
X146621823Y-54531313D02*
G01*
X146782242Y-54579976D01*
X146914906Y-54650886D01*
X146930078Y-54658996D01*
X147059659Y-54765341D01*
X147166004Y-54894922D01*
X147166005Y-54894924D01*
X147245024Y-55042758D01*
X147293687Y-55203178D01*
X147306000Y-55328197D01*
X147306000Y-55811804D01*
X147293687Y-55936823D01*
X147245024Y-56097242D01*
X147214788Y-56153809D01*
X147166004Y-56245078D01*
X147059659Y-56374659D01*
X146930077Y-56481005D01*
X146782241Y-56560024D01*
X146621822Y-56608687D01*
X146455000Y-56625117D01*
X146288177Y-56608687D01*
X146127758Y-56560024D01*
X145979924Y-56481005D01*
X145979922Y-56481004D01*
X145850341Y-56374659D01*
X145743995Y-56245077D01*
X145664976Y-56097241D01*
X145616313Y-55936822D01*
X145604000Y-55811803D01*
X145604000Y-55328196D01*
X145616313Y-55203177D01*
X145664976Y-55042758D01*
X145743995Y-54894924D01*
X145743996Y-54894922D01*
X145850342Y-54765341D01*
X145979923Y-54658996D01*
X145995095Y-54650886D01*
X146127759Y-54579976D01*
X146288178Y-54531313D01*
X146455000Y-54514883D01*
X146621823Y-54531313D01*
G37*
G36*
X144081823Y-54531313D02*
G01*
X144242242Y-54579976D01*
X144374906Y-54650886D01*
X144390078Y-54658996D01*
X144519659Y-54765341D01*
X144626004Y-54894922D01*
X144626005Y-54894924D01*
X144705024Y-55042758D01*
X144753687Y-55203178D01*
X144766000Y-55328197D01*
X144766000Y-55811804D01*
X144753687Y-55936823D01*
X144705024Y-56097242D01*
X144674788Y-56153809D01*
X144626004Y-56245078D01*
X144519659Y-56374659D01*
X144390077Y-56481005D01*
X144242241Y-56560024D01*
X144081822Y-56608687D01*
X143915000Y-56625117D01*
X143748177Y-56608687D01*
X143587758Y-56560024D01*
X143439924Y-56481005D01*
X143439922Y-56481004D01*
X143310341Y-56374659D01*
X143203995Y-56245077D01*
X143124976Y-56097241D01*
X143076313Y-55936822D01*
X143064000Y-55811803D01*
X143064000Y-55328196D01*
X143076313Y-55203177D01*
X143124976Y-55042758D01*
X143203995Y-54894924D01*
X143203996Y-54894922D01*
X143310342Y-54765341D01*
X143439923Y-54658996D01*
X143455095Y-54650886D01*
X143587759Y-54579976D01*
X143748178Y-54531313D01*
X143915000Y-54514883D01*
X144081823Y-54531313D01*
G37*
G36*
X141541823Y-54531313D02*
G01*
X141702242Y-54579976D01*
X141834906Y-54650886D01*
X141850078Y-54658996D01*
X141979659Y-54765341D01*
X142086004Y-54894922D01*
X142086005Y-54894924D01*
X142165024Y-55042758D01*
X142213687Y-55203178D01*
X142226000Y-55328197D01*
X142226000Y-55811804D01*
X142213687Y-55936823D01*
X142165024Y-56097242D01*
X142134788Y-56153809D01*
X142086004Y-56245078D01*
X141979659Y-56374659D01*
X141850077Y-56481005D01*
X141702241Y-56560024D01*
X141541822Y-56608687D01*
X141375000Y-56625117D01*
X141208177Y-56608687D01*
X141047758Y-56560024D01*
X140899924Y-56481005D01*
X140899922Y-56481004D01*
X140770341Y-56374659D01*
X140663995Y-56245077D01*
X140584976Y-56097241D01*
X140536313Y-55936822D01*
X140524000Y-55811803D01*
X140524000Y-55328196D01*
X140536313Y-55203177D01*
X140584976Y-55042758D01*
X140663995Y-54894924D01*
X140663996Y-54894922D01*
X140770342Y-54765341D01*
X140899923Y-54658996D01*
X140915095Y-54650886D01*
X141047759Y-54579976D01*
X141208178Y-54531313D01*
X141375000Y-54514883D01*
X141541823Y-54531313D01*
G37*
G36*
X136408512Y-51473927D02*
G01*
X136557812Y-51503624D01*
X136721784Y-51571544D01*
X136869354Y-51670147D01*
X136994853Y-51795646D01*
X137093456Y-51943216D01*
X137161376Y-52107188D01*
X137196000Y-52281259D01*
X137196000Y-52458741D01*
X137161376Y-52632812D01*
X137093456Y-52796784D01*
X136994853Y-52944354D01*
X136869354Y-53069853D01*
X136721784Y-53168456D01*
X136557812Y-53236376D01*
X136408512Y-53266073D01*
X136383742Y-53271000D01*
X136206258Y-53271000D01*
X136181488Y-53266073D01*
X136032188Y-53236376D01*
X135868216Y-53168456D01*
X135720646Y-53069853D01*
X135595147Y-52944354D01*
X135496544Y-52796784D01*
X135428624Y-52632812D01*
X135394000Y-52458741D01*
X135394000Y-52281259D01*
X135428624Y-52107188D01*
X135496544Y-51943216D01*
X135595147Y-51795646D01*
X135720646Y-51670147D01*
X135868216Y-51571544D01*
X136032188Y-51503624D01*
X136181488Y-51473927D01*
X136206258Y-51469000D01*
X136383742Y-51469000D01*
X136408512Y-51473927D01*
G37*
G36*
X128788512Y-51473927D02*
G01*
X128937812Y-51503624D01*
X129101784Y-51571544D01*
X129249354Y-51670147D01*
X129374853Y-51795646D01*
X129473456Y-51943216D01*
X129541376Y-52107188D01*
X129576000Y-52281259D01*
X129576000Y-52458741D01*
X129541376Y-52632812D01*
X129473456Y-52796784D01*
X129374853Y-52944354D01*
X129249354Y-53069853D01*
X129101784Y-53168456D01*
X128937812Y-53236376D01*
X128788512Y-53266073D01*
X128763742Y-53271000D01*
X128586258Y-53271000D01*
X128561488Y-53266073D01*
X128412188Y-53236376D01*
X128248216Y-53168456D01*
X128100646Y-53069853D01*
X127975147Y-52944354D01*
X127876544Y-52796784D01*
X127808624Y-52632812D01*
X127774000Y-52458741D01*
X127774000Y-52281259D01*
X127808624Y-52107188D01*
X127876544Y-51943216D01*
X127975147Y-51795646D01*
X128100646Y-51670147D01*
X128248216Y-51571544D01*
X128412188Y-51503624D01*
X128561488Y-51473927D01*
X128586258Y-51469000D01*
X128763742Y-51469000D01*
X128788512Y-51473927D01*
G37*
G36*
X131328512Y-51473927D02*
G01*
X131477812Y-51503624D01*
X131641784Y-51571544D01*
X131789354Y-51670147D01*
X131914853Y-51795646D01*
X132013456Y-51943216D01*
X132081376Y-52107188D01*
X132116000Y-52281259D01*
X132116000Y-52458741D01*
X132081376Y-52632812D01*
X132013456Y-52796784D01*
X131914853Y-52944354D01*
X131789354Y-53069853D01*
X131641784Y-53168456D01*
X131477812Y-53236376D01*
X131328512Y-53266073D01*
X131303742Y-53271000D01*
X131126258Y-53271000D01*
X131101488Y-53266073D01*
X130952188Y-53236376D01*
X130788216Y-53168456D01*
X130640646Y-53069853D01*
X130515147Y-52944354D01*
X130416544Y-52796784D01*
X130348624Y-52632812D01*
X130314000Y-52458741D01*
X130314000Y-52281259D01*
X130348624Y-52107188D01*
X130416544Y-51943216D01*
X130515147Y-51795646D01*
X130640646Y-51670147D01*
X130788216Y-51571544D01*
X130952188Y-51503624D01*
X131101488Y-51473927D01*
X131126258Y-51469000D01*
X131303742Y-51469000D01*
X131328512Y-51473927D01*
G37*
G36*
X133868512Y-51473927D02*
G01*
X134017812Y-51503624D01*
X134181784Y-51571544D01*
X134329354Y-51670147D01*
X134454853Y-51795646D01*
X134553456Y-51943216D01*
X134621376Y-52107188D01*
X134656000Y-52281259D01*
X134656000Y-52458741D01*
X134621376Y-52632812D01*
X134553456Y-52796784D01*
X134454853Y-52944354D01*
X134329354Y-53069853D01*
X134181784Y-53168456D01*
X134017812Y-53236376D01*
X133868512Y-53266073D01*
X133843742Y-53271000D01*
X133666258Y-53271000D01*
X133641488Y-53266073D01*
X133492188Y-53236376D01*
X133328216Y-53168456D01*
X133180646Y-53069853D01*
X133055147Y-52944354D01*
X132956544Y-52796784D01*
X132888624Y-52632812D01*
X132854000Y-52458741D01*
X132854000Y-52281259D01*
X132888624Y-52107188D01*
X132956544Y-51943216D01*
X133055147Y-51795646D01*
X133180646Y-51670147D01*
X133328216Y-51571544D01*
X133492188Y-51503624D01*
X133641488Y-51473927D01*
X133666258Y-51469000D01*
X133843742Y-51469000D01*
X133868512Y-51473927D01*
G37*
G36*
X146568512Y-51473927D02*
G01*
X146717812Y-51503624D01*
X146881784Y-51571544D01*
X147029354Y-51670147D01*
X147154853Y-51795646D01*
X147253456Y-51943216D01*
X147321376Y-52107188D01*
X147356000Y-52281259D01*
X147356000Y-52458741D01*
X147321376Y-52632812D01*
X147253456Y-52796784D01*
X147154853Y-52944354D01*
X147029354Y-53069853D01*
X146881784Y-53168456D01*
X146717812Y-53236376D01*
X146568512Y-53266073D01*
X146543742Y-53271000D01*
X146366258Y-53271000D01*
X146341488Y-53266073D01*
X146192188Y-53236376D01*
X146028216Y-53168456D01*
X145880646Y-53069853D01*
X145755147Y-52944354D01*
X145656544Y-52796784D01*
X145588624Y-52632812D01*
X145554000Y-52458741D01*
X145554000Y-52281259D01*
X145588624Y-52107188D01*
X145656544Y-51943216D01*
X145755147Y-51795646D01*
X145880646Y-51670147D01*
X146028216Y-51571544D01*
X146192188Y-51503624D01*
X146341488Y-51473927D01*
X146366258Y-51469000D01*
X146543742Y-51469000D01*
X146568512Y-51473927D01*
G37*
G36*
X144028512Y-51473927D02*
G01*
X144177812Y-51503624D01*
X144341784Y-51571544D01*
X144489354Y-51670147D01*
X144614853Y-51795646D01*
X144713456Y-51943216D01*
X144781376Y-52107188D01*
X144816000Y-52281259D01*
X144816000Y-52458741D01*
X144781376Y-52632812D01*
X144713456Y-52796784D01*
X144614853Y-52944354D01*
X144489354Y-53069853D01*
X144341784Y-53168456D01*
X144177812Y-53236376D01*
X144028512Y-53266073D01*
X144003742Y-53271000D01*
X143826258Y-53271000D01*
X143801488Y-53266073D01*
X143652188Y-53236376D01*
X143488216Y-53168456D01*
X143340646Y-53069853D01*
X143215147Y-52944354D01*
X143116544Y-52796784D01*
X143048624Y-52632812D01*
X143014000Y-52458741D01*
X143014000Y-52281259D01*
X143048624Y-52107188D01*
X143116544Y-51943216D01*
X143215147Y-51795646D01*
X143340646Y-51670147D01*
X143488216Y-51571544D01*
X143652188Y-51503624D01*
X143801488Y-51473927D01*
X143826258Y-51469000D01*
X144003742Y-51469000D01*
X144028512Y-51473927D01*
G37*
G36*
X141488512Y-51473927D02*
G01*
X141637812Y-51503624D01*
X141801784Y-51571544D01*
X141949354Y-51670147D01*
X142074853Y-51795646D01*
X142173456Y-51943216D01*
X142241376Y-52107188D01*
X142276000Y-52281259D01*
X142276000Y-52458741D01*
X142241376Y-52632812D01*
X142173456Y-52796784D01*
X142074853Y-52944354D01*
X141949354Y-53069853D01*
X141801784Y-53168456D01*
X141637812Y-53236376D01*
X141488512Y-53266073D01*
X141463742Y-53271000D01*
X141286258Y-53271000D01*
X141261488Y-53266073D01*
X141112188Y-53236376D01*
X140948216Y-53168456D01*
X140800646Y-53069853D01*
X140675147Y-52944354D01*
X140576544Y-52796784D01*
X140508624Y-52632812D01*
X140474000Y-52458741D01*
X140474000Y-52281259D01*
X140508624Y-52107188D01*
X140576544Y-51943216D01*
X140675147Y-51795646D01*
X140800646Y-51670147D01*
X140948216Y-51571544D01*
X141112188Y-51503624D01*
X141261488Y-51473927D01*
X141286258Y-51469000D01*
X141463742Y-51469000D01*
X141488512Y-51473927D01*
G37*
G36*
X138948512Y-51473927D02*
G01*
X139097812Y-51503624D01*
X139261784Y-51571544D01*
X139409354Y-51670147D01*
X139534853Y-51795646D01*
X139633456Y-51943216D01*
X139701376Y-52107188D01*
X139736000Y-52281259D01*
X139736000Y-52458741D01*
X139701376Y-52632812D01*
X139633456Y-52796784D01*
X139534853Y-52944354D01*
X139409354Y-53069853D01*
X139261784Y-53168456D01*
X139097812Y-53236376D01*
X138948512Y-53266073D01*
X138923742Y-53271000D01*
X138746258Y-53271000D01*
X138721488Y-53266073D01*
X138572188Y-53236376D01*
X138408216Y-53168456D01*
X138260646Y-53069853D01*
X138135147Y-52944354D01*
X138036544Y-52796784D01*
X137968624Y-52632812D01*
X137934000Y-52458741D01*
X137934000Y-52281259D01*
X137968624Y-52107188D01*
X138036544Y-51943216D01*
X138135147Y-51795646D01*
X138260646Y-51670147D01*
X138408216Y-51571544D01*
X138572188Y-51503624D01*
X138721488Y-51473927D01*
X138746258Y-51469000D01*
X138923742Y-51469000D01*
X138948512Y-51473927D01*
G37*
M02*
