G04 #@! TF.GenerationSoftware,KiCad,Pcbnew,5.1.5+dfsg1-2build2*
G04 #@! TF.CreationDate,2020-06-04T23:38:43+02:00*
G04 #@! TF.ProjectId,termint-wifi,7465726d-696e-4742-9d77-6966692e6b69,rev?*
G04 #@! TF.SameCoordinates,Original*
G04 #@! TF.FileFunction,Legend,Top*
G04 #@! TF.FilePolarity,Positive*
%FSLAX46Y46*%
G04 Gerber Fmt 4.6, Leading zero omitted, Abs format (unit mm)*
G04 Created by KiCad (PCBNEW 5.1.5+dfsg1-2build2) date 2020-06-04 23:38:43*
%MOMM*%
%LPD*%
G04 APERTURE LIST*
%ADD10C,0.150000*%
%ADD11C,0.120000*%
%ADD12C,0.010000*%
G04 APERTURE END LIST*
D10*
X96506357Y-55205380D02*
X96744452Y-56205380D01*
X96934928Y-55491095D01*
X97125404Y-56205380D01*
X97363500Y-55205380D01*
X97744452Y-55681571D02*
X98077785Y-55681571D01*
X98220642Y-56205380D02*
X97744452Y-56205380D01*
X97744452Y-55205380D01*
X98220642Y-55205380D01*
X98649214Y-56205380D02*
X98649214Y-55205380D01*
X98982547Y-55919666D01*
X99315880Y-55205380D01*
X99315880Y-56205380D01*
X99982547Y-55205380D02*
X100173023Y-55205380D01*
X100268261Y-55253000D01*
X100363500Y-55348238D01*
X100411119Y-55538714D01*
X100411119Y-55872047D01*
X100363500Y-56062523D01*
X100268261Y-56157761D01*
X100173023Y-56205380D01*
X99982547Y-56205380D01*
X99887309Y-56157761D01*
X99792071Y-56062523D01*
X99744452Y-55872047D01*
X99744452Y-55538714D01*
X99792071Y-55348238D01*
X99887309Y-55253000D01*
X99982547Y-55205380D01*
X100792071Y-56157761D02*
X100934928Y-56205380D01*
X101173023Y-56205380D01*
X101268261Y-56157761D01*
X101315880Y-56110142D01*
X101363500Y-56014904D01*
X101363500Y-55919666D01*
X101315880Y-55824428D01*
X101268261Y-55776809D01*
X101173023Y-55729190D01*
X100982547Y-55681571D01*
X100887309Y-55633952D01*
X100839690Y-55586333D01*
X100792071Y-55491095D01*
X100792071Y-55395857D01*
X100839690Y-55300619D01*
X100887309Y-55253000D01*
X100982547Y-55205380D01*
X101220642Y-55205380D01*
X101363500Y-55253000D01*
X106440119Y-64904761D02*
X106440119Y-64428571D01*
X107440119Y-64428571D01*
X106440119Y-65238095D02*
X107440119Y-65238095D01*
X107440119Y-65476190D01*
X107392500Y-65619047D01*
X107297261Y-65714285D01*
X107202023Y-65761904D01*
X107011547Y-65809523D01*
X106868690Y-65809523D01*
X106678214Y-65761904D01*
X106582976Y-65714285D01*
X106487738Y-65619047D01*
X106440119Y-65476190D01*
X106440119Y-65238095D01*
X106440119Y-66761904D02*
X106440119Y-66190476D01*
X106440119Y-66476190D02*
X107440119Y-66476190D01*
X107297261Y-66380952D01*
X107202023Y-66285714D01*
X107154404Y-66190476D01*
X106440119Y-67714285D02*
X106440119Y-67142857D01*
X106440119Y-67428571D02*
X107440119Y-67428571D01*
X107297261Y-67333333D01*
X107202023Y-67238095D01*
X107154404Y-67142857D01*
X106440119Y-68666666D02*
X106440119Y-68095238D01*
X106440119Y-68380952D02*
X107440119Y-68380952D01*
X107297261Y-68285714D01*
X107202023Y-68190476D01*
X107154404Y-68095238D01*
X107440119Y-69000000D02*
X107440119Y-69666666D01*
X106440119Y-69238095D01*
X84796285Y-55673824D02*
X83986761Y-55572633D01*
X83891523Y-55513110D01*
X83843904Y-55459538D01*
X83796285Y-55358348D01*
X83796285Y-55215491D01*
X83843904Y-55126205D01*
X84177238Y-55596443D02*
X84129619Y-55495252D01*
X84129619Y-55304776D01*
X84177238Y-55215491D01*
X84224857Y-55173824D01*
X84320095Y-55138110D01*
X84605809Y-55173824D01*
X84701047Y-55233348D01*
X84748666Y-55286919D01*
X84796285Y-55388110D01*
X84796285Y-55578586D01*
X84748666Y-55667872D01*
X84129619Y-56066681D02*
X84796285Y-56150014D01*
X85129619Y-56191681D02*
X85082000Y-56138110D01*
X85034380Y-56179776D01*
X85082000Y-56233348D01*
X85129619Y-56191681D01*
X85034380Y-56179776D01*
X84796285Y-56483348D02*
X84796285Y-56864300D01*
X85129619Y-56667872D02*
X84272476Y-56560729D01*
X84177238Y-56596443D01*
X84129619Y-56685729D01*
X84129619Y-56780967D01*
X84129619Y-57114300D02*
X85129619Y-57239300D01*
X84129619Y-57542872D02*
X84653428Y-57608348D01*
X84748666Y-57572633D01*
X84796285Y-57483348D01*
X84796285Y-57340491D01*
X84748666Y-57239300D01*
X84701047Y-57185729D01*
X84796285Y-58530967D02*
X84129619Y-58447633D01*
X84796285Y-58102395D02*
X84272476Y-58036919D01*
X84177238Y-58072633D01*
X84129619Y-58161919D01*
X84129619Y-58304776D01*
X84177238Y-58405967D01*
X84224857Y-58459538D01*
X84129619Y-58923824D02*
X85129619Y-59048824D01*
X84748666Y-59001205D02*
X84796285Y-59102395D01*
X84796285Y-59292872D01*
X84748666Y-59382157D01*
X84701047Y-59423824D01*
X84605809Y-59459538D01*
X84320095Y-59423824D01*
X84224857Y-59364300D01*
X84177238Y-59310729D01*
X84129619Y-59209538D01*
X84129619Y-59019062D01*
X84177238Y-58929776D01*
X84224857Y-59840491D02*
X84177238Y-59882157D01*
X84129619Y-59828586D01*
X84177238Y-59786919D01*
X84224857Y-59840491D01*
X84129619Y-59828586D01*
X84177238Y-60739300D02*
X84129619Y-60638110D01*
X84129619Y-60447633D01*
X84177238Y-60358348D01*
X84224857Y-60316681D01*
X84320095Y-60280967D01*
X84605809Y-60316681D01*
X84701047Y-60376205D01*
X84748666Y-60429776D01*
X84796285Y-60530967D01*
X84796285Y-60721443D01*
X84748666Y-60810729D01*
X84129619Y-61304776D02*
X84177238Y-61215491D01*
X84224857Y-61173824D01*
X84320095Y-61138110D01*
X84605809Y-61173824D01*
X84701047Y-61233348D01*
X84748666Y-61286919D01*
X84796285Y-61388110D01*
X84796285Y-61530967D01*
X84748666Y-61620252D01*
X84701047Y-61661919D01*
X84605809Y-61697633D01*
X84320095Y-61661919D01*
X84224857Y-61602395D01*
X84177238Y-61548824D01*
X84129619Y-61447633D01*
X84129619Y-61304776D01*
X84129619Y-62066681D02*
X84796285Y-62150014D01*
X84701047Y-62138110D02*
X84748666Y-62191681D01*
X84796285Y-62292872D01*
X84796285Y-62435729D01*
X84748666Y-62525014D01*
X84653428Y-62560729D01*
X84129619Y-62495252D01*
X84653428Y-62560729D02*
X84748666Y-62620252D01*
X84796285Y-62721443D01*
X84796285Y-62864300D01*
X84748666Y-62953586D01*
X84653428Y-62989300D01*
X84129619Y-62923824D01*
X85177238Y-64245252D02*
X83891523Y-63227395D01*
X84796285Y-64959538D02*
X84129619Y-64876205D01*
X84796285Y-64530967D02*
X84272476Y-64465491D01*
X84177238Y-64501205D01*
X84129619Y-64590491D01*
X84129619Y-64733348D01*
X84177238Y-64834538D01*
X84224857Y-64888110D01*
X84796285Y-65340491D02*
X84796285Y-65864300D01*
X84129619Y-65257157D01*
X84129619Y-65780967D01*
X84177238Y-66120252D02*
X84129619Y-66209538D01*
X84129619Y-66400014D01*
X84177238Y-66501205D01*
X84272476Y-66560729D01*
X84320095Y-66566681D01*
X84415333Y-66530967D01*
X84462952Y-66441681D01*
X84462952Y-66298824D01*
X84510571Y-66209538D01*
X84605809Y-66173824D01*
X84653428Y-66179776D01*
X84748666Y-66239300D01*
X84796285Y-66340491D01*
X84796285Y-66483348D01*
X84748666Y-66572633D01*
X84129619Y-66971443D02*
X84796285Y-67054776D01*
X85129619Y-67096443D02*
X85082000Y-67042872D01*
X85034380Y-67084538D01*
X85082000Y-67138110D01*
X85129619Y-67096443D01*
X85034380Y-67084538D01*
X84796285Y-67388110D02*
X84796285Y-67769062D01*
X85129619Y-67572633D02*
X84272476Y-67465491D01*
X84177238Y-67501205D01*
X84129619Y-67590491D01*
X84129619Y-67685729D01*
X84129619Y-68161919D02*
X84177238Y-68072633D01*
X84224857Y-68030967D01*
X84320095Y-67995252D01*
X84605809Y-68030967D01*
X84701047Y-68090491D01*
X84748666Y-68144062D01*
X84796285Y-68245252D01*
X84796285Y-68388110D01*
X84748666Y-68477395D01*
X84701047Y-68519062D01*
X84605809Y-68554776D01*
X84320095Y-68519062D01*
X84224857Y-68459538D01*
X84177238Y-68405967D01*
X84129619Y-68304776D01*
X84129619Y-68161919D01*
X85177238Y-69769062D02*
X83891523Y-68751205D01*
X84796285Y-69911919D02*
X84796285Y-70292872D01*
X85129619Y-70096443D02*
X84272476Y-69989300D01*
X84177238Y-70025014D01*
X84129619Y-70114300D01*
X84129619Y-70209538D01*
X84177238Y-70929776D02*
X84129619Y-70828586D01*
X84129619Y-70638110D01*
X84177238Y-70548824D01*
X84272476Y-70513110D01*
X84653428Y-70560729D01*
X84748666Y-70620252D01*
X84796285Y-70721443D01*
X84796285Y-70911919D01*
X84748666Y-71001205D01*
X84653428Y-71036919D01*
X84558190Y-71025014D01*
X84462952Y-70536919D01*
X84129619Y-71400014D02*
X84796285Y-71483348D01*
X84605809Y-71459538D02*
X84701047Y-71519062D01*
X84748666Y-71572633D01*
X84796285Y-71673824D01*
X84796285Y-71769062D01*
X84129619Y-72019062D02*
X84796285Y-72102395D01*
X84701047Y-72090491D02*
X84748666Y-72144062D01*
X84796285Y-72245252D01*
X84796285Y-72388110D01*
X84748666Y-72477395D01*
X84653428Y-72513110D01*
X84129619Y-72447633D01*
X84653428Y-72513110D02*
X84748666Y-72572633D01*
X84796285Y-72673824D01*
X84796285Y-72816681D01*
X84748666Y-72905967D01*
X84653428Y-72941681D01*
X84129619Y-72876205D01*
X84129619Y-73352395D02*
X84796285Y-73435729D01*
X85129619Y-73477395D02*
X85082000Y-73423824D01*
X85034380Y-73465491D01*
X85082000Y-73519062D01*
X85129619Y-73477395D01*
X85034380Y-73465491D01*
X84796285Y-73911919D02*
X84129619Y-73828586D01*
X84701047Y-73900014D02*
X84748666Y-73953586D01*
X84796285Y-74054776D01*
X84796285Y-74197633D01*
X84748666Y-74286919D01*
X84653428Y-74322633D01*
X84129619Y-74257157D01*
X84796285Y-74673824D02*
X84796285Y-75054776D01*
X85129619Y-74858348D02*
X84272476Y-74751205D01*
X84177238Y-74786919D01*
X84129619Y-74876205D01*
X84129619Y-74971443D01*
X84510571Y-75352395D02*
X84510571Y-76114300D01*
X84796285Y-76530967D02*
X84129619Y-76638110D01*
X84605809Y-76888110D01*
X84129619Y-77019062D01*
X84796285Y-77292872D01*
X84129619Y-77590491D02*
X84796285Y-77673824D01*
X85129619Y-77715491D02*
X85082000Y-77661919D01*
X85034380Y-77703586D01*
X85082000Y-77757157D01*
X85129619Y-77715491D01*
X85034380Y-77703586D01*
X84796285Y-78007157D02*
X84796285Y-78388110D01*
X84129619Y-78066681D02*
X84986761Y-78173824D01*
X85082000Y-78233348D01*
X85129619Y-78334538D01*
X85129619Y-78429776D01*
X84129619Y-78638110D02*
X84796285Y-78721443D01*
X85129619Y-78763110D02*
X85082000Y-78709538D01*
X85034380Y-78751205D01*
X85082000Y-78804776D01*
X85129619Y-78763110D01*
X85034380Y-78751205D01*
X85828285Y-58833333D02*
X85828285Y-58595238D01*
X87256857Y-58595238D01*
X87256857Y-58833333D01*
X86161619Y-59785714D02*
X86637809Y-59452380D01*
X86161619Y-59214285D02*
X87161619Y-59214285D01*
X87161619Y-59595238D01*
X87114000Y-59690476D01*
X87066380Y-59738095D01*
X86971142Y-59785714D01*
X86828285Y-59785714D01*
X86733047Y-59738095D01*
X86685428Y-59690476D01*
X86637809Y-59595238D01*
X86637809Y-59214285D01*
X86209238Y-60166666D02*
X86161619Y-60309523D01*
X86161619Y-60547619D01*
X86209238Y-60642857D01*
X86256857Y-60690476D01*
X86352095Y-60738095D01*
X86447333Y-60738095D01*
X86542571Y-60690476D01*
X86590190Y-60642857D01*
X86637809Y-60547619D01*
X86685428Y-60357142D01*
X86733047Y-60261904D01*
X86780666Y-60214285D01*
X86875904Y-60166666D01*
X86971142Y-60166666D01*
X87066380Y-60214285D01*
X87114000Y-60261904D01*
X87161619Y-60357142D01*
X87161619Y-60595238D01*
X87114000Y-60738095D01*
X87066380Y-61119047D02*
X87114000Y-61166666D01*
X87161619Y-61261904D01*
X87161619Y-61500000D01*
X87114000Y-61595238D01*
X87066380Y-61642857D01*
X86971142Y-61690476D01*
X86875904Y-61690476D01*
X86733047Y-61642857D01*
X86161619Y-61071428D01*
X86161619Y-61690476D01*
X87161619Y-62023809D02*
X87161619Y-62642857D01*
X86780666Y-62309523D01*
X86780666Y-62452380D01*
X86733047Y-62547619D01*
X86685428Y-62595238D01*
X86590190Y-62642857D01*
X86352095Y-62642857D01*
X86256857Y-62595238D01*
X86209238Y-62547619D01*
X86161619Y-62452380D01*
X86161619Y-62166666D01*
X86209238Y-62071428D01*
X86256857Y-62023809D01*
X87066380Y-63023809D02*
X87114000Y-63071428D01*
X87161619Y-63166666D01*
X87161619Y-63404761D01*
X87114000Y-63500000D01*
X87066380Y-63547619D01*
X86971142Y-63595238D01*
X86875904Y-63595238D01*
X86733047Y-63547619D01*
X86161619Y-62976190D01*
X86161619Y-63595238D01*
X86542571Y-64785714D02*
X86542571Y-65547619D01*
X87161619Y-66690476D02*
X86161619Y-66928571D01*
X86875904Y-67119047D01*
X86161619Y-67309523D01*
X87161619Y-67547619D01*
X86161619Y-67928571D02*
X86828285Y-67928571D01*
X87161619Y-67928571D02*
X87114000Y-67880952D01*
X87066380Y-67928571D01*
X87114000Y-67976190D01*
X87161619Y-67928571D01*
X87066380Y-67928571D01*
X86685428Y-68738095D02*
X86685428Y-68404761D01*
X86161619Y-68404761D02*
X87161619Y-68404761D01*
X87161619Y-68880952D01*
X86161619Y-69261904D02*
X86828285Y-69261904D01*
X87161619Y-69261904D02*
X87114000Y-69214285D01*
X87066380Y-69261904D01*
X87114000Y-69309523D01*
X87161619Y-69261904D01*
X87066380Y-69261904D01*
X86685428Y-70833333D02*
X86637809Y-70976190D01*
X86590190Y-71023809D01*
X86494952Y-71071428D01*
X86352095Y-71071428D01*
X86256857Y-71023809D01*
X86209238Y-70976190D01*
X86161619Y-70880952D01*
X86161619Y-70500000D01*
X87161619Y-70500000D01*
X87161619Y-70833333D01*
X87114000Y-70928571D01*
X87066380Y-70976190D01*
X86971142Y-71023809D01*
X86875904Y-71023809D01*
X86780666Y-70976190D01*
X86733047Y-70928571D01*
X86685428Y-70833333D01*
X86685428Y-70500000D01*
X86161619Y-71500000D02*
X86828285Y-71500000D01*
X86637809Y-71500000D02*
X86733047Y-71547619D01*
X86780666Y-71595238D01*
X86828285Y-71690476D01*
X86828285Y-71785714D01*
X86161619Y-72119047D02*
X86828285Y-72119047D01*
X87161619Y-72119047D02*
X87114000Y-72071428D01*
X87066380Y-72119047D01*
X87114000Y-72166666D01*
X87161619Y-72119047D01*
X87066380Y-72119047D01*
X86161619Y-73023809D02*
X87161619Y-73023809D01*
X86209238Y-73023809D02*
X86161619Y-72928571D01*
X86161619Y-72738095D01*
X86209238Y-72642857D01*
X86256857Y-72595238D01*
X86352095Y-72547619D01*
X86637809Y-72547619D01*
X86733047Y-72595238D01*
X86780666Y-72642857D01*
X86828285Y-72738095D01*
X86828285Y-72928571D01*
X86780666Y-73023809D01*
X86828285Y-73928571D02*
X86018761Y-73928571D01*
X85923523Y-73880952D01*
X85875904Y-73833333D01*
X85828285Y-73738095D01*
X85828285Y-73595238D01*
X85875904Y-73500000D01*
X86209238Y-73928571D02*
X86161619Y-73833333D01*
X86161619Y-73642857D01*
X86209238Y-73547619D01*
X86256857Y-73500000D01*
X86352095Y-73452380D01*
X86637809Y-73452380D01*
X86733047Y-73500000D01*
X86780666Y-73547619D01*
X86828285Y-73642857D01*
X86828285Y-73833333D01*
X86780666Y-73928571D01*
X86209238Y-74785714D02*
X86161619Y-74690476D01*
X86161619Y-74500000D01*
X86209238Y-74404761D01*
X86304476Y-74357142D01*
X86685428Y-74357142D01*
X86780666Y-74404761D01*
X86828285Y-74500000D01*
X86828285Y-74690476D01*
X86780666Y-74785714D01*
X86685428Y-74833333D01*
X86590190Y-74833333D01*
X86494952Y-74357142D01*
X85828285Y-75166666D02*
X85828285Y-75404761D01*
X87256857Y-75404761D01*
X87256857Y-75166666D01*
X103484523Y-75906380D02*
X103008333Y-75906380D01*
X102960714Y-76382571D01*
X103008333Y-76334952D01*
X103103571Y-76287333D01*
X103341666Y-76287333D01*
X103436904Y-76334952D01*
X103484523Y-76382571D01*
X103532142Y-76477809D01*
X103532142Y-76715904D01*
X103484523Y-76811142D01*
X103436904Y-76858761D01*
X103341666Y-76906380D01*
X103103571Y-76906380D01*
X103008333Y-76858761D01*
X102960714Y-76811142D01*
X103817857Y-75906380D02*
X104151190Y-76906380D01*
X104484523Y-75906380D01*
X120907380Y-58110380D02*
X120574047Y-57634190D01*
X120335952Y-58110380D02*
X120335952Y-57110380D01*
X120716904Y-57110380D01*
X120812142Y-57158000D01*
X120859761Y-57205619D01*
X120907380Y-57300857D01*
X120907380Y-57443714D01*
X120859761Y-57538952D01*
X120812142Y-57586571D01*
X120716904Y-57634190D01*
X120335952Y-57634190D01*
X121288333Y-58062761D02*
X121431190Y-58110380D01*
X121669285Y-58110380D01*
X121764523Y-58062761D01*
X121812142Y-58015142D01*
X121859761Y-57919904D01*
X121859761Y-57824666D01*
X121812142Y-57729428D01*
X121764523Y-57681809D01*
X121669285Y-57634190D01*
X121478809Y-57586571D01*
X121383571Y-57538952D01*
X121335952Y-57491333D01*
X121288333Y-57396095D01*
X121288333Y-57300857D01*
X121335952Y-57205619D01*
X121383571Y-57158000D01*
X121478809Y-57110380D01*
X121716904Y-57110380D01*
X121859761Y-57158000D01*
X122145476Y-57110380D02*
X122716904Y-57110380D01*
X122431190Y-58110380D02*
X122431190Y-57110380D01*
X102484523Y-57110380D02*
X103103571Y-57110380D01*
X102770238Y-57491333D01*
X102913095Y-57491333D01*
X103008333Y-57538952D01*
X103055952Y-57586571D01*
X103103571Y-57681809D01*
X103103571Y-57919904D01*
X103055952Y-58015142D01*
X103008333Y-58062761D01*
X102913095Y-58110380D01*
X102627380Y-58110380D01*
X102532142Y-58062761D01*
X102484523Y-58015142D01*
X103436904Y-57443714D02*
X103675000Y-58110380D01*
X103913095Y-57443714D01*
X104198809Y-57110380D02*
X104817857Y-57110380D01*
X104484523Y-57491333D01*
X104627380Y-57491333D01*
X104722619Y-57538952D01*
X104770238Y-57586571D01*
X104817857Y-57681809D01*
X104817857Y-57919904D01*
X104770238Y-58015142D01*
X104722619Y-58062761D01*
X104627380Y-58110380D01*
X104341666Y-58110380D01*
X104246428Y-58062761D01*
X104198809Y-58015142D01*
X118748333Y-76906380D02*
X118415000Y-76430190D01*
X118176904Y-76906380D02*
X118176904Y-75906380D01*
X118557857Y-75906380D01*
X118653095Y-75954000D01*
X118700714Y-76001619D01*
X118748333Y-76096857D01*
X118748333Y-76239714D01*
X118700714Y-76334952D01*
X118653095Y-76382571D01*
X118557857Y-76430190D01*
X118176904Y-76430190D01*
X119081666Y-75906380D02*
X119748333Y-76906380D01*
X119748333Y-75906380D02*
X119081666Y-76906380D01*
X120693095Y-75906380D02*
X121264523Y-75906380D01*
X120978809Y-76906380D02*
X120978809Y-75906380D01*
X121502619Y-75906380D02*
X122169285Y-76906380D01*
X122169285Y-75906380D02*
X121502619Y-76906380D01*
X75359404Y-62612500D02*
X75264166Y-62564880D01*
X75121309Y-62564880D01*
X74978452Y-62612500D01*
X74883214Y-62707738D01*
X74835595Y-62802976D01*
X74787976Y-62993452D01*
X74787976Y-63136309D01*
X74835595Y-63326785D01*
X74883214Y-63422023D01*
X74978452Y-63517261D01*
X75121309Y-63564880D01*
X75216547Y-63564880D01*
X75359404Y-63517261D01*
X75407023Y-63469642D01*
X75407023Y-63136309D01*
X75216547Y-63136309D01*
X75835595Y-63564880D02*
X75835595Y-62564880D01*
X76407023Y-63564880D01*
X76407023Y-62564880D01*
X76883214Y-63564880D02*
X76883214Y-62564880D01*
X77121309Y-62564880D01*
X77264166Y-62612500D01*
X77359404Y-62707738D01*
X77407023Y-62802976D01*
X77454642Y-62993452D01*
X77454642Y-63136309D01*
X77407023Y-63326785D01*
X77359404Y-63422023D01*
X77264166Y-63517261D01*
X77121309Y-63564880D01*
X76883214Y-63564880D01*
X74692738Y-70184880D02*
X75026071Y-71184880D01*
X75359404Y-70184880D01*
X75692738Y-71184880D02*
X75692738Y-70184880D01*
X76168928Y-71184880D02*
X76168928Y-70184880D01*
X76740357Y-71184880D01*
X76740357Y-70184880D01*
X74692738Y-67644880D02*
X75264166Y-67644880D01*
X74978452Y-68644880D02*
X74978452Y-67644880D01*
X75502261Y-67644880D02*
X76168928Y-68644880D01*
X76168928Y-67644880D02*
X75502261Y-68644880D01*
X75407023Y-66104880D02*
X75073690Y-65628690D01*
X74835595Y-66104880D02*
X74835595Y-65104880D01*
X75216547Y-65104880D01*
X75311785Y-65152500D01*
X75359404Y-65200119D01*
X75407023Y-65295357D01*
X75407023Y-65438214D01*
X75359404Y-65533452D01*
X75311785Y-65581071D01*
X75216547Y-65628690D01*
X74835595Y-65628690D01*
X75740357Y-65104880D02*
X76407023Y-66104880D01*
X76407023Y-65104880D02*
X75740357Y-66104880D01*
D11*
X152567936Y-71059999D02*
X153772064Y-71059999D01*
X152567936Y-68339999D02*
X153772064Y-68339999D01*
X153772064Y-62940001D02*
X152567936Y-62940001D01*
X153772064Y-65660001D02*
X152567936Y-65660001D01*
X152567936Y-60275000D02*
X153772064Y-60275000D01*
X152567936Y-57555000D02*
X153772064Y-57555000D01*
X152567936Y-76445000D02*
X153772064Y-76445000D01*
X152567936Y-73725000D02*
X153772064Y-73725000D01*
X120095000Y-66397936D02*
X120095000Y-67602064D01*
X122815000Y-66397936D02*
X122815000Y-67602064D01*
X115015000Y-66397936D02*
X115015000Y-67602064D01*
X117735000Y-66397936D02*
X117735000Y-67602064D01*
D12*
G36*
X165379944Y-63476848D02*
G01*
X165420663Y-63489314D01*
X165454100Y-63500844D01*
X165475282Y-63509663D01*
X165479633Y-63512408D01*
X165497078Y-63520345D01*
X165510294Y-63521941D01*
X165531694Y-63527487D01*
X165559332Y-63541318D01*
X165567587Y-63546596D01*
X165601431Y-63568416D01*
X165637873Y-63590282D01*
X165643605Y-63593538D01*
X165673418Y-63612099D01*
X165698661Y-63630840D01*
X165703661Y-63635296D01*
X165720902Y-63651647D01*
X165747608Y-63676786D01*
X165778384Y-63705638D01*
X165782400Y-63709394D01*
X165809946Y-63736253D01*
X165830499Y-63758393D01*
X165840423Y-63771838D01*
X165840821Y-63773289D01*
X165847583Y-63785912D01*
X165864089Y-63804383D01*
X165866331Y-63806525D01*
X165888278Y-63833020D01*
X165914247Y-63873307D01*
X165941359Y-63922065D01*
X165966735Y-63973974D01*
X165987496Y-64023713D01*
X165994161Y-64042721D01*
X165999680Y-64059038D01*
X166004812Y-64073361D01*
X166009570Y-64086438D01*
X166013970Y-64099016D01*
X166018027Y-64111843D01*
X166021756Y-64125667D01*
X166025171Y-64141236D01*
X166028288Y-64159298D01*
X166031121Y-64180600D01*
X166033685Y-64205891D01*
X166035995Y-64235918D01*
X166038066Y-64271429D01*
X166039913Y-64313173D01*
X166041551Y-64361896D01*
X166042994Y-64418347D01*
X166044258Y-64483273D01*
X166045357Y-64557423D01*
X166046307Y-64641544D01*
X166047121Y-64736385D01*
X166047816Y-64842692D01*
X166048405Y-64961214D01*
X166048904Y-65092699D01*
X166049328Y-65237894D01*
X166049692Y-65397548D01*
X166050009Y-65572408D01*
X166050297Y-65763222D01*
X166050568Y-65970738D01*
X166050838Y-66195704D01*
X166051122Y-66438868D01*
X166051436Y-66700977D01*
X166051731Y-66935701D01*
X166052098Y-67240092D01*
X166052384Y-67524606D01*
X166052587Y-67789686D01*
X166052706Y-68035775D01*
X166052740Y-68263317D01*
X166052687Y-68472753D01*
X166052546Y-68664528D01*
X166052316Y-68839083D01*
X166051996Y-68996863D01*
X166051584Y-69138310D01*
X166051080Y-69263866D01*
X166050481Y-69373976D01*
X166049787Y-69469081D01*
X166048996Y-69549625D01*
X166048108Y-69616052D01*
X166047121Y-69668803D01*
X166046033Y-69708322D01*
X166044844Y-69735051D01*
X166043832Y-69747417D01*
X166034847Y-69801352D01*
X166020848Y-69863335D01*
X166004373Y-69922552D01*
X165998548Y-69940457D01*
X165945215Y-70066834D01*
X165876114Y-70180562D01*
X165791771Y-70281127D01*
X165692717Y-70368015D01*
X165579479Y-70440713D01*
X165452588Y-70498707D01*
X165407534Y-70514621D01*
X165307421Y-70547581D01*
X162518501Y-70549053D01*
X162281297Y-70549148D01*
X162049152Y-70549180D01*
X161822901Y-70549152D01*
X161603384Y-70549067D01*
X161391437Y-70548925D01*
X161187899Y-70548730D01*
X160993607Y-70548482D01*
X160809400Y-70548185D01*
X160636114Y-70547840D01*
X160474588Y-70547450D01*
X160325660Y-70547016D01*
X160190167Y-70546540D01*
X160068947Y-70546025D01*
X159962839Y-70545473D01*
X159872678Y-70544885D01*
X159799305Y-70544265D01*
X159743555Y-70543613D01*
X159706268Y-70542931D01*
X159688281Y-70542223D01*
X159687005Y-70542066D01*
X159622698Y-70526195D01*
X159554068Y-70503973D01*
X159485447Y-70477307D01*
X159421166Y-70448102D01*
X159365559Y-70418264D01*
X159322958Y-70389698D01*
X159305852Y-70374397D01*
X159287189Y-70357475D01*
X159273449Y-70349689D01*
X159272834Y-70349636D01*
X159259265Y-70341917D01*
X159236348Y-70321225D01*
X159206947Y-70290826D01*
X159173929Y-70253988D01*
X159140159Y-70213976D01*
X159108501Y-70174058D01*
X159081821Y-70137499D01*
X159067715Y-70115781D01*
X159044632Y-70072667D01*
X159019646Y-70018336D01*
X158996438Y-69961108D01*
X158984556Y-69927821D01*
X158947261Y-69816061D01*
X158947261Y-68423250D01*
X161725230Y-68423250D01*
X162104035Y-68802155D01*
X162176590Y-68874540D01*
X162244967Y-68942392D01*
X162307799Y-69004379D01*
X162363721Y-69059172D01*
X162411366Y-69105438D01*
X162449366Y-69141848D01*
X162476358Y-69167071D01*
X162490972Y-69179777D01*
X162493101Y-69181061D01*
X162502053Y-69174076D01*
X162523954Y-69154015D01*
X162557432Y-69122212D01*
X162601114Y-69080006D01*
X162653628Y-69028732D01*
X162713600Y-68969727D01*
X162779658Y-68904328D01*
X162850428Y-68833871D01*
X162878811Y-68805510D01*
X163254258Y-68429960D01*
X163231087Y-68405297D01*
X163203326Y-68380026D01*
X163162818Y-68348477D01*
X163114633Y-68314140D01*
X163063840Y-68280506D01*
X163015510Y-68251066D01*
X162977363Y-68230582D01*
X162900240Y-68197239D01*
X162812710Y-68165981D01*
X162724643Y-68140222D01*
X162696301Y-68133316D01*
X162659420Y-68127549D01*
X162608888Y-68123304D01*
X162549542Y-68120607D01*
X162486224Y-68119482D01*
X162423771Y-68119955D01*
X162367025Y-68122049D01*
X162320824Y-68125789D01*
X162290008Y-68131202D01*
X162289901Y-68131233D01*
X162257816Y-68140354D01*
X162216299Y-68151807D01*
X162183221Y-68160735D01*
X162138399Y-68175201D01*
X162083986Y-68196512D01*
X162025819Y-68221993D01*
X161969737Y-68248969D01*
X161921581Y-68274766D01*
X161888581Y-68295680D01*
X161862848Y-68315033D01*
X161828359Y-68341643D01*
X161792197Y-68370040D01*
X161789125Y-68372478D01*
X161725230Y-68423250D01*
X158947261Y-68423250D01*
X158947261Y-67255741D01*
X160559467Y-67255741D01*
X160941741Y-67638988D01*
X161025493Y-67722923D01*
X161096102Y-67793544D01*
X161154763Y-67851933D01*
X161202674Y-67899174D01*
X161241030Y-67936349D01*
X161271027Y-67964542D01*
X161293861Y-67984836D01*
X161310729Y-67998312D01*
X161322826Y-68006055D01*
X161331349Y-68009148D01*
X161337493Y-68008672D01*
X161342456Y-68005712D01*
X161344677Y-68003808D01*
X161364687Y-67985992D01*
X161391598Y-67962062D01*
X161404316Y-67950761D01*
X161528252Y-67852962D01*
X161666935Y-67765677D01*
X161816786Y-67690645D01*
X161974227Y-67629606D01*
X162135677Y-67584298D01*
X162176827Y-67575516D01*
X162243634Y-67565346D01*
X162323950Y-67558149D01*
X162412882Y-67553923D01*
X162505535Y-67552668D01*
X162597014Y-67554380D01*
X162682425Y-67559059D01*
X162756874Y-67566703D01*
X162808789Y-67575735D01*
X162863710Y-67588872D01*
X162921574Y-67603922D01*
X162977002Y-67619372D01*
X163024619Y-67633713D01*
X163059047Y-67645433D01*
X163064601Y-67647626D01*
X163093657Y-67659539D01*
X163110321Y-67666317D01*
X163185394Y-67699749D01*
X163265568Y-67740712D01*
X163346366Y-67786497D01*
X163423311Y-67834396D01*
X163491926Y-67881701D01*
X163547735Y-67925703D01*
X163565227Y-67941541D01*
X163575024Y-67950759D01*
X163594837Y-67969333D01*
X163613703Y-67986994D01*
X163656853Y-68027367D01*
X164037637Y-67646684D01*
X164110167Y-67574056D01*
X164178172Y-67505729D01*
X164240327Y-67443051D01*
X164295308Y-67387369D01*
X164341789Y-67340031D01*
X164378445Y-67302384D01*
X164403950Y-67275774D01*
X164416980Y-67261550D01*
X164418421Y-67259548D01*
X164411033Y-67250215D01*
X164390788Y-67230510D01*
X164360559Y-67202923D01*
X164323221Y-67169944D01*
X164281647Y-67134061D01*
X164238713Y-67097764D01*
X164197293Y-67063543D01*
X164160260Y-67033885D01*
X164139021Y-67017574D01*
X164079798Y-66974676D01*
X164014119Y-66929475D01*
X163948118Y-66886040D01*
X163887926Y-66848437D01*
X163854541Y-66828892D01*
X163815080Y-66807396D01*
X163767790Y-66782764D01*
X163716119Y-66756665D01*
X163663519Y-66730766D01*
X163613439Y-66706732D01*
X163569329Y-66686232D01*
X163534641Y-66670932D01*
X163512825Y-66662500D01*
X163507842Y-66661381D01*
X163495512Y-66657565D01*
X163473096Y-66648238D01*
X163469996Y-66646842D01*
X163425783Y-66629162D01*
X163366369Y-66608867D01*
X163296473Y-66587345D01*
X163220817Y-66565983D01*
X163144120Y-66546169D01*
X163071102Y-66529289D01*
X163067141Y-66528442D01*
X162904389Y-66500053D01*
X162731904Y-66481378D01*
X162554418Y-66472419D01*
X162376663Y-66473178D01*
X162203373Y-66483658D01*
X162039280Y-66503861D01*
X161913981Y-66527895D01*
X161879555Y-66535599D01*
X161837879Y-66544704D01*
X161817461Y-66549088D01*
X161782419Y-66557232D01*
X161753034Y-66565237D01*
X161741261Y-66569209D01*
X161722595Y-66575921D01*
X161690354Y-66586725D01*
X161650368Y-66599682D01*
X161634581Y-66604696D01*
X161534142Y-66638259D01*
X161443597Y-66672973D01*
X161352732Y-66712922D01*
X161295150Y-66740448D01*
X161252300Y-66762061D01*
X161203610Y-66787649D01*
X161152563Y-66815260D01*
X161102641Y-66842942D01*
X161057326Y-66868744D01*
X161020102Y-66890713D01*
X160994449Y-66906898D01*
X160984341Y-66914654D01*
X160973798Y-66922874D01*
X160951213Y-66938623D01*
X160923381Y-66957229D01*
X160877233Y-66989509D01*
X160821292Y-67031674D01*
X160760588Y-67079709D01*
X160700149Y-67129596D01*
X160645004Y-67177321D01*
X160624265Y-67196091D01*
X160559467Y-67255741D01*
X158947261Y-67255741D01*
X158947261Y-66090909D01*
X159394301Y-66090909D01*
X159774801Y-66472216D01*
X159859952Y-66557417D01*
X159931978Y-66629153D01*
X159991987Y-66688456D01*
X160041091Y-66736360D01*
X160080398Y-66773900D01*
X160111018Y-66802108D01*
X160134062Y-66822019D01*
X160150639Y-66834667D01*
X160161858Y-66841085D01*
X160168831Y-66842308D01*
X160171041Y-66841317D01*
X160185987Y-66828599D01*
X160210638Y-66806511D01*
X160239906Y-66779618D01*
X160242661Y-66777055D01*
X160277236Y-66745351D01*
X160312628Y-66713703D01*
X160339181Y-66690667D01*
X160363119Y-66670301D01*
X160380154Y-66655544D01*
X160384901Y-66651238D01*
X160400340Y-66637826D01*
X160427485Y-66616252D01*
X160463065Y-66588928D01*
X160503808Y-66558267D01*
X160546445Y-66526684D01*
X160587704Y-66496593D01*
X160624315Y-66470406D01*
X160653006Y-66450537D01*
X160670507Y-66439400D01*
X160674062Y-66437861D01*
X160684275Y-66432746D01*
X160707118Y-66419156D01*
X160738203Y-66399726D01*
X160747804Y-66393587D01*
X160797181Y-66363159D01*
X160855128Y-66329539D01*
X160917955Y-66294658D01*
X160981974Y-66260449D01*
X161043495Y-66228842D01*
X161098831Y-66201770D01*
X161144293Y-66181166D01*
X161176190Y-66168960D01*
X161177381Y-66168600D01*
X161200628Y-66160079D01*
X161212941Y-66153594D01*
X161226820Y-66146774D01*
X161254472Y-66135405D01*
X161290502Y-66121682D01*
X161299301Y-66118462D01*
X161338223Y-66104182D01*
X161371754Y-66091620D01*
X161393600Y-66083139D01*
X161395821Y-66082222D01*
X161430341Y-66069549D01*
X161480400Y-66053668D01*
X161541697Y-66035759D01*
X161609927Y-66016998D01*
X161680790Y-65998562D01*
X161749983Y-65981631D01*
X161813203Y-65967381D01*
X161822541Y-65965415D01*
X162059002Y-65926056D01*
X162303463Y-65904496D01*
X162554045Y-65900778D01*
X162808869Y-65914944D01*
X163011261Y-65938709D01*
X163073257Y-65948537D01*
X163136875Y-65960090D01*
X163194275Y-65971874D01*
X163229701Y-65980270D01*
X163258778Y-65987720D01*
X163298075Y-65997650D01*
X163331301Y-66005967D01*
X163369630Y-66015826D01*
X163403371Y-66025043D01*
X163422741Y-66030840D01*
X163448419Y-66038936D01*
X163482177Y-66049079D01*
X163493861Y-66052490D01*
X163519893Y-66060931D01*
X163560023Y-66075040D01*
X163609426Y-66093074D01*
X163663278Y-66113291D01*
X163681821Y-66120382D01*
X163870820Y-66199005D01*
X164046962Y-66285331D01*
X164216706Y-66382842D01*
X164386514Y-66495023D01*
X164418421Y-66517641D01*
X164458838Y-66546736D01*
X164493048Y-66571652D01*
X164517763Y-66589977D01*
X164529698Y-66599294D01*
X164530181Y-66599764D01*
X164540065Y-66608630D01*
X164561265Y-66626531D01*
X164589315Y-66649701D01*
X164591141Y-66651195D01*
X164633403Y-66685858D01*
X164664843Y-66712049D01*
X164690432Y-66734083D01*
X164715139Y-66756274D01*
X164743934Y-66782939D01*
X164757631Y-66795750D01*
X164786607Y-66822367D01*
X164809743Y-66842648D01*
X164823258Y-66853315D01*
X164825003Y-66854170D01*
X164832976Y-66847239D01*
X164853940Y-66827234D01*
X164886553Y-66795481D01*
X164929469Y-66753306D01*
X164981345Y-66702036D01*
X165040837Y-66642997D01*
X165106600Y-66577515D01*
X165177292Y-66506918D01*
X165209423Y-66474764D01*
X165588581Y-66095108D01*
X165549601Y-66057106D01*
X165522791Y-66031643D01*
X165484939Y-65996590D01*
X165440252Y-65955786D01*
X165392939Y-65913070D01*
X165347207Y-65872281D01*
X165341471Y-65867209D01*
X165197835Y-65748266D01*
X165038141Y-65630205D01*
X164866587Y-65515539D01*
X164687367Y-65406779D01*
X164504680Y-65306439D01*
X164322722Y-65217032D01*
X164145689Y-65141070D01*
X164098381Y-65122855D01*
X164054255Y-65106222D01*
X164015584Y-65091476D01*
X163987382Y-65080538D01*
X163976461Y-65076136D01*
X163952500Y-65067054D01*
X163914405Y-65053814D01*
X163867487Y-65038151D01*
X163817059Y-65021796D01*
X163768432Y-65006485D01*
X163726920Y-64993950D01*
X163708890Y-64988824D01*
X163669906Y-64978118D01*
X163632865Y-64967900D01*
X163615781Y-64963163D01*
X163584649Y-64955037D01*
X163539512Y-64944146D01*
X163478382Y-64930022D01*
X163402421Y-64912900D01*
X163352913Y-64902843D01*
X163288064Y-64891167D01*
X163212714Y-64878643D01*
X163131700Y-64866042D01*
X163049862Y-64854132D01*
X162972037Y-64843683D01*
X162950301Y-64840962D01*
X162908504Y-64837321D01*
X162849760Y-64834316D01*
X162777324Y-64831946D01*
X162694453Y-64830213D01*
X162604405Y-64829115D01*
X162510436Y-64828653D01*
X162415802Y-64828827D01*
X162323760Y-64829637D01*
X162237567Y-64831084D01*
X162160481Y-64833167D01*
X162095756Y-64835887D01*
X162046651Y-64839244D01*
X162030821Y-64840924D01*
X161938194Y-64852886D01*
X161857818Y-64864147D01*
X161781709Y-64875872D01*
X161710781Y-64887698D01*
X161674005Y-64894075D01*
X161642266Y-64899823D01*
X161612015Y-64905719D01*
X161579701Y-64912536D01*
X161541776Y-64921048D01*
X161494689Y-64932029D01*
X161434892Y-64946254D01*
X161360261Y-64964155D01*
X161328173Y-64972488D01*
X161286876Y-64984053D01*
X161242379Y-64997066D01*
X161200693Y-65009744D01*
X161167827Y-65020300D01*
X161151981Y-65025996D01*
X161131049Y-65033512D01*
X161099047Y-65043893D01*
X161075781Y-65051021D01*
X161041089Y-65061820D01*
X161011848Y-65071678D01*
X160999581Y-65076331D01*
X160980529Y-65083843D01*
X160948650Y-65095858D01*
X160910237Y-65110011D01*
X160903061Y-65112622D01*
X160865879Y-65126574D01*
X160835849Y-65138670D01*
X160818366Y-65146717D01*
X160816701Y-65147754D01*
X160799665Y-65156293D01*
X160781141Y-65162927D01*
X160736492Y-65179211D01*
X160677685Y-65204775D01*
X160607715Y-65238006D01*
X160529578Y-65277294D01*
X160446270Y-65321027D01*
X160360787Y-65367592D01*
X160276124Y-65415378D01*
X160195277Y-65462773D01*
X160121242Y-65508165D01*
X160057016Y-65549942D01*
X160039461Y-65561980D01*
X160004782Y-65586381D01*
X159964186Y-65615346D01*
X159921050Y-65646414D01*
X159878753Y-65677128D01*
X159840671Y-65705027D01*
X159810182Y-65727653D01*
X159790665Y-65742545D01*
X159785461Y-65746915D01*
X159776003Y-65755058D01*
X159753958Y-65773258D01*
X159722580Y-65798847D01*
X159685124Y-65829159D01*
X159683861Y-65830179D01*
X159635388Y-65870484D01*
X159580181Y-65918299D01*
X159525960Y-65966853D01*
X159490821Y-65999457D01*
X159394301Y-66090909D01*
X158947261Y-66090909D01*
X158947261Y-64177261D01*
X158984120Y-64070581D01*
X159006285Y-64010474D01*
X159028263Y-63958181D01*
X159048583Y-63916755D01*
X159065769Y-63889249D01*
X159076465Y-63879234D01*
X159083871Y-63867540D01*
X159084421Y-63862415D01*
X159091421Y-63846039D01*
X159110468Y-63819187D01*
X159138634Y-63784922D01*
X159172989Y-63746308D01*
X159210604Y-63706408D01*
X159248550Y-63668284D01*
X159283897Y-63635001D01*
X159313717Y-63609621D01*
X159335079Y-63595206D01*
X159341998Y-63593060D01*
X159353117Y-63587980D01*
X159376097Y-63574709D01*
X159403775Y-63557500D01*
X159435556Y-63538947D01*
X159462902Y-63526081D01*
X159478140Y-63521941D01*
X159499225Y-63517167D01*
X159506568Y-63512408D01*
X159520121Y-63505515D01*
X159548310Y-63495062D01*
X159586162Y-63482823D01*
X159606257Y-63476848D01*
X159696294Y-63450821D01*
X165289907Y-63450821D01*
X165379944Y-63476848D01*
G37*
X165379944Y-63476848D02*
X165420663Y-63489314D01*
X165454100Y-63500844D01*
X165475282Y-63509663D01*
X165479633Y-63512408D01*
X165497078Y-63520345D01*
X165510294Y-63521941D01*
X165531694Y-63527487D01*
X165559332Y-63541318D01*
X165567587Y-63546596D01*
X165601431Y-63568416D01*
X165637873Y-63590282D01*
X165643605Y-63593538D01*
X165673418Y-63612099D01*
X165698661Y-63630840D01*
X165703661Y-63635296D01*
X165720902Y-63651647D01*
X165747608Y-63676786D01*
X165778384Y-63705638D01*
X165782400Y-63709394D01*
X165809946Y-63736253D01*
X165830499Y-63758393D01*
X165840423Y-63771838D01*
X165840821Y-63773289D01*
X165847583Y-63785912D01*
X165864089Y-63804383D01*
X165866331Y-63806525D01*
X165888278Y-63833020D01*
X165914247Y-63873307D01*
X165941359Y-63922065D01*
X165966735Y-63973974D01*
X165987496Y-64023713D01*
X165994161Y-64042721D01*
X165999680Y-64059038D01*
X166004812Y-64073361D01*
X166009570Y-64086438D01*
X166013970Y-64099016D01*
X166018027Y-64111843D01*
X166021756Y-64125667D01*
X166025171Y-64141236D01*
X166028288Y-64159298D01*
X166031121Y-64180600D01*
X166033685Y-64205891D01*
X166035995Y-64235918D01*
X166038066Y-64271429D01*
X166039913Y-64313173D01*
X166041551Y-64361896D01*
X166042994Y-64418347D01*
X166044258Y-64483273D01*
X166045357Y-64557423D01*
X166046307Y-64641544D01*
X166047121Y-64736385D01*
X166047816Y-64842692D01*
X166048405Y-64961214D01*
X166048904Y-65092699D01*
X166049328Y-65237894D01*
X166049692Y-65397548D01*
X166050009Y-65572408D01*
X166050297Y-65763222D01*
X166050568Y-65970738D01*
X166050838Y-66195704D01*
X166051122Y-66438868D01*
X166051436Y-66700977D01*
X166051731Y-66935701D01*
X166052098Y-67240092D01*
X166052384Y-67524606D01*
X166052587Y-67789686D01*
X166052706Y-68035775D01*
X166052740Y-68263317D01*
X166052687Y-68472753D01*
X166052546Y-68664528D01*
X166052316Y-68839083D01*
X166051996Y-68996863D01*
X166051584Y-69138310D01*
X166051080Y-69263866D01*
X166050481Y-69373976D01*
X166049787Y-69469081D01*
X166048996Y-69549625D01*
X166048108Y-69616052D01*
X166047121Y-69668803D01*
X166046033Y-69708322D01*
X166044844Y-69735051D01*
X166043832Y-69747417D01*
X166034847Y-69801352D01*
X166020848Y-69863335D01*
X166004373Y-69922552D01*
X165998548Y-69940457D01*
X165945215Y-70066834D01*
X165876114Y-70180562D01*
X165791771Y-70281127D01*
X165692717Y-70368015D01*
X165579479Y-70440713D01*
X165452588Y-70498707D01*
X165407534Y-70514621D01*
X165307421Y-70547581D01*
X162518501Y-70549053D01*
X162281297Y-70549148D01*
X162049152Y-70549180D01*
X161822901Y-70549152D01*
X161603384Y-70549067D01*
X161391437Y-70548925D01*
X161187899Y-70548730D01*
X160993607Y-70548482D01*
X160809400Y-70548185D01*
X160636114Y-70547840D01*
X160474588Y-70547450D01*
X160325660Y-70547016D01*
X160190167Y-70546540D01*
X160068947Y-70546025D01*
X159962839Y-70545473D01*
X159872678Y-70544885D01*
X159799305Y-70544265D01*
X159743555Y-70543613D01*
X159706268Y-70542931D01*
X159688281Y-70542223D01*
X159687005Y-70542066D01*
X159622698Y-70526195D01*
X159554068Y-70503973D01*
X159485447Y-70477307D01*
X159421166Y-70448102D01*
X159365559Y-70418264D01*
X159322958Y-70389698D01*
X159305852Y-70374397D01*
X159287189Y-70357475D01*
X159273449Y-70349689D01*
X159272834Y-70349636D01*
X159259265Y-70341917D01*
X159236348Y-70321225D01*
X159206947Y-70290826D01*
X159173929Y-70253988D01*
X159140159Y-70213976D01*
X159108501Y-70174058D01*
X159081821Y-70137499D01*
X159067715Y-70115781D01*
X159044632Y-70072667D01*
X159019646Y-70018336D01*
X158996438Y-69961108D01*
X158984556Y-69927821D01*
X158947261Y-69816061D01*
X158947261Y-68423250D01*
X161725230Y-68423250D01*
X162104035Y-68802155D01*
X162176590Y-68874540D01*
X162244967Y-68942392D01*
X162307799Y-69004379D01*
X162363721Y-69059172D01*
X162411366Y-69105438D01*
X162449366Y-69141848D01*
X162476358Y-69167071D01*
X162490972Y-69179777D01*
X162493101Y-69181061D01*
X162502053Y-69174076D01*
X162523954Y-69154015D01*
X162557432Y-69122212D01*
X162601114Y-69080006D01*
X162653628Y-69028732D01*
X162713600Y-68969727D01*
X162779658Y-68904328D01*
X162850428Y-68833871D01*
X162878811Y-68805510D01*
X163254258Y-68429960D01*
X163231087Y-68405297D01*
X163203326Y-68380026D01*
X163162818Y-68348477D01*
X163114633Y-68314140D01*
X163063840Y-68280506D01*
X163015510Y-68251066D01*
X162977363Y-68230582D01*
X162900240Y-68197239D01*
X162812710Y-68165981D01*
X162724643Y-68140222D01*
X162696301Y-68133316D01*
X162659420Y-68127549D01*
X162608888Y-68123304D01*
X162549542Y-68120607D01*
X162486224Y-68119482D01*
X162423771Y-68119955D01*
X162367025Y-68122049D01*
X162320824Y-68125789D01*
X162290008Y-68131202D01*
X162289901Y-68131233D01*
X162257816Y-68140354D01*
X162216299Y-68151807D01*
X162183221Y-68160735D01*
X162138399Y-68175201D01*
X162083986Y-68196512D01*
X162025819Y-68221993D01*
X161969737Y-68248969D01*
X161921581Y-68274766D01*
X161888581Y-68295680D01*
X161862848Y-68315033D01*
X161828359Y-68341643D01*
X161792197Y-68370040D01*
X161789125Y-68372478D01*
X161725230Y-68423250D01*
X158947261Y-68423250D01*
X158947261Y-67255741D01*
X160559467Y-67255741D01*
X160941741Y-67638988D01*
X161025493Y-67722923D01*
X161096102Y-67793544D01*
X161154763Y-67851933D01*
X161202674Y-67899174D01*
X161241030Y-67936349D01*
X161271027Y-67964542D01*
X161293861Y-67984836D01*
X161310729Y-67998312D01*
X161322826Y-68006055D01*
X161331349Y-68009148D01*
X161337493Y-68008672D01*
X161342456Y-68005712D01*
X161344677Y-68003808D01*
X161364687Y-67985992D01*
X161391598Y-67962062D01*
X161404316Y-67950761D01*
X161528252Y-67852962D01*
X161666935Y-67765677D01*
X161816786Y-67690645D01*
X161974227Y-67629606D01*
X162135677Y-67584298D01*
X162176827Y-67575516D01*
X162243634Y-67565346D01*
X162323950Y-67558149D01*
X162412882Y-67553923D01*
X162505535Y-67552668D01*
X162597014Y-67554380D01*
X162682425Y-67559059D01*
X162756874Y-67566703D01*
X162808789Y-67575735D01*
X162863710Y-67588872D01*
X162921574Y-67603922D01*
X162977002Y-67619372D01*
X163024619Y-67633713D01*
X163059047Y-67645433D01*
X163064601Y-67647626D01*
X163093657Y-67659539D01*
X163110321Y-67666317D01*
X163185394Y-67699749D01*
X163265568Y-67740712D01*
X163346366Y-67786497D01*
X163423311Y-67834396D01*
X163491926Y-67881701D01*
X163547735Y-67925703D01*
X163565227Y-67941541D01*
X163575024Y-67950759D01*
X163594837Y-67969333D01*
X163613703Y-67986994D01*
X163656853Y-68027367D01*
X164037637Y-67646684D01*
X164110167Y-67574056D01*
X164178172Y-67505729D01*
X164240327Y-67443051D01*
X164295308Y-67387369D01*
X164341789Y-67340031D01*
X164378445Y-67302384D01*
X164403950Y-67275774D01*
X164416980Y-67261550D01*
X164418421Y-67259548D01*
X164411033Y-67250215D01*
X164390788Y-67230510D01*
X164360559Y-67202923D01*
X164323221Y-67169944D01*
X164281647Y-67134061D01*
X164238713Y-67097764D01*
X164197293Y-67063543D01*
X164160260Y-67033885D01*
X164139021Y-67017574D01*
X164079798Y-66974676D01*
X164014119Y-66929475D01*
X163948118Y-66886040D01*
X163887926Y-66848437D01*
X163854541Y-66828892D01*
X163815080Y-66807396D01*
X163767790Y-66782764D01*
X163716119Y-66756665D01*
X163663519Y-66730766D01*
X163613439Y-66706732D01*
X163569329Y-66686232D01*
X163534641Y-66670932D01*
X163512825Y-66662500D01*
X163507842Y-66661381D01*
X163495512Y-66657565D01*
X163473096Y-66648238D01*
X163469996Y-66646842D01*
X163425783Y-66629162D01*
X163366369Y-66608867D01*
X163296473Y-66587345D01*
X163220817Y-66565983D01*
X163144120Y-66546169D01*
X163071102Y-66529289D01*
X163067141Y-66528442D01*
X162904389Y-66500053D01*
X162731904Y-66481378D01*
X162554418Y-66472419D01*
X162376663Y-66473178D01*
X162203373Y-66483658D01*
X162039280Y-66503861D01*
X161913981Y-66527895D01*
X161879555Y-66535599D01*
X161837879Y-66544704D01*
X161817461Y-66549088D01*
X161782419Y-66557232D01*
X161753034Y-66565237D01*
X161741261Y-66569209D01*
X161722595Y-66575921D01*
X161690354Y-66586725D01*
X161650368Y-66599682D01*
X161634581Y-66604696D01*
X161534142Y-66638259D01*
X161443597Y-66672973D01*
X161352732Y-66712922D01*
X161295150Y-66740448D01*
X161252300Y-66762061D01*
X161203610Y-66787649D01*
X161152563Y-66815260D01*
X161102641Y-66842942D01*
X161057326Y-66868744D01*
X161020102Y-66890713D01*
X160994449Y-66906898D01*
X160984341Y-66914654D01*
X160973798Y-66922874D01*
X160951213Y-66938623D01*
X160923381Y-66957229D01*
X160877233Y-66989509D01*
X160821292Y-67031674D01*
X160760588Y-67079709D01*
X160700149Y-67129596D01*
X160645004Y-67177321D01*
X160624265Y-67196091D01*
X160559467Y-67255741D01*
X158947261Y-67255741D01*
X158947261Y-66090909D01*
X159394301Y-66090909D01*
X159774801Y-66472216D01*
X159859952Y-66557417D01*
X159931978Y-66629153D01*
X159991987Y-66688456D01*
X160041091Y-66736360D01*
X160080398Y-66773900D01*
X160111018Y-66802108D01*
X160134062Y-66822019D01*
X160150639Y-66834667D01*
X160161858Y-66841085D01*
X160168831Y-66842308D01*
X160171041Y-66841317D01*
X160185987Y-66828599D01*
X160210638Y-66806511D01*
X160239906Y-66779618D01*
X160242661Y-66777055D01*
X160277236Y-66745351D01*
X160312628Y-66713703D01*
X160339181Y-66690667D01*
X160363119Y-66670301D01*
X160380154Y-66655544D01*
X160384901Y-66651238D01*
X160400340Y-66637826D01*
X160427485Y-66616252D01*
X160463065Y-66588928D01*
X160503808Y-66558267D01*
X160546445Y-66526684D01*
X160587704Y-66496593D01*
X160624315Y-66470406D01*
X160653006Y-66450537D01*
X160670507Y-66439400D01*
X160674062Y-66437861D01*
X160684275Y-66432746D01*
X160707118Y-66419156D01*
X160738203Y-66399726D01*
X160747804Y-66393587D01*
X160797181Y-66363159D01*
X160855128Y-66329539D01*
X160917955Y-66294658D01*
X160981974Y-66260449D01*
X161043495Y-66228842D01*
X161098831Y-66201770D01*
X161144293Y-66181166D01*
X161176190Y-66168960D01*
X161177381Y-66168600D01*
X161200628Y-66160079D01*
X161212941Y-66153594D01*
X161226820Y-66146774D01*
X161254472Y-66135405D01*
X161290502Y-66121682D01*
X161299301Y-66118462D01*
X161338223Y-66104182D01*
X161371754Y-66091620D01*
X161393600Y-66083139D01*
X161395821Y-66082222D01*
X161430341Y-66069549D01*
X161480400Y-66053668D01*
X161541697Y-66035759D01*
X161609927Y-66016998D01*
X161680790Y-65998562D01*
X161749983Y-65981631D01*
X161813203Y-65967381D01*
X161822541Y-65965415D01*
X162059002Y-65926056D01*
X162303463Y-65904496D01*
X162554045Y-65900778D01*
X162808869Y-65914944D01*
X163011261Y-65938709D01*
X163073257Y-65948537D01*
X163136875Y-65960090D01*
X163194275Y-65971874D01*
X163229701Y-65980270D01*
X163258778Y-65987720D01*
X163298075Y-65997650D01*
X163331301Y-66005967D01*
X163369630Y-66015826D01*
X163403371Y-66025043D01*
X163422741Y-66030840D01*
X163448419Y-66038936D01*
X163482177Y-66049079D01*
X163493861Y-66052490D01*
X163519893Y-66060931D01*
X163560023Y-66075040D01*
X163609426Y-66093074D01*
X163663278Y-66113291D01*
X163681821Y-66120382D01*
X163870820Y-66199005D01*
X164046962Y-66285331D01*
X164216706Y-66382842D01*
X164386514Y-66495023D01*
X164418421Y-66517641D01*
X164458838Y-66546736D01*
X164493048Y-66571652D01*
X164517763Y-66589977D01*
X164529698Y-66599294D01*
X164530181Y-66599764D01*
X164540065Y-66608630D01*
X164561265Y-66626531D01*
X164589315Y-66649701D01*
X164591141Y-66651195D01*
X164633403Y-66685858D01*
X164664843Y-66712049D01*
X164690432Y-66734083D01*
X164715139Y-66756274D01*
X164743934Y-66782939D01*
X164757631Y-66795750D01*
X164786607Y-66822367D01*
X164809743Y-66842648D01*
X164823258Y-66853315D01*
X164825003Y-66854170D01*
X164832976Y-66847239D01*
X164853940Y-66827234D01*
X164886553Y-66795481D01*
X164929469Y-66753306D01*
X164981345Y-66702036D01*
X165040837Y-66642997D01*
X165106600Y-66577515D01*
X165177292Y-66506918D01*
X165209423Y-66474764D01*
X165588581Y-66095108D01*
X165549601Y-66057106D01*
X165522791Y-66031643D01*
X165484939Y-65996590D01*
X165440252Y-65955786D01*
X165392939Y-65913070D01*
X165347207Y-65872281D01*
X165341471Y-65867209D01*
X165197835Y-65748266D01*
X165038141Y-65630205D01*
X164866587Y-65515539D01*
X164687367Y-65406779D01*
X164504680Y-65306439D01*
X164322722Y-65217032D01*
X164145689Y-65141070D01*
X164098381Y-65122855D01*
X164054255Y-65106222D01*
X164015584Y-65091476D01*
X163987382Y-65080538D01*
X163976461Y-65076136D01*
X163952500Y-65067054D01*
X163914405Y-65053814D01*
X163867487Y-65038151D01*
X163817059Y-65021796D01*
X163768432Y-65006485D01*
X163726920Y-64993950D01*
X163708890Y-64988824D01*
X163669906Y-64978118D01*
X163632865Y-64967900D01*
X163615781Y-64963163D01*
X163584649Y-64955037D01*
X163539512Y-64944146D01*
X163478382Y-64930022D01*
X163402421Y-64912900D01*
X163352913Y-64902843D01*
X163288064Y-64891167D01*
X163212714Y-64878643D01*
X163131700Y-64866042D01*
X163049862Y-64854132D01*
X162972037Y-64843683D01*
X162950301Y-64840962D01*
X162908504Y-64837321D01*
X162849760Y-64834316D01*
X162777324Y-64831946D01*
X162694453Y-64830213D01*
X162604405Y-64829115D01*
X162510436Y-64828653D01*
X162415802Y-64828827D01*
X162323760Y-64829637D01*
X162237567Y-64831084D01*
X162160481Y-64833167D01*
X162095756Y-64835887D01*
X162046651Y-64839244D01*
X162030821Y-64840924D01*
X161938194Y-64852886D01*
X161857818Y-64864147D01*
X161781709Y-64875872D01*
X161710781Y-64887698D01*
X161674005Y-64894075D01*
X161642266Y-64899823D01*
X161612015Y-64905719D01*
X161579701Y-64912536D01*
X161541776Y-64921048D01*
X161494689Y-64932029D01*
X161434892Y-64946254D01*
X161360261Y-64964155D01*
X161328173Y-64972488D01*
X161286876Y-64984053D01*
X161242379Y-64997066D01*
X161200693Y-65009744D01*
X161167827Y-65020300D01*
X161151981Y-65025996D01*
X161131049Y-65033512D01*
X161099047Y-65043893D01*
X161075781Y-65051021D01*
X161041089Y-65061820D01*
X161011848Y-65071678D01*
X160999581Y-65076331D01*
X160980529Y-65083843D01*
X160948650Y-65095858D01*
X160910237Y-65110011D01*
X160903061Y-65112622D01*
X160865879Y-65126574D01*
X160835849Y-65138670D01*
X160818366Y-65146717D01*
X160816701Y-65147754D01*
X160799665Y-65156293D01*
X160781141Y-65162927D01*
X160736492Y-65179211D01*
X160677685Y-65204775D01*
X160607715Y-65238006D01*
X160529578Y-65277294D01*
X160446270Y-65321027D01*
X160360787Y-65367592D01*
X160276124Y-65415378D01*
X160195277Y-65462773D01*
X160121242Y-65508165D01*
X160057016Y-65549942D01*
X160039461Y-65561980D01*
X160004782Y-65586381D01*
X159964186Y-65615346D01*
X159921050Y-65646414D01*
X159878753Y-65677128D01*
X159840671Y-65705027D01*
X159810182Y-65727653D01*
X159790665Y-65742545D01*
X159785461Y-65746915D01*
X159776003Y-65755058D01*
X159753958Y-65773258D01*
X159722580Y-65798847D01*
X159685124Y-65829159D01*
X159683861Y-65830179D01*
X159635388Y-65870484D01*
X159580181Y-65918299D01*
X159525960Y-65966853D01*
X159490821Y-65999457D01*
X159394301Y-66090909D01*
X158947261Y-66090909D01*
X158947261Y-64177261D01*
X158984120Y-64070581D01*
X159006285Y-64010474D01*
X159028263Y-63958181D01*
X159048583Y-63916755D01*
X159065769Y-63889249D01*
X159076465Y-63879234D01*
X159083871Y-63867540D01*
X159084421Y-63862415D01*
X159091421Y-63846039D01*
X159110468Y-63819187D01*
X159138634Y-63784922D01*
X159172989Y-63746308D01*
X159210604Y-63706408D01*
X159248550Y-63668284D01*
X159283897Y-63635001D01*
X159313717Y-63609621D01*
X159335079Y-63595206D01*
X159341998Y-63593060D01*
X159353117Y-63587980D01*
X159376097Y-63574709D01*
X159403775Y-63557500D01*
X159435556Y-63538947D01*
X159462902Y-63526081D01*
X159478140Y-63521941D01*
X159499225Y-63517167D01*
X159506568Y-63512408D01*
X159520121Y-63505515D01*
X159548310Y-63495062D01*
X159586162Y-63482823D01*
X159606257Y-63476848D01*
X159696294Y-63450821D01*
X165289907Y-63450821D01*
X165379944Y-63476848D01*
G36*
X59416447Y-67605103D02*
G01*
X59472008Y-67629933D01*
X59518017Y-67667325D01*
X59534820Y-67688698D01*
X59548428Y-67712232D01*
X59556282Y-67736077D01*
X59559864Y-67767067D01*
X59560661Y-67807812D01*
X59560241Y-67848322D01*
X59557520Y-67875220D01*
X59550302Y-67895218D01*
X59536393Y-67915023D01*
X59518983Y-67935228D01*
X59494101Y-67961901D01*
X59472215Y-67982633D01*
X59460563Y-67991369D01*
X59437716Y-67998424D01*
X59403184Y-68004131D01*
X59365597Y-68007560D01*
X59333585Y-68007784D01*
X59321901Y-68006300D01*
X59294008Y-68000156D01*
X59280188Y-67997200D01*
X59251843Y-67983499D01*
X59220153Y-67956362D01*
X59190054Y-67920908D01*
X59166482Y-67882255D01*
X59163831Y-67876533D01*
X59149179Y-67820503D01*
X59152411Y-67764510D01*
X59171338Y-67711725D01*
X59203765Y-67665321D01*
X59247502Y-67628470D01*
X59300357Y-67604344D01*
X59357583Y-67596101D01*
X59416447Y-67605103D01*
G37*
X59416447Y-67605103D02*
X59472008Y-67629933D01*
X59518017Y-67667325D01*
X59534820Y-67688698D01*
X59548428Y-67712232D01*
X59556282Y-67736077D01*
X59559864Y-67767067D01*
X59560661Y-67807812D01*
X59560241Y-67848322D01*
X59557520Y-67875220D01*
X59550302Y-67895218D01*
X59536393Y-67915023D01*
X59518983Y-67935228D01*
X59494101Y-67961901D01*
X59472215Y-67982633D01*
X59460563Y-67991369D01*
X59437716Y-67998424D01*
X59403184Y-68004131D01*
X59365597Y-68007560D01*
X59333585Y-68007784D01*
X59321901Y-68006300D01*
X59294008Y-68000156D01*
X59280188Y-67997200D01*
X59251843Y-67983499D01*
X59220153Y-67956362D01*
X59190054Y-67920908D01*
X59166482Y-67882255D01*
X59163831Y-67876533D01*
X59149179Y-67820503D01*
X59152411Y-67764510D01*
X59171338Y-67711725D01*
X59203765Y-67665321D01*
X59247502Y-67628470D01*
X59300357Y-67604344D01*
X59357583Y-67596101D01*
X59416447Y-67605103D01*
G36*
X58501651Y-67607743D02*
G01*
X58551869Y-67631252D01*
X58593353Y-67666460D01*
X58622700Y-67711736D01*
X58636507Y-67765448D01*
X58636812Y-67769613D01*
X58638964Y-67821524D01*
X58637029Y-67858834D01*
X58629576Y-67887088D01*
X58615176Y-67911829D01*
X58593557Y-67937349D01*
X58568319Y-67963340D01*
X58546454Y-67983460D01*
X58535137Y-67991832D01*
X58509341Y-67999700D01*
X58471544Y-68004988D01*
X58429972Y-68007066D01*
X58392853Y-68005300D01*
X58382101Y-68003589D01*
X58328967Y-67982605D01*
X58283371Y-67944302D01*
X58247553Y-67890975D01*
X58229993Y-67847525D01*
X58223918Y-67796610D01*
X58234630Y-67743304D01*
X58259917Y-67692429D01*
X58297569Y-67648806D01*
X58332622Y-67623731D01*
X58388624Y-67602351D01*
X58446102Y-67597565D01*
X58501651Y-67607743D01*
G37*
X58501651Y-67607743D02*
X58551869Y-67631252D01*
X58593353Y-67666460D01*
X58622700Y-67711736D01*
X58636507Y-67765448D01*
X58636812Y-67769613D01*
X58638964Y-67821524D01*
X58637029Y-67858834D01*
X58629576Y-67887088D01*
X58615176Y-67911829D01*
X58593557Y-67937349D01*
X58568319Y-67963340D01*
X58546454Y-67983460D01*
X58535137Y-67991832D01*
X58509341Y-67999700D01*
X58471544Y-68004988D01*
X58429972Y-68007066D01*
X58392853Y-68005300D01*
X58382101Y-68003589D01*
X58328967Y-67982605D01*
X58283371Y-67944302D01*
X58247553Y-67890975D01*
X58229993Y-67847525D01*
X58223918Y-67796610D01*
X58234630Y-67743304D01*
X58259917Y-67692429D01*
X58297569Y-67648806D01*
X58332622Y-67623731D01*
X58388624Y-67602351D01*
X58446102Y-67597565D01*
X58501651Y-67607743D01*
G36*
X57522276Y-67597855D02*
G01*
X57588165Y-67610754D01*
X57642047Y-67639096D01*
X57682525Y-67680999D01*
X57708206Y-67734577D01*
X57717693Y-67797946D01*
X57712598Y-67854899D01*
X57697632Y-67895161D01*
X57670294Y-67937169D01*
X57636263Y-67973337D01*
X57609941Y-67991975D01*
X57584856Y-67999701D01*
X57547662Y-68004932D01*
X57506481Y-68007048D01*
X57469439Y-68005432D01*
X57457541Y-68003589D01*
X57404514Y-67983656D01*
X57360570Y-67946722D01*
X57342531Y-67923279D01*
X57313090Y-67865384D01*
X57301704Y-67806485D01*
X57308478Y-67749761D01*
X57333521Y-67698395D01*
X57334920Y-67696476D01*
X57349159Y-67674403D01*
X57355865Y-67658473D01*
X57355941Y-67657472D01*
X57363578Y-67647277D01*
X57366318Y-67646901D01*
X57380378Y-67641673D01*
X57404106Y-67628431D01*
X57416889Y-67620302D01*
X57442294Y-67605423D01*
X57465860Y-67598114D01*
X57495911Y-67596604D01*
X57522276Y-67597855D01*
G37*
X57522276Y-67597855D02*
X57588165Y-67610754D01*
X57642047Y-67639096D01*
X57682525Y-67680999D01*
X57708206Y-67734577D01*
X57717693Y-67797946D01*
X57712598Y-67854899D01*
X57697632Y-67895161D01*
X57670294Y-67937169D01*
X57636263Y-67973337D01*
X57609941Y-67991975D01*
X57584856Y-67999701D01*
X57547662Y-68004932D01*
X57506481Y-68007048D01*
X57469439Y-68005432D01*
X57457541Y-68003589D01*
X57404514Y-67983656D01*
X57360570Y-67946722D01*
X57342531Y-67923279D01*
X57313090Y-67865384D01*
X57301704Y-67806485D01*
X57308478Y-67749761D01*
X57333521Y-67698395D01*
X57334920Y-67696476D01*
X57349159Y-67674403D01*
X57355865Y-67658473D01*
X57355941Y-67657472D01*
X57363578Y-67647277D01*
X57366318Y-67646901D01*
X57380378Y-67641673D01*
X57404106Y-67628431D01*
X57416889Y-67620302D01*
X57442294Y-67605423D01*
X57465860Y-67598114D01*
X57495911Y-67596604D01*
X57522276Y-67597855D01*
G36*
X56597716Y-67597855D02*
G01*
X56642676Y-67603236D01*
X56676906Y-67614502D01*
X56704670Y-67630946D01*
X56747242Y-67666753D01*
X56774009Y-67706489D01*
X56787575Y-67755368D01*
X56790667Y-67803170D01*
X56789204Y-67842669D01*
X56784996Y-67876570D01*
X56778988Y-67897448D01*
X56761470Y-67921918D01*
X56735618Y-67950398D01*
X56708255Y-67975935D01*
X56687008Y-67991173D01*
X56658394Y-67999996D01*
X56618029Y-68005360D01*
X56574292Y-68006578D01*
X56538061Y-68003406D01*
X56482236Y-67984312D01*
X56437046Y-67949089D01*
X56404231Y-67899880D01*
X56385530Y-67838826D01*
X56382405Y-67811771D01*
X56381139Y-67773571D01*
X56384769Y-67746922D01*
X56395133Y-67723284D01*
X56404782Y-67707849D01*
X56420570Y-67681952D01*
X56430102Y-67662381D01*
X56431381Y-67657278D01*
X56439135Y-67647238D01*
X56441758Y-67646901D01*
X56455818Y-67641673D01*
X56479546Y-67628431D01*
X56492329Y-67620302D01*
X56517734Y-67605423D01*
X56541300Y-67598114D01*
X56571351Y-67596604D01*
X56597716Y-67597855D01*
G37*
X56597716Y-67597855D02*
X56642676Y-67603236D01*
X56676906Y-67614502D01*
X56704670Y-67630946D01*
X56747242Y-67666753D01*
X56774009Y-67706489D01*
X56787575Y-67755368D01*
X56790667Y-67803170D01*
X56789204Y-67842669D01*
X56784996Y-67876570D01*
X56778988Y-67897448D01*
X56761470Y-67921918D01*
X56735618Y-67950398D01*
X56708255Y-67975935D01*
X56687008Y-67991173D01*
X56658394Y-67999996D01*
X56618029Y-68005360D01*
X56574292Y-68006578D01*
X56538061Y-68003406D01*
X56482236Y-67984312D01*
X56437046Y-67949089D01*
X56404231Y-67899880D01*
X56385530Y-67838826D01*
X56382405Y-67811771D01*
X56381139Y-67773571D01*
X56384769Y-67746922D01*
X56395133Y-67723284D01*
X56404782Y-67707849D01*
X56420570Y-67681952D01*
X56430102Y-67662381D01*
X56431381Y-67657278D01*
X56439135Y-67647238D01*
X56441758Y-67646901D01*
X56455818Y-67641673D01*
X56479546Y-67628431D01*
X56492329Y-67620302D01*
X56517734Y-67605423D01*
X56541300Y-67598114D01*
X56571351Y-67596604D01*
X56597716Y-67597855D01*
G36*
X55705994Y-67602267D02*
G01*
X55734499Y-67606920D01*
X55758629Y-67617227D01*
X55781156Y-67631661D01*
X55828411Y-67673925D01*
X55857968Y-67723875D01*
X55870557Y-67783346D01*
X55867643Y-67849067D01*
X55858856Y-67885969D01*
X55841029Y-67917007D01*
X55820927Y-67939990D01*
X55795592Y-67964768D01*
X55773293Y-67983898D01*
X55763291Y-67990722D01*
X55736936Y-67998900D01*
X55698629Y-68004613D01*
X55656674Y-68007014D01*
X55619779Y-68005312D01*
X55571494Y-67989727D01*
X55526335Y-67957423D01*
X55488929Y-67911946D01*
X55481643Y-67899508D01*
X55459943Y-67840203D01*
X55457464Y-67780255D01*
X55473422Y-67722595D01*
X55507035Y-67670152D01*
X55554126Y-67628166D01*
X55578960Y-67613234D01*
X55603828Y-67605011D01*
X55636358Y-67601644D01*
X55665169Y-67601181D01*
X55705994Y-67602267D01*
G37*
X55705994Y-67602267D02*
X55734499Y-67606920D01*
X55758629Y-67617227D01*
X55781156Y-67631661D01*
X55828411Y-67673925D01*
X55857968Y-67723875D01*
X55870557Y-67783346D01*
X55867643Y-67849067D01*
X55858856Y-67885969D01*
X55841029Y-67917007D01*
X55820927Y-67939990D01*
X55795592Y-67964768D01*
X55773293Y-67983898D01*
X55763291Y-67990722D01*
X55736936Y-67998900D01*
X55698629Y-68004613D01*
X55656674Y-68007014D01*
X55619779Y-68005312D01*
X55571494Y-67989727D01*
X55526335Y-67957423D01*
X55488929Y-67911946D01*
X55481643Y-67899508D01*
X55459943Y-67840203D01*
X55457464Y-67780255D01*
X55473422Y-67722595D01*
X55507035Y-67670152D01*
X55554126Y-67628166D01*
X55578960Y-67613234D01*
X55603828Y-67605011D01*
X55636358Y-67601644D01*
X55665169Y-67601181D01*
X55705994Y-67602267D01*
G36*
X58939557Y-68479698D02*
G01*
X58991669Y-68496931D01*
X59033093Y-68520048D01*
X59059571Y-68546509D01*
X59063510Y-68553685D01*
X59076831Y-68580574D01*
X59088507Y-68601941D01*
X59101351Y-68641373D01*
X59102931Y-68690530D01*
X59093683Y-68742516D01*
X59076996Y-68785008D01*
X59053727Y-68821525D01*
X59025165Y-68846747D01*
X58999961Y-68861021D01*
X58937631Y-68881905D01*
X58872590Y-68885076D01*
X58810453Y-68870363D01*
X58802561Y-68866983D01*
X58755189Y-68835149D01*
X58720201Y-68790876D01*
X58698308Y-68738355D01*
X58690220Y-68681780D01*
X58696646Y-68625342D01*
X58718297Y-68573234D01*
X58746794Y-68537734D01*
X58797318Y-68501443D01*
X58854619Y-68480182D01*
X58913180Y-68475611D01*
X58939557Y-68479698D01*
G37*
X58939557Y-68479698D02*
X58991669Y-68496931D01*
X59033093Y-68520048D01*
X59059571Y-68546509D01*
X59063510Y-68553685D01*
X59076831Y-68580574D01*
X59088507Y-68601941D01*
X59101351Y-68641373D01*
X59102931Y-68690530D01*
X59093683Y-68742516D01*
X59076996Y-68785008D01*
X59053727Y-68821525D01*
X59025165Y-68846747D01*
X58999961Y-68861021D01*
X58937631Y-68881905D01*
X58872590Y-68885076D01*
X58810453Y-68870363D01*
X58802561Y-68866983D01*
X58755189Y-68835149D01*
X58720201Y-68790876D01*
X58698308Y-68738355D01*
X58690220Y-68681780D01*
X58696646Y-68625342D01*
X58718297Y-68573234D01*
X58746794Y-68537734D01*
X58797318Y-68501443D01*
X58854619Y-68480182D01*
X58913180Y-68475611D01*
X58939557Y-68479698D01*
G36*
X57999795Y-68476066D02*
G01*
X58028484Y-68483763D01*
X58072929Y-68500184D01*
X58108620Y-68520074D01*
X58131623Y-68540809D01*
X58138261Y-68556958D01*
X58143831Y-68570001D01*
X58148137Y-68571461D01*
X58156095Y-68580387D01*
X58166387Y-68603451D01*
X58174087Y-68626752D01*
X58183260Y-68665218D01*
X58184366Y-68695584D01*
X58178505Y-68725812D01*
X58168466Y-68756379D01*
X58157413Y-68780028D01*
X58154100Y-68784821D01*
X58139863Y-68806887D01*
X58135374Y-68816980D01*
X58123469Y-68830595D01*
X58099051Y-68847915D01*
X58077115Y-68860160D01*
X58012396Y-68882447D01*
X57947834Y-68884654D01*
X57884747Y-68866777D01*
X57872427Y-68860793D01*
X57821796Y-68823895D01*
X57786872Y-68775527D01*
X57768826Y-68718414D01*
X57768825Y-68655282D01*
X57773721Y-68630592D01*
X57797557Y-68571125D01*
X57835816Y-68525849D01*
X57889110Y-68494129D01*
X57913444Y-68485493D01*
X57948541Y-68475799D01*
X57974111Y-68472705D01*
X57999795Y-68476066D01*
G37*
X57999795Y-68476066D02*
X58028484Y-68483763D01*
X58072929Y-68500184D01*
X58108620Y-68520074D01*
X58131623Y-68540809D01*
X58138261Y-68556958D01*
X58143831Y-68570001D01*
X58148137Y-68571461D01*
X58156095Y-68580387D01*
X58166387Y-68603451D01*
X58174087Y-68626752D01*
X58183260Y-68665218D01*
X58184366Y-68695584D01*
X58178505Y-68725812D01*
X58168466Y-68756379D01*
X58157413Y-68780028D01*
X58154100Y-68784821D01*
X58139863Y-68806887D01*
X58135374Y-68816980D01*
X58123469Y-68830595D01*
X58099051Y-68847915D01*
X58077115Y-68860160D01*
X58012396Y-68882447D01*
X57947834Y-68884654D01*
X57884747Y-68866777D01*
X57872427Y-68860793D01*
X57821796Y-68823895D01*
X57786872Y-68775527D01*
X57768826Y-68718414D01*
X57768825Y-68655282D01*
X57773721Y-68630592D01*
X57797557Y-68571125D01*
X57835816Y-68525849D01*
X57889110Y-68494129D01*
X57913444Y-68485493D01*
X57948541Y-68475799D01*
X57974111Y-68472705D01*
X57999795Y-68476066D01*
G36*
X57109532Y-68482190D02*
G01*
X57161948Y-68504634D01*
X57205496Y-68542184D01*
X57213228Y-68552100D01*
X57245763Y-68607509D01*
X57261532Y-68659720D01*
X57261463Y-68697020D01*
X57241591Y-68763647D01*
X57207945Y-68817228D01*
X57162995Y-68856434D01*
X57109211Y-68879934D01*
X57049063Y-68886395D01*
X56985024Y-68874488D01*
X56954621Y-68862327D01*
X56920095Y-68841817D01*
X56889533Y-68816585D01*
X56878421Y-68804007D01*
X56866055Y-68785098D01*
X56858480Y-68765644D01*
X56854555Y-68739987D01*
X56853142Y-68702470D01*
X56853021Y-68677902D01*
X56853021Y-68586223D01*
X56891001Y-68545175D01*
X56938982Y-68506343D01*
X56994058Y-68482958D01*
X57052238Y-68474936D01*
X57109532Y-68482190D01*
G37*
X57109532Y-68482190D02*
X57161948Y-68504634D01*
X57205496Y-68542184D01*
X57213228Y-68552100D01*
X57245763Y-68607509D01*
X57261532Y-68659720D01*
X57261463Y-68697020D01*
X57241591Y-68763647D01*
X57207945Y-68817228D01*
X57162995Y-68856434D01*
X57109211Y-68879934D01*
X57049063Y-68886395D01*
X56985024Y-68874488D01*
X56954621Y-68862327D01*
X56920095Y-68841817D01*
X56889533Y-68816585D01*
X56878421Y-68804007D01*
X56866055Y-68785098D01*
X56858480Y-68765644D01*
X56854555Y-68739987D01*
X56853142Y-68702470D01*
X56853021Y-68677902D01*
X56853021Y-68586223D01*
X56891001Y-68545175D01*
X56938982Y-68506343D01*
X56994058Y-68482958D01*
X57052238Y-68474936D01*
X57109532Y-68482190D01*
G36*
X56177321Y-68480504D02*
G01*
X56230445Y-68500741D01*
X56275348Y-68535862D01*
X56288668Y-68552100D01*
X56322716Y-68611386D01*
X56336852Y-68668926D01*
X56331154Y-68726599D01*
X56305703Y-68786284D01*
X56299160Y-68797178D01*
X56259830Y-68842261D01*
X56209777Y-68872040D01*
X56152547Y-68885683D01*
X56091685Y-68882356D01*
X56030734Y-68861224D01*
X56029515Y-68860603D01*
X55995439Y-68839484D01*
X55965136Y-68814728D01*
X55953861Y-68802589D01*
X55941277Y-68784457D01*
X55933673Y-68765477D01*
X55929832Y-68739906D01*
X55928537Y-68702007D01*
X55928461Y-68682693D01*
X55928834Y-68639852D01*
X55931112Y-68611162D01*
X55937028Y-68590454D01*
X55948319Y-68571557D01*
X55966019Y-68549157D01*
X56010325Y-68509478D01*
X56063090Y-68484834D01*
X56120146Y-68475189D01*
X56177321Y-68480504D01*
G37*
X56177321Y-68480504D02*
X56230445Y-68500741D01*
X56275348Y-68535862D01*
X56288668Y-68552100D01*
X56322716Y-68611386D01*
X56336852Y-68668926D01*
X56331154Y-68726599D01*
X56305703Y-68786284D01*
X56299160Y-68797178D01*
X56259830Y-68842261D01*
X56209777Y-68872040D01*
X56152547Y-68885683D01*
X56091685Y-68882356D01*
X56030734Y-68861224D01*
X56029515Y-68860603D01*
X55995439Y-68839484D01*
X55965136Y-68814728D01*
X55953861Y-68802589D01*
X55941277Y-68784457D01*
X55933673Y-68765477D01*
X55929832Y-68739906D01*
X55928537Y-68702007D01*
X55928461Y-68682693D01*
X55928834Y-68639852D01*
X55931112Y-68611162D01*
X55937028Y-68590454D01*
X55948319Y-68571557D01*
X55966019Y-68549157D01*
X56010325Y-68509478D01*
X56063090Y-68484834D01*
X56120146Y-68475189D01*
X56177321Y-68480504D01*
G36*
X55314608Y-64944998D02*
G01*
X55360421Y-64947643D01*
X55393624Y-64953283D01*
X55418062Y-64962925D01*
X55437578Y-64977578D01*
X55455504Y-64997608D01*
X55468243Y-65016409D01*
X55476308Y-65037876D01*
X55481085Y-65067740D01*
X55483960Y-65111731D01*
X55484150Y-65116030D01*
X55485332Y-65161613D01*
X55483516Y-65193626D01*
X55477708Y-65218724D01*
X55466913Y-65243557D01*
X55464346Y-65248546D01*
X55445655Y-65280994D01*
X55426281Y-65304317D01*
X55402453Y-65320120D01*
X55370401Y-65330007D01*
X55326353Y-65335582D01*
X55266537Y-65338452D01*
X55252116Y-65338848D01*
X55120741Y-65342195D01*
X55120741Y-64944341D01*
X55252342Y-64944341D01*
X55314608Y-64944998D01*
G37*
X55314608Y-64944998D02*
X55360421Y-64947643D01*
X55393624Y-64953283D01*
X55418062Y-64962925D01*
X55437578Y-64977578D01*
X55455504Y-64997608D01*
X55468243Y-65016409D01*
X55476308Y-65037876D01*
X55481085Y-65067740D01*
X55483960Y-65111731D01*
X55484150Y-65116030D01*
X55485332Y-65161613D01*
X55483516Y-65193626D01*
X55477708Y-65218724D01*
X55466913Y-65243557D01*
X55464346Y-65248546D01*
X55445655Y-65280994D01*
X55426281Y-65304317D01*
X55402453Y-65320120D01*
X55370401Y-65330007D01*
X55326353Y-65335582D01*
X55266537Y-65338452D01*
X55252116Y-65338848D01*
X55120741Y-65342195D01*
X55120741Y-64944341D01*
X55252342Y-64944341D01*
X55314608Y-64944998D01*
G36*
X59611461Y-67127136D02*
G01*
X59672497Y-67148419D01*
X59724927Y-67171031D01*
X59764552Y-67193010D01*
X59782366Y-67206914D01*
X59797871Y-67218230D01*
X59804241Y-67220181D01*
X59815339Y-67227171D01*
X59835387Y-67245210D01*
X59860131Y-67269901D01*
X59885320Y-67296847D01*
X59906700Y-67321649D01*
X59919995Y-67339870D01*
X59967200Y-67434603D01*
X59995668Y-67526013D01*
X60006014Y-67616981D01*
X59998854Y-67710374D01*
X59990556Y-67754725D01*
X59977663Y-67815620D01*
X59960889Y-67889986D01*
X59940949Y-67974754D01*
X59918557Y-68066853D01*
X59894429Y-68163212D01*
X59883567Y-68205701D01*
X59870679Y-68257541D01*
X59859008Y-68307637D01*
X59849994Y-68349627D01*
X59845628Y-68373341D01*
X59839923Y-68403637D01*
X59830393Y-68447459D01*
X59818417Y-68498691D01*
X59806692Y-68546061D01*
X59792484Y-68602393D01*
X59778111Y-68660320D01*
X59765449Y-68712233D01*
X59757845Y-68744181D01*
X59733646Y-68838186D01*
X59708523Y-68915413D01*
X59681147Y-68979401D01*
X59650192Y-69033686D01*
X59647842Y-69037236D01*
X59603822Y-69095572D01*
X59551548Y-69153084D01*
X59497201Y-69203383D01*
X59459061Y-69232356D01*
X59435787Y-69248572D01*
X59420571Y-69260202D01*
X59418421Y-69262238D01*
X59407564Y-69269264D01*
X59383086Y-69282775D01*
X59349589Y-69300261D01*
X59337141Y-69306576D01*
X59269721Y-69335221D01*
X59193487Y-69356720D01*
X59154841Y-69364609D01*
X59140040Y-69367243D01*
X59124781Y-69369630D01*
X59108048Y-69371781D01*
X59088825Y-69373708D01*
X59066093Y-69375422D01*
X59038838Y-69376934D01*
X59006042Y-69378257D01*
X58966688Y-69379401D01*
X58919760Y-69380379D01*
X58864242Y-69381201D01*
X58799116Y-69381879D01*
X58723366Y-69382425D01*
X58635976Y-69382850D01*
X58535928Y-69383165D01*
X58422207Y-69383383D01*
X58293795Y-69383514D01*
X58149675Y-69383571D01*
X57988832Y-69383564D01*
X57810249Y-69383505D01*
X57612909Y-69383406D01*
X57498761Y-69383340D01*
X57290743Y-69383207D01*
X57102037Y-69383061D01*
X56931636Y-69382889D01*
X56778531Y-69382678D01*
X56641716Y-69382417D01*
X56520181Y-69382092D01*
X56412921Y-69381693D01*
X56318926Y-69381207D01*
X56237189Y-69380621D01*
X56166702Y-69379923D01*
X56106458Y-69379101D01*
X56055449Y-69378142D01*
X56012666Y-69377035D01*
X55977103Y-69375768D01*
X55947752Y-69374327D01*
X55923604Y-69372701D01*
X55903652Y-69370877D01*
X55886889Y-69368844D01*
X55872306Y-69366588D01*
X55858896Y-69364099D01*
X55855271Y-69363370D01*
X55788655Y-69345753D01*
X55719797Y-69320574D01*
X55654851Y-69290565D01*
X55599971Y-69258459D01*
X55572861Y-69237975D01*
X55552275Y-69221216D01*
X55538664Y-69212104D01*
X55536926Y-69211553D01*
X55526155Y-69204846D01*
X55506524Y-69187899D01*
X55482848Y-69165438D01*
X55459942Y-69142189D01*
X55442621Y-69122879D01*
X55435701Y-69112233D01*
X55435701Y-69112197D01*
X55428927Y-69099940D01*
X55412324Y-69081524D01*
X55409354Y-69078692D01*
X55392847Y-69058129D01*
X55372033Y-69025051D01*
X55349490Y-68984523D01*
X55327793Y-68941610D01*
X55309521Y-68901376D01*
X55297250Y-68868886D01*
X55293461Y-68850895D01*
X55290799Y-68832335D01*
X55283607Y-68799406D01*
X55273074Y-68757237D01*
X55263823Y-68723083D01*
X55250728Y-68674679D01*
X55239189Y-68629101D01*
X55230755Y-68592617D01*
X55227637Y-68576541D01*
X55222741Y-68551544D01*
X55213981Y-68511927D01*
X55202519Y-68462761D01*
X55189514Y-68409114D01*
X55186941Y-68398741D01*
X55173488Y-68344190D01*
X55160987Y-68292564D01*
X55150702Y-68249155D01*
X55143900Y-68219251D01*
X55143175Y-68215861D01*
X55136590Y-68186375D01*
X55126612Y-68143839D01*
X55114817Y-68094907D01*
X55107081Y-68063461D01*
X55083388Y-67967525D01*
X55064294Y-67888890D01*
X55049319Y-67825180D01*
X55037985Y-67774022D01*
X55029813Y-67733039D01*
X55024323Y-67699859D01*
X55021036Y-67672105D01*
X55019472Y-67647404D01*
X55019141Y-67627702D01*
X55020510Y-67605201D01*
X55144411Y-67605201D01*
X55148860Y-67687485D01*
X55165240Y-67782459D01*
X55187277Y-67870421D01*
X55200092Y-67918856D01*
X55211548Y-67966378D01*
X55219849Y-68005359D01*
X55222022Y-68017741D01*
X55227556Y-68047213D01*
X55236911Y-68090669D01*
X55248814Y-68142417D01*
X55261991Y-68196770D01*
X55262953Y-68200621D01*
X55279115Y-68265613D01*
X55297560Y-68340365D01*
X55315826Y-68414877D01*
X55329205Y-68469861D01*
X55344291Y-68531747D01*
X55360757Y-68598609D01*
X55377653Y-68666658D01*
X55394030Y-68732106D01*
X55408937Y-68791166D01*
X55421425Y-68840048D01*
X55430543Y-68874965D01*
X55433659Y-68886421D01*
X55447234Y-68917428D01*
X55471649Y-68957568D01*
X55503245Y-69001734D01*
X55538363Y-69044819D01*
X55573346Y-69081718D01*
X55574068Y-69082404D01*
X55628050Y-69127700D01*
X55688667Y-69169022D01*
X55748797Y-69201842D01*
X55785516Y-69216905D01*
X55802328Y-69222706D01*
X55817644Y-69227979D01*
X55832462Y-69232746D01*
X55847779Y-69237032D01*
X55864592Y-69240862D01*
X55883896Y-69244259D01*
X55906690Y-69247247D01*
X55933969Y-69249851D01*
X55966731Y-69252095D01*
X56005972Y-69254002D01*
X56052689Y-69255597D01*
X56107879Y-69256905D01*
X56172538Y-69257948D01*
X56247664Y-69258752D01*
X56334253Y-69259341D01*
X56433301Y-69259737D01*
X56545807Y-69259967D01*
X56672765Y-69260053D01*
X56815174Y-69260020D01*
X56974030Y-69259892D01*
X57150329Y-69259694D01*
X57345069Y-69259448D01*
X57533741Y-69259211D01*
X59128861Y-69257261D01*
X59217551Y-69225607D01*
X59261823Y-69208232D01*
X59302916Y-69189373D01*
X59333965Y-69172268D01*
X59341333Y-69167187D01*
X59364642Y-69150741D01*
X59381442Y-69141277D01*
X59384723Y-69140378D01*
X59397248Y-69133151D01*
X59419352Y-69113978D01*
X59447599Y-69086521D01*
X59478556Y-69054440D01*
X59508785Y-69021395D01*
X59534854Y-68991048D01*
X59553327Y-68967060D01*
X59560768Y-68953090D01*
X59560789Y-68952736D01*
X59565178Y-68938815D01*
X59576501Y-68912811D01*
X59590689Y-68883599D01*
X59608112Y-68843499D01*
X59621755Y-68801776D01*
X59627115Y-68776919D01*
X59632469Y-68747472D01*
X59641853Y-68704623D01*
X59653856Y-68654550D01*
X59664750Y-68612101D01*
X59677981Y-68560320D01*
X59689901Y-68510272D01*
X59699047Y-68468298D01*
X59703434Y-68444461D01*
X59709580Y-68412198D01*
X59719695Y-68367667D01*
X59732087Y-68318113D01*
X59739061Y-68292061D01*
X59751833Y-68243593D01*
X59763146Y-68197065D01*
X59771370Y-68159356D01*
X59774004Y-68144741D01*
X59779217Y-68117001D01*
X59788226Y-68075233D01*
X59799769Y-68025088D01*
X59812580Y-67972217D01*
X59812629Y-67972021D01*
X59836694Y-67874608D01*
X59855787Y-67794215D01*
X59869999Y-67728185D01*
X59879420Y-67673859D01*
X59884141Y-67628577D01*
X59884253Y-67589681D01*
X59879847Y-67554513D01*
X59871013Y-67520414D01*
X59857842Y-67484726D01*
X59840425Y-67444789D01*
X59831299Y-67424880D01*
X59803603Y-67383435D01*
X59760280Y-67341087D01*
X59705639Y-67300859D01*
X59643990Y-67265775D01*
X59579643Y-67238857D01*
X59555581Y-67231454D01*
X59540611Y-67230118D01*
X59506516Y-67228862D01*
X59454493Y-67227686D01*
X59385736Y-67226590D01*
X59301441Y-67225574D01*
X59202803Y-67224638D01*
X59091018Y-67223782D01*
X58967281Y-67223006D01*
X58832787Y-67222310D01*
X58688733Y-67221695D01*
X58536313Y-67221161D01*
X58376722Y-67220706D01*
X58211157Y-67220333D01*
X58040813Y-67220040D01*
X57866885Y-67219827D01*
X57690568Y-67219696D01*
X57513058Y-67219645D01*
X57335550Y-67219675D01*
X57159240Y-67219787D01*
X56985324Y-67219979D01*
X56814996Y-67220252D01*
X56649452Y-67220607D01*
X56489887Y-67221043D01*
X56337498Y-67221560D01*
X56193479Y-67222159D01*
X56059025Y-67222839D01*
X55935333Y-67223601D01*
X55823597Y-67224444D01*
X55725013Y-67225369D01*
X55640777Y-67226376D01*
X55572083Y-67227465D01*
X55520128Y-67228635D01*
X55486106Y-67229888D01*
X55471261Y-67231210D01*
X55382385Y-67264330D01*
X55302441Y-67312546D01*
X55235093Y-67373367D01*
X55203398Y-67413221D01*
X55171605Y-67470197D01*
X55151968Y-67533481D01*
X55144411Y-67605201D01*
X55020510Y-67605201D01*
X55022537Y-67571886D01*
X55031755Y-67515273D01*
X55045332Y-67464350D01*
X55061808Y-67425607D01*
X55066212Y-67418580D01*
X55077201Y-67397703D01*
X55080100Y-67385676D01*
X55086030Y-67368720D01*
X55097880Y-67350666D01*
X55163796Y-67275859D01*
X55229255Y-67217676D01*
X55298537Y-67172979D01*
X55375919Y-67138632D01*
X55397014Y-67131300D01*
X55481421Y-67103341D01*
X59535261Y-67103341D01*
X59611461Y-67127136D01*
G37*
X59611461Y-67127136D02*
X59672497Y-67148419D01*
X59724927Y-67171031D01*
X59764552Y-67193010D01*
X59782366Y-67206914D01*
X59797871Y-67218230D01*
X59804241Y-67220181D01*
X59815339Y-67227171D01*
X59835387Y-67245210D01*
X59860131Y-67269901D01*
X59885320Y-67296847D01*
X59906700Y-67321649D01*
X59919995Y-67339870D01*
X59967200Y-67434603D01*
X59995668Y-67526013D01*
X60006014Y-67616981D01*
X59998854Y-67710374D01*
X59990556Y-67754725D01*
X59977663Y-67815620D01*
X59960889Y-67889986D01*
X59940949Y-67974754D01*
X59918557Y-68066853D01*
X59894429Y-68163212D01*
X59883567Y-68205701D01*
X59870679Y-68257541D01*
X59859008Y-68307637D01*
X59849994Y-68349627D01*
X59845628Y-68373341D01*
X59839923Y-68403637D01*
X59830393Y-68447459D01*
X59818417Y-68498691D01*
X59806692Y-68546061D01*
X59792484Y-68602393D01*
X59778111Y-68660320D01*
X59765449Y-68712233D01*
X59757845Y-68744181D01*
X59733646Y-68838186D01*
X59708523Y-68915413D01*
X59681147Y-68979401D01*
X59650192Y-69033686D01*
X59647842Y-69037236D01*
X59603822Y-69095572D01*
X59551548Y-69153084D01*
X59497201Y-69203383D01*
X59459061Y-69232356D01*
X59435787Y-69248572D01*
X59420571Y-69260202D01*
X59418421Y-69262238D01*
X59407564Y-69269264D01*
X59383086Y-69282775D01*
X59349589Y-69300261D01*
X59337141Y-69306576D01*
X59269721Y-69335221D01*
X59193487Y-69356720D01*
X59154841Y-69364609D01*
X59140040Y-69367243D01*
X59124781Y-69369630D01*
X59108048Y-69371781D01*
X59088825Y-69373708D01*
X59066093Y-69375422D01*
X59038838Y-69376934D01*
X59006042Y-69378257D01*
X58966688Y-69379401D01*
X58919760Y-69380379D01*
X58864242Y-69381201D01*
X58799116Y-69381879D01*
X58723366Y-69382425D01*
X58635976Y-69382850D01*
X58535928Y-69383165D01*
X58422207Y-69383383D01*
X58293795Y-69383514D01*
X58149675Y-69383571D01*
X57988832Y-69383564D01*
X57810249Y-69383505D01*
X57612909Y-69383406D01*
X57498761Y-69383340D01*
X57290743Y-69383207D01*
X57102037Y-69383061D01*
X56931636Y-69382889D01*
X56778531Y-69382678D01*
X56641716Y-69382417D01*
X56520181Y-69382092D01*
X56412921Y-69381693D01*
X56318926Y-69381207D01*
X56237189Y-69380621D01*
X56166702Y-69379923D01*
X56106458Y-69379101D01*
X56055449Y-69378142D01*
X56012666Y-69377035D01*
X55977103Y-69375768D01*
X55947752Y-69374327D01*
X55923604Y-69372701D01*
X55903652Y-69370877D01*
X55886889Y-69368844D01*
X55872306Y-69366588D01*
X55858896Y-69364099D01*
X55855271Y-69363370D01*
X55788655Y-69345753D01*
X55719797Y-69320574D01*
X55654851Y-69290565D01*
X55599971Y-69258459D01*
X55572861Y-69237975D01*
X55552275Y-69221216D01*
X55538664Y-69212104D01*
X55536926Y-69211553D01*
X55526155Y-69204846D01*
X55506524Y-69187899D01*
X55482848Y-69165438D01*
X55459942Y-69142189D01*
X55442621Y-69122879D01*
X55435701Y-69112233D01*
X55435701Y-69112197D01*
X55428927Y-69099940D01*
X55412324Y-69081524D01*
X55409354Y-69078692D01*
X55392847Y-69058129D01*
X55372033Y-69025051D01*
X55349490Y-68984523D01*
X55327793Y-68941610D01*
X55309521Y-68901376D01*
X55297250Y-68868886D01*
X55293461Y-68850895D01*
X55290799Y-68832335D01*
X55283607Y-68799406D01*
X55273074Y-68757237D01*
X55263823Y-68723083D01*
X55250728Y-68674679D01*
X55239189Y-68629101D01*
X55230755Y-68592617D01*
X55227637Y-68576541D01*
X55222741Y-68551544D01*
X55213981Y-68511927D01*
X55202519Y-68462761D01*
X55189514Y-68409114D01*
X55186941Y-68398741D01*
X55173488Y-68344190D01*
X55160987Y-68292564D01*
X55150702Y-68249155D01*
X55143900Y-68219251D01*
X55143175Y-68215861D01*
X55136590Y-68186375D01*
X55126612Y-68143839D01*
X55114817Y-68094907D01*
X55107081Y-68063461D01*
X55083388Y-67967525D01*
X55064294Y-67888890D01*
X55049319Y-67825180D01*
X55037985Y-67774022D01*
X55029813Y-67733039D01*
X55024323Y-67699859D01*
X55021036Y-67672105D01*
X55019472Y-67647404D01*
X55019141Y-67627702D01*
X55020510Y-67605201D01*
X55144411Y-67605201D01*
X55148860Y-67687485D01*
X55165240Y-67782459D01*
X55187277Y-67870421D01*
X55200092Y-67918856D01*
X55211548Y-67966378D01*
X55219849Y-68005359D01*
X55222022Y-68017741D01*
X55227556Y-68047213D01*
X55236911Y-68090669D01*
X55248814Y-68142417D01*
X55261991Y-68196770D01*
X55262953Y-68200621D01*
X55279115Y-68265613D01*
X55297560Y-68340365D01*
X55315826Y-68414877D01*
X55329205Y-68469861D01*
X55344291Y-68531747D01*
X55360757Y-68598609D01*
X55377653Y-68666658D01*
X55394030Y-68732106D01*
X55408937Y-68791166D01*
X55421425Y-68840048D01*
X55430543Y-68874965D01*
X55433659Y-68886421D01*
X55447234Y-68917428D01*
X55471649Y-68957568D01*
X55503245Y-69001734D01*
X55538363Y-69044819D01*
X55573346Y-69081718D01*
X55574068Y-69082404D01*
X55628050Y-69127700D01*
X55688667Y-69169022D01*
X55748797Y-69201842D01*
X55785516Y-69216905D01*
X55802328Y-69222706D01*
X55817644Y-69227979D01*
X55832462Y-69232746D01*
X55847779Y-69237032D01*
X55864592Y-69240862D01*
X55883896Y-69244259D01*
X55906690Y-69247247D01*
X55933969Y-69249851D01*
X55966731Y-69252095D01*
X56005972Y-69254002D01*
X56052689Y-69255597D01*
X56107879Y-69256905D01*
X56172538Y-69257948D01*
X56247664Y-69258752D01*
X56334253Y-69259341D01*
X56433301Y-69259737D01*
X56545807Y-69259967D01*
X56672765Y-69260053D01*
X56815174Y-69260020D01*
X56974030Y-69259892D01*
X57150329Y-69259694D01*
X57345069Y-69259448D01*
X57533741Y-69259211D01*
X59128861Y-69257261D01*
X59217551Y-69225607D01*
X59261823Y-69208232D01*
X59302916Y-69189373D01*
X59333965Y-69172268D01*
X59341333Y-69167187D01*
X59364642Y-69150741D01*
X59381442Y-69141277D01*
X59384723Y-69140378D01*
X59397248Y-69133151D01*
X59419352Y-69113978D01*
X59447599Y-69086521D01*
X59478556Y-69054440D01*
X59508785Y-69021395D01*
X59534854Y-68991048D01*
X59553327Y-68967060D01*
X59560768Y-68953090D01*
X59560789Y-68952736D01*
X59565178Y-68938815D01*
X59576501Y-68912811D01*
X59590689Y-68883599D01*
X59608112Y-68843499D01*
X59621755Y-68801776D01*
X59627115Y-68776919D01*
X59632469Y-68747472D01*
X59641853Y-68704623D01*
X59653856Y-68654550D01*
X59664750Y-68612101D01*
X59677981Y-68560320D01*
X59689901Y-68510272D01*
X59699047Y-68468298D01*
X59703434Y-68444461D01*
X59709580Y-68412198D01*
X59719695Y-68367667D01*
X59732087Y-68318113D01*
X59739061Y-68292061D01*
X59751833Y-68243593D01*
X59763146Y-68197065D01*
X59771370Y-68159356D01*
X59774004Y-68144741D01*
X59779217Y-68117001D01*
X59788226Y-68075233D01*
X59799769Y-68025088D01*
X59812580Y-67972217D01*
X59812629Y-67972021D01*
X59836694Y-67874608D01*
X59855787Y-67794215D01*
X59869999Y-67728185D01*
X59879420Y-67673859D01*
X59884141Y-67628577D01*
X59884253Y-67589681D01*
X59879847Y-67554513D01*
X59871013Y-67520414D01*
X59857842Y-67484726D01*
X59840425Y-67444789D01*
X59831299Y-67424880D01*
X59803603Y-67383435D01*
X59760280Y-67341087D01*
X59705639Y-67300859D01*
X59643990Y-67265775D01*
X59579643Y-67238857D01*
X59555581Y-67231454D01*
X59540611Y-67230118D01*
X59506516Y-67228862D01*
X59454493Y-67227686D01*
X59385736Y-67226590D01*
X59301441Y-67225574D01*
X59202803Y-67224638D01*
X59091018Y-67223782D01*
X58967281Y-67223006D01*
X58832787Y-67222310D01*
X58688733Y-67221695D01*
X58536313Y-67221161D01*
X58376722Y-67220706D01*
X58211157Y-67220333D01*
X58040813Y-67220040D01*
X57866885Y-67219827D01*
X57690568Y-67219696D01*
X57513058Y-67219645D01*
X57335550Y-67219675D01*
X57159240Y-67219787D01*
X56985324Y-67219979D01*
X56814996Y-67220252D01*
X56649452Y-67220607D01*
X56489887Y-67221043D01*
X56337498Y-67221560D01*
X56193479Y-67222159D01*
X56059025Y-67222839D01*
X55935333Y-67223601D01*
X55823597Y-67224444D01*
X55725013Y-67225369D01*
X55640777Y-67226376D01*
X55572083Y-67227465D01*
X55520128Y-67228635D01*
X55486106Y-67229888D01*
X55471261Y-67231210D01*
X55382385Y-67264330D01*
X55302441Y-67312546D01*
X55235093Y-67373367D01*
X55203398Y-67413221D01*
X55171605Y-67470197D01*
X55151968Y-67533481D01*
X55144411Y-67605201D01*
X55020510Y-67605201D01*
X55022537Y-67571886D01*
X55031755Y-67515273D01*
X55045332Y-67464350D01*
X55061808Y-67425607D01*
X55066212Y-67418580D01*
X55077201Y-67397703D01*
X55080100Y-67385676D01*
X55086030Y-67368720D01*
X55097880Y-67350666D01*
X55163796Y-67275859D01*
X55229255Y-67217676D01*
X55298537Y-67172979D01*
X55375919Y-67138632D01*
X55397014Y-67131300D01*
X55481421Y-67103341D01*
X59535261Y-67103341D01*
X59611461Y-67127136D01*
G36*
X60379944Y-63476848D02*
G01*
X60420663Y-63489314D01*
X60454100Y-63500844D01*
X60475282Y-63509663D01*
X60479633Y-63512408D01*
X60497078Y-63520345D01*
X60510294Y-63521941D01*
X60531694Y-63527487D01*
X60559332Y-63541318D01*
X60567587Y-63546596D01*
X60601431Y-63568416D01*
X60637873Y-63590282D01*
X60643605Y-63593538D01*
X60673418Y-63612099D01*
X60698661Y-63630840D01*
X60703661Y-63635296D01*
X60720902Y-63651647D01*
X60747608Y-63676786D01*
X60778384Y-63705638D01*
X60782400Y-63709394D01*
X60809946Y-63736253D01*
X60830499Y-63758393D01*
X60840423Y-63771838D01*
X60840821Y-63773289D01*
X60847583Y-63785912D01*
X60864089Y-63804383D01*
X60866331Y-63806525D01*
X60888278Y-63833020D01*
X60914247Y-63873307D01*
X60941359Y-63922065D01*
X60966735Y-63973974D01*
X60987496Y-64023713D01*
X60994161Y-64042721D01*
X60999680Y-64059038D01*
X61004812Y-64073361D01*
X61009570Y-64086438D01*
X61013970Y-64099016D01*
X61018027Y-64111843D01*
X61021756Y-64125667D01*
X61025171Y-64141236D01*
X61028288Y-64159298D01*
X61031121Y-64180600D01*
X61033685Y-64205891D01*
X61035995Y-64235918D01*
X61038066Y-64271429D01*
X61039913Y-64313173D01*
X61041551Y-64361896D01*
X61042994Y-64418347D01*
X61044258Y-64483273D01*
X61045357Y-64557423D01*
X61046307Y-64641544D01*
X61047121Y-64736385D01*
X61047816Y-64842692D01*
X61048405Y-64961214D01*
X61048904Y-65092699D01*
X61049328Y-65237894D01*
X61049692Y-65397548D01*
X61050009Y-65572408D01*
X61050297Y-65763222D01*
X61050568Y-65970738D01*
X61050838Y-66195704D01*
X61051122Y-66438868D01*
X61051436Y-66700977D01*
X61051731Y-66935701D01*
X61052098Y-67240092D01*
X61052384Y-67524606D01*
X61052587Y-67789686D01*
X61052706Y-68035775D01*
X61052740Y-68263317D01*
X61052687Y-68472753D01*
X61052546Y-68664528D01*
X61052316Y-68839083D01*
X61051996Y-68996863D01*
X61051584Y-69138310D01*
X61051080Y-69263866D01*
X61050481Y-69373976D01*
X61049787Y-69469081D01*
X61048996Y-69549625D01*
X61048108Y-69616052D01*
X61047121Y-69668803D01*
X61046033Y-69708322D01*
X61044844Y-69735051D01*
X61043832Y-69747417D01*
X61034847Y-69801352D01*
X61020848Y-69863335D01*
X61004373Y-69922552D01*
X60998548Y-69940457D01*
X60945215Y-70066834D01*
X60876114Y-70180562D01*
X60791771Y-70281127D01*
X60692717Y-70368015D01*
X60579479Y-70440713D01*
X60452588Y-70498707D01*
X60407534Y-70514621D01*
X60307421Y-70547581D01*
X57518501Y-70549053D01*
X57281297Y-70549148D01*
X57049152Y-70549180D01*
X56822901Y-70549152D01*
X56603384Y-70549067D01*
X56391437Y-70548925D01*
X56187899Y-70548730D01*
X55993607Y-70548482D01*
X55809400Y-70548185D01*
X55636114Y-70547840D01*
X55474588Y-70547450D01*
X55325660Y-70547016D01*
X55190167Y-70546540D01*
X55068947Y-70546025D01*
X54962839Y-70545473D01*
X54872678Y-70544885D01*
X54799305Y-70544265D01*
X54743555Y-70543613D01*
X54706268Y-70542931D01*
X54688281Y-70542223D01*
X54687005Y-70542066D01*
X54622698Y-70526195D01*
X54554068Y-70503973D01*
X54485447Y-70477307D01*
X54421166Y-70448102D01*
X54365559Y-70418264D01*
X54322958Y-70389698D01*
X54305852Y-70374397D01*
X54287189Y-70357475D01*
X54273449Y-70349689D01*
X54272834Y-70349636D01*
X54259265Y-70341917D01*
X54236348Y-70321225D01*
X54206947Y-70290826D01*
X54173929Y-70253988D01*
X54140159Y-70213976D01*
X54108501Y-70174058D01*
X54081821Y-70137499D01*
X54067715Y-70115781D01*
X54044632Y-70072667D01*
X54019646Y-70018336D01*
X53996438Y-69961108D01*
X53984556Y-69927821D01*
X53947261Y-69816061D01*
X53947261Y-67626581D01*
X54822304Y-67626581D01*
X54822867Y-67663211D01*
X54825132Y-67699252D01*
X54829643Y-67737673D01*
X54836945Y-67781445D01*
X54847583Y-67833540D01*
X54862099Y-67896928D01*
X54881039Y-67974580D01*
X54899552Y-68048221D01*
X54912509Y-68100687D01*
X54924337Y-68151023D01*
X54933654Y-68193194D01*
X54938765Y-68219277D01*
X54945573Y-68252374D01*
X54956288Y-68296711D01*
X54968898Y-68344086D01*
X54972450Y-68356623D01*
X54984994Y-68402726D01*
X54995940Y-68447424D01*
X55003397Y-68482857D01*
X55004650Y-68490367D01*
X55009933Y-68517835D01*
X55019333Y-68559340D01*
X55031540Y-68609338D01*
X55045241Y-68662282D01*
X55045786Y-68664323D01*
X55058764Y-68714802D01*
X55069493Y-68760164D01*
X55076937Y-68795770D01*
X55080064Y-68816981D01*
X55080101Y-68818290D01*
X55084080Y-68843880D01*
X55096120Y-68886466D01*
X55116377Y-68946543D01*
X55142826Y-69018815D01*
X55168484Y-69073318D01*
X55206216Y-69135272D01*
X55252352Y-69199283D01*
X55303218Y-69259957D01*
X55317262Y-69275041D01*
X55349006Y-69307296D01*
X55376292Y-69333158D01*
X55395755Y-69349549D01*
X55403315Y-69353781D01*
X55417126Y-69361265D01*
X55427935Y-69373350D01*
X55443667Y-69388049D01*
X55472769Y-69408942D01*
X55510445Y-69433116D01*
X55551898Y-69457661D01*
X55592331Y-69479668D01*
X55626948Y-69496225D01*
X55637264Y-69500366D01*
X55667542Y-69511623D01*
X55706765Y-69526254D01*
X55735421Y-69536967D01*
X55780634Y-69551166D01*
X55830275Y-69562767D01*
X55857341Y-69567152D01*
X55876498Y-69568232D01*
X55914615Y-69569239D01*
X55970334Y-69570176D01*
X56042294Y-69571040D01*
X56129136Y-69571832D01*
X56229500Y-69572552D01*
X56342027Y-69573200D01*
X56465358Y-69573775D01*
X56598134Y-69574276D01*
X56738993Y-69574705D01*
X56886578Y-69575060D01*
X57039529Y-69575342D01*
X57196485Y-69575549D01*
X57356089Y-69575683D01*
X57516979Y-69575742D01*
X57677798Y-69575727D01*
X57837184Y-69575637D01*
X57993780Y-69575472D01*
X58146224Y-69575232D01*
X58293159Y-69574916D01*
X58433224Y-69574525D01*
X58565060Y-69574058D01*
X58687307Y-69573514D01*
X58798607Y-69572895D01*
X58897599Y-69572198D01*
X58982923Y-69571425D01*
X59053222Y-69570575D01*
X59107134Y-69569648D01*
X59143301Y-69568643D01*
X59159341Y-69567698D01*
X59242661Y-69551358D01*
X59335669Y-69521217D01*
X59434565Y-69478675D01*
X59514991Y-69436863D01*
X59551857Y-69413144D01*
X59596696Y-69379832D01*
X59643313Y-69341900D01*
X59685516Y-69304322D01*
X59708944Y-69281074D01*
X59735557Y-69251296D01*
X59764576Y-69216376D01*
X59793004Y-69180248D01*
X59817849Y-69146845D01*
X59836116Y-69120102D01*
X59844810Y-69103950D01*
X59845141Y-69102175D01*
X59849717Y-69088929D01*
X59861611Y-69063898D01*
X59875325Y-69037904D01*
X59894607Y-68996452D01*
X59910770Y-68950810D01*
X59916874Y-68927061D01*
X59925029Y-68890851D01*
X59936722Y-68843686D01*
X59949812Y-68794119D01*
X59953780Y-68779741D01*
X59966358Y-68732117D01*
X59977547Y-68685153D01*
X59985462Y-68646912D01*
X59987046Y-68637501D01*
X59992684Y-68607202D01*
X60002146Y-68563376D01*
X60014062Y-68512141D01*
X60025743Y-68464781D01*
X60053655Y-68354442D01*
X60076615Y-68262631D01*
X60094896Y-68188237D01*
X60108767Y-68130151D01*
X60118501Y-68087262D01*
X60122431Y-68068541D01*
X60129278Y-68037832D01*
X60139967Y-67993881D01*
X60152922Y-67943029D01*
X60164061Y-67900901D01*
X60178335Y-67844424D01*
X60187940Y-67795849D01*
X60193927Y-67747466D01*
X60197349Y-67691562D01*
X60198710Y-67646959D01*
X60199114Y-67586065D01*
X60197568Y-67531485D01*
X60194296Y-67488140D01*
X60190394Y-67464079D01*
X60175089Y-67414858D01*
X60153462Y-67360128D01*
X60128612Y-67306716D01*
X60103637Y-67261446D01*
X60087978Y-67238556D01*
X60070506Y-67214911D01*
X60059937Y-67197877D01*
X60058501Y-67193826D01*
X60051561Y-67184093D01*
X60033144Y-67164266D01*
X60006856Y-67137873D01*
X59976299Y-67108439D01*
X59945078Y-67079490D01*
X59916797Y-67054552D01*
X59912062Y-67050565D01*
X59874409Y-67024936D01*
X59822642Y-66997525D01*
X59762517Y-66970810D01*
X59699790Y-66947270D01*
X59640214Y-66929383D01*
X59619425Y-66924547D01*
X59607967Y-66922262D01*
X59595768Y-66920164D01*
X59581954Y-66918245D01*
X59565655Y-66916498D01*
X59545998Y-66914914D01*
X59522112Y-66913486D01*
X59493125Y-66912205D01*
X59458164Y-66911063D01*
X59416358Y-66910053D01*
X59366835Y-66909166D01*
X59308724Y-66908394D01*
X59241151Y-66907730D01*
X59163245Y-66907165D01*
X59074134Y-66906692D01*
X58972947Y-66906302D01*
X58858811Y-66905987D01*
X58730855Y-66905740D01*
X58588206Y-66905552D01*
X58429993Y-66905415D01*
X58255344Y-66905321D01*
X58063387Y-66905263D01*
X57853249Y-66905233D01*
X57624059Y-66905221D01*
X57513420Y-66905221D01*
X57275436Y-66905225D01*
X57056899Y-66905243D01*
X56856934Y-66905283D01*
X56674670Y-66905353D01*
X56509231Y-66905462D01*
X56359746Y-66905618D01*
X56225341Y-66905829D01*
X56105142Y-66906104D01*
X55998275Y-66906449D01*
X55903868Y-66906875D01*
X55821047Y-66907389D01*
X55748939Y-66907999D01*
X55686670Y-66908713D01*
X55633367Y-66909541D01*
X55588156Y-66910489D01*
X55550164Y-66911566D01*
X55518519Y-66912781D01*
X55492345Y-66914142D01*
X55470770Y-66915657D01*
X55452921Y-66917334D01*
X55437924Y-66919181D01*
X55424905Y-66921207D01*
X55412992Y-66923420D01*
X55404673Y-66925121D01*
X55287969Y-66959220D01*
X55181289Y-67009696D01*
X55085938Y-67074977D01*
X55003219Y-67153492D01*
X54934438Y-67243670D01*
X54880899Y-67343939D01*
X54843908Y-67452726D01*
X54824769Y-67568462D01*
X54822304Y-67626581D01*
X53947261Y-67626581D01*
X53947261Y-66183861D01*
X54846421Y-66183861D01*
X55120741Y-66183861D01*
X55120741Y-65564101D01*
X55219189Y-65564101D01*
X55270272Y-65565421D01*
X55321420Y-65568944D01*
X55364042Y-65574008D01*
X55375962Y-65576147D01*
X55409345Y-65583998D01*
X55429719Y-65593663D01*
X55444090Y-65610474D01*
X55459408Y-65639647D01*
X55467541Y-65657493D01*
X55473934Y-65675643D01*
X55478963Y-65697107D01*
X55483002Y-65724895D01*
X55486426Y-65762016D01*
X55489612Y-65811480D01*
X55492934Y-65876297D01*
X55495327Y-65927728D01*
X55498641Y-65995301D01*
X55502067Y-66056193D01*
X55505400Y-66107432D01*
X55508439Y-66146046D01*
X55510980Y-66169064D01*
X55512153Y-66174108D01*
X55524085Y-66177654D01*
X55552953Y-66180585D01*
X55595375Y-66182692D01*
X55647970Y-66183767D01*
X55669980Y-66183861D01*
X55732213Y-66183495D01*
X55776297Y-66181981D01*
X55804396Y-66178694D01*
X55818675Y-66173009D01*
X55821298Y-66164301D01*
X55814430Y-66151946D01*
X55807955Y-66144021D01*
X55797073Y-66120907D01*
X55787190Y-66078608D01*
X55778448Y-66018244D01*
X55770991Y-65940931D01*
X55764961Y-65847787D01*
X55762081Y-65784617D01*
X55759061Y-65715556D01*
X55756042Y-65665701D01*
X55943701Y-65665701D01*
X55943701Y-65714227D01*
X55946841Y-65781440D01*
X55955463Y-65852394D01*
X55968370Y-65919994D01*
X55984363Y-65977148D01*
X55991091Y-65994868D01*
X56031726Y-66067887D01*
X56086719Y-66127138D01*
X56156668Y-66173112D01*
X56242174Y-66206302D01*
X56252166Y-66209088D01*
X56301925Y-66218080D01*
X56362783Y-66222624D01*
X56426786Y-66222680D01*
X56485979Y-66218210D01*
X56527901Y-66210464D01*
X56603202Y-66183861D01*
X57549938Y-66183861D01*
X58351621Y-66183861D01*
X58351621Y-65970501D01*
X57853781Y-65970501D01*
X57853781Y-65933109D01*
X57860340Y-65902277D01*
X57877793Y-65862569D01*
X57902803Y-65819613D01*
X57932033Y-65779038D01*
X57962146Y-65746471D01*
X57966880Y-65742333D01*
X57985846Y-65724541D01*
X57995650Y-65711764D01*
X57996021Y-65710251D01*
X58002472Y-65701261D01*
X58468461Y-65701261D01*
X58468952Y-65802861D01*
X58470607Y-65853135D01*
X58474619Y-65902064D01*
X58480268Y-65941951D01*
X58483250Y-65955261D01*
X58495766Y-65994718D01*
X58510569Y-66031740D01*
X58525398Y-66061539D01*
X58537990Y-66079328D01*
X58543236Y-66082261D01*
X58553197Y-66090429D01*
X58562508Y-66106292D01*
X58579380Y-66125436D01*
X58611186Y-66147118D01*
X58653118Y-66169073D01*
X58700366Y-66189036D01*
X58748120Y-66204745D01*
X58791004Y-66213860D01*
X58891551Y-66218148D01*
X58990689Y-66205141D01*
X59017101Y-66198474D01*
X59089060Y-66171161D01*
X59398424Y-66171161D01*
X59402471Y-66174488D01*
X59415817Y-66177222D01*
X59439994Y-66179409D01*
X59476531Y-66181099D01*
X59526959Y-66182340D01*
X59592809Y-66183181D01*
X59675612Y-66183670D01*
X59776898Y-66183856D01*
X59799421Y-66183861D01*
X60200741Y-66183861D01*
X60200741Y-65970501D01*
X59953514Y-65970501D01*
X59884690Y-65970289D01*
X59822799Y-65969696D01*
X59770678Y-65968780D01*
X59731165Y-65967602D01*
X59707097Y-65966223D01*
X59700929Y-65965142D01*
X59697532Y-65948876D01*
X59703154Y-65920368D01*
X59716102Y-65884646D01*
X59734686Y-65846737D01*
X59748328Y-65824292D01*
X59769953Y-65795307D01*
X59802135Y-65756673D01*
X59840912Y-65712952D01*
X59882322Y-65668711D01*
X59892251Y-65658483D01*
X59955887Y-65592806D01*
X60012248Y-65533366D01*
X60059815Y-65481829D01*
X60097072Y-65439862D01*
X60122499Y-65409131D01*
X60133147Y-65394029D01*
X60178501Y-65304446D01*
X60206529Y-65219758D01*
X60218109Y-65135836D01*
X60214120Y-65048550D01*
X60211112Y-65027681D01*
X60191556Y-64947006D01*
X60160274Y-64881083D01*
X60115392Y-64826888D01*
X60060362Y-64784719D01*
X60022634Y-64761964D01*
X59989965Y-64745957D01*
X59957361Y-64735569D01*
X59919826Y-64729670D01*
X59872365Y-64727130D01*
X59809983Y-64726819D01*
X59804501Y-64726855D01*
X59747035Y-64727612D01*
X59705431Y-64729344D01*
X59675236Y-64732636D01*
X59651994Y-64738076D01*
X59631253Y-64746250D01*
X59621621Y-64750940D01*
X59549561Y-64796260D01*
X59493479Y-64852039D01*
X59458560Y-64905389D01*
X59443854Y-64933665D01*
X59433859Y-64957435D01*
X59427502Y-64981963D01*
X59423711Y-65012510D01*
X59421412Y-65054339D01*
X59420085Y-65094201D01*
X59416331Y-65218661D01*
X59669652Y-65218661D01*
X59674579Y-65124464D01*
X59678396Y-65078271D01*
X59684255Y-65038401D01*
X59691202Y-65010798D01*
X59693743Y-65005084D01*
X59712414Y-64974475D01*
X59729624Y-64956376D01*
X59751516Y-64947556D01*
X59784232Y-64944783D01*
X59808615Y-64944664D01*
X59862205Y-64948209D01*
X59897192Y-64958452D01*
X59914247Y-64975655D01*
X59916261Y-64986609D01*
X59922955Y-65006349D01*
X59928453Y-65013428D01*
X59934929Y-65030480D01*
X59938575Y-65062054D01*
X59939502Y-65102568D01*
X59937822Y-65146438D01*
X59933649Y-65188082D01*
X59927094Y-65221916D01*
X59924071Y-65231381D01*
X59898185Y-65280568D01*
X59854569Y-65338096D01*
X59819741Y-65376704D01*
X59800171Y-65397280D01*
X59770895Y-65428025D01*
X59736233Y-65464403D01*
X59707952Y-65494069D01*
X59668416Y-65536973D01*
X59627884Y-65583459D01*
X59588649Y-65630611D01*
X59553004Y-65675512D01*
X59523243Y-65715243D01*
X59501658Y-65746887D01*
X59490543Y-65767528D01*
X59489541Y-65771943D01*
X59483473Y-65789047D01*
X59479670Y-65792522D01*
X59462205Y-65813283D01*
X59445840Y-65852014D01*
X59431249Y-65906366D01*
X59419104Y-65973993D01*
X59412584Y-66026381D01*
X59407375Y-66076811D01*
X59403010Y-66120404D01*
X59399904Y-66152922D01*
X59398470Y-66170131D01*
X59398424Y-66171161D01*
X59089060Y-66171161D01*
X59097054Y-66168127D01*
X59162072Y-66125769D01*
X59213029Y-66070287D01*
X59250798Y-66000568D01*
X59276251Y-65915499D01*
X59286117Y-65855468D01*
X59293609Y-65744908D01*
X59287085Y-65648567D01*
X59266574Y-65566642D01*
X59236457Y-65505828D01*
X59209519Y-65469287D01*
X59180838Y-65443833D01*
X59141639Y-65421785D01*
X59139021Y-65420526D01*
X59111323Y-65406170D01*
X59095715Y-65395765D01*
X59095307Y-65391412D01*
X59095978Y-65391389D01*
X59124174Y-65384258D01*
X59159033Y-65365056D01*
X59176723Y-65352065D01*
X59190253Y-65336255D01*
X59208767Y-65308404D01*
X59227523Y-65275865D01*
X59241693Y-65248580D01*
X59251152Y-65226011D01*
X59256844Y-65202934D01*
X59259712Y-65174123D01*
X59260698Y-65134354D01*
X59260767Y-65091661D01*
X59260412Y-65039185D01*
X59258912Y-65001779D01*
X59255351Y-64974194D01*
X59248812Y-64951181D01*
X59238378Y-64927490D01*
X59228833Y-64908781D01*
X59188777Y-64846528D01*
X59138532Y-64797050D01*
X59073182Y-64755520D01*
X59072151Y-64754980D01*
X59050220Y-64744040D01*
X59030491Y-64736401D01*
X59008691Y-64731469D01*
X58980545Y-64728650D01*
X58941777Y-64727348D01*
X58888113Y-64726969D01*
X58870602Y-64726947D01*
X58810939Y-64727083D01*
X58766898Y-64728318D01*
X58733779Y-64731743D01*
X58706884Y-64738451D01*
X58681515Y-64749533D01*
X58652973Y-64766083D01*
X58624439Y-64784157D01*
X58578876Y-64823084D01*
X58535184Y-64879535D01*
X58505945Y-64929876D01*
X58500626Y-64948716D01*
X58495137Y-64982358D01*
X58490275Y-65025304D01*
X58487915Y-65054336D01*
X58480796Y-65157701D01*
X58735407Y-65157701D01*
X58739287Y-65089037D01*
X58745750Y-65035912D01*
X58759306Y-64995656D01*
X58766662Y-64982357D01*
X58790158Y-64944341D01*
X58864626Y-64944341D01*
X58903659Y-64944898D01*
X58928392Y-64947813D01*
X58944838Y-64954951D01*
X58959010Y-64968178D01*
X58965397Y-64975600D01*
X58977563Y-64991574D01*
X58985269Y-65007843D01*
X58989522Y-65029447D01*
X58991330Y-65061427D01*
X58991701Y-65107218D01*
X58991347Y-65153794D01*
X58989627Y-65184852D01*
X58985552Y-65205189D01*
X58978132Y-65219605D01*
X58966378Y-65232897D01*
X58965640Y-65233637D01*
X58932113Y-65263317D01*
X58899291Y-65281741D01*
X58859609Y-65292192D01*
X58819991Y-65296840D01*
X58747861Y-65302888D01*
X58747861Y-65513301D01*
X58816441Y-65513400D01*
X58882829Y-65519363D01*
X58937502Y-65536316D01*
X58978135Y-65563169D01*
X59002406Y-65598829D01*
X59003288Y-65601218D01*
X59010289Y-65634023D01*
X59014561Y-65681004D01*
X59016171Y-65736210D01*
X59015186Y-65793690D01*
X59011674Y-65847494D01*
X59005701Y-65891671D01*
X58999753Y-65914621D01*
X58974394Y-65956791D01*
X58936336Y-65986556D01*
X58890478Y-66000411D01*
X58878916Y-66000981D01*
X58830728Y-65994625D01*
X58792796Y-65973606D01*
X58761928Y-65938328D01*
X58746792Y-65912784D01*
X58737603Y-65885485D01*
X58732463Y-65849299D01*
X58730534Y-65820411D01*
X58728126Y-65769238D01*
X58724931Y-65734288D01*
X58717585Y-65712584D01*
X58702722Y-65701148D01*
X58676977Y-65697003D01*
X58636987Y-65697173D01*
X58592649Y-65698410D01*
X58468461Y-65701261D01*
X58002472Y-65701261D01*
X58002810Y-65700790D01*
X58021546Y-65679635D01*
X58049774Y-65649431D01*
X58085045Y-65612825D01*
X58107256Y-65590215D01*
X58157959Y-65539004D01*
X58196765Y-65499599D01*
X58225925Y-65469217D01*
X58247688Y-65445075D01*
X58264304Y-65424390D01*
X58278022Y-65404382D01*
X58291092Y-65382266D01*
X58305763Y-65355261D01*
X58322362Y-65324169D01*
X58351696Y-65251381D01*
X58367511Y-65171036D01*
X58370056Y-65087827D01*
X58359582Y-65006448D01*
X58336337Y-64931593D01*
X58300571Y-64867954D01*
X58297880Y-64864397D01*
X58272794Y-64834675D01*
X58248830Y-64810971D01*
X58232616Y-64799266D01*
X58215010Y-64788898D01*
X58209381Y-64781961D01*
X58200916Y-64774469D01*
X58179010Y-64762010D01*
X58156041Y-64750846D01*
X58132196Y-64740796D01*
X58109375Y-64733959D01*
X58082908Y-64729747D01*
X58048127Y-64727572D01*
X58000362Y-64726845D01*
X57965541Y-64726853D01*
X57907233Y-64727436D01*
X57864627Y-64729159D01*
X57833113Y-64732584D01*
X57808078Y-64738271D01*
X57784914Y-64746782D01*
X57778390Y-64749634D01*
X57742020Y-64768740D01*
X57705701Y-64792487D01*
X57673783Y-64817436D01*
X57650613Y-64840151D01*
X57640542Y-64857195D01*
X57640421Y-64858661D01*
X57635461Y-64871749D01*
X57631615Y-64873221D01*
X57623113Y-64881767D01*
X57610254Y-64903868D01*
X57599492Y-64926561D01*
X57588329Y-64956326D01*
X57580657Y-64988853D01*
X57575602Y-65029564D01*
X57572290Y-65083883D01*
X57571667Y-65099281D01*
X57567160Y-65218661D01*
X57820482Y-65218661D01*
X57825955Y-65129761D01*
X57833826Y-65059777D01*
X57847588Y-65005888D01*
X57866796Y-64969447D01*
X57883576Y-64954867D01*
X57906623Y-64948616D01*
X57941892Y-64945250D01*
X57981620Y-64944807D01*
X58018045Y-64947328D01*
X58043404Y-64952851D01*
X58045951Y-64954035D01*
X58062927Y-64972655D01*
X58077696Y-65005920D01*
X58088765Y-65048167D01*
X58094641Y-65093735D01*
X58093935Y-65136038D01*
X58089085Y-65173018D01*
X58082354Y-65205501D01*
X58072199Y-65235833D01*
X58057073Y-65266362D01*
X58035431Y-65299433D01*
X58005728Y-65337393D01*
X57966419Y-65382590D01*
X57915958Y-65437369D01*
X57852800Y-65504077D01*
X57848849Y-65508221D01*
X57764140Y-65602772D01*
X57692350Y-65694848D01*
X57635598Y-65781637D01*
X57616426Y-65816475D01*
X57596777Y-65857330D01*
X57583903Y-65893074D01*
X57575560Y-65931844D01*
X57569504Y-65981780D01*
X57568798Y-65989195D01*
X57564165Y-66038383D01*
X57559622Y-66085977D01*
X57555907Y-66124259D01*
X57554782Y-66135601D01*
X57549938Y-66183861D01*
X56603202Y-66183861D01*
X56618592Y-66178424D01*
X56693112Y-66135383D01*
X56753150Y-66080033D01*
X56800395Y-66011064D01*
X56810431Y-65991488D01*
X56823939Y-65962518D01*
X56833036Y-65938319D01*
X56838596Y-65913663D01*
X56841491Y-65883320D01*
X56842594Y-65842063D01*
X56842773Y-65797781D01*
X56842594Y-65744473D01*
X56841390Y-65706478D01*
X56838288Y-65678788D01*
X56832417Y-65656397D01*
X56822906Y-65634298D01*
X56810001Y-65609568D01*
X56787218Y-65571334D01*
X56761774Y-65534847D01*
X56743702Y-65513048D01*
X56709429Y-65480538D01*
X56687978Y-65462501D01*
X56980021Y-65462501D01*
X56980021Y-65572567D01*
X56980628Y-65618005D01*
X56982272Y-65655679D01*
X56984685Y-65681102D01*
X56986983Y-65689597D01*
X56998751Y-65691504D01*
X57027818Y-65692966D01*
X57071170Y-65693928D01*
X57125790Y-65694333D01*
X57188662Y-65694128D01*
X57218123Y-65693830D01*
X57442301Y-65691101D01*
X57445173Y-65576801D01*
X57448046Y-65462501D01*
X56980021Y-65462501D01*
X56687978Y-65462501D01*
X56663000Y-65441500D01*
X56609654Y-65399898D01*
X56554635Y-65359698D01*
X56503185Y-65324867D01*
X56463095Y-65300748D01*
X56438686Y-65285323D01*
X56422782Y-65272474D01*
X56405096Y-65259130D01*
X56378303Y-65243132D01*
X56370534Y-65239039D01*
X56314245Y-65201363D01*
X56272658Y-65154723D01*
X56247076Y-65101969D01*
X56238805Y-65045948D01*
X56249151Y-64989511D01*
X56252405Y-64981148D01*
X56276109Y-64949089D01*
X56313490Y-64927145D01*
X56360007Y-64916427D01*
X56411118Y-64918046D01*
X56457329Y-64930985D01*
X56491459Y-64953568D01*
X56516273Y-64990182D01*
X56532636Y-65042605D01*
X56540661Y-65102311D01*
X56545923Y-65167861D01*
X56807301Y-65167861D01*
X56807097Y-65124681D01*
X56805133Y-65092236D01*
X56800148Y-65049042D01*
X56793159Y-65001484D01*
X56785177Y-64955948D01*
X56777217Y-64918821D01*
X56771216Y-64898621D01*
X56755166Y-64869255D01*
X56730443Y-64834643D01*
X56703421Y-64803198D01*
X56687866Y-64788620D01*
X56664888Y-64768958D01*
X56649321Y-64754430D01*
X56628466Y-64740754D01*
X56601116Y-64730246D01*
X56539087Y-64714239D01*
X56491930Y-64703054D01*
X56454961Y-64695999D01*
X56423495Y-64692382D01*
X56392847Y-64691510D01*
X56358333Y-64692691D01*
X56350101Y-64693138D01*
X56256295Y-64703695D01*
X56177998Y-64724439D01*
X56112638Y-64756284D01*
X56062722Y-64795217D01*
X56018870Y-64843415D01*
X55988347Y-64893990D01*
X55969422Y-64951548D01*
X55960362Y-65020698D01*
X55958941Y-65071341D01*
X55959667Y-65121718D01*
X55962451Y-65157551D01*
X55968196Y-65184583D01*
X55977807Y-65208558D01*
X55981801Y-65216433D01*
X55995331Y-65244704D01*
X56003532Y-65266714D01*
X56004661Y-65272872D01*
X56011552Y-65284893D01*
X56029840Y-65306995D01*
X56055942Y-65335524D01*
X56086279Y-65366827D01*
X56117270Y-65397252D01*
X56145332Y-65423146D01*
X56166887Y-65440855D01*
X56173642Y-65445253D01*
X56193300Y-65458380D01*
X56218815Y-65478345D01*
X56225994Y-65484428D01*
X56249917Y-65502331D01*
X56269707Y-65512456D01*
X56274254Y-65513301D01*
X56287558Y-65518032D01*
X56289141Y-65521861D01*
X56297248Y-65531652D01*
X56317433Y-65545476D01*
X56324701Y-65549571D01*
X56347223Y-65563487D01*
X56359500Y-65574548D01*
X56360261Y-65576571D01*
X56368387Y-65583782D01*
X56373672Y-65584421D01*
X56388477Y-65590632D01*
X56411950Y-65606559D01*
X56428627Y-65619980D01*
X56453641Y-65639908D01*
X56473167Y-65652811D01*
X56480196Y-65655541D01*
X56490617Y-65663457D01*
X56507431Y-65683992D01*
X56523050Y-65706698D01*
X56551984Y-65766232D01*
X56563681Y-65825625D01*
X56558218Y-65881745D01*
X56535673Y-65931461D01*
X56516946Y-65954023D01*
X56473939Y-65984100D01*
X56423581Y-65999153D01*
X56371229Y-65999054D01*
X56322243Y-65983671D01*
X56288357Y-65959574D01*
X56259743Y-65925929D01*
X56240873Y-65888257D01*
X56230280Y-65841817D01*
X56226496Y-65781870D01*
X56226477Y-65759681D01*
X56227395Y-65665701D01*
X55943701Y-65665701D01*
X55756042Y-65665701D01*
X55755895Y-65663284D01*
X55752145Y-65624273D01*
X55747376Y-65594993D01*
X55741149Y-65571916D01*
X55733296Y-65552103D01*
X55710695Y-65515793D01*
X55679355Y-65482565D01*
X55644635Y-65456899D01*
X55611894Y-65443275D01*
X55601816Y-65442181D01*
X55581987Y-65438408D01*
X55580001Y-65429741D01*
X55595420Y-65420150D01*
X55604557Y-65417383D01*
X55639958Y-65401102D01*
X55677344Y-65372387D01*
X55710059Y-65337199D01*
X55729882Y-65305200D01*
X55751798Y-65251909D01*
X55765571Y-65205502D01*
X55772884Y-65157735D01*
X55775416Y-65100365D01*
X55775498Y-65081501D01*
X55774823Y-65032270D01*
X55772123Y-64996570D01*
X55766144Y-64967626D01*
X55755627Y-64938661D01*
X55744381Y-64913648D01*
X55712860Y-64858360D01*
X55673925Y-64815447D01*
X55622482Y-64779983D01*
X55588101Y-64762377D01*
X55532221Y-64736061D01*
X55189321Y-64733018D01*
X54846421Y-64729976D01*
X54846421Y-66183861D01*
X53947261Y-66183861D01*
X53947261Y-64177261D01*
X53984120Y-64070581D01*
X54006285Y-64010474D01*
X54028263Y-63958181D01*
X54048583Y-63916755D01*
X54065769Y-63889249D01*
X54076465Y-63879234D01*
X54083871Y-63867540D01*
X54084421Y-63862415D01*
X54091421Y-63846039D01*
X54110468Y-63819187D01*
X54138634Y-63784922D01*
X54172989Y-63746308D01*
X54210604Y-63706408D01*
X54248550Y-63668284D01*
X54283897Y-63635001D01*
X54313717Y-63609621D01*
X54335079Y-63595206D01*
X54341998Y-63593060D01*
X54353117Y-63587980D01*
X54376097Y-63574709D01*
X54403775Y-63557500D01*
X54435556Y-63538947D01*
X54462902Y-63526081D01*
X54478140Y-63521941D01*
X54499225Y-63517167D01*
X54506568Y-63512408D01*
X54520121Y-63505515D01*
X54548310Y-63495062D01*
X54586162Y-63482823D01*
X54606257Y-63476848D01*
X54696294Y-63450821D01*
X60289907Y-63450821D01*
X60379944Y-63476848D01*
G37*
X60379944Y-63476848D02*
X60420663Y-63489314D01*
X60454100Y-63500844D01*
X60475282Y-63509663D01*
X60479633Y-63512408D01*
X60497078Y-63520345D01*
X60510294Y-63521941D01*
X60531694Y-63527487D01*
X60559332Y-63541318D01*
X60567587Y-63546596D01*
X60601431Y-63568416D01*
X60637873Y-63590282D01*
X60643605Y-63593538D01*
X60673418Y-63612099D01*
X60698661Y-63630840D01*
X60703661Y-63635296D01*
X60720902Y-63651647D01*
X60747608Y-63676786D01*
X60778384Y-63705638D01*
X60782400Y-63709394D01*
X60809946Y-63736253D01*
X60830499Y-63758393D01*
X60840423Y-63771838D01*
X60840821Y-63773289D01*
X60847583Y-63785912D01*
X60864089Y-63804383D01*
X60866331Y-63806525D01*
X60888278Y-63833020D01*
X60914247Y-63873307D01*
X60941359Y-63922065D01*
X60966735Y-63973974D01*
X60987496Y-64023713D01*
X60994161Y-64042721D01*
X60999680Y-64059038D01*
X61004812Y-64073361D01*
X61009570Y-64086438D01*
X61013970Y-64099016D01*
X61018027Y-64111843D01*
X61021756Y-64125667D01*
X61025171Y-64141236D01*
X61028288Y-64159298D01*
X61031121Y-64180600D01*
X61033685Y-64205891D01*
X61035995Y-64235918D01*
X61038066Y-64271429D01*
X61039913Y-64313173D01*
X61041551Y-64361896D01*
X61042994Y-64418347D01*
X61044258Y-64483273D01*
X61045357Y-64557423D01*
X61046307Y-64641544D01*
X61047121Y-64736385D01*
X61047816Y-64842692D01*
X61048405Y-64961214D01*
X61048904Y-65092699D01*
X61049328Y-65237894D01*
X61049692Y-65397548D01*
X61050009Y-65572408D01*
X61050297Y-65763222D01*
X61050568Y-65970738D01*
X61050838Y-66195704D01*
X61051122Y-66438868D01*
X61051436Y-66700977D01*
X61051731Y-66935701D01*
X61052098Y-67240092D01*
X61052384Y-67524606D01*
X61052587Y-67789686D01*
X61052706Y-68035775D01*
X61052740Y-68263317D01*
X61052687Y-68472753D01*
X61052546Y-68664528D01*
X61052316Y-68839083D01*
X61051996Y-68996863D01*
X61051584Y-69138310D01*
X61051080Y-69263866D01*
X61050481Y-69373976D01*
X61049787Y-69469081D01*
X61048996Y-69549625D01*
X61048108Y-69616052D01*
X61047121Y-69668803D01*
X61046033Y-69708322D01*
X61044844Y-69735051D01*
X61043832Y-69747417D01*
X61034847Y-69801352D01*
X61020848Y-69863335D01*
X61004373Y-69922552D01*
X60998548Y-69940457D01*
X60945215Y-70066834D01*
X60876114Y-70180562D01*
X60791771Y-70281127D01*
X60692717Y-70368015D01*
X60579479Y-70440713D01*
X60452588Y-70498707D01*
X60407534Y-70514621D01*
X60307421Y-70547581D01*
X57518501Y-70549053D01*
X57281297Y-70549148D01*
X57049152Y-70549180D01*
X56822901Y-70549152D01*
X56603384Y-70549067D01*
X56391437Y-70548925D01*
X56187899Y-70548730D01*
X55993607Y-70548482D01*
X55809400Y-70548185D01*
X55636114Y-70547840D01*
X55474588Y-70547450D01*
X55325660Y-70547016D01*
X55190167Y-70546540D01*
X55068947Y-70546025D01*
X54962839Y-70545473D01*
X54872678Y-70544885D01*
X54799305Y-70544265D01*
X54743555Y-70543613D01*
X54706268Y-70542931D01*
X54688281Y-70542223D01*
X54687005Y-70542066D01*
X54622698Y-70526195D01*
X54554068Y-70503973D01*
X54485447Y-70477307D01*
X54421166Y-70448102D01*
X54365559Y-70418264D01*
X54322958Y-70389698D01*
X54305852Y-70374397D01*
X54287189Y-70357475D01*
X54273449Y-70349689D01*
X54272834Y-70349636D01*
X54259265Y-70341917D01*
X54236348Y-70321225D01*
X54206947Y-70290826D01*
X54173929Y-70253988D01*
X54140159Y-70213976D01*
X54108501Y-70174058D01*
X54081821Y-70137499D01*
X54067715Y-70115781D01*
X54044632Y-70072667D01*
X54019646Y-70018336D01*
X53996438Y-69961108D01*
X53984556Y-69927821D01*
X53947261Y-69816061D01*
X53947261Y-67626581D01*
X54822304Y-67626581D01*
X54822867Y-67663211D01*
X54825132Y-67699252D01*
X54829643Y-67737673D01*
X54836945Y-67781445D01*
X54847583Y-67833540D01*
X54862099Y-67896928D01*
X54881039Y-67974580D01*
X54899552Y-68048221D01*
X54912509Y-68100687D01*
X54924337Y-68151023D01*
X54933654Y-68193194D01*
X54938765Y-68219277D01*
X54945573Y-68252374D01*
X54956288Y-68296711D01*
X54968898Y-68344086D01*
X54972450Y-68356623D01*
X54984994Y-68402726D01*
X54995940Y-68447424D01*
X55003397Y-68482857D01*
X55004650Y-68490367D01*
X55009933Y-68517835D01*
X55019333Y-68559340D01*
X55031540Y-68609338D01*
X55045241Y-68662282D01*
X55045786Y-68664323D01*
X55058764Y-68714802D01*
X55069493Y-68760164D01*
X55076937Y-68795770D01*
X55080064Y-68816981D01*
X55080101Y-68818290D01*
X55084080Y-68843880D01*
X55096120Y-68886466D01*
X55116377Y-68946543D01*
X55142826Y-69018815D01*
X55168484Y-69073318D01*
X55206216Y-69135272D01*
X55252352Y-69199283D01*
X55303218Y-69259957D01*
X55317262Y-69275041D01*
X55349006Y-69307296D01*
X55376292Y-69333158D01*
X55395755Y-69349549D01*
X55403315Y-69353781D01*
X55417126Y-69361265D01*
X55427935Y-69373350D01*
X55443667Y-69388049D01*
X55472769Y-69408942D01*
X55510445Y-69433116D01*
X55551898Y-69457661D01*
X55592331Y-69479668D01*
X55626948Y-69496225D01*
X55637264Y-69500366D01*
X55667542Y-69511623D01*
X55706765Y-69526254D01*
X55735421Y-69536967D01*
X55780634Y-69551166D01*
X55830275Y-69562767D01*
X55857341Y-69567152D01*
X55876498Y-69568232D01*
X55914615Y-69569239D01*
X55970334Y-69570176D01*
X56042294Y-69571040D01*
X56129136Y-69571832D01*
X56229500Y-69572552D01*
X56342027Y-69573200D01*
X56465358Y-69573775D01*
X56598134Y-69574276D01*
X56738993Y-69574705D01*
X56886578Y-69575060D01*
X57039529Y-69575342D01*
X57196485Y-69575549D01*
X57356089Y-69575683D01*
X57516979Y-69575742D01*
X57677798Y-69575727D01*
X57837184Y-69575637D01*
X57993780Y-69575472D01*
X58146224Y-69575232D01*
X58293159Y-69574916D01*
X58433224Y-69574525D01*
X58565060Y-69574058D01*
X58687307Y-69573514D01*
X58798607Y-69572895D01*
X58897599Y-69572198D01*
X58982923Y-69571425D01*
X59053222Y-69570575D01*
X59107134Y-69569648D01*
X59143301Y-69568643D01*
X59159341Y-69567698D01*
X59242661Y-69551358D01*
X59335669Y-69521217D01*
X59434565Y-69478675D01*
X59514991Y-69436863D01*
X59551857Y-69413144D01*
X59596696Y-69379832D01*
X59643313Y-69341900D01*
X59685516Y-69304322D01*
X59708944Y-69281074D01*
X59735557Y-69251296D01*
X59764576Y-69216376D01*
X59793004Y-69180248D01*
X59817849Y-69146845D01*
X59836116Y-69120102D01*
X59844810Y-69103950D01*
X59845141Y-69102175D01*
X59849717Y-69088929D01*
X59861611Y-69063898D01*
X59875325Y-69037904D01*
X59894607Y-68996452D01*
X59910770Y-68950810D01*
X59916874Y-68927061D01*
X59925029Y-68890851D01*
X59936722Y-68843686D01*
X59949812Y-68794119D01*
X59953780Y-68779741D01*
X59966358Y-68732117D01*
X59977547Y-68685153D01*
X59985462Y-68646912D01*
X59987046Y-68637501D01*
X59992684Y-68607202D01*
X60002146Y-68563376D01*
X60014062Y-68512141D01*
X60025743Y-68464781D01*
X60053655Y-68354442D01*
X60076615Y-68262631D01*
X60094896Y-68188237D01*
X60108767Y-68130151D01*
X60118501Y-68087262D01*
X60122431Y-68068541D01*
X60129278Y-68037832D01*
X60139967Y-67993881D01*
X60152922Y-67943029D01*
X60164061Y-67900901D01*
X60178335Y-67844424D01*
X60187940Y-67795849D01*
X60193927Y-67747466D01*
X60197349Y-67691562D01*
X60198710Y-67646959D01*
X60199114Y-67586065D01*
X60197568Y-67531485D01*
X60194296Y-67488140D01*
X60190394Y-67464079D01*
X60175089Y-67414858D01*
X60153462Y-67360128D01*
X60128612Y-67306716D01*
X60103637Y-67261446D01*
X60087978Y-67238556D01*
X60070506Y-67214911D01*
X60059937Y-67197877D01*
X60058501Y-67193826D01*
X60051561Y-67184093D01*
X60033144Y-67164266D01*
X60006856Y-67137873D01*
X59976299Y-67108439D01*
X59945078Y-67079490D01*
X59916797Y-67054552D01*
X59912062Y-67050565D01*
X59874409Y-67024936D01*
X59822642Y-66997525D01*
X59762517Y-66970810D01*
X59699790Y-66947270D01*
X59640214Y-66929383D01*
X59619425Y-66924547D01*
X59607967Y-66922262D01*
X59595768Y-66920164D01*
X59581954Y-66918245D01*
X59565655Y-66916498D01*
X59545998Y-66914914D01*
X59522112Y-66913486D01*
X59493125Y-66912205D01*
X59458164Y-66911063D01*
X59416358Y-66910053D01*
X59366835Y-66909166D01*
X59308724Y-66908394D01*
X59241151Y-66907730D01*
X59163245Y-66907165D01*
X59074134Y-66906692D01*
X58972947Y-66906302D01*
X58858811Y-66905987D01*
X58730855Y-66905740D01*
X58588206Y-66905552D01*
X58429993Y-66905415D01*
X58255344Y-66905321D01*
X58063387Y-66905263D01*
X57853249Y-66905233D01*
X57624059Y-66905221D01*
X57513420Y-66905221D01*
X57275436Y-66905225D01*
X57056899Y-66905243D01*
X56856934Y-66905283D01*
X56674670Y-66905353D01*
X56509231Y-66905462D01*
X56359746Y-66905618D01*
X56225341Y-66905829D01*
X56105142Y-66906104D01*
X55998275Y-66906449D01*
X55903868Y-66906875D01*
X55821047Y-66907389D01*
X55748939Y-66907999D01*
X55686670Y-66908713D01*
X55633367Y-66909541D01*
X55588156Y-66910489D01*
X55550164Y-66911566D01*
X55518519Y-66912781D01*
X55492345Y-66914142D01*
X55470770Y-66915657D01*
X55452921Y-66917334D01*
X55437924Y-66919181D01*
X55424905Y-66921207D01*
X55412992Y-66923420D01*
X55404673Y-66925121D01*
X55287969Y-66959220D01*
X55181289Y-67009696D01*
X55085938Y-67074977D01*
X55003219Y-67153492D01*
X54934438Y-67243670D01*
X54880899Y-67343939D01*
X54843908Y-67452726D01*
X54824769Y-67568462D01*
X54822304Y-67626581D01*
X53947261Y-67626581D01*
X53947261Y-66183861D01*
X54846421Y-66183861D01*
X55120741Y-66183861D01*
X55120741Y-65564101D01*
X55219189Y-65564101D01*
X55270272Y-65565421D01*
X55321420Y-65568944D01*
X55364042Y-65574008D01*
X55375962Y-65576147D01*
X55409345Y-65583998D01*
X55429719Y-65593663D01*
X55444090Y-65610474D01*
X55459408Y-65639647D01*
X55467541Y-65657493D01*
X55473934Y-65675643D01*
X55478963Y-65697107D01*
X55483002Y-65724895D01*
X55486426Y-65762016D01*
X55489612Y-65811480D01*
X55492934Y-65876297D01*
X55495327Y-65927728D01*
X55498641Y-65995301D01*
X55502067Y-66056193D01*
X55505400Y-66107432D01*
X55508439Y-66146046D01*
X55510980Y-66169064D01*
X55512153Y-66174108D01*
X55524085Y-66177654D01*
X55552953Y-66180585D01*
X55595375Y-66182692D01*
X55647970Y-66183767D01*
X55669980Y-66183861D01*
X55732213Y-66183495D01*
X55776297Y-66181981D01*
X55804396Y-66178694D01*
X55818675Y-66173009D01*
X55821298Y-66164301D01*
X55814430Y-66151946D01*
X55807955Y-66144021D01*
X55797073Y-66120907D01*
X55787190Y-66078608D01*
X55778448Y-66018244D01*
X55770991Y-65940931D01*
X55764961Y-65847787D01*
X55762081Y-65784617D01*
X55759061Y-65715556D01*
X55756042Y-65665701D01*
X55943701Y-65665701D01*
X55943701Y-65714227D01*
X55946841Y-65781440D01*
X55955463Y-65852394D01*
X55968370Y-65919994D01*
X55984363Y-65977148D01*
X55991091Y-65994868D01*
X56031726Y-66067887D01*
X56086719Y-66127138D01*
X56156668Y-66173112D01*
X56242174Y-66206302D01*
X56252166Y-66209088D01*
X56301925Y-66218080D01*
X56362783Y-66222624D01*
X56426786Y-66222680D01*
X56485979Y-66218210D01*
X56527901Y-66210464D01*
X56603202Y-66183861D01*
X57549938Y-66183861D01*
X58351621Y-66183861D01*
X58351621Y-65970501D01*
X57853781Y-65970501D01*
X57853781Y-65933109D01*
X57860340Y-65902277D01*
X57877793Y-65862569D01*
X57902803Y-65819613D01*
X57932033Y-65779038D01*
X57962146Y-65746471D01*
X57966880Y-65742333D01*
X57985846Y-65724541D01*
X57995650Y-65711764D01*
X57996021Y-65710251D01*
X58002472Y-65701261D01*
X58468461Y-65701261D01*
X58468952Y-65802861D01*
X58470607Y-65853135D01*
X58474619Y-65902064D01*
X58480268Y-65941951D01*
X58483250Y-65955261D01*
X58495766Y-65994718D01*
X58510569Y-66031740D01*
X58525398Y-66061539D01*
X58537990Y-66079328D01*
X58543236Y-66082261D01*
X58553197Y-66090429D01*
X58562508Y-66106292D01*
X58579380Y-66125436D01*
X58611186Y-66147118D01*
X58653118Y-66169073D01*
X58700366Y-66189036D01*
X58748120Y-66204745D01*
X58791004Y-66213860D01*
X58891551Y-66218148D01*
X58990689Y-66205141D01*
X59017101Y-66198474D01*
X59089060Y-66171161D01*
X59398424Y-66171161D01*
X59402471Y-66174488D01*
X59415817Y-66177222D01*
X59439994Y-66179409D01*
X59476531Y-66181099D01*
X59526959Y-66182340D01*
X59592809Y-66183181D01*
X59675612Y-66183670D01*
X59776898Y-66183856D01*
X59799421Y-66183861D01*
X60200741Y-66183861D01*
X60200741Y-65970501D01*
X59953514Y-65970501D01*
X59884690Y-65970289D01*
X59822799Y-65969696D01*
X59770678Y-65968780D01*
X59731165Y-65967602D01*
X59707097Y-65966223D01*
X59700929Y-65965142D01*
X59697532Y-65948876D01*
X59703154Y-65920368D01*
X59716102Y-65884646D01*
X59734686Y-65846737D01*
X59748328Y-65824292D01*
X59769953Y-65795307D01*
X59802135Y-65756673D01*
X59840912Y-65712952D01*
X59882322Y-65668711D01*
X59892251Y-65658483D01*
X59955887Y-65592806D01*
X60012248Y-65533366D01*
X60059815Y-65481829D01*
X60097072Y-65439862D01*
X60122499Y-65409131D01*
X60133147Y-65394029D01*
X60178501Y-65304446D01*
X60206529Y-65219758D01*
X60218109Y-65135836D01*
X60214120Y-65048550D01*
X60211112Y-65027681D01*
X60191556Y-64947006D01*
X60160274Y-64881083D01*
X60115392Y-64826888D01*
X60060362Y-64784719D01*
X60022634Y-64761964D01*
X59989965Y-64745957D01*
X59957361Y-64735569D01*
X59919826Y-64729670D01*
X59872365Y-64727130D01*
X59809983Y-64726819D01*
X59804501Y-64726855D01*
X59747035Y-64727612D01*
X59705431Y-64729344D01*
X59675236Y-64732636D01*
X59651994Y-64738076D01*
X59631253Y-64746250D01*
X59621621Y-64750940D01*
X59549561Y-64796260D01*
X59493479Y-64852039D01*
X59458560Y-64905389D01*
X59443854Y-64933665D01*
X59433859Y-64957435D01*
X59427502Y-64981963D01*
X59423711Y-65012510D01*
X59421412Y-65054339D01*
X59420085Y-65094201D01*
X59416331Y-65218661D01*
X59669652Y-65218661D01*
X59674579Y-65124464D01*
X59678396Y-65078271D01*
X59684255Y-65038401D01*
X59691202Y-65010798D01*
X59693743Y-65005084D01*
X59712414Y-64974475D01*
X59729624Y-64956376D01*
X59751516Y-64947556D01*
X59784232Y-64944783D01*
X59808615Y-64944664D01*
X59862205Y-64948209D01*
X59897192Y-64958452D01*
X59914247Y-64975655D01*
X59916261Y-64986609D01*
X59922955Y-65006349D01*
X59928453Y-65013428D01*
X59934929Y-65030480D01*
X59938575Y-65062054D01*
X59939502Y-65102568D01*
X59937822Y-65146438D01*
X59933649Y-65188082D01*
X59927094Y-65221916D01*
X59924071Y-65231381D01*
X59898185Y-65280568D01*
X59854569Y-65338096D01*
X59819741Y-65376704D01*
X59800171Y-65397280D01*
X59770895Y-65428025D01*
X59736233Y-65464403D01*
X59707952Y-65494069D01*
X59668416Y-65536973D01*
X59627884Y-65583459D01*
X59588649Y-65630611D01*
X59553004Y-65675512D01*
X59523243Y-65715243D01*
X59501658Y-65746887D01*
X59490543Y-65767528D01*
X59489541Y-65771943D01*
X59483473Y-65789047D01*
X59479670Y-65792522D01*
X59462205Y-65813283D01*
X59445840Y-65852014D01*
X59431249Y-65906366D01*
X59419104Y-65973993D01*
X59412584Y-66026381D01*
X59407375Y-66076811D01*
X59403010Y-66120404D01*
X59399904Y-66152922D01*
X59398470Y-66170131D01*
X59398424Y-66171161D01*
X59089060Y-66171161D01*
X59097054Y-66168127D01*
X59162072Y-66125769D01*
X59213029Y-66070287D01*
X59250798Y-66000568D01*
X59276251Y-65915499D01*
X59286117Y-65855468D01*
X59293609Y-65744908D01*
X59287085Y-65648567D01*
X59266574Y-65566642D01*
X59236457Y-65505828D01*
X59209519Y-65469287D01*
X59180838Y-65443833D01*
X59141639Y-65421785D01*
X59139021Y-65420526D01*
X59111323Y-65406170D01*
X59095715Y-65395765D01*
X59095307Y-65391412D01*
X59095978Y-65391389D01*
X59124174Y-65384258D01*
X59159033Y-65365056D01*
X59176723Y-65352065D01*
X59190253Y-65336255D01*
X59208767Y-65308404D01*
X59227523Y-65275865D01*
X59241693Y-65248580D01*
X59251152Y-65226011D01*
X59256844Y-65202934D01*
X59259712Y-65174123D01*
X59260698Y-65134354D01*
X59260767Y-65091661D01*
X59260412Y-65039185D01*
X59258912Y-65001779D01*
X59255351Y-64974194D01*
X59248812Y-64951181D01*
X59238378Y-64927490D01*
X59228833Y-64908781D01*
X59188777Y-64846528D01*
X59138532Y-64797050D01*
X59073182Y-64755520D01*
X59072151Y-64754980D01*
X59050220Y-64744040D01*
X59030491Y-64736401D01*
X59008691Y-64731469D01*
X58980545Y-64728650D01*
X58941777Y-64727348D01*
X58888113Y-64726969D01*
X58870602Y-64726947D01*
X58810939Y-64727083D01*
X58766898Y-64728318D01*
X58733779Y-64731743D01*
X58706884Y-64738451D01*
X58681515Y-64749533D01*
X58652973Y-64766083D01*
X58624439Y-64784157D01*
X58578876Y-64823084D01*
X58535184Y-64879535D01*
X58505945Y-64929876D01*
X58500626Y-64948716D01*
X58495137Y-64982358D01*
X58490275Y-65025304D01*
X58487915Y-65054336D01*
X58480796Y-65157701D01*
X58735407Y-65157701D01*
X58739287Y-65089037D01*
X58745750Y-65035912D01*
X58759306Y-64995656D01*
X58766662Y-64982357D01*
X58790158Y-64944341D01*
X58864626Y-64944341D01*
X58903659Y-64944898D01*
X58928392Y-64947813D01*
X58944838Y-64954951D01*
X58959010Y-64968178D01*
X58965397Y-64975600D01*
X58977563Y-64991574D01*
X58985269Y-65007843D01*
X58989522Y-65029447D01*
X58991330Y-65061427D01*
X58991701Y-65107218D01*
X58991347Y-65153794D01*
X58989627Y-65184852D01*
X58985552Y-65205189D01*
X58978132Y-65219605D01*
X58966378Y-65232897D01*
X58965640Y-65233637D01*
X58932113Y-65263317D01*
X58899291Y-65281741D01*
X58859609Y-65292192D01*
X58819991Y-65296840D01*
X58747861Y-65302888D01*
X58747861Y-65513301D01*
X58816441Y-65513400D01*
X58882829Y-65519363D01*
X58937502Y-65536316D01*
X58978135Y-65563169D01*
X59002406Y-65598829D01*
X59003288Y-65601218D01*
X59010289Y-65634023D01*
X59014561Y-65681004D01*
X59016171Y-65736210D01*
X59015186Y-65793690D01*
X59011674Y-65847494D01*
X59005701Y-65891671D01*
X58999753Y-65914621D01*
X58974394Y-65956791D01*
X58936336Y-65986556D01*
X58890478Y-66000411D01*
X58878916Y-66000981D01*
X58830728Y-65994625D01*
X58792796Y-65973606D01*
X58761928Y-65938328D01*
X58746792Y-65912784D01*
X58737603Y-65885485D01*
X58732463Y-65849299D01*
X58730534Y-65820411D01*
X58728126Y-65769238D01*
X58724931Y-65734288D01*
X58717585Y-65712584D01*
X58702722Y-65701148D01*
X58676977Y-65697003D01*
X58636987Y-65697173D01*
X58592649Y-65698410D01*
X58468461Y-65701261D01*
X58002472Y-65701261D01*
X58002810Y-65700790D01*
X58021546Y-65679635D01*
X58049774Y-65649431D01*
X58085045Y-65612825D01*
X58107256Y-65590215D01*
X58157959Y-65539004D01*
X58196765Y-65499599D01*
X58225925Y-65469217D01*
X58247688Y-65445075D01*
X58264304Y-65424390D01*
X58278022Y-65404382D01*
X58291092Y-65382266D01*
X58305763Y-65355261D01*
X58322362Y-65324169D01*
X58351696Y-65251381D01*
X58367511Y-65171036D01*
X58370056Y-65087827D01*
X58359582Y-65006448D01*
X58336337Y-64931593D01*
X58300571Y-64867954D01*
X58297880Y-64864397D01*
X58272794Y-64834675D01*
X58248830Y-64810971D01*
X58232616Y-64799266D01*
X58215010Y-64788898D01*
X58209381Y-64781961D01*
X58200916Y-64774469D01*
X58179010Y-64762010D01*
X58156041Y-64750846D01*
X58132196Y-64740796D01*
X58109375Y-64733959D01*
X58082908Y-64729747D01*
X58048127Y-64727572D01*
X58000362Y-64726845D01*
X57965541Y-64726853D01*
X57907233Y-64727436D01*
X57864627Y-64729159D01*
X57833113Y-64732584D01*
X57808078Y-64738271D01*
X57784914Y-64746782D01*
X57778390Y-64749634D01*
X57742020Y-64768740D01*
X57705701Y-64792487D01*
X57673783Y-64817436D01*
X57650613Y-64840151D01*
X57640542Y-64857195D01*
X57640421Y-64858661D01*
X57635461Y-64871749D01*
X57631615Y-64873221D01*
X57623113Y-64881767D01*
X57610254Y-64903868D01*
X57599492Y-64926561D01*
X57588329Y-64956326D01*
X57580657Y-64988853D01*
X57575602Y-65029564D01*
X57572290Y-65083883D01*
X57571667Y-65099281D01*
X57567160Y-65218661D01*
X57820482Y-65218661D01*
X57825955Y-65129761D01*
X57833826Y-65059777D01*
X57847588Y-65005888D01*
X57866796Y-64969447D01*
X57883576Y-64954867D01*
X57906623Y-64948616D01*
X57941892Y-64945250D01*
X57981620Y-64944807D01*
X58018045Y-64947328D01*
X58043404Y-64952851D01*
X58045951Y-64954035D01*
X58062927Y-64972655D01*
X58077696Y-65005920D01*
X58088765Y-65048167D01*
X58094641Y-65093735D01*
X58093935Y-65136038D01*
X58089085Y-65173018D01*
X58082354Y-65205501D01*
X58072199Y-65235833D01*
X58057073Y-65266362D01*
X58035431Y-65299433D01*
X58005728Y-65337393D01*
X57966419Y-65382590D01*
X57915958Y-65437369D01*
X57852800Y-65504077D01*
X57848849Y-65508221D01*
X57764140Y-65602772D01*
X57692350Y-65694848D01*
X57635598Y-65781637D01*
X57616426Y-65816475D01*
X57596777Y-65857330D01*
X57583903Y-65893074D01*
X57575560Y-65931844D01*
X57569504Y-65981780D01*
X57568798Y-65989195D01*
X57564165Y-66038383D01*
X57559622Y-66085977D01*
X57555907Y-66124259D01*
X57554782Y-66135601D01*
X57549938Y-66183861D01*
X56603202Y-66183861D01*
X56618592Y-66178424D01*
X56693112Y-66135383D01*
X56753150Y-66080033D01*
X56800395Y-66011064D01*
X56810431Y-65991488D01*
X56823939Y-65962518D01*
X56833036Y-65938319D01*
X56838596Y-65913663D01*
X56841491Y-65883320D01*
X56842594Y-65842063D01*
X56842773Y-65797781D01*
X56842594Y-65744473D01*
X56841390Y-65706478D01*
X56838288Y-65678788D01*
X56832417Y-65656397D01*
X56822906Y-65634298D01*
X56810001Y-65609568D01*
X56787218Y-65571334D01*
X56761774Y-65534847D01*
X56743702Y-65513048D01*
X56709429Y-65480538D01*
X56687978Y-65462501D01*
X56980021Y-65462501D01*
X56980021Y-65572567D01*
X56980628Y-65618005D01*
X56982272Y-65655679D01*
X56984685Y-65681102D01*
X56986983Y-65689597D01*
X56998751Y-65691504D01*
X57027818Y-65692966D01*
X57071170Y-65693928D01*
X57125790Y-65694333D01*
X57188662Y-65694128D01*
X57218123Y-65693830D01*
X57442301Y-65691101D01*
X57445173Y-65576801D01*
X57448046Y-65462501D01*
X56980021Y-65462501D01*
X56687978Y-65462501D01*
X56663000Y-65441500D01*
X56609654Y-65399898D01*
X56554635Y-65359698D01*
X56503185Y-65324867D01*
X56463095Y-65300748D01*
X56438686Y-65285323D01*
X56422782Y-65272474D01*
X56405096Y-65259130D01*
X56378303Y-65243132D01*
X56370534Y-65239039D01*
X56314245Y-65201363D01*
X56272658Y-65154723D01*
X56247076Y-65101969D01*
X56238805Y-65045948D01*
X56249151Y-64989511D01*
X56252405Y-64981148D01*
X56276109Y-64949089D01*
X56313490Y-64927145D01*
X56360007Y-64916427D01*
X56411118Y-64918046D01*
X56457329Y-64930985D01*
X56491459Y-64953568D01*
X56516273Y-64990182D01*
X56532636Y-65042605D01*
X56540661Y-65102311D01*
X56545923Y-65167861D01*
X56807301Y-65167861D01*
X56807097Y-65124681D01*
X56805133Y-65092236D01*
X56800148Y-65049042D01*
X56793159Y-65001484D01*
X56785177Y-64955948D01*
X56777217Y-64918821D01*
X56771216Y-64898621D01*
X56755166Y-64869255D01*
X56730443Y-64834643D01*
X56703421Y-64803198D01*
X56687866Y-64788620D01*
X56664888Y-64768958D01*
X56649321Y-64754430D01*
X56628466Y-64740754D01*
X56601116Y-64730246D01*
X56539087Y-64714239D01*
X56491930Y-64703054D01*
X56454961Y-64695999D01*
X56423495Y-64692382D01*
X56392847Y-64691510D01*
X56358333Y-64692691D01*
X56350101Y-64693138D01*
X56256295Y-64703695D01*
X56177998Y-64724439D01*
X56112638Y-64756284D01*
X56062722Y-64795217D01*
X56018870Y-64843415D01*
X55988347Y-64893990D01*
X55969422Y-64951548D01*
X55960362Y-65020698D01*
X55958941Y-65071341D01*
X55959667Y-65121718D01*
X55962451Y-65157551D01*
X55968196Y-65184583D01*
X55977807Y-65208558D01*
X55981801Y-65216433D01*
X55995331Y-65244704D01*
X56003532Y-65266714D01*
X56004661Y-65272872D01*
X56011552Y-65284893D01*
X56029840Y-65306995D01*
X56055942Y-65335524D01*
X56086279Y-65366827D01*
X56117270Y-65397252D01*
X56145332Y-65423146D01*
X56166887Y-65440855D01*
X56173642Y-65445253D01*
X56193300Y-65458380D01*
X56218815Y-65478345D01*
X56225994Y-65484428D01*
X56249917Y-65502331D01*
X56269707Y-65512456D01*
X56274254Y-65513301D01*
X56287558Y-65518032D01*
X56289141Y-65521861D01*
X56297248Y-65531652D01*
X56317433Y-65545476D01*
X56324701Y-65549571D01*
X56347223Y-65563487D01*
X56359500Y-65574548D01*
X56360261Y-65576571D01*
X56368387Y-65583782D01*
X56373672Y-65584421D01*
X56388477Y-65590632D01*
X56411950Y-65606559D01*
X56428627Y-65619980D01*
X56453641Y-65639908D01*
X56473167Y-65652811D01*
X56480196Y-65655541D01*
X56490617Y-65663457D01*
X56507431Y-65683992D01*
X56523050Y-65706698D01*
X56551984Y-65766232D01*
X56563681Y-65825625D01*
X56558218Y-65881745D01*
X56535673Y-65931461D01*
X56516946Y-65954023D01*
X56473939Y-65984100D01*
X56423581Y-65999153D01*
X56371229Y-65999054D01*
X56322243Y-65983671D01*
X56288357Y-65959574D01*
X56259743Y-65925929D01*
X56240873Y-65888257D01*
X56230280Y-65841817D01*
X56226496Y-65781870D01*
X56226477Y-65759681D01*
X56227395Y-65665701D01*
X55943701Y-65665701D01*
X55756042Y-65665701D01*
X55755895Y-65663284D01*
X55752145Y-65624273D01*
X55747376Y-65594993D01*
X55741149Y-65571916D01*
X55733296Y-65552103D01*
X55710695Y-65515793D01*
X55679355Y-65482565D01*
X55644635Y-65456899D01*
X55611894Y-65443275D01*
X55601816Y-65442181D01*
X55581987Y-65438408D01*
X55580001Y-65429741D01*
X55595420Y-65420150D01*
X55604557Y-65417383D01*
X55639958Y-65401102D01*
X55677344Y-65372387D01*
X55710059Y-65337199D01*
X55729882Y-65305200D01*
X55751798Y-65251909D01*
X55765571Y-65205502D01*
X55772884Y-65157735D01*
X55775416Y-65100365D01*
X55775498Y-65081501D01*
X55774823Y-65032270D01*
X55772123Y-64996570D01*
X55766144Y-64967626D01*
X55755627Y-64938661D01*
X55744381Y-64913648D01*
X55712860Y-64858360D01*
X55673925Y-64815447D01*
X55622482Y-64779983D01*
X55588101Y-64762377D01*
X55532221Y-64736061D01*
X55189321Y-64733018D01*
X54846421Y-64729976D01*
X54846421Y-66183861D01*
X53947261Y-66183861D01*
X53947261Y-64177261D01*
X53984120Y-64070581D01*
X54006285Y-64010474D01*
X54028263Y-63958181D01*
X54048583Y-63916755D01*
X54065769Y-63889249D01*
X54076465Y-63879234D01*
X54083871Y-63867540D01*
X54084421Y-63862415D01*
X54091421Y-63846039D01*
X54110468Y-63819187D01*
X54138634Y-63784922D01*
X54172989Y-63746308D01*
X54210604Y-63706408D01*
X54248550Y-63668284D01*
X54283897Y-63635001D01*
X54313717Y-63609621D01*
X54335079Y-63595206D01*
X54341998Y-63593060D01*
X54353117Y-63587980D01*
X54376097Y-63574709D01*
X54403775Y-63557500D01*
X54435556Y-63538947D01*
X54462902Y-63526081D01*
X54478140Y-63521941D01*
X54499225Y-63517167D01*
X54506568Y-63512408D01*
X54520121Y-63505515D01*
X54548310Y-63495062D01*
X54586162Y-63482823D01*
X54606257Y-63476848D01*
X54696294Y-63450821D01*
X60289907Y-63450821D01*
X60379944Y-63476848D01*
D11*
X129795000Y-77800000D02*
G75*
G02X127665000Y-79930000I-2130000J0D01*
G01*
X127665000Y-54070000D02*
G75*
G02X129795000Y-56200000I0J-2130000D01*
G01*
X102235000Y-56610000D02*
X95335000Y-56610000D01*
X102235000Y-54070000D02*
X102235000Y-56610000D01*
X129795000Y-77810000D02*
X129795000Y-56200000D01*
X95335000Y-79930000D02*
X127665000Y-79930000D01*
X102235000Y-54070000D02*
X127665000Y-54070000D01*
X95335000Y-56610000D02*
X95335000Y-79930000D01*
X71728071Y-62800000D02*
X71331000Y-62800000D01*
X71728071Y-63560000D02*
X71331000Y-63560000D01*
X71331000Y-64450000D02*
X68671000Y-64450000D01*
X71728071Y-65340000D02*
X71331000Y-65340000D01*
X71728071Y-66100000D02*
X71331000Y-66100000D01*
X71331000Y-66990000D02*
X68671000Y-66990000D01*
X71728071Y-67880000D02*
X71331000Y-67880000D01*
X71728071Y-68640000D02*
X71331000Y-68640000D01*
X71331000Y-69530000D02*
X68671000Y-69530000D01*
X71661000Y-70420000D02*
X71331000Y-70420000D01*
X71661000Y-71180000D02*
X71331000Y-71180000D01*
X68671000Y-72130000D02*
X71331000Y-72130000D01*
X68671000Y-61850000D02*
X68671000Y-72130000D01*
X71331000Y-61850000D02*
X68671000Y-61850000D01*
X71331000Y-72130000D02*
X71331000Y-61850000D01*
X102345000Y-82960000D02*
X102345000Y-81630000D01*
X103675000Y-82960000D02*
X102345000Y-82960000D01*
X104945000Y-82960000D02*
X104945000Y-80300000D01*
X104945000Y-80300000D02*
X122785000Y-80300000D01*
X104945000Y-82960000D02*
X122785000Y-82960000D01*
X122785000Y-82960000D02*
X122785000Y-80300000D01*
X122785000Y-51040000D02*
X122785000Y-52370000D01*
X121455000Y-51040000D02*
X122785000Y-51040000D01*
X120185000Y-51040000D02*
X120185000Y-53700000D01*
X120185000Y-53700000D02*
X102345000Y-53700000D01*
X120185000Y-51040000D02*
X102345000Y-51040000D01*
X102345000Y-51040000D02*
X102345000Y-53700000D01*
X136640000Y-77205000D02*
X138875000Y-77205000D01*
X136640000Y-56765000D02*
X136640000Y-77205000D01*
X143110000Y-56765000D02*
X136640000Y-56765000D01*
X143110000Y-77205000D02*
X143110000Y-56765000D01*
X140875000Y-77205000D02*
X143110000Y-77205000D01*
X138875000Y-77205000D02*
G75*
G02X140875000Y-77205000I1000000J0D01*
G01*
X102725000Y-63590000D02*
X108735000Y-63590000D01*
X104975000Y-70410000D02*
X108735000Y-70410000D01*
X108735000Y-63590000D02*
X108735000Y-64850000D01*
X108735000Y-70410000D02*
X108735000Y-69150000D01*
D10*
X149293333Y-70089641D02*
X149245714Y-70137260D01*
X149102857Y-70184879D01*
X149007619Y-70184879D01*
X148864761Y-70137260D01*
X148769523Y-70042022D01*
X148721904Y-69946784D01*
X148674285Y-69756308D01*
X148674285Y-69613451D01*
X148721904Y-69422975D01*
X148769523Y-69327737D01*
X148864761Y-69232499D01*
X149007619Y-69184879D01*
X149102857Y-69184879D01*
X149245714Y-69232499D01*
X149293333Y-69280118D01*
X150150476Y-69518213D02*
X150150476Y-70184879D01*
X149912380Y-69137260D02*
X149674285Y-69851546D01*
X150293333Y-69851546D01*
X149293333Y-64689643D02*
X149245714Y-64737262D01*
X149102857Y-64784881D01*
X149007619Y-64784881D01*
X148864761Y-64737262D01*
X148769523Y-64642024D01*
X148721904Y-64546786D01*
X148674285Y-64356310D01*
X148674285Y-64213453D01*
X148721904Y-64022977D01*
X148769523Y-63927739D01*
X148864761Y-63832501D01*
X149007619Y-63784881D01*
X149102857Y-63784881D01*
X149245714Y-63832501D01*
X149293333Y-63880120D01*
X150198095Y-63784881D02*
X149721904Y-63784881D01*
X149674285Y-64261072D01*
X149721904Y-64213453D01*
X149817142Y-64165834D01*
X150055238Y-64165834D01*
X150150476Y-64213453D01*
X150198095Y-64261072D01*
X150245714Y-64356310D01*
X150245714Y-64594405D01*
X150198095Y-64689643D01*
X150150476Y-64737262D01*
X150055238Y-64784881D01*
X149817142Y-64784881D01*
X149721904Y-64737262D01*
X149674285Y-64689643D01*
X149293333Y-59304642D02*
X149245714Y-59352261D01*
X149102857Y-59399880D01*
X149007619Y-59399880D01*
X148864761Y-59352261D01*
X148769523Y-59257023D01*
X148721904Y-59161785D01*
X148674285Y-58971309D01*
X148674285Y-58828452D01*
X148721904Y-58637976D01*
X148769523Y-58542738D01*
X148864761Y-58447500D01*
X149007619Y-58399880D01*
X149102857Y-58399880D01*
X149245714Y-58447500D01*
X149293333Y-58495119D01*
X150150476Y-58399880D02*
X149960000Y-58399880D01*
X149864761Y-58447500D01*
X149817142Y-58495119D01*
X149721904Y-58637976D01*
X149674285Y-58828452D01*
X149674285Y-59209404D01*
X149721904Y-59304642D01*
X149769523Y-59352261D01*
X149864761Y-59399880D01*
X150055238Y-59399880D01*
X150150476Y-59352261D01*
X150198095Y-59304642D01*
X150245714Y-59209404D01*
X150245714Y-58971309D01*
X150198095Y-58876071D01*
X150150476Y-58828452D01*
X150055238Y-58780833D01*
X149864761Y-58780833D01*
X149769523Y-58828452D01*
X149721904Y-58876071D01*
X149674285Y-58971309D01*
X149293333Y-75474642D02*
X149245714Y-75522261D01*
X149102857Y-75569880D01*
X149007619Y-75569880D01*
X148864761Y-75522261D01*
X148769523Y-75427023D01*
X148721904Y-75331785D01*
X148674285Y-75141309D01*
X148674285Y-74998452D01*
X148721904Y-74807976D01*
X148769523Y-74712738D01*
X148864761Y-74617500D01*
X149007619Y-74569880D01*
X149102857Y-74569880D01*
X149245714Y-74617500D01*
X149293333Y-74665119D01*
X149626666Y-74569880D02*
X150245714Y-74569880D01*
X149912380Y-74950833D01*
X150055238Y-74950833D01*
X150150476Y-74998452D01*
X150198095Y-75046071D01*
X150245714Y-75141309D01*
X150245714Y-75379404D01*
X150198095Y-75474642D01*
X150150476Y-75522261D01*
X150055238Y-75569880D01*
X149769523Y-75569880D01*
X149674285Y-75522261D01*
X149626666Y-75474642D01*
X121288333Y-64084142D02*
X121240714Y-64131761D01*
X121097857Y-64179380D01*
X121002619Y-64179380D01*
X120859761Y-64131761D01*
X120764523Y-64036523D01*
X120716904Y-63941285D01*
X120669285Y-63750809D01*
X120669285Y-63607952D01*
X120716904Y-63417476D01*
X120764523Y-63322238D01*
X120859761Y-63227000D01*
X121002619Y-63179380D01*
X121097857Y-63179380D01*
X121240714Y-63227000D01*
X121288333Y-63274619D01*
X121669285Y-63274619D02*
X121716904Y-63227000D01*
X121812142Y-63179380D01*
X122050238Y-63179380D01*
X122145476Y-63227000D01*
X122193095Y-63274619D01*
X122240714Y-63369857D01*
X122240714Y-63465095D01*
X122193095Y-63607952D01*
X121621666Y-64179380D01*
X122240714Y-64179380D01*
X116208333Y-64084142D02*
X116160714Y-64131761D01*
X116017857Y-64179380D01*
X115922619Y-64179380D01*
X115779761Y-64131761D01*
X115684523Y-64036523D01*
X115636904Y-63941285D01*
X115589285Y-63750809D01*
X115589285Y-63607952D01*
X115636904Y-63417476D01*
X115684523Y-63322238D01*
X115779761Y-63227000D01*
X115922619Y-63179380D01*
X116017857Y-63179380D01*
X116160714Y-63227000D01*
X116208333Y-63274619D01*
X117160714Y-64179380D02*
X116589285Y-64179380D01*
X116875000Y-64179380D02*
X116875000Y-63179380D01*
X116779761Y-63322238D01*
X116684523Y-63417476D01*
X116589285Y-63465095D01*
X136737142Y-56205380D02*
X136737142Y-55205380D01*
X137070476Y-55919666D01*
X137403809Y-55205380D01*
X137403809Y-56205380D01*
X137832380Y-55919666D02*
X138308571Y-55919666D01*
X137737142Y-56205380D02*
X138070476Y-55205380D01*
X138403809Y-56205380D01*
X138641904Y-55205380D02*
X139308571Y-56205380D01*
X139308571Y-55205380D02*
X138641904Y-56205380D01*
X139594285Y-55205380D02*
X140213333Y-55205380D01*
X139880000Y-55586333D01*
X140022857Y-55586333D01*
X140118095Y-55633952D01*
X140165714Y-55681571D01*
X140213333Y-55776809D01*
X140213333Y-56014904D01*
X140165714Y-56110142D01*
X140118095Y-56157761D01*
X140022857Y-56205380D01*
X139737142Y-56205380D01*
X139641904Y-56157761D01*
X139594285Y-56110142D01*
X140594285Y-55300619D02*
X140641904Y-55253000D01*
X140737142Y-55205380D01*
X140975238Y-55205380D01*
X141070476Y-55253000D01*
X141118095Y-55300619D01*
X141165714Y-55395857D01*
X141165714Y-55491095D01*
X141118095Y-55633952D01*
X140546666Y-56205380D01*
X141165714Y-56205380D01*
X141499047Y-55205380D02*
X142118095Y-55205380D01*
X141784761Y-55586333D01*
X141927619Y-55586333D01*
X142022857Y-55633952D01*
X142070476Y-55681571D01*
X142118095Y-55776809D01*
X142118095Y-56014904D01*
X142070476Y-56110142D01*
X142022857Y-56157761D01*
X141927619Y-56205380D01*
X141641904Y-56205380D01*
X141546666Y-56157761D01*
X141499047Y-56110142D01*
X142499047Y-55300619D02*
X142546666Y-55253000D01*
X142641904Y-55205380D01*
X142880000Y-55205380D01*
X142975238Y-55253000D01*
X143022857Y-55300619D01*
X143070476Y-55395857D01*
X143070476Y-55491095D01*
X143022857Y-55633952D01*
X142451428Y-56205380D01*
X143070476Y-56205380D01*
M02*
