G04 #@! TF.GenerationSoftware,KiCad,Pcbnew,5.1.5+dfsg1-2build2*
G04 #@! TF.CreationDate,2020-06-17T17:13:45+02:00*
G04 #@! TF.ProjectId,termint-wifi,7465726d-696e-4742-9d77-6966692e6b69,rev?*
G04 #@! TF.SameCoordinates,Original*
G04 #@! TF.FileFunction,Copper,L1,Top*
G04 #@! TF.FilePolarity,Positive*
%FSLAX46Y46*%
G04 Gerber Fmt 4.6, Leading zero omitted, Abs format (unit mm)*
G04 Created by KiCad (PCBNEW 5.1.5+dfsg1-2build2) date 2020-06-17 17:13:45*
%MOMM*%
%LPD*%
G04 APERTURE LIST*
%ADD10O,1.600000X2.000000*%
%ADD11C,0.100000*%
%ADD12R,0.900000X0.800000*%
%ADD13O,1.700000X1.700000*%
%ADD14C,1.700000*%
%ADD15C,5.700000*%
%ADD16R,2.000000X1.500000*%
%ADD17R,2.000000X3.800000*%
%ADD18C,1.000000*%
%ADD19C,0.800000*%
%ADD20C,0.500000*%
%ADD21C,0.600000*%
%ADD22C,0.254000*%
G04 APERTURE END LIST*
D10*
X146455000Y-78430000D03*
X143915000Y-78430000D03*
X141375000Y-78430000D03*
X138835000Y-78430000D03*
X136295000Y-78430000D03*
X133755000Y-78430000D03*
G04 #@! TA.AperFunction,ComponentPad*
D11*
G36*
X131654207Y-77431926D02*
G01*
X131693036Y-77437686D01*
X131731114Y-77447224D01*
X131768073Y-77460448D01*
X131803559Y-77477231D01*
X131837228Y-77497412D01*
X131868757Y-77520796D01*
X131897843Y-77547157D01*
X131924204Y-77576243D01*
X131947588Y-77607772D01*
X131967769Y-77641441D01*
X131984552Y-77676927D01*
X131997776Y-77713886D01*
X132007314Y-77751964D01*
X132013074Y-77790793D01*
X132015000Y-77830000D01*
X132015000Y-79030000D01*
X132013074Y-79069207D01*
X132007314Y-79108036D01*
X131997776Y-79146114D01*
X131984552Y-79183073D01*
X131967769Y-79218559D01*
X131947588Y-79252228D01*
X131924204Y-79283757D01*
X131897843Y-79312843D01*
X131868757Y-79339204D01*
X131837228Y-79362588D01*
X131803559Y-79382769D01*
X131768073Y-79399552D01*
X131731114Y-79412776D01*
X131693036Y-79422314D01*
X131654207Y-79428074D01*
X131615000Y-79430000D01*
X130815000Y-79430000D01*
X130775793Y-79428074D01*
X130736964Y-79422314D01*
X130698886Y-79412776D01*
X130661927Y-79399552D01*
X130626441Y-79382769D01*
X130592772Y-79362588D01*
X130561243Y-79339204D01*
X130532157Y-79312843D01*
X130505796Y-79283757D01*
X130482412Y-79252228D01*
X130462231Y-79218559D01*
X130445448Y-79183073D01*
X130432224Y-79146114D01*
X130422686Y-79108036D01*
X130416926Y-79069207D01*
X130415000Y-79030000D01*
X130415000Y-77830000D01*
X130416926Y-77790793D01*
X130422686Y-77751964D01*
X130432224Y-77713886D01*
X130445448Y-77676927D01*
X130462231Y-77641441D01*
X130482412Y-77607772D01*
X130505796Y-77576243D01*
X130532157Y-77547157D01*
X130561243Y-77520796D01*
X130592772Y-77497412D01*
X130626441Y-77477231D01*
X130661927Y-77460448D01*
X130698886Y-77447224D01*
X130736964Y-77437686D01*
X130775793Y-77431926D01*
X130815000Y-77430000D01*
X131615000Y-77430000D01*
X131654207Y-77431926D01*
G37*
G04 #@! TD.AperFunction*
D10*
X128675000Y-78430000D03*
X128675000Y-55570000D03*
X131215000Y-55570000D03*
X133755000Y-55570000D03*
X136295000Y-55570000D03*
X138835000Y-55570000D03*
X141375000Y-55570000D03*
X146455000Y-55570000D03*
X143915000Y-55570000D03*
G04 #@! TA.AperFunction,SMDPad,CuDef*
D11*
G36*
X135280977Y-71170662D02*
G01*
X135294325Y-71172642D01*
X135307414Y-71175921D01*
X135320119Y-71180467D01*
X135332317Y-71186236D01*
X135343891Y-71193173D01*
X135354729Y-71201211D01*
X135364727Y-71210273D01*
X135373789Y-71220271D01*
X135381827Y-71231109D01*
X135388764Y-71242683D01*
X135394533Y-71254881D01*
X135399079Y-71267586D01*
X135402358Y-71280675D01*
X135404338Y-71294023D01*
X135405000Y-71307500D01*
X135405000Y-71582500D01*
X135404338Y-71595977D01*
X135402358Y-71609325D01*
X135399079Y-71622414D01*
X135394533Y-71635119D01*
X135388764Y-71647317D01*
X135381827Y-71658891D01*
X135373789Y-71669729D01*
X135364727Y-71679727D01*
X135354729Y-71688789D01*
X135343891Y-71696827D01*
X135332317Y-71703764D01*
X135320119Y-71709533D01*
X135307414Y-71714079D01*
X135294325Y-71717358D01*
X135280977Y-71719338D01*
X135267500Y-71720000D01*
X133942500Y-71720000D01*
X133929023Y-71719338D01*
X133915675Y-71717358D01*
X133902586Y-71714079D01*
X133889881Y-71709533D01*
X133877683Y-71703764D01*
X133866109Y-71696827D01*
X133855271Y-71688789D01*
X133845273Y-71679727D01*
X133836211Y-71669729D01*
X133828173Y-71658891D01*
X133821236Y-71647317D01*
X133815467Y-71635119D01*
X133810921Y-71622414D01*
X133807642Y-71609325D01*
X133805662Y-71595977D01*
X133805000Y-71582500D01*
X133805000Y-71307500D01*
X133805662Y-71294023D01*
X133807642Y-71280675D01*
X133810921Y-71267586D01*
X133815467Y-71254881D01*
X133821236Y-71242683D01*
X133828173Y-71231109D01*
X133836211Y-71220271D01*
X133845273Y-71210273D01*
X133855271Y-71201211D01*
X133866109Y-71193173D01*
X133877683Y-71186236D01*
X133889881Y-71180467D01*
X133902586Y-71175921D01*
X133915675Y-71172642D01*
X133929023Y-71170662D01*
X133942500Y-71170000D01*
X135267500Y-71170000D01*
X135280977Y-71170662D01*
G37*
G04 #@! TD.AperFunction*
G04 #@! TA.AperFunction,SMDPad,CuDef*
G36*
X135280977Y-69900662D02*
G01*
X135294325Y-69902642D01*
X135307414Y-69905921D01*
X135320119Y-69910467D01*
X135332317Y-69916236D01*
X135343891Y-69923173D01*
X135354729Y-69931211D01*
X135364727Y-69940273D01*
X135373789Y-69950271D01*
X135381827Y-69961109D01*
X135388764Y-69972683D01*
X135394533Y-69984881D01*
X135399079Y-69997586D01*
X135402358Y-70010675D01*
X135404338Y-70024023D01*
X135405000Y-70037500D01*
X135405000Y-70312500D01*
X135404338Y-70325977D01*
X135402358Y-70339325D01*
X135399079Y-70352414D01*
X135394533Y-70365119D01*
X135388764Y-70377317D01*
X135381827Y-70388891D01*
X135373789Y-70399729D01*
X135364727Y-70409727D01*
X135354729Y-70418789D01*
X135343891Y-70426827D01*
X135332317Y-70433764D01*
X135320119Y-70439533D01*
X135307414Y-70444079D01*
X135294325Y-70447358D01*
X135280977Y-70449338D01*
X135267500Y-70450000D01*
X133942500Y-70450000D01*
X133929023Y-70449338D01*
X133915675Y-70447358D01*
X133902586Y-70444079D01*
X133889881Y-70439533D01*
X133877683Y-70433764D01*
X133866109Y-70426827D01*
X133855271Y-70418789D01*
X133845273Y-70409727D01*
X133836211Y-70399729D01*
X133828173Y-70388891D01*
X133821236Y-70377317D01*
X133815467Y-70365119D01*
X133810921Y-70352414D01*
X133807642Y-70339325D01*
X133805662Y-70325977D01*
X133805000Y-70312500D01*
X133805000Y-70037500D01*
X133805662Y-70024023D01*
X133807642Y-70010675D01*
X133810921Y-69997586D01*
X133815467Y-69984881D01*
X133821236Y-69972683D01*
X133828173Y-69961109D01*
X133836211Y-69950271D01*
X133845273Y-69940273D01*
X133855271Y-69931211D01*
X133866109Y-69923173D01*
X133877683Y-69916236D01*
X133889881Y-69910467D01*
X133902586Y-69905921D01*
X133915675Y-69902642D01*
X133929023Y-69900662D01*
X133942500Y-69900000D01*
X135267500Y-69900000D01*
X135280977Y-69900662D01*
G37*
G04 #@! TD.AperFunction*
G04 #@! TA.AperFunction,SMDPad,CuDef*
G36*
X135280977Y-68630662D02*
G01*
X135294325Y-68632642D01*
X135307414Y-68635921D01*
X135320119Y-68640467D01*
X135332317Y-68646236D01*
X135343891Y-68653173D01*
X135354729Y-68661211D01*
X135364727Y-68670273D01*
X135373789Y-68680271D01*
X135381827Y-68691109D01*
X135388764Y-68702683D01*
X135394533Y-68714881D01*
X135399079Y-68727586D01*
X135402358Y-68740675D01*
X135404338Y-68754023D01*
X135405000Y-68767500D01*
X135405000Y-69042500D01*
X135404338Y-69055977D01*
X135402358Y-69069325D01*
X135399079Y-69082414D01*
X135394533Y-69095119D01*
X135388764Y-69107317D01*
X135381827Y-69118891D01*
X135373789Y-69129729D01*
X135364727Y-69139727D01*
X135354729Y-69148789D01*
X135343891Y-69156827D01*
X135332317Y-69163764D01*
X135320119Y-69169533D01*
X135307414Y-69174079D01*
X135294325Y-69177358D01*
X135280977Y-69179338D01*
X135267500Y-69180000D01*
X133942500Y-69180000D01*
X133929023Y-69179338D01*
X133915675Y-69177358D01*
X133902586Y-69174079D01*
X133889881Y-69169533D01*
X133877683Y-69163764D01*
X133866109Y-69156827D01*
X133855271Y-69148789D01*
X133845273Y-69139727D01*
X133836211Y-69129729D01*
X133828173Y-69118891D01*
X133821236Y-69107317D01*
X133815467Y-69095119D01*
X133810921Y-69082414D01*
X133807642Y-69069325D01*
X133805662Y-69055977D01*
X133805000Y-69042500D01*
X133805000Y-68767500D01*
X133805662Y-68754023D01*
X133807642Y-68740675D01*
X133810921Y-68727586D01*
X133815467Y-68714881D01*
X133821236Y-68702683D01*
X133828173Y-68691109D01*
X133836211Y-68680271D01*
X133845273Y-68670273D01*
X133855271Y-68661211D01*
X133866109Y-68653173D01*
X133877683Y-68646236D01*
X133889881Y-68640467D01*
X133902586Y-68635921D01*
X133915675Y-68632642D01*
X133929023Y-68630662D01*
X133942500Y-68630000D01*
X135267500Y-68630000D01*
X135280977Y-68630662D01*
G37*
G04 #@! TD.AperFunction*
G04 #@! TA.AperFunction,SMDPad,CuDef*
G36*
X135280977Y-67360662D02*
G01*
X135294325Y-67362642D01*
X135307414Y-67365921D01*
X135320119Y-67370467D01*
X135332317Y-67376236D01*
X135343891Y-67383173D01*
X135354729Y-67391211D01*
X135364727Y-67400273D01*
X135373789Y-67410271D01*
X135381827Y-67421109D01*
X135388764Y-67432683D01*
X135394533Y-67444881D01*
X135399079Y-67457586D01*
X135402358Y-67470675D01*
X135404338Y-67484023D01*
X135405000Y-67497500D01*
X135405000Y-67772500D01*
X135404338Y-67785977D01*
X135402358Y-67799325D01*
X135399079Y-67812414D01*
X135394533Y-67825119D01*
X135388764Y-67837317D01*
X135381827Y-67848891D01*
X135373789Y-67859729D01*
X135364727Y-67869727D01*
X135354729Y-67878789D01*
X135343891Y-67886827D01*
X135332317Y-67893764D01*
X135320119Y-67899533D01*
X135307414Y-67904079D01*
X135294325Y-67907358D01*
X135280977Y-67909338D01*
X135267500Y-67910000D01*
X133942500Y-67910000D01*
X133929023Y-67909338D01*
X133915675Y-67907358D01*
X133902586Y-67904079D01*
X133889881Y-67899533D01*
X133877683Y-67893764D01*
X133866109Y-67886827D01*
X133855271Y-67878789D01*
X133845273Y-67869727D01*
X133836211Y-67859729D01*
X133828173Y-67848891D01*
X133821236Y-67837317D01*
X133815467Y-67825119D01*
X133810921Y-67812414D01*
X133807642Y-67799325D01*
X133805662Y-67785977D01*
X133805000Y-67772500D01*
X133805000Y-67497500D01*
X133805662Y-67484023D01*
X133807642Y-67470675D01*
X133810921Y-67457586D01*
X133815467Y-67444881D01*
X133821236Y-67432683D01*
X133828173Y-67421109D01*
X133836211Y-67410271D01*
X133845273Y-67400273D01*
X133855271Y-67391211D01*
X133866109Y-67383173D01*
X133877683Y-67376236D01*
X133889881Y-67370467D01*
X133902586Y-67365921D01*
X133915675Y-67362642D01*
X133929023Y-67360662D01*
X133942500Y-67360000D01*
X135267500Y-67360000D01*
X135280977Y-67360662D01*
G37*
G04 #@! TD.AperFunction*
G04 #@! TA.AperFunction,SMDPad,CuDef*
G36*
X135280977Y-66090662D02*
G01*
X135294325Y-66092642D01*
X135307414Y-66095921D01*
X135320119Y-66100467D01*
X135332317Y-66106236D01*
X135343891Y-66113173D01*
X135354729Y-66121211D01*
X135364727Y-66130273D01*
X135373789Y-66140271D01*
X135381827Y-66151109D01*
X135388764Y-66162683D01*
X135394533Y-66174881D01*
X135399079Y-66187586D01*
X135402358Y-66200675D01*
X135404338Y-66214023D01*
X135405000Y-66227500D01*
X135405000Y-66502500D01*
X135404338Y-66515977D01*
X135402358Y-66529325D01*
X135399079Y-66542414D01*
X135394533Y-66555119D01*
X135388764Y-66567317D01*
X135381827Y-66578891D01*
X135373789Y-66589729D01*
X135364727Y-66599727D01*
X135354729Y-66608789D01*
X135343891Y-66616827D01*
X135332317Y-66623764D01*
X135320119Y-66629533D01*
X135307414Y-66634079D01*
X135294325Y-66637358D01*
X135280977Y-66639338D01*
X135267500Y-66640000D01*
X133942500Y-66640000D01*
X133929023Y-66639338D01*
X133915675Y-66637358D01*
X133902586Y-66634079D01*
X133889881Y-66629533D01*
X133877683Y-66623764D01*
X133866109Y-66616827D01*
X133855271Y-66608789D01*
X133845273Y-66599727D01*
X133836211Y-66589729D01*
X133828173Y-66578891D01*
X133821236Y-66567317D01*
X133815467Y-66555119D01*
X133810921Y-66542414D01*
X133807642Y-66529325D01*
X133805662Y-66515977D01*
X133805000Y-66502500D01*
X133805000Y-66227500D01*
X133805662Y-66214023D01*
X133807642Y-66200675D01*
X133810921Y-66187586D01*
X133815467Y-66174881D01*
X133821236Y-66162683D01*
X133828173Y-66151109D01*
X133836211Y-66140271D01*
X133845273Y-66130273D01*
X133855271Y-66121211D01*
X133866109Y-66113173D01*
X133877683Y-66106236D01*
X133889881Y-66100467D01*
X133902586Y-66095921D01*
X133915675Y-66092642D01*
X133929023Y-66090662D01*
X133942500Y-66090000D01*
X135267500Y-66090000D01*
X135280977Y-66090662D01*
G37*
G04 #@! TD.AperFunction*
G04 #@! TA.AperFunction,SMDPad,CuDef*
G36*
X135280977Y-64820662D02*
G01*
X135294325Y-64822642D01*
X135307414Y-64825921D01*
X135320119Y-64830467D01*
X135332317Y-64836236D01*
X135343891Y-64843173D01*
X135354729Y-64851211D01*
X135364727Y-64860273D01*
X135373789Y-64870271D01*
X135381827Y-64881109D01*
X135388764Y-64892683D01*
X135394533Y-64904881D01*
X135399079Y-64917586D01*
X135402358Y-64930675D01*
X135404338Y-64944023D01*
X135405000Y-64957500D01*
X135405000Y-65232500D01*
X135404338Y-65245977D01*
X135402358Y-65259325D01*
X135399079Y-65272414D01*
X135394533Y-65285119D01*
X135388764Y-65297317D01*
X135381827Y-65308891D01*
X135373789Y-65319729D01*
X135364727Y-65329727D01*
X135354729Y-65338789D01*
X135343891Y-65346827D01*
X135332317Y-65353764D01*
X135320119Y-65359533D01*
X135307414Y-65364079D01*
X135294325Y-65367358D01*
X135280977Y-65369338D01*
X135267500Y-65370000D01*
X133942500Y-65370000D01*
X133929023Y-65369338D01*
X133915675Y-65367358D01*
X133902586Y-65364079D01*
X133889881Y-65359533D01*
X133877683Y-65353764D01*
X133866109Y-65346827D01*
X133855271Y-65338789D01*
X133845273Y-65329727D01*
X133836211Y-65319729D01*
X133828173Y-65308891D01*
X133821236Y-65297317D01*
X133815467Y-65285119D01*
X133810921Y-65272414D01*
X133807642Y-65259325D01*
X133805662Y-65245977D01*
X133805000Y-65232500D01*
X133805000Y-64957500D01*
X133805662Y-64944023D01*
X133807642Y-64930675D01*
X133810921Y-64917586D01*
X133815467Y-64904881D01*
X133821236Y-64892683D01*
X133828173Y-64881109D01*
X133836211Y-64870271D01*
X133845273Y-64860273D01*
X133855271Y-64851211D01*
X133866109Y-64843173D01*
X133877683Y-64836236D01*
X133889881Y-64830467D01*
X133902586Y-64825921D01*
X133915675Y-64822642D01*
X133929023Y-64820662D01*
X133942500Y-64820000D01*
X135267500Y-64820000D01*
X135280977Y-64820662D01*
G37*
G04 #@! TD.AperFunction*
G04 #@! TA.AperFunction,SMDPad,CuDef*
G36*
X135280977Y-63550662D02*
G01*
X135294325Y-63552642D01*
X135307414Y-63555921D01*
X135320119Y-63560467D01*
X135332317Y-63566236D01*
X135343891Y-63573173D01*
X135354729Y-63581211D01*
X135364727Y-63590273D01*
X135373789Y-63600271D01*
X135381827Y-63611109D01*
X135388764Y-63622683D01*
X135394533Y-63634881D01*
X135399079Y-63647586D01*
X135402358Y-63660675D01*
X135404338Y-63674023D01*
X135405000Y-63687500D01*
X135405000Y-63962500D01*
X135404338Y-63975977D01*
X135402358Y-63989325D01*
X135399079Y-64002414D01*
X135394533Y-64015119D01*
X135388764Y-64027317D01*
X135381827Y-64038891D01*
X135373789Y-64049729D01*
X135364727Y-64059727D01*
X135354729Y-64068789D01*
X135343891Y-64076827D01*
X135332317Y-64083764D01*
X135320119Y-64089533D01*
X135307414Y-64094079D01*
X135294325Y-64097358D01*
X135280977Y-64099338D01*
X135267500Y-64100000D01*
X133942500Y-64100000D01*
X133929023Y-64099338D01*
X133915675Y-64097358D01*
X133902586Y-64094079D01*
X133889881Y-64089533D01*
X133877683Y-64083764D01*
X133866109Y-64076827D01*
X133855271Y-64068789D01*
X133845273Y-64059727D01*
X133836211Y-64049729D01*
X133828173Y-64038891D01*
X133821236Y-64027317D01*
X133815467Y-64015119D01*
X133810921Y-64002414D01*
X133807642Y-63989325D01*
X133805662Y-63975977D01*
X133805000Y-63962500D01*
X133805000Y-63687500D01*
X133805662Y-63674023D01*
X133807642Y-63660675D01*
X133810921Y-63647586D01*
X133815467Y-63634881D01*
X133821236Y-63622683D01*
X133828173Y-63611109D01*
X133836211Y-63600271D01*
X133845273Y-63590273D01*
X133855271Y-63581211D01*
X133866109Y-63573173D01*
X133877683Y-63566236D01*
X133889881Y-63560467D01*
X133902586Y-63555921D01*
X133915675Y-63552642D01*
X133929023Y-63550662D01*
X133942500Y-63550000D01*
X135267500Y-63550000D01*
X135280977Y-63550662D01*
G37*
G04 #@! TD.AperFunction*
G04 #@! TA.AperFunction,SMDPad,CuDef*
G36*
X135280977Y-62280662D02*
G01*
X135294325Y-62282642D01*
X135307414Y-62285921D01*
X135320119Y-62290467D01*
X135332317Y-62296236D01*
X135343891Y-62303173D01*
X135354729Y-62311211D01*
X135364727Y-62320273D01*
X135373789Y-62330271D01*
X135381827Y-62341109D01*
X135388764Y-62352683D01*
X135394533Y-62364881D01*
X135399079Y-62377586D01*
X135402358Y-62390675D01*
X135404338Y-62404023D01*
X135405000Y-62417500D01*
X135405000Y-62692500D01*
X135404338Y-62705977D01*
X135402358Y-62719325D01*
X135399079Y-62732414D01*
X135394533Y-62745119D01*
X135388764Y-62757317D01*
X135381827Y-62768891D01*
X135373789Y-62779729D01*
X135364727Y-62789727D01*
X135354729Y-62798789D01*
X135343891Y-62806827D01*
X135332317Y-62813764D01*
X135320119Y-62819533D01*
X135307414Y-62824079D01*
X135294325Y-62827358D01*
X135280977Y-62829338D01*
X135267500Y-62830000D01*
X133942500Y-62830000D01*
X133929023Y-62829338D01*
X133915675Y-62827358D01*
X133902586Y-62824079D01*
X133889881Y-62819533D01*
X133877683Y-62813764D01*
X133866109Y-62806827D01*
X133855271Y-62798789D01*
X133845273Y-62789727D01*
X133836211Y-62779729D01*
X133828173Y-62768891D01*
X133821236Y-62757317D01*
X133815467Y-62745119D01*
X133810921Y-62732414D01*
X133807642Y-62719325D01*
X133805662Y-62705977D01*
X133805000Y-62692500D01*
X133805000Y-62417500D01*
X133805662Y-62404023D01*
X133807642Y-62390675D01*
X133810921Y-62377586D01*
X133815467Y-62364881D01*
X133821236Y-62352683D01*
X133828173Y-62341109D01*
X133836211Y-62330271D01*
X133845273Y-62320273D01*
X133855271Y-62311211D01*
X133866109Y-62303173D01*
X133877683Y-62296236D01*
X133889881Y-62290467D01*
X133902586Y-62285921D01*
X133915675Y-62282642D01*
X133929023Y-62280662D01*
X133942500Y-62280000D01*
X135267500Y-62280000D01*
X135280977Y-62280662D01*
G37*
G04 #@! TD.AperFunction*
G04 #@! TA.AperFunction,SMDPad,CuDef*
G36*
X141780977Y-62280662D02*
G01*
X141794325Y-62282642D01*
X141807414Y-62285921D01*
X141820119Y-62290467D01*
X141832317Y-62296236D01*
X141843891Y-62303173D01*
X141854729Y-62311211D01*
X141864727Y-62320273D01*
X141873789Y-62330271D01*
X141881827Y-62341109D01*
X141888764Y-62352683D01*
X141894533Y-62364881D01*
X141899079Y-62377586D01*
X141902358Y-62390675D01*
X141904338Y-62404023D01*
X141905000Y-62417500D01*
X141905000Y-62692500D01*
X141904338Y-62705977D01*
X141902358Y-62719325D01*
X141899079Y-62732414D01*
X141894533Y-62745119D01*
X141888764Y-62757317D01*
X141881827Y-62768891D01*
X141873789Y-62779729D01*
X141864727Y-62789727D01*
X141854729Y-62798789D01*
X141843891Y-62806827D01*
X141832317Y-62813764D01*
X141820119Y-62819533D01*
X141807414Y-62824079D01*
X141794325Y-62827358D01*
X141780977Y-62829338D01*
X141767500Y-62830000D01*
X140442500Y-62830000D01*
X140429023Y-62829338D01*
X140415675Y-62827358D01*
X140402586Y-62824079D01*
X140389881Y-62819533D01*
X140377683Y-62813764D01*
X140366109Y-62806827D01*
X140355271Y-62798789D01*
X140345273Y-62789727D01*
X140336211Y-62779729D01*
X140328173Y-62768891D01*
X140321236Y-62757317D01*
X140315467Y-62745119D01*
X140310921Y-62732414D01*
X140307642Y-62719325D01*
X140305662Y-62705977D01*
X140305000Y-62692500D01*
X140305000Y-62417500D01*
X140305662Y-62404023D01*
X140307642Y-62390675D01*
X140310921Y-62377586D01*
X140315467Y-62364881D01*
X140321236Y-62352683D01*
X140328173Y-62341109D01*
X140336211Y-62330271D01*
X140345273Y-62320273D01*
X140355271Y-62311211D01*
X140366109Y-62303173D01*
X140377683Y-62296236D01*
X140389881Y-62290467D01*
X140402586Y-62285921D01*
X140415675Y-62282642D01*
X140429023Y-62280662D01*
X140442500Y-62280000D01*
X141767500Y-62280000D01*
X141780977Y-62280662D01*
G37*
G04 #@! TD.AperFunction*
G04 #@! TA.AperFunction,SMDPad,CuDef*
G36*
X141780977Y-63550662D02*
G01*
X141794325Y-63552642D01*
X141807414Y-63555921D01*
X141820119Y-63560467D01*
X141832317Y-63566236D01*
X141843891Y-63573173D01*
X141854729Y-63581211D01*
X141864727Y-63590273D01*
X141873789Y-63600271D01*
X141881827Y-63611109D01*
X141888764Y-63622683D01*
X141894533Y-63634881D01*
X141899079Y-63647586D01*
X141902358Y-63660675D01*
X141904338Y-63674023D01*
X141905000Y-63687500D01*
X141905000Y-63962500D01*
X141904338Y-63975977D01*
X141902358Y-63989325D01*
X141899079Y-64002414D01*
X141894533Y-64015119D01*
X141888764Y-64027317D01*
X141881827Y-64038891D01*
X141873789Y-64049729D01*
X141864727Y-64059727D01*
X141854729Y-64068789D01*
X141843891Y-64076827D01*
X141832317Y-64083764D01*
X141820119Y-64089533D01*
X141807414Y-64094079D01*
X141794325Y-64097358D01*
X141780977Y-64099338D01*
X141767500Y-64100000D01*
X140442500Y-64100000D01*
X140429023Y-64099338D01*
X140415675Y-64097358D01*
X140402586Y-64094079D01*
X140389881Y-64089533D01*
X140377683Y-64083764D01*
X140366109Y-64076827D01*
X140355271Y-64068789D01*
X140345273Y-64059727D01*
X140336211Y-64049729D01*
X140328173Y-64038891D01*
X140321236Y-64027317D01*
X140315467Y-64015119D01*
X140310921Y-64002414D01*
X140307642Y-63989325D01*
X140305662Y-63975977D01*
X140305000Y-63962500D01*
X140305000Y-63687500D01*
X140305662Y-63674023D01*
X140307642Y-63660675D01*
X140310921Y-63647586D01*
X140315467Y-63634881D01*
X140321236Y-63622683D01*
X140328173Y-63611109D01*
X140336211Y-63600271D01*
X140345273Y-63590273D01*
X140355271Y-63581211D01*
X140366109Y-63573173D01*
X140377683Y-63566236D01*
X140389881Y-63560467D01*
X140402586Y-63555921D01*
X140415675Y-63552642D01*
X140429023Y-63550662D01*
X140442500Y-63550000D01*
X141767500Y-63550000D01*
X141780977Y-63550662D01*
G37*
G04 #@! TD.AperFunction*
G04 #@! TA.AperFunction,SMDPad,CuDef*
G36*
X141780977Y-64820662D02*
G01*
X141794325Y-64822642D01*
X141807414Y-64825921D01*
X141820119Y-64830467D01*
X141832317Y-64836236D01*
X141843891Y-64843173D01*
X141854729Y-64851211D01*
X141864727Y-64860273D01*
X141873789Y-64870271D01*
X141881827Y-64881109D01*
X141888764Y-64892683D01*
X141894533Y-64904881D01*
X141899079Y-64917586D01*
X141902358Y-64930675D01*
X141904338Y-64944023D01*
X141905000Y-64957500D01*
X141905000Y-65232500D01*
X141904338Y-65245977D01*
X141902358Y-65259325D01*
X141899079Y-65272414D01*
X141894533Y-65285119D01*
X141888764Y-65297317D01*
X141881827Y-65308891D01*
X141873789Y-65319729D01*
X141864727Y-65329727D01*
X141854729Y-65338789D01*
X141843891Y-65346827D01*
X141832317Y-65353764D01*
X141820119Y-65359533D01*
X141807414Y-65364079D01*
X141794325Y-65367358D01*
X141780977Y-65369338D01*
X141767500Y-65370000D01*
X140442500Y-65370000D01*
X140429023Y-65369338D01*
X140415675Y-65367358D01*
X140402586Y-65364079D01*
X140389881Y-65359533D01*
X140377683Y-65353764D01*
X140366109Y-65346827D01*
X140355271Y-65338789D01*
X140345273Y-65329727D01*
X140336211Y-65319729D01*
X140328173Y-65308891D01*
X140321236Y-65297317D01*
X140315467Y-65285119D01*
X140310921Y-65272414D01*
X140307642Y-65259325D01*
X140305662Y-65245977D01*
X140305000Y-65232500D01*
X140305000Y-64957500D01*
X140305662Y-64944023D01*
X140307642Y-64930675D01*
X140310921Y-64917586D01*
X140315467Y-64904881D01*
X140321236Y-64892683D01*
X140328173Y-64881109D01*
X140336211Y-64870271D01*
X140345273Y-64860273D01*
X140355271Y-64851211D01*
X140366109Y-64843173D01*
X140377683Y-64836236D01*
X140389881Y-64830467D01*
X140402586Y-64825921D01*
X140415675Y-64822642D01*
X140429023Y-64820662D01*
X140442500Y-64820000D01*
X141767500Y-64820000D01*
X141780977Y-64820662D01*
G37*
G04 #@! TD.AperFunction*
G04 #@! TA.AperFunction,SMDPad,CuDef*
G36*
X141780977Y-66090662D02*
G01*
X141794325Y-66092642D01*
X141807414Y-66095921D01*
X141820119Y-66100467D01*
X141832317Y-66106236D01*
X141843891Y-66113173D01*
X141854729Y-66121211D01*
X141864727Y-66130273D01*
X141873789Y-66140271D01*
X141881827Y-66151109D01*
X141888764Y-66162683D01*
X141894533Y-66174881D01*
X141899079Y-66187586D01*
X141902358Y-66200675D01*
X141904338Y-66214023D01*
X141905000Y-66227500D01*
X141905000Y-66502500D01*
X141904338Y-66515977D01*
X141902358Y-66529325D01*
X141899079Y-66542414D01*
X141894533Y-66555119D01*
X141888764Y-66567317D01*
X141881827Y-66578891D01*
X141873789Y-66589729D01*
X141864727Y-66599727D01*
X141854729Y-66608789D01*
X141843891Y-66616827D01*
X141832317Y-66623764D01*
X141820119Y-66629533D01*
X141807414Y-66634079D01*
X141794325Y-66637358D01*
X141780977Y-66639338D01*
X141767500Y-66640000D01*
X140442500Y-66640000D01*
X140429023Y-66639338D01*
X140415675Y-66637358D01*
X140402586Y-66634079D01*
X140389881Y-66629533D01*
X140377683Y-66623764D01*
X140366109Y-66616827D01*
X140355271Y-66608789D01*
X140345273Y-66599727D01*
X140336211Y-66589729D01*
X140328173Y-66578891D01*
X140321236Y-66567317D01*
X140315467Y-66555119D01*
X140310921Y-66542414D01*
X140307642Y-66529325D01*
X140305662Y-66515977D01*
X140305000Y-66502500D01*
X140305000Y-66227500D01*
X140305662Y-66214023D01*
X140307642Y-66200675D01*
X140310921Y-66187586D01*
X140315467Y-66174881D01*
X140321236Y-66162683D01*
X140328173Y-66151109D01*
X140336211Y-66140271D01*
X140345273Y-66130273D01*
X140355271Y-66121211D01*
X140366109Y-66113173D01*
X140377683Y-66106236D01*
X140389881Y-66100467D01*
X140402586Y-66095921D01*
X140415675Y-66092642D01*
X140429023Y-66090662D01*
X140442500Y-66090000D01*
X141767500Y-66090000D01*
X141780977Y-66090662D01*
G37*
G04 #@! TD.AperFunction*
G04 #@! TA.AperFunction,SMDPad,CuDef*
G36*
X141780977Y-67360662D02*
G01*
X141794325Y-67362642D01*
X141807414Y-67365921D01*
X141820119Y-67370467D01*
X141832317Y-67376236D01*
X141843891Y-67383173D01*
X141854729Y-67391211D01*
X141864727Y-67400273D01*
X141873789Y-67410271D01*
X141881827Y-67421109D01*
X141888764Y-67432683D01*
X141894533Y-67444881D01*
X141899079Y-67457586D01*
X141902358Y-67470675D01*
X141904338Y-67484023D01*
X141905000Y-67497500D01*
X141905000Y-67772500D01*
X141904338Y-67785977D01*
X141902358Y-67799325D01*
X141899079Y-67812414D01*
X141894533Y-67825119D01*
X141888764Y-67837317D01*
X141881827Y-67848891D01*
X141873789Y-67859729D01*
X141864727Y-67869727D01*
X141854729Y-67878789D01*
X141843891Y-67886827D01*
X141832317Y-67893764D01*
X141820119Y-67899533D01*
X141807414Y-67904079D01*
X141794325Y-67907358D01*
X141780977Y-67909338D01*
X141767500Y-67910000D01*
X140442500Y-67910000D01*
X140429023Y-67909338D01*
X140415675Y-67907358D01*
X140402586Y-67904079D01*
X140389881Y-67899533D01*
X140377683Y-67893764D01*
X140366109Y-67886827D01*
X140355271Y-67878789D01*
X140345273Y-67869727D01*
X140336211Y-67859729D01*
X140328173Y-67848891D01*
X140321236Y-67837317D01*
X140315467Y-67825119D01*
X140310921Y-67812414D01*
X140307642Y-67799325D01*
X140305662Y-67785977D01*
X140305000Y-67772500D01*
X140305000Y-67497500D01*
X140305662Y-67484023D01*
X140307642Y-67470675D01*
X140310921Y-67457586D01*
X140315467Y-67444881D01*
X140321236Y-67432683D01*
X140328173Y-67421109D01*
X140336211Y-67410271D01*
X140345273Y-67400273D01*
X140355271Y-67391211D01*
X140366109Y-67383173D01*
X140377683Y-67376236D01*
X140389881Y-67370467D01*
X140402586Y-67365921D01*
X140415675Y-67362642D01*
X140429023Y-67360662D01*
X140442500Y-67360000D01*
X141767500Y-67360000D01*
X141780977Y-67360662D01*
G37*
G04 #@! TD.AperFunction*
G04 #@! TA.AperFunction,SMDPad,CuDef*
G36*
X141780977Y-68630662D02*
G01*
X141794325Y-68632642D01*
X141807414Y-68635921D01*
X141820119Y-68640467D01*
X141832317Y-68646236D01*
X141843891Y-68653173D01*
X141854729Y-68661211D01*
X141864727Y-68670273D01*
X141873789Y-68680271D01*
X141881827Y-68691109D01*
X141888764Y-68702683D01*
X141894533Y-68714881D01*
X141899079Y-68727586D01*
X141902358Y-68740675D01*
X141904338Y-68754023D01*
X141905000Y-68767500D01*
X141905000Y-69042500D01*
X141904338Y-69055977D01*
X141902358Y-69069325D01*
X141899079Y-69082414D01*
X141894533Y-69095119D01*
X141888764Y-69107317D01*
X141881827Y-69118891D01*
X141873789Y-69129729D01*
X141864727Y-69139727D01*
X141854729Y-69148789D01*
X141843891Y-69156827D01*
X141832317Y-69163764D01*
X141820119Y-69169533D01*
X141807414Y-69174079D01*
X141794325Y-69177358D01*
X141780977Y-69179338D01*
X141767500Y-69180000D01*
X140442500Y-69180000D01*
X140429023Y-69179338D01*
X140415675Y-69177358D01*
X140402586Y-69174079D01*
X140389881Y-69169533D01*
X140377683Y-69163764D01*
X140366109Y-69156827D01*
X140355271Y-69148789D01*
X140345273Y-69139727D01*
X140336211Y-69129729D01*
X140328173Y-69118891D01*
X140321236Y-69107317D01*
X140315467Y-69095119D01*
X140310921Y-69082414D01*
X140307642Y-69069325D01*
X140305662Y-69055977D01*
X140305000Y-69042500D01*
X140305000Y-68767500D01*
X140305662Y-68754023D01*
X140307642Y-68740675D01*
X140310921Y-68727586D01*
X140315467Y-68714881D01*
X140321236Y-68702683D01*
X140328173Y-68691109D01*
X140336211Y-68680271D01*
X140345273Y-68670273D01*
X140355271Y-68661211D01*
X140366109Y-68653173D01*
X140377683Y-68646236D01*
X140389881Y-68640467D01*
X140402586Y-68635921D01*
X140415675Y-68632642D01*
X140429023Y-68630662D01*
X140442500Y-68630000D01*
X141767500Y-68630000D01*
X141780977Y-68630662D01*
G37*
G04 #@! TD.AperFunction*
G04 #@! TA.AperFunction,SMDPad,CuDef*
G36*
X141780977Y-69900662D02*
G01*
X141794325Y-69902642D01*
X141807414Y-69905921D01*
X141820119Y-69910467D01*
X141832317Y-69916236D01*
X141843891Y-69923173D01*
X141854729Y-69931211D01*
X141864727Y-69940273D01*
X141873789Y-69950271D01*
X141881827Y-69961109D01*
X141888764Y-69972683D01*
X141894533Y-69984881D01*
X141899079Y-69997586D01*
X141902358Y-70010675D01*
X141904338Y-70024023D01*
X141905000Y-70037500D01*
X141905000Y-70312500D01*
X141904338Y-70325977D01*
X141902358Y-70339325D01*
X141899079Y-70352414D01*
X141894533Y-70365119D01*
X141888764Y-70377317D01*
X141881827Y-70388891D01*
X141873789Y-70399729D01*
X141864727Y-70409727D01*
X141854729Y-70418789D01*
X141843891Y-70426827D01*
X141832317Y-70433764D01*
X141820119Y-70439533D01*
X141807414Y-70444079D01*
X141794325Y-70447358D01*
X141780977Y-70449338D01*
X141767500Y-70450000D01*
X140442500Y-70450000D01*
X140429023Y-70449338D01*
X140415675Y-70447358D01*
X140402586Y-70444079D01*
X140389881Y-70439533D01*
X140377683Y-70433764D01*
X140366109Y-70426827D01*
X140355271Y-70418789D01*
X140345273Y-70409727D01*
X140336211Y-70399729D01*
X140328173Y-70388891D01*
X140321236Y-70377317D01*
X140315467Y-70365119D01*
X140310921Y-70352414D01*
X140307642Y-70339325D01*
X140305662Y-70325977D01*
X140305000Y-70312500D01*
X140305000Y-70037500D01*
X140305662Y-70024023D01*
X140307642Y-70010675D01*
X140310921Y-69997586D01*
X140315467Y-69984881D01*
X140321236Y-69972683D01*
X140328173Y-69961109D01*
X140336211Y-69950271D01*
X140345273Y-69940273D01*
X140355271Y-69931211D01*
X140366109Y-69923173D01*
X140377683Y-69916236D01*
X140389881Y-69910467D01*
X140402586Y-69905921D01*
X140415675Y-69902642D01*
X140429023Y-69900662D01*
X140442500Y-69900000D01*
X141767500Y-69900000D01*
X141780977Y-69900662D01*
G37*
G04 #@! TD.AperFunction*
G04 #@! TA.AperFunction,SMDPad,CuDef*
G36*
X141780977Y-71170662D02*
G01*
X141794325Y-71172642D01*
X141807414Y-71175921D01*
X141820119Y-71180467D01*
X141832317Y-71186236D01*
X141843891Y-71193173D01*
X141854729Y-71201211D01*
X141864727Y-71210273D01*
X141873789Y-71220271D01*
X141881827Y-71231109D01*
X141888764Y-71242683D01*
X141894533Y-71254881D01*
X141899079Y-71267586D01*
X141902358Y-71280675D01*
X141904338Y-71294023D01*
X141905000Y-71307500D01*
X141905000Y-71582500D01*
X141904338Y-71595977D01*
X141902358Y-71609325D01*
X141899079Y-71622414D01*
X141894533Y-71635119D01*
X141888764Y-71647317D01*
X141881827Y-71658891D01*
X141873789Y-71669729D01*
X141864727Y-71679727D01*
X141854729Y-71688789D01*
X141843891Y-71696827D01*
X141832317Y-71703764D01*
X141820119Y-71709533D01*
X141807414Y-71714079D01*
X141794325Y-71717358D01*
X141780977Y-71719338D01*
X141767500Y-71720000D01*
X140442500Y-71720000D01*
X140429023Y-71719338D01*
X140415675Y-71717358D01*
X140402586Y-71714079D01*
X140389881Y-71709533D01*
X140377683Y-71703764D01*
X140366109Y-71696827D01*
X140355271Y-71688789D01*
X140345273Y-71679727D01*
X140336211Y-71669729D01*
X140328173Y-71658891D01*
X140321236Y-71647317D01*
X140315467Y-71635119D01*
X140310921Y-71622414D01*
X140307642Y-71609325D01*
X140305662Y-71595977D01*
X140305000Y-71582500D01*
X140305000Y-71307500D01*
X140305662Y-71294023D01*
X140307642Y-71280675D01*
X140310921Y-71267586D01*
X140315467Y-71254881D01*
X140321236Y-71242683D01*
X140328173Y-71231109D01*
X140336211Y-71220271D01*
X140345273Y-71210273D01*
X140355271Y-71201211D01*
X140366109Y-71193173D01*
X140377683Y-71186236D01*
X140389881Y-71180467D01*
X140402586Y-71175921D01*
X140415675Y-71172642D01*
X140429023Y-71170662D01*
X140442500Y-71170000D01*
X141767500Y-71170000D01*
X141780977Y-71170662D01*
G37*
G04 #@! TD.AperFunction*
G04 #@! TA.AperFunction,SMDPad,CuDef*
G36*
X127846504Y-59811204D02*
G01*
X127870773Y-59814804D01*
X127894571Y-59820765D01*
X127917671Y-59829030D01*
X127939849Y-59839520D01*
X127960893Y-59852133D01*
X127980598Y-59866747D01*
X127998777Y-59883223D01*
X128015253Y-59901402D01*
X128029867Y-59921107D01*
X128042480Y-59942151D01*
X128052970Y-59964329D01*
X128061235Y-59987429D01*
X128067196Y-60011227D01*
X128070796Y-60035496D01*
X128072000Y-60060000D01*
X128072000Y-61310000D01*
X128070796Y-61334504D01*
X128067196Y-61358773D01*
X128061235Y-61382571D01*
X128052970Y-61405671D01*
X128042480Y-61427849D01*
X128029867Y-61448893D01*
X128015253Y-61468598D01*
X127998777Y-61486777D01*
X127980598Y-61503253D01*
X127960893Y-61517867D01*
X127939849Y-61530480D01*
X127917671Y-61540970D01*
X127894571Y-61549235D01*
X127870773Y-61555196D01*
X127846504Y-61558796D01*
X127822000Y-61560000D01*
X126897000Y-61560000D01*
X126872496Y-61558796D01*
X126848227Y-61555196D01*
X126824429Y-61549235D01*
X126801329Y-61540970D01*
X126779151Y-61530480D01*
X126758107Y-61517867D01*
X126738402Y-61503253D01*
X126720223Y-61486777D01*
X126703747Y-61468598D01*
X126689133Y-61448893D01*
X126676520Y-61427849D01*
X126666030Y-61405671D01*
X126657765Y-61382571D01*
X126651804Y-61358773D01*
X126648204Y-61334504D01*
X126647000Y-61310000D01*
X126647000Y-60060000D01*
X126648204Y-60035496D01*
X126651804Y-60011227D01*
X126657765Y-59987429D01*
X126666030Y-59964329D01*
X126676520Y-59942151D01*
X126689133Y-59921107D01*
X126703747Y-59901402D01*
X126720223Y-59883223D01*
X126738402Y-59866747D01*
X126758107Y-59852133D01*
X126779151Y-59839520D01*
X126801329Y-59829030D01*
X126824429Y-59820765D01*
X126848227Y-59814804D01*
X126872496Y-59811204D01*
X126897000Y-59810000D01*
X127822000Y-59810000D01*
X127846504Y-59811204D01*
G37*
G04 #@! TD.AperFunction*
G04 #@! TA.AperFunction,SMDPad,CuDef*
G36*
X124871504Y-59811204D02*
G01*
X124895773Y-59814804D01*
X124919571Y-59820765D01*
X124942671Y-59829030D01*
X124964849Y-59839520D01*
X124985893Y-59852133D01*
X125005598Y-59866747D01*
X125023777Y-59883223D01*
X125040253Y-59901402D01*
X125054867Y-59921107D01*
X125067480Y-59942151D01*
X125077970Y-59964329D01*
X125086235Y-59987429D01*
X125092196Y-60011227D01*
X125095796Y-60035496D01*
X125097000Y-60060000D01*
X125097000Y-61310000D01*
X125095796Y-61334504D01*
X125092196Y-61358773D01*
X125086235Y-61382571D01*
X125077970Y-61405671D01*
X125067480Y-61427849D01*
X125054867Y-61448893D01*
X125040253Y-61468598D01*
X125023777Y-61486777D01*
X125005598Y-61503253D01*
X124985893Y-61517867D01*
X124964849Y-61530480D01*
X124942671Y-61540970D01*
X124919571Y-61549235D01*
X124895773Y-61555196D01*
X124871504Y-61558796D01*
X124847000Y-61560000D01*
X123922000Y-61560000D01*
X123897496Y-61558796D01*
X123873227Y-61555196D01*
X123849429Y-61549235D01*
X123826329Y-61540970D01*
X123804151Y-61530480D01*
X123783107Y-61517867D01*
X123763402Y-61503253D01*
X123745223Y-61486777D01*
X123728747Y-61468598D01*
X123714133Y-61448893D01*
X123701520Y-61427849D01*
X123691030Y-61405671D01*
X123682765Y-61382571D01*
X123676804Y-61358773D01*
X123673204Y-61334504D01*
X123672000Y-61310000D01*
X123672000Y-60060000D01*
X123673204Y-60035496D01*
X123676804Y-60011227D01*
X123682765Y-59987429D01*
X123691030Y-59964329D01*
X123701520Y-59942151D01*
X123714133Y-59921107D01*
X123728747Y-59901402D01*
X123745223Y-59883223D01*
X123763402Y-59866747D01*
X123783107Y-59852133D01*
X123804151Y-59839520D01*
X123826329Y-59829030D01*
X123849429Y-59820765D01*
X123873227Y-59814804D01*
X123897496Y-59811204D01*
X123922000Y-59810000D01*
X124847000Y-59810000D01*
X124871504Y-59811204D01*
G37*
G04 #@! TD.AperFunction*
G04 #@! TA.AperFunction,SMDPad,CuDef*
G36*
X114172004Y-59811204D02*
G01*
X114196273Y-59814804D01*
X114220071Y-59820765D01*
X114243171Y-59829030D01*
X114265349Y-59839520D01*
X114286393Y-59852133D01*
X114306098Y-59866747D01*
X114324277Y-59883223D01*
X114340753Y-59901402D01*
X114355367Y-59921107D01*
X114367980Y-59942151D01*
X114378470Y-59964329D01*
X114386735Y-59987429D01*
X114392696Y-60011227D01*
X114396296Y-60035496D01*
X114397500Y-60060000D01*
X114397500Y-61310000D01*
X114396296Y-61334504D01*
X114392696Y-61358773D01*
X114386735Y-61382571D01*
X114378470Y-61405671D01*
X114367980Y-61427849D01*
X114355367Y-61448893D01*
X114340753Y-61468598D01*
X114324277Y-61486777D01*
X114306098Y-61503253D01*
X114286393Y-61517867D01*
X114265349Y-61530480D01*
X114243171Y-61540970D01*
X114220071Y-61549235D01*
X114196273Y-61555196D01*
X114172004Y-61558796D01*
X114147500Y-61560000D01*
X113222500Y-61560000D01*
X113197996Y-61558796D01*
X113173727Y-61555196D01*
X113149929Y-61549235D01*
X113126829Y-61540970D01*
X113104651Y-61530480D01*
X113083607Y-61517867D01*
X113063902Y-61503253D01*
X113045723Y-61486777D01*
X113029247Y-61468598D01*
X113014633Y-61448893D01*
X113002020Y-61427849D01*
X112991530Y-61405671D01*
X112983265Y-61382571D01*
X112977304Y-61358773D01*
X112973704Y-61334504D01*
X112972500Y-61310000D01*
X112972500Y-60060000D01*
X112973704Y-60035496D01*
X112977304Y-60011227D01*
X112983265Y-59987429D01*
X112991530Y-59964329D01*
X113002020Y-59942151D01*
X113014633Y-59921107D01*
X113029247Y-59901402D01*
X113045723Y-59883223D01*
X113063902Y-59866747D01*
X113083607Y-59852133D01*
X113104651Y-59839520D01*
X113126829Y-59829030D01*
X113149929Y-59820765D01*
X113173727Y-59814804D01*
X113197996Y-59811204D01*
X113222500Y-59810000D01*
X114147500Y-59810000D01*
X114172004Y-59811204D01*
G37*
G04 #@! TD.AperFunction*
G04 #@! TA.AperFunction,SMDPad,CuDef*
G36*
X111197004Y-59811204D02*
G01*
X111221273Y-59814804D01*
X111245071Y-59820765D01*
X111268171Y-59829030D01*
X111290349Y-59839520D01*
X111311393Y-59852133D01*
X111331098Y-59866747D01*
X111349277Y-59883223D01*
X111365753Y-59901402D01*
X111380367Y-59921107D01*
X111392980Y-59942151D01*
X111403470Y-59964329D01*
X111411735Y-59987429D01*
X111417696Y-60011227D01*
X111421296Y-60035496D01*
X111422500Y-60060000D01*
X111422500Y-61310000D01*
X111421296Y-61334504D01*
X111417696Y-61358773D01*
X111411735Y-61382571D01*
X111403470Y-61405671D01*
X111392980Y-61427849D01*
X111380367Y-61448893D01*
X111365753Y-61468598D01*
X111349277Y-61486777D01*
X111331098Y-61503253D01*
X111311393Y-61517867D01*
X111290349Y-61530480D01*
X111268171Y-61540970D01*
X111245071Y-61549235D01*
X111221273Y-61555196D01*
X111197004Y-61558796D01*
X111172500Y-61560000D01*
X110247500Y-61560000D01*
X110222996Y-61558796D01*
X110198727Y-61555196D01*
X110174929Y-61549235D01*
X110151829Y-61540970D01*
X110129651Y-61530480D01*
X110108607Y-61517867D01*
X110088902Y-61503253D01*
X110070723Y-61486777D01*
X110054247Y-61468598D01*
X110039633Y-61448893D01*
X110027020Y-61427849D01*
X110016530Y-61405671D01*
X110008265Y-61382571D01*
X110002304Y-61358773D01*
X109998704Y-61334504D01*
X109997500Y-61310000D01*
X109997500Y-60060000D01*
X109998704Y-60035496D01*
X110002304Y-60011227D01*
X110008265Y-59987429D01*
X110016530Y-59964329D01*
X110027020Y-59942151D01*
X110039633Y-59921107D01*
X110054247Y-59901402D01*
X110070723Y-59883223D01*
X110088902Y-59866747D01*
X110108607Y-59852133D01*
X110129651Y-59839520D01*
X110151829Y-59829030D01*
X110174929Y-59820765D01*
X110198727Y-59814804D01*
X110222996Y-59811204D01*
X110247500Y-59810000D01*
X111172500Y-59810000D01*
X111197004Y-59811204D01*
G37*
G04 #@! TD.AperFunction*
G04 #@! TA.AperFunction,SMDPad,CuDef*
G36*
X114199505Y-68431204D02*
G01*
X114223773Y-68434804D01*
X114247572Y-68440765D01*
X114270671Y-68449030D01*
X114292850Y-68459520D01*
X114313893Y-68472132D01*
X114333599Y-68486747D01*
X114351777Y-68503223D01*
X114368253Y-68521401D01*
X114382868Y-68541107D01*
X114395480Y-68562150D01*
X114405970Y-68584329D01*
X114414235Y-68607428D01*
X114420196Y-68631227D01*
X114423796Y-68655495D01*
X114425000Y-68679999D01*
X114425000Y-69530001D01*
X114423796Y-69554505D01*
X114420196Y-69578773D01*
X114414235Y-69602572D01*
X114405970Y-69625671D01*
X114395480Y-69647850D01*
X114382868Y-69668893D01*
X114368253Y-69688599D01*
X114351777Y-69706777D01*
X114333599Y-69723253D01*
X114313893Y-69737868D01*
X114292850Y-69750480D01*
X114270671Y-69760970D01*
X114247572Y-69769235D01*
X114223773Y-69775196D01*
X114199505Y-69778796D01*
X114175001Y-69780000D01*
X113099999Y-69780000D01*
X113075495Y-69778796D01*
X113051227Y-69775196D01*
X113027428Y-69769235D01*
X113004329Y-69760970D01*
X112982150Y-69750480D01*
X112961107Y-69737868D01*
X112941401Y-69723253D01*
X112923223Y-69706777D01*
X112906747Y-69688599D01*
X112892132Y-69668893D01*
X112879520Y-69647850D01*
X112869030Y-69625671D01*
X112860765Y-69602572D01*
X112854804Y-69578773D01*
X112851204Y-69554505D01*
X112850000Y-69530001D01*
X112850000Y-68679999D01*
X112851204Y-68655495D01*
X112854804Y-68631227D01*
X112860765Y-68607428D01*
X112869030Y-68584329D01*
X112879520Y-68562150D01*
X112892132Y-68541107D01*
X112906747Y-68521401D01*
X112923223Y-68503223D01*
X112941401Y-68486747D01*
X112961107Y-68472132D01*
X112982150Y-68459520D01*
X113004329Y-68449030D01*
X113027428Y-68440765D01*
X113051227Y-68434804D01*
X113075495Y-68431204D01*
X113099999Y-68430000D01*
X114175001Y-68430000D01*
X114199505Y-68431204D01*
G37*
G04 #@! TD.AperFunction*
G04 #@! TA.AperFunction,SMDPad,CuDef*
G36*
X111324505Y-68431204D02*
G01*
X111348773Y-68434804D01*
X111372572Y-68440765D01*
X111395671Y-68449030D01*
X111417850Y-68459520D01*
X111438893Y-68472132D01*
X111458599Y-68486747D01*
X111476777Y-68503223D01*
X111493253Y-68521401D01*
X111507868Y-68541107D01*
X111520480Y-68562150D01*
X111530970Y-68584329D01*
X111539235Y-68607428D01*
X111545196Y-68631227D01*
X111548796Y-68655495D01*
X111550000Y-68679999D01*
X111550000Y-69530001D01*
X111548796Y-69554505D01*
X111545196Y-69578773D01*
X111539235Y-69602572D01*
X111530970Y-69625671D01*
X111520480Y-69647850D01*
X111507868Y-69668893D01*
X111493253Y-69688599D01*
X111476777Y-69706777D01*
X111458599Y-69723253D01*
X111438893Y-69737868D01*
X111417850Y-69750480D01*
X111395671Y-69760970D01*
X111372572Y-69769235D01*
X111348773Y-69775196D01*
X111324505Y-69778796D01*
X111300001Y-69780000D01*
X110224999Y-69780000D01*
X110200495Y-69778796D01*
X110176227Y-69775196D01*
X110152428Y-69769235D01*
X110129329Y-69760970D01*
X110107150Y-69750480D01*
X110086107Y-69737868D01*
X110066401Y-69723253D01*
X110048223Y-69706777D01*
X110031747Y-69688599D01*
X110017132Y-69668893D01*
X110004520Y-69647850D01*
X109994030Y-69625671D01*
X109985765Y-69602572D01*
X109979804Y-69578773D01*
X109976204Y-69554505D01*
X109975000Y-69530001D01*
X109975000Y-68679999D01*
X109976204Y-68655495D01*
X109979804Y-68631227D01*
X109985765Y-68607428D01*
X109994030Y-68584329D01*
X110004520Y-68562150D01*
X110017132Y-68541107D01*
X110031747Y-68521401D01*
X110048223Y-68503223D01*
X110066401Y-68486747D01*
X110086107Y-68472132D01*
X110107150Y-68459520D01*
X110129329Y-68449030D01*
X110152428Y-68440765D01*
X110176227Y-68434804D01*
X110200495Y-68431204D01*
X110224999Y-68430000D01*
X111300001Y-68430000D01*
X111324505Y-68431204D01*
G37*
G04 #@! TD.AperFunction*
G04 #@! TA.AperFunction,SMDPad,CuDef*
G36*
X111219504Y-72441204D02*
G01*
X111243773Y-72444804D01*
X111267571Y-72450765D01*
X111290671Y-72459030D01*
X111312849Y-72469520D01*
X111333893Y-72482133D01*
X111353598Y-72496747D01*
X111371777Y-72513223D01*
X111388253Y-72531402D01*
X111402867Y-72551107D01*
X111415480Y-72572151D01*
X111425970Y-72594329D01*
X111434235Y-72617429D01*
X111440196Y-72641227D01*
X111443796Y-72665496D01*
X111445000Y-72690000D01*
X111445000Y-73940000D01*
X111443796Y-73964504D01*
X111440196Y-73988773D01*
X111434235Y-74012571D01*
X111425970Y-74035671D01*
X111415480Y-74057849D01*
X111402867Y-74078893D01*
X111388253Y-74098598D01*
X111371777Y-74116777D01*
X111353598Y-74133253D01*
X111333893Y-74147867D01*
X111312849Y-74160480D01*
X111290671Y-74170970D01*
X111267571Y-74179235D01*
X111243773Y-74185196D01*
X111219504Y-74188796D01*
X111195000Y-74190000D01*
X110270000Y-74190000D01*
X110245496Y-74188796D01*
X110221227Y-74185196D01*
X110197429Y-74179235D01*
X110174329Y-74170970D01*
X110152151Y-74160480D01*
X110131107Y-74147867D01*
X110111402Y-74133253D01*
X110093223Y-74116777D01*
X110076747Y-74098598D01*
X110062133Y-74078893D01*
X110049520Y-74057849D01*
X110039030Y-74035671D01*
X110030765Y-74012571D01*
X110024804Y-73988773D01*
X110021204Y-73964504D01*
X110020000Y-73940000D01*
X110020000Y-72690000D01*
X110021204Y-72665496D01*
X110024804Y-72641227D01*
X110030765Y-72617429D01*
X110039030Y-72594329D01*
X110049520Y-72572151D01*
X110062133Y-72551107D01*
X110076747Y-72531402D01*
X110093223Y-72513223D01*
X110111402Y-72496747D01*
X110131107Y-72482133D01*
X110152151Y-72469520D01*
X110174329Y-72459030D01*
X110197429Y-72450765D01*
X110221227Y-72444804D01*
X110245496Y-72441204D01*
X110270000Y-72440000D01*
X111195000Y-72440000D01*
X111219504Y-72441204D01*
G37*
G04 #@! TD.AperFunction*
G04 #@! TA.AperFunction,SMDPad,CuDef*
G36*
X114194504Y-72441204D02*
G01*
X114218773Y-72444804D01*
X114242571Y-72450765D01*
X114265671Y-72459030D01*
X114287849Y-72469520D01*
X114308893Y-72482133D01*
X114328598Y-72496747D01*
X114346777Y-72513223D01*
X114363253Y-72531402D01*
X114377867Y-72551107D01*
X114390480Y-72572151D01*
X114400970Y-72594329D01*
X114409235Y-72617429D01*
X114415196Y-72641227D01*
X114418796Y-72665496D01*
X114420000Y-72690000D01*
X114420000Y-73940000D01*
X114418796Y-73964504D01*
X114415196Y-73988773D01*
X114409235Y-74012571D01*
X114400970Y-74035671D01*
X114390480Y-74057849D01*
X114377867Y-74078893D01*
X114363253Y-74098598D01*
X114346777Y-74116777D01*
X114328598Y-74133253D01*
X114308893Y-74147867D01*
X114287849Y-74160480D01*
X114265671Y-74170970D01*
X114242571Y-74179235D01*
X114218773Y-74185196D01*
X114194504Y-74188796D01*
X114170000Y-74190000D01*
X113245000Y-74190000D01*
X113220496Y-74188796D01*
X113196227Y-74185196D01*
X113172429Y-74179235D01*
X113149329Y-74170970D01*
X113127151Y-74160480D01*
X113106107Y-74147867D01*
X113086402Y-74133253D01*
X113068223Y-74116777D01*
X113051747Y-74098598D01*
X113037133Y-74078893D01*
X113024520Y-74057849D01*
X113014030Y-74035671D01*
X113005765Y-74012571D01*
X112999804Y-73988773D01*
X112996204Y-73964504D01*
X112995000Y-73940000D01*
X112995000Y-72690000D01*
X112996204Y-72665496D01*
X112999804Y-72641227D01*
X113005765Y-72617429D01*
X113014030Y-72594329D01*
X113024520Y-72572151D01*
X113037133Y-72551107D01*
X113051747Y-72531402D01*
X113068223Y-72513223D01*
X113086402Y-72496747D01*
X113106107Y-72482133D01*
X113127151Y-72469520D01*
X113149329Y-72459030D01*
X113172429Y-72450765D01*
X113196227Y-72444804D01*
X113220496Y-72441204D01*
X113245000Y-72440000D01*
X114170000Y-72440000D01*
X114194504Y-72441204D01*
G37*
G04 #@! TD.AperFunction*
G04 #@! TA.AperFunction,SMDPad,CuDef*
G36*
X124871504Y-72441204D02*
G01*
X124895773Y-72444804D01*
X124919571Y-72450765D01*
X124942671Y-72459030D01*
X124964849Y-72469520D01*
X124985893Y-72482133D01*
X125005598Y-72496747D01*
X125023777Y-72513223D01*
X125040253Y-72531402D01*
X125054867Y-72551107D01*
X125067480Y-72572151D01*
X125077970Y-72594329D01*
X125086235Y-72617429D01*
X125092196Y-72641227D01*
X125095796Y-72665496D01*
X125097000Y-72690000D01*
X125097000Y-73940000D01*
X125095796Y-73964504D01*
X125092196Y-73988773D01*
X125086235Y-74012571D01*
X125077970Y-74035671D01*
X125067480Y-74057849D01*
X125054867Y-74078893D01*
X125040253Y-74098598D01*
X125023777Y-74116777D01*
X125005598Y-74133253D01*
X124985893Y-74147867D01*
X124964849Y-74160480D01*
X124942671Y-74170970D01*
X124919571Y-74179235D01*
X124895773Y-74185196D01*
X124871504Y-74188796D01*
X124847000Y-74190000D01*
X123922000Y-74190000D01*
X123897496Y-74188796D01*
X123873227Y-74185196D01*
X123849429Y-74179235D01*
X123826329Y-74170970D01*
X123804151Y-74160480D01*
X123783107Y-74147867D01*
X123763402Y-74133253D01*
X123745223Y-74116777D01*
X123728747Y-74098598D01*
X123714133Y-74078893D01*
X123701520Y-74057849D01*
X123691030Y-74035671D01*
X123682765Y-74012571D01*
X123676804Y-73988773D01*
X123673204Y-73964504D01*
X123672000Y-73940000D01*
X123672000Y-72690000D01*
X123673204Y-72665496D01*
X123676804Y-72641227D01*
X123682765Y-72617429D01*
X123691030Y-72594329D01*
X123701520Y-72572151D01*
X123714133Y-72551107D01*
X123728747Y-72531402D01*
X123745223Y-72513223D01*
X123763402Y-72496747D01*
X123783107Y-72482133D01*
X123804151Y-72469520D01*
X123826329Y-72459030D01*
X123849429Y-72450765D01*
X123873227Y-72444804D01*
X123897496Y-72441204D01*
X123922000Y-72440000D01*
X124847000Y-72440000D01*
X124871504Y-72441204D01*
G37*
G04 #@! TD.AperFunction*
G04 #@! TA.AperFunction,SMDPad,CuDef*
G36*
X127846504Y-72441204D02*
G01*
X127870773Y-72444804D01*
X127894571Y-72450765D01*
X127917671Y-72459030D01*
X127939849Y-72469520D01*
X127960893Y-72482133D01*
X127980598Y-72496747D01*
X127998777Y-72513223D01*
X128015253Y-72531402D01*
X128029867Y-72551107D01*
X128042480Y-72572151D01*
X128052970Y-72594329D01*
X128061235Y-72617429D01*
X128067196Y-72641227D01*
X128070796Y-72665496D01*
X128072000Y-72690000D01*
X128072000Y-73940000D01*
X128070796Y-73964504D01*
X128067196Y-73988773D01*
X128061235Y-74012571D01*
X128052970Y-74035671D01*
X128042480Y-74057849D01*
X128029867Y-74078893D01*
X128015253Y-74098598D01*
X127998777Y-74116777D01*
X127980598Y-74133253D01*
X127960893Y-74147867D01*
X127939849Y-74160480D01*
X127917671Y-74170970D01*
X127894571Y-74179235D01*
X127870773Y-74185196D01*
X127846504Y-74188796D01*
X127822000Y-74190000D01*
X126897000Y-74190000D01*
X126872496Y-74188796D01*
X126848227Y-74185196D01*
X126824429Y-74179235D01*
X126801329Y-74170970D01*
X126779151Y-74160480D01*
X126758107Y-74147867D01*
X126738402Y-74133253D01*
X126720223Y-74116777D01*
X126703747Y-74098598D01*
X126689133Y-74078893D01*
X126676520Y-74057849D01*
X126666030Y-74035671D01*
X126657765Y-74012571D01*
X126651804Y-73988773D01*
X126648204Y-73964504D01*
X126647000Y-73940000D01*
X126647000Y-72690000D01*
X126648204Y-72665496D01*
X126651804Y-72641227D01*
X126657765Y-72617429D01*
X126666030Y-72594329D01*
X126676520Y-72572151D01*
X126689133Y-72551107D01*
X126703747Y-72531402D01*
X126720223Y-72513223D01*
X126738402Y-72496747D01*
X126758107Y-72482133D01*
X126779151Y-72469520D01*
X126801329Y-72459030D01*
X126824429Y-72450765D01*
X126848227Y-72444804D01*
X126872496Y-72441204D01*
X126897000Y-72440000D01*
X127822000Y-72440000D01*
X127846504Y-72441204D01*
G37*
G04 #@! TD.AperFunction*
D12*
X124872000Y-64895000D03*
X126872000Y-63945000D03*
X126872000Y-65845000D03*
X124872000Y-69105000D03*
X126872000Y-68155000D03*
X126872000Y-70055000D03*
G04 #@! TA.AperFunction,SMDPad,CuDef*
D11*
G36*
X151689504Y-59811204D02*
G01*
X151713773Y-59814804D01*
X151737571Y-59820765D01*
X151760671Y-59829030D01*
X151782849Y-59839520D01*
X151803893Y-59852133D01*
X151823598Y-59866747D01*
X151841777Y-59883223D01*
X151858253Y-59901402D01*
X151872867Y-59921107D01*
X151885480Y-59942151D01*
X151895970Y-59964329D01*
X151904235Y-59987429D01*
X151910196Y-60011227D01*
X151913796Y-60035496D01*
X151915000Y-60060000D01*
X151915000Y-61310000D01*
X151913796Y-61334504D01*
X151910196Y-61358773D01*
X151904235Y-61382571D01*
X151895970Y-61405671D01*
X151885480Y-61427849D01*
X151872867Y-61448893D01*
X151858253Y-61468598D01*
X151841777Y-61486777D01*
X151823598Y-61503253D01*
X151803893Y-61517867D01*
X151782849Y-61530480D01*
X151760671Y-61540970D01*
X151737571Y-61549235D01*
X151713773Y-61555196D01*
X151689504Y-61558796D01*
X151665000Y-61560000D01*
X150740000Y-61560000D01*
X150715496Y-61558796D01*
X150691227Y-61555196D01*
X150667429Y-61549235D01*
X150644329Y-61540970D01*
X150622151Y-61530480D01*
X150601107Y-61517867D01*
X150581402Y-61503253D01*
X150563223Y-61486777D01*
X150546747Y-61468598D01*
X150532133Y-61448893D01*
X150519520Y-61427849D01*
X150509030Y-61405671D01*
X150500765Y-61382571D01*
X150494804Y-61358773D01*
X150491204Y-61334504D01*
X150490000Y-61310000D01*
X150490000Y-60060000D01*
X150491204Y-60035496D01*
X150494804Y-60011227D01*
X150500765Y-59987429D01*
X150509030Y-59964329D01*
X150519520Y-59942151D01*
X150532133Y-59921107D01*
X150546747Y-59901402D01*
X150563223Y-59883223D01*
X150581402Y-59866747D01*
X150601107Y-59852133D01*
X150622151Y-59839520D01*
X150644329Y-59829030D01*
X150667429Y-59820765D01*
X150691227Y-59814804D01*
X150715496Y-59811204D01*
X150740000Y-59810000D01*
X151665000Y-59810000D01*
X151689504Y-59811204D01*
G37*
G04 #@! TD.AperFunction*
G04 #@! TA.AperFunction,SMDPad,CuDef*
G36*
X148714504Y-59811204D02*
G01*
X148738773Y-59814804D01*
X148762571Y-59820765D01*
X148785671Y-59829030D01*
X148807849Y-59839520D01*
X148828893Y-59852133D01*
X148848598Y-59866747D01*
X148866777Y-59883223D01*
X148883253Y-59901402D01*
X148897867Y-59921107D01*
X148910480Y-59942151D01*
X148920970Y-59964329D01*
X148929235Y-59987429D01*
X148935196Y-60011227D01*
X148938796Y-60035496D01*
X148940000Y-60060000D01*
X148940000Y-61310000D01*
X148938796Y-61334504D01*
X148935196Y-61358773D01*
X148929235Y-61382571D01*
X148920970Y-61405671D01*
X148910480Y-61427849D01*
X148897867Y-61448893D01*
X148883253Y-61468598D01*
X148866777Y-61486777D01*
X148848598Y-61503253D01*
X148828893Y-61517867D01*
X148807849Y-61530480D01*
X148785671Y-61540970D01*
X148762571Y-61549235D01*
X148738773Y-61555196D01*
X148714504Y-61558796D01*
X148690000Y-61560000D01*
X147765000Y-61560000D01*
X147740496Y-61558796D01*
X147716227Y-61555196D01*
X147692429Y-61549235D01*
X147669329Y-61540970D01*
X147647151Y-61530480D01*
X147626107Y-61517867D01*
X147606402Y-61503253D01*
X147588223Y-61486777D01*
X147571747Y-61468598D01*
X147557133Y-61448893D01*
X147544520Y-61427849D01*
X147534030Y-61405671D01*
X147525765Y-61382571D01*
X147519804Y-61358773D01*
X147516204Y-61334504D01*
X147515000Y-61310000D01*
X147515000Y-60060000D01*
X147516204Y-60035496D01*
X147519804Y-60011227D01*
X147525765Y-59987429D01*
X147534030Y-59964329D01*
X147544520Y-59942151D01*
X147557133Y-59921107D01*
X147571747Y-59901402D01*
X147588223Y-59883223D01*
X147606402Y-59866747D01*
X147626107Y-59852133D01*
X147647151Y-59839520D01*
X147669329Y-59829030D01*
X147692429Y-59820765D01*
X147716227Y-59814804D01*
X147740496Y-59811204D01*
X147765000Y-59810000D01*
X148690000Y-59810000D01*
X148714504Y-59811204D01*
G37*
G04 #@! TD.AperFunction*
G04 #@! TA.AperFunction,SMDPad,CuDef*
G36*
X148714504Y-64021204D02*
G01*
X148738773Y-64024804D01*
X148762571Y-64030765D01*
X148785671Y-64039030D01*
X148807849Y-64049520D01*
X148828893Y-64062133D01*
X148848598Y-64076747D01*
X148866777Y-64093223D01*
X148883253Y-64111402D01*
X148897867Y-64131107D01*
X148910480Y-64152151D01*
X148920970Y-64174329D01*
X148929235Y-64197429D01*
X148935196Y-64221227D01*
X148938796Y-64245496D01*
X148940000Y-64270000D01*
X148940000Y-65520000D01*
X148938796Y-65544504D01*
X148935196Y-65568773D01*
X148929235Y-65592571D01*
X148920970Y-65615671D01*
X148910480Y-65637849D01*
X148897867Y-65658893D01*
X148883253Y-65678598D01*
X148866777Y-65696777D01*
X148848598Y-65713253D01*
X148828893Y-65727867D01*
X148807849Y-65740480D01*
X148785671Y-65750970D01*
X148762571Y-65759235D01*
X148738773Y-65765196D01*
X148714504Y-65768796D01*
X148690000Y-65770000D01*
X147765000Y-65770000D01*
X147740496Y-65768796D01*
X147716227Y-65765196D01*
X147692429Y-65759235D01*
X147669329Y-65750970D01*
X147647151Y-65740480D01*
X147626107Y-65727867D01*
X147606402Y-65713253D01*
X147588223Y-65696777D01*
X147571747Y-65678598D01*
X147557133Y-65658893D01*
X147544520Y-65637849D01*
X147534030Y-65615671D01*
X147525765Y-65592571D01*
X147519804Y-65568773D01*
X147516204Y-65544504D01*
X147515000Y-65520000D01*
X147515000Y-64270000D01*
X147516204Y-64245496D01*
X147519804Y-64221227D01*
X147525765Y-64197429D01*
X147534030Y-64174329D01*
X147544520Y-64152151D01*
X147557133Y-64131107D01*
X147571747Y-64111402D01*
X147588223Y-64093223D01*
X147606402Y-64076747D01*
X147626107Y-64062133D01*
X147647151Y-64049520D01*
X147669329Y-64039030D01*
X147692429Y-64030765D01*
X147716227Y-64024804D01*
X147740496Y-64021204D01*
X147765000Y-64020000D01*
X148690000Y-64020000D01*
X148714504Y-64021204D01*
G37*
G04 #@! TD.AperFunction*
G04 #@! TA.AperFunction,SMDPad,CuDef*
G36*
X151689504Y-64021204D02*
G01*
X151713773Y-64024804D01*
X151737571Y-64030765D01*
X151760671Y-64039030D01*
X151782849Y-64049520D01*
X151803893Y-64062133D01*
X151823598Y-64076747D01*
X151841777Y-64093223D01*
X151858253Y-64111402D01*
X151872867Y-64131107D01*
X151885480Y-64152151D01*
X151895970Y-64174329D01*
X151904235Y-64197429D01*
X151910196Y-64221227D01*
X151913796Y-64245496D01*
X151915000Y-64270000D01*
X151915000Y-65520000D01*
X151913796Y-65544504D01*
X151910196Y-65568773D01*
X151904235Y-65592571D01*
X151895970Y-65615671D01*
X151885480Y-65637849D01*
X151872867Y-65658893D01*
X151858253Y-65678598D01*
X151841777Y-65696777D01*
X151823598Y-65713253D01*
X151803893Y-65727867D01*
X151782849Y-65740480D01*
X151760671Y-65750970D01*
X151737571Y-65759235D01*
X151713773Y-65765196D01*
X151689504Y-65768796D01*
X151665000Y-65770000D01*
X150740000Y-65770000D01*
X150715496Y-65768796D01*
X150691227Y-65765196D01*
X150667429Y-65759235D01*
X150644329Y-65750970D01*
X150622151Y-65740480D01*
X150601107Y-65727867D01*
X150581402Y-65713253D01*
X150563223Y-65696777D01*
X150546747Y-65678598D01*
X150532133Y-65658893D01*
X150519520Y-65637849D01*
X150509030Y-65615671D01*
X150500765Y-65592571D01*
X150494804Y-65568773D01*
X150491204Y-65544504D01*
X150490000Y-65520000D01*
X150490000Y-64270000D01*
X150491204Y-64245496D01*
X150494804Y-64221227D01*
X150500765Y-64197429D01*
X150509030Y-64174329D01*
X150519520Y-64152151D01*
X150532133Y-64131107D01*
X150546747Y-64111402D01*
X150563223Y-64093223D01*
X150581402Y-64076747D01*
X150601107Y-64062133D01*
X150622151Y-64049520D01*
X150644329Y-64039030D01*
X150667429Y-64030765D01*
X150691227Y-64024804D01*
X150715496Y-64021204D01*
X150740000Y-64020000D01*
X151665000Y-64020000D01*
X151689504Y-64021204D01*
G37*
G04 #@! TD.AperFunction*
G04 #@! TA.AperFunction,SMDPad,CuDef*
G36*
X151689504Y-68231204D02*
G01*
X151713773Y-68234804D01*
X151737571Y-68240765D01*
X151760671Y-68249030D01*
X151782849Y-68259520D01*
X151803893Y-68272133D01*
X151823598Y-68286747D01*
X151841777Y-68303223D01*
X151858253Y-68321402D01*
X151872867Y-68341107D01*
X151885480Y-68362151D01*
X151895970Y-68384329D01*
X151904235Y-68407429D01*
X151910196Y-68431227D01*
X151913796Y-68455496D01*
X151915000Y-68480000D01*
X151915000Y-69730000D01*
X151913796Y-69754504D01*
X151910196Y-69778773D01*
X151904235Y-69802571D01*
X151895970Y-69825671D01*
X151885480Y-69847849D01*
X151872867Y-69868893D01*
X151858253Y-69888598D01*
X151841777Y-69906777D01*
X151823598Y-69923253D01*
X151803893Y-69937867D01*
X151782849Y-69950480D01*
X151760671Y-69960970D01*
X151737571Y-69969235D01*
X151713773Y-69975196D01*
X151689504Y-69978796D01*
X151665000Y-69980000D01*
X150740000Y-69980000D01*
X150715496Y-69978796D01*
X150691227Y-69975196D01*
X150667429Y-69969235D01*
X150644329Y-69960970D01*
X150622151Y-69950480D01*
X150601107Y-69937867D01*
X150581402Y-69923253D01*
X150563223Y-69906777D01*
X150546747Y-69888598D01*
X150532133Y-69868893D01*
X150519520Y-69847849D01*
X150509030Y-69825671D01*
X150500765Y-69802571D01*
X150494804Y-69778773D01*
X150491204Y-69754504D01*
X150490000Y-69730000D01*
X150490000Y-68480000D01*
X150491204Y-68455496D01*
X150494804Y-68431227D01*
X150500765Y-68407429D01*
X150509030Y-68384329D01*
X150519520Y-68362151D01*
X150532133Y-68341107D01*
X150546747Y-68321402D01*
X150563223Y-68303223D01*
X150581402Y-68286747D01*
X150601107Y-68272133D01*
X150622151Y-68259520D01*
X150644329Y-68249030D01*
X150667429Y-68240765D01*
X150691227Y-68234804D01*
X150715496Y-68231204D01*
X150740000Y-68230000D01*
X151665000Y-68230000D01*
X151689504Y-68231204D01*
G37*
G04 #@! TD.AperFunction*
G04 #@! TA.AperFunction,SMDPad,CuDef*
G36*
X148714504Y-68231204D02*
G01*
X148738773Y-68234804D01*
X148762571Y-68240765D01*
X148785671Y-68249030D01*
X148807849Y-68259520D01*
X148828893Y-68272133D01*
X148848598Y-68286747D01*
X148866777Y-68303223D01*
X148883253Y-68321402D01*
X148897867Y-68341107D01*
X148910480Y-68362151D01*
X148920970Y-68384329D01*
X148929235Y-68407429D01*
X148935196Y-68431227D01*
X148938796Y-68455496D01*
X148940000Y-68480000D01*
X148940000Y-69730000D01*
X148938796Y-69754504D01*
X148935196Y-69778773D01*
X148929235Y-69802571D01*
X148920970Y-69825671D01*
X148910480Y-69847849D01*
X148897867Y-69868893D01*
X148883253Y-69888598D01*
X148866777Y-69906777D01*
X148848598Y-69923253D01*
X148828893Y-69937867D01*
X148807849Y-69950480D01*
X148785671Y-69960970D01*
X148762571Y-69969235D01*
X148738773Y-69975196D01*
X148714504Y-69978796D01*
X148690000Y-69980000D01*
X147765000Y-69980000D01*
X147740496Y-69978796D01*
X147716227Y-69975196D01*
X147692429Y-69969235D01*
X147669329Y-69960970D01*
X147647151Y-69950480D01*
X147626107Y-69937867D01*
X147606402Y-69923253D01*
X147588223Y-69906777D01*
X147571747Y-69888598D01*
X147557133Y-69868893D01*
X147544520Y-69847849D01*
X147534030Y-69825671D01*
X147525765Y-69802571D01*
X147519804Y-69778773D01*
X147516204Y-69754504D01*
X147515000Y-69730000D01*
X147515000Y-68480000D01*
X147516204Y-68455496D01*
X147519804Y-68431227D01*
X147525765Y-68407429D01*
X147534030Y-68384329D01*
X147544520Y-68362151D01*
X147557133Y-68341107D01*
X147571747Y-68321402D01*
X147588223Y-68303223D01*
X147606402Y-68286747D01*
X147626107Y-68272133D01*
X147647151Y-68259520D01*
X147669329Y-68249030D01*
X147692429Y-68240765D01*
X147716227Y-68234804D01*
X147740496Y-68231204D01*
X147765000Y-68230000D01*
X148690000Y-68230000D01*
X148714504Y-68231204D01*
G37*
G04 #@! TD.AperFunction*
G04 #@! TA.AperFunction,SMDPad,CuDef*
G36*
X151689504Y-72441204D02*
G01*
X151713773Y-72444804D01*
X151737571Y-72450765D01*
X151760671Y-72459030D01*
X151782849Y-72469520D01*
X151803893Y-72482133D01*
X151823598Y-72496747D01*
X151841777Y-72513223D01*
X151858253Y-72531402D01*
X151872867Y-72551107D01*
X151885480Y-72572151D01*
X151895970Y-72594329D01*
X151904235Y-72617429D01*
X151910196Y-72641227D01*
X151913796Y-72665496D01*
X151915000Y-72690000D01*
X151915000Y-73940000D01*
X151913796Y-73964504D01*
X151910196Y-73988773D01*
X151904235Y-74012571D01*
X151895970Y-74035671D01*
X151885480Y-74057849D01*
X151872867Y-74078893D01*
X151858253Y-74098598D01*
X151841777Y-74116777D01*
X151823598Y-74133253D01*
X151803893Y-74147867D01*
X151782849Y-74160480D01*
X151760671Y-74170970D01*
X151737571Y-74179235D01*
X151713773Y-74185196D01*
X151689504Y-74188796D01*
X151665000Y-74190000D01*
X150740000Y-74190000D01*
X150715496Y-74188796D01*
X150691227Y-74185196D01*
X150667429Y-74179235D01*
X150644329Y-74170970D01*
X150622151Y-74160480D01*
X150601107Y-74147867D01*
X150581402Y-74133253D01*
X150563223Y-74116777D01*
X150546747Y-74098598D01*
X150532133Y-74078893D01*
X150519520Y-74057849D01*
X150509030Y-74035671D01*
X150500765Y-74012571D01*
X150494804Y-73988773D01*
X150491204Y-73964504D01*
X150490000Y-73940000D01*
X150490000Y-72690000D01*
X150491204Y-72665496D01*
X150494804Y-72641227D01*
X150500765Y-72617429D01*
X150509030Y-72594329D01*
X150519520Y-72572151D01*
X150532133Y-72551107D01*
X150546747Y-72531402D01*
X150563223Y-72513223D01*
X150581402Y-72496747D01*
X150601107Y-72482133D01*
X150622151Y-72469520D01*
X150644329Y-72459030D01*
X150667429Y-72450765D01*
X150691227Y-72444804D01*
X150715496Y-72441204D01*
X150740000Y-72440000D01*
X151665000Y-72440000D01*
X151689504Y-72441204D01*
G37*
G04 #@! TD.AperFunction*
G04 #@! TA.AperFunction,SMDPad,CuDef*
G36*
X148714504Y-72441204D02*
G01*
X148738773Y-72444804D01*
X148762571Y-72450765D01*
X148785671Y-72459030D01*
X148807849Y-72469520D01*
X148828893Y-72482133D01*
X148848598Y-72496747D01*
X148866777Y-72513223D01*
X148883253Y-72531402D01*
X148897867Y-72551107D01*
X148910480Y-72572151D01*
X148920970Y-72594329D01*
X148929235Y-72617429D01*
X148935196Y-72641227D01*
X148938796Y-72665496D01*
X148940000Y-72690000D01*
X148940000Y-73940000D01*
X148938796Y-73964504D01*
X148935196Y-73988773D01*
X148929235Y-74012571D01*
X148920970Y-74035671D01*
X148910480Y-74057849D01*
X148897867Y-74078893D01*
X148883253Y-74098598D01*
X148866777Y-74116777D01*
X148848598Y-74133253D01*
X148828893Y-74147867D01*
X148807849Y-74160480D01*
X148785671Y-74170970D01*
X148762571Y-74179235D01*
X148738773Y-74185196D01*
X148714504Y-74188796D01*
X148690000Y-74190000D01*
X147765000Y-74190000D01*
X147740496Y-74188796D01*
X147716227Y-74185196D01*
X147692429Y-74179235D01*
X147669329Y-74170970D01*
X147647151Y-74160480D01*
X147626107Y-74147867D01*
X147606402Y-74133253D01*
X147588223Y-74116777D01*
X147571747Y-74098598D01*
X147557133Y-74078893D01*
X147544520Y-74057849D01*
X147534030Y-74035671D01*
X147525765Y-74012571D01*
X147519804Y-73988773D01*
X147516204Y-73964504D01*
X147515000Y-73940000D01*
X147515000Y-72690000D01*
X147516204Y-72665496D01*
X147519804Y-72641227D01*
X147525765Y-72617429D01*
X147534030Y-72594329D01*
X147544520Y-72572151D01*
X147557133Y-72551107D01*
X147571747Y-72531402D01*
X147588223Y-72513223D01*
X147606402Y-72496747D01*
X147626107Y-72482133D01*
X147647151Y-72469520D01*
X147669329Y-72459030D01*
X147692429Y-72450765D01*
X147716227Y-72444804D01*
X147740496Y-72441204D01*
X147765000Y-72440000D01*
X148690000Y-72440000D01*
X148714504Y-72441204D01*
G37*
G04 #@! TD.AperFunction*
G04 #@! TA.AperFunction,SMDPad,CuDef*
G36*
X114194504Y-64021204D02*
G01*
X114218773Y-64024804D01*
X114242571Y-64030765D01*
X114265671Y-64039030D01*
X114287849Y-64049520D01*
X114308893Y-64062133D01*
X114328598Y-64076747D01*
X114346777Y-64093223D01*
X114363253Y-64111402D01*
X114377867Y-64131107D01*
X114390480Y-64152151D01*
X114400970Y-64174329D01*
X114409235Y-64197429D01*
X114415196Y-64221227D01*
X114418796Y-64245496D01*
X114420000Y-64270000D01*
X114420000Y-65520000D01*
X114418796Y-65544504D01*
X114415196Y-65568773D01*
X114409235Y-65592571D01*
X114400970Y-65615671D01*
X114390480Y-65637849D01*
X114377867Y-65658893D01*
X114363253Y-65678598D01*
X114346777Y-65696777D01*
X114328598Y-65713253D01*
X114308893Y-65727867D01*
X114287849Y-65740480D01*
X114265671Y-65750970D01*
X114242571Y-65759235D01*
X114218773Y-65765196D01*
X114194504Y-65768796D01*
X114170000Y-65770000D01*
X113245000Y-65770000D01*
X113220496Y-65768796D01*
X113196227Y-65765196D01*
X113172429Y-65759235D01*
X113149329Y-65750970D01*
X113127151Y-65740480D01*
X113106107Y-65727867D01*
X113086402Y-65713253D01*
X113068223Y-65696777D01*
X113051747Y-65678598D01*
X113037133Y-65658893D01*
X113024520Y-65637849D01*
X113014030Y-65615671D01*
X113005765Y-65592571D01*
X112999804Y-65568773D01*
X112996204Y-65544504D01*
X112995000Y-65520000D01*
X112995000Y-64270000D01*
X112996204Y-64245496D01*
X112999804Y-64221227D01*
X113005765Y-64197429D01*
X113014030Y-64174329D01*
X113024520Y-64152151D01*
X113037133Y-64131107D01*
X113051747Y-64111402D01*
X113068223Y-64093223D01*
X113086402Y-64076747D01*
X113106107Y-64062133D01*
X113127151Y-64049520D01*
X113149329Y-64039030D01*
X113172429Y-64030765D01*
X113196227Y-64024804D01*
X113220496Y-64021204D01*
X113245000Y-64020000D01*
X114170000Y-64020000D01*
X114194504Y-64021204D01*
G37*
G04 #@! TD.AperFunction*
G04 #@! TA.AperFunction,SMDPad,CuDef*
G36*
X111219504Y-64021204D02*
G01*
X111243773Y-64024804D01*
X111267571Y-64030765D01*
X111290671Y-64039030D01*
X111312849Y-64049520D01*
X111333893Y-64062133D01*
X111353598Y-64076747D01*
X111371777Y-64093223D01*
X111388253Y-64111402D01*
X111402867Y-64131107D01*
X111415480Y-64152151D01*
X111425970Y-64174329D01*
X111434235Y-64197429D01*
X111440196Y-64221227D01*
X111443796Y-64245496D01*
X111445000Y-64270000D01*
X111445000Y-65520000D01*
X111443796Y-65544504D01*
X111440196Y-65568773D01*
X111434235Y-65592571D01*
X111425970Y-65615671D01*
X111415480Y-65637849D01*
X111402867Y-65658893D01*
X111388253Y-65678598D01*
X111371777Y-65696777D01*
X111353598Y-65713253D01*
X111333893Y-65727867D01*
X111312849Y-65740480D01*
X111290671Y-65750970D01*
X111267571Y-65759235D01*
X111243773Y-65765196D01*
X111219504Y-65768796D01*
X111195000Y-65770000D01*
X110270000Y-65770000D01*
X110245496Y-65768796D01*
X110221227Y-65765196D01*
X110197429Y-65759235D01*
X110174329Y-65750970D01*
X110152151Y-65740480D01*
X110131107Y-65727867D01*
X110111402Y-65713253D01*
X110093223Y-65696777D01*
X110076747Y-65678598D01*
X110062133Y-65658893D01*
X110049520Y-65637849D01*
X110039030Y-65615671D01*
X110030765Y-65592571D01*
X110024804Y-65568773D01*
X110021204Y-65544504D01*
X110020000Y-65520000D01*
X110020000Y-64270000D01*
X110021204Y-64245496D01*
X110024804Y-64221227D01*
X110030765Y-64197429D01*
X110039030Y-64174329D01*
X110049520Y-64152151D01*
X110062133Y-64131107D01*
X110076747Y-64111402D01*
X110093223Y-64093223D01*
X110111402Y-64076747D01*
X110131107Y-64062133D01*
X110152151Y-64049520D01*
X110174329Y-64039030D01*
X110197429Y-64030765D01*
X110221227Y-64024804D01*
X110245496Y-64021204D01*
X110270000Y-64020000D01*
X111195000Y-64020000D01*
X111219504Y-64021204D01*
G37*
G04 #@! TD.AperFunction*
G04 #@! TA.AperFunction,ComponentPad*
G36*
X73237657Y-62332046D02*
G01*
X73278913Y-62338166D01*
X73319371Y-62348300D01*
X73358640Y-62362351D01*
X73396344Y-62380183D01*
X73432117Y-62401625D01*
X73465617Y-62426471D01*
X73496520Y-62454480D01*
X73524529Y-62485383D01*
X73549375Y-62518883D01*
X73570817Y-62554656D01*
X73588649Y-62592360D01*
X73602700Y-62631629D01*
X73612834Y-62672087D01*
X73618954Y-62713343D01*
X73621000Y-62755000D01*
X73621000Y-63605000D01*
X73618954Y-63646657D01*
X73612834Y-63687913D01*
X73602700Y-63728371D01*
X73588649Y-63767640D01*
X73570817Y-63805344D01*
X73549375Y-63841117D01*
X73524529Y-63874617D01*
X73496520Y-63905520D01*
X73465617Y-63933529D01*
X73432117Y-63958375D01*
X73396344Y-63979817D01*
X73358640Y-63997649D01*
X73319371Y-64011700D01*
X73278913Y-64021834D01*
X73237657Y-64027954D01*
X73196000Y-64030000D01*
X72346000Y-64030000D01*
X72304343Y-64027954D01*
X72263087Y-64021834D01*
X72222629Y-64011700D01*
X72183360Y-63997649D01*
X72145656Y-63979817D01*
X72109883Y-63958375D01*
X72076383Y-63933529D01*
X72045480Y-63905520D01*
X72017471Y-63874617D01*
X71992625Y-63841117D01*
X71971183Y-63805344D01*
X71953351Y-63767640D01*
X71939300Y-63728371D01*
X71929166Y-63687913D01*
X71923046Y-63646657D01*
X71921000Y-63605000D01*
X71921000Y-62755000D01*
X71923046Y-62713343D01*
X71929166Y-62672087D01*
X71939300Y-62631629D01*
X71953351Y-62592360D01*
X71971183Y-62554656D01*
X71992625Y-62518883D01*
X72017471Y-62485383D01*
X72045480Y-62454480D01*
X72076383Y-62426471D01*
X72109883Y-62401625D01*
X72145656Y-62380183D01*
X72183360Y-62362351D01*
X72222629Y-62348300D01*
X72263087Y-62338166D01*
X72304343Y-62332046D01*
X72346000Y-62330000D01*
X73196000Y-62330000D01*
X73237657Y-62332046D01*
G37*
G04 #@! TD.AperFunction*
D13*
X72771000Y-65720000D03*
X72771000Y-68260000D03*
D14*
X72771000Y-70800000D03*
D13*
X146455000Y-81630000D03*
X143915000Y-81630000D03*
X141375000Y-81630000D03*
X138835000Y-81630000D03*
X136295000Y-81630000D03*
X133755000Y-81630000D03*
G04 #@! TA.AperFunction,ComponentPad*
D11*
G36*
X131681657Y-80782046D02*
G01*
X131722913Y-80788166D01*
X131763371Y-80798300D01*
X131802640Y-80812351D01*
X131840344Y-80830183D01*
X131876117Y-80851625D01*
X131909617Y-80876471D01*
X131940520Y-80904480D01*
X131968529Y-80935383D01*
X131993375Y-80968883D01*
X132014817Y-81004656D01*
X132032649Y-81042360D01*
X132046700Y-81081629D01*
X132056834Y-81122087D01*
X132062954Y-81163343D01*
X132065000Y-81205000D01*
X132065000Y-82055000D01*
X132062954Y-82096657D01*
X132056834Y-82137913D01*
X132046700Y-82178371D01*
X132032649Y-82217640D01*
X132014817Y-82255344D01*
X131993375Y-82291117D01*
X131968529Y-82324617D01*
X131940520Y-82355520D01*
X131909617Y-82383529D01*
X131876117Y-82408375D01*
X131840344Y-82429817D01*
X131802640Y-82447649D01*
X131763371Y-82461700D01*
X131722913Y-82471834D01*
X131681657Y-82477954D01*
X131640000Y-82480000D01*
X130790000Y-82480000D01*
X130748343Y-82477954D01*
X130707087Y-82471834D01*
X130666629Y-82461700D01*
X130627360Y-82447649D01*
X130589656Y-82429817D01*
X130553883Y-82408375D01*
X130520383Y-82383529D01*
X130489480Y-82355520D01*
X130461471Y-82324617D01*
X130436625Y-82291117D01*
X130415183Y-82255344D01*
X130397351Y-82217640D01*
X130383300Y-82178371D01*
X130373166Y-82137913D01*
X130367046Y-82096657D01*
X130365000Y-82055000D01*
X130365000Y-81205000D01*
X130367046Y-81163343D01*
X130373166Y-81122087D01*
X130383300Y-81081629D01*
X130397351Y-81042360D01*
X130415183Y-81004656D01*
X130436625Y-80968883D01*
X130461471Y-80935383D01*
X130489480Y-80904480D01*
X130520383Y-80876471D01*
X130553883Y-80851625D01*
X130589656Y-80830183D01*
X130627360Y-80812351D01*
X130666629Y-80798300D01*
X130707087Y-80788166D01*
X130748343Y-80782046D01*
X130790000Y-80780000D01*
X131640000Y-80780000D01*
X131681657Y-80782046D01*
G37*
G04 #@! TD.AperFunction*
D14*
X128675000Y-81630000D03*
D13*
X128675000Y-52370000D03*
X131215000Y-52370000D03*
X133755000Y-52370000D03*
X136295000Y-52370000D03*
X138835000Y-52370000D03*
X141375000Y-52370000D03*
X143915000Y-52370000D03*
D14*
X146455000Y-52370000D03*
D15*
X162500000Y-57000000D03*
X162500000Y-77000000D03*
X57500000Y-77000000D03*
X57500000Y-57000000D03*
D16*
X84675000Y-64700000D03*
X84675000Y-69300000D03*
X84675000Y-67000000D03*
D17*
X90975000Y-67000000D03*
D18*
X81908000Y-64700000D03*
X132188000Y-70175000D03*
X116030000Y-64895000D03*
X116030000Y-69105000D03*
X128756000Y-68155000D03*
X116030000Y-60685000D03*
D19*
X128675000Y-52370000D02*
X128675000Y-55570000D01*
X110762500Y-73285000D02*
X110732500Y-73315000D01*
X110762500Y-69105000D02*
X110762500Y-73285000D01*
X110762500Y-69105000D02*
X110762500Y-67000000D01*
X124072000Y-64895000D02*
X124872000Y-64895000D01*
X120906000Y-64895000D02*
X124072000Y-64895000D01*
X118801000Y-67000000D02*
X120906000Y-64895000D01*
X90975000Y-67000000D02*
X118801000Y-67000000D01*
X72771000Y-70800000D02*
X78679000Y-70800000D01*
X80179000Y-69300000D02*
X80941000Y-69300000D01*
X78679000Y-70800000D02*
X80179000Y-69300000D01*
X80941000Y-69300000D02*
X84675000Y-69300000D01*
X106678000Y-64895000D02*
X110732500Y-64895000D01*
X105156000Y-63373000D02*
X106678000Y-64895000D01*
X89028000Y-63373000D02*
X105156000Y-63373000D01*
X87758000Y-68453000D02*
X87758000Y-64643000D01*
X86911000Y-69300000D02*
X87758000Y-68453000D01*
X87758000Y-64643000D02*
X89028000Y-63373000D01*
X84675000Y-69300000D02*
X86911000Y-69300000D01*
D20*
X144871000Y-69105000D02*
X147027500Y-69105000D01*
X143801000Y-70175000D02*
X144871000Y-69105000D01*
X141105000Y-70175000D02*
X143801000Y-70175000D01*
X147027500Y-69105000D02*
X148227500Y-69105000D01*
X144937000Y-64895000D02*
X143467000Y-66365000D01*
X147027500Y-64895000D02*
X144937000Y-64895000D01*
X141105000Y-66365000D02*
X143467000Y-66365000D01*
X147027500Y-64895000D02*
X148227500Y-64895000D01*
X151202500Y-66433500D02*
X151202500Y-65095000D01*
X150707000Y-66929000D02*
X151202500Y-66433500D01*
X144888000Y-66929000D02*
X150707000Y-66929000D01*
X144182000Y-67635000D02*
X144888000Y-66929000D01*
X141105000Y-67635000D02*
X144182000Y-67635000D01*
X145118000Y-60685000D02*
X147027500Y-60685000D01*
X144427000Y-61376000D02*
X145118000Y-60685000D01*
X143213000Y-65095000D02*
X144427000Y-63881000D01*
X144427000Y-63881000D02*
X144427000Y-61376000D01*
X141105000Y-65095000D02*
X143213000Y-65095000D01*
X147027500Y-60685000D02*
X148227500Y-60685000D01*
X77536000Y-65720000D02*
X72771000Y-65720000D01*
X78359000Y-64897000D02*
X77536000Y-65720000D01*
X80518000Y-60706000D02*
X78359000Y-62865000D01*
X104648000Y-60706000D02*
X80518000Y-60706000D01*
X107696000Y-57658000D02*
X104648000Y-60706000D01*
X129508000Y-57658000D02*
X107696000Y-57658000D01*
X132588000Y-60738000D02*
X129508000Y-57658000D01*
X78359000Y-62865000D02*
X78359000Y-64897000D01*
X132588000Y-67183000D02*
X132588000Y-60738000D01*
X133040000Y-67635000D02*
X132588000Y-67183000D01*
X134605000Y-67635000D02*
X133040000Y-67635000D01*
X81026000Y-61849000D02*
X105156000Y-61849000D01*
X108204000Y-58801000D02*
X129000000Y-58801000D01*
X79502000Y-63373000D02*
X81026000Y-61849000D01*
X79502000Y-66548000D02*
X79502000Y-63373000D01*
X105156000Y-61849000D02*
X108204000Y-58801000D01*
X77790000Y-68260000D02*
X79502000Y-66548000D01*
X72771000Y-68260000D02*
X77790000Y-68260000D01*
X131445000Y-61246000D02*
X129000000Y-58801000D01*
X131445000Y-61246000D02*
X131445000Y-67945000D01*
X132405000Y-68905000D02*
X134605000Y-68905000D01*
X131445000Y-67945000D02*
X132405000Y-68905000D01*
D19*
X131215000Y-52370000D02*
X131215000Y-55570000D01*
X133755000Y-52370000D02*
X133755000Y-55570000D01*
X136295000Y-52370000D02*
X136295000Y-55570000D01*
X138835000Y-52370000D02*
X138835000Y-55570000D01*
X141375000Y-52370000D02*
X141375000Y-55570000D01*
X143915000Y-52370000D02*
X143915000Y-55570000D01*
X146455000Y-52370000D02*
X146455000Y-55570000D01*
X146455000Y-78430000D02*
X146455000Y-81630000D01*
D21*
X146431000Y-78406000D02*
X146455000Y-78430000D01*
D20*
X146455000Y-76830000D02*
X146455000Y-78430000D01*
X146455000Y-75843000D02*
X146455000Y-76830000D01*
X145923000Y-75311000D02*
X146455000Y-75843000D01*
X144653000Y-75311000D02*
X145923000Y-75311000D01*
X142748000Y-73406000D02*
X144653000Y-75311000D01*
X139355000Y-73406000D02*
X142748000Y-73406000D01*
X137831000Y-71882000D02*
X139355000Y-73406000D01*
X137831000Y-65786000D02*
X137831000Y-71882000D01*
X137140000Y-65095000D02*
X137831000Y-65786000D01*
X134605000Y-65095000D02*
X137140000Y-65095000D01*
D19*
X143915000Y-78430000D02*
X143915000Y-81630000D01*
D21*
X143891000Y-78406000D02*
X143915000Y-78430000D01*
D20*
X143915000Y-76097000D02*
X143915000Y-78430000D01*
X142240000Y-74422000D02*
X143915000Y-76097000D01*
X138847000Y-74422000D02*
X142240000Y-74422000D01*
X136561000Y-72136000D02*
X138847000Y-74422000D01*
X136561000Y-66802000D02*
X136561000Y-72136000D01*
X136124000Y-66365000D02*
X136561000Y-66802000D01*
X134605000Y-66365000D02*
X136124000Y-66365000D01*
D19*
X141375000Y-78430000D02*
X141375000Y-81630000D01*
X124384500Y-75013500D02*
X124384500Y-73315000D01*
X141375000Y-76351000D02*
X140589000Y-75565000D01*
X124936000Y-75565000D02*
X124384500Y-75013500D01*
X141375000Y-78430000D02*
X141375000Y-76351000D01*
X124936000Y-75565000D02*
X140589000Y-75565000D01*
X138835000Y-78430000D02*
X138835000Y-81630000D01*
X136295000Y-78430000D02*
X136295000Y-81630000D01*
X133755000Y-78430000D02*
X133755000Y-81630000D01*
X84675000Y-64700000D02*
X81908000Y-64700000D01*
X81908000Y-64700000D02*
X81908000Y-64700000D01*
X113707500Y-64895000D02*
X116030000Y-64895000D01*
X113637500Y-69105000D02*
X116030000Y-69105000D01*
D20*
X132188000Y-70175000D02*
X134605000Y-70175000D01*
D19*
X115930000Y-60685000D02*
X115930000Y-60685000D01*
X113685000Y-60685000D02*
X116030000Y-60685000D01*
X126872000Y-68155000D02*
X128756000Y-68155000D01*
X128675000Y-78430000D02*
X128675000Y-81630000D01*
D20*
X150787000Y-75184000D02*
X151202500Y-74768500D01*
X151202500Y-74768500D02*
X151202500Y-73315000D01*
X139736000Y-72390000D02*
X143237000Y-72390000D01*
X139101000Y-71755000D02*
X139736000Y-72390000D01*
X139101000Y-69469000D02*
X139101000Y-71755000D01*
X139665000Y-68905000D02*
X139101000Y-69469000D01*
X141105000Y-68905000D02*
X139665000Y-68905000D01*
X143237000Y-72390000D02*
X145142000Y-74295000D01*
X145142000Y-74295000D02*
X146431000Y-74295000D01*
X147320000Y-75184000D02*
X150787000Y-75184000D01*
X146431000Y-74295000D02*
X147320000Y-75184000D01*
X145686000Y-73315000D02*
X143816000Y-71445000D01*
X141105000Y-71445000D02*
X143816000Y-71445000D01*
X145686000Y-73315000D02*
X148227500Y-73315000D01*
D19*
X126872000Y-62745000D02*
X126872000Y-63945000D01*
X127359500Y-62257500D02*
X126872000Y-62745000D01*
X127359500Y-60685000D02*
X127359500Y-62257500D01*
D20*
X130302000Y-61881000D02*
X129106000Y-60685000D01*
X129106000Y-60685000D02*
X127359500Y-60685000D01*
X130302000Y-70304000D02*
X130302000Y-61881000D01*
X131443000Y-71445000D02*
X130302000Y-70304000D01*
X134605000Y-71445000D02*
X131443000Y-71445000D01*
D19*
X124872000Y-67845000D02*
X126872000Y-65845000D01*
X124872000Y-69105000D02*
X124872000Y-67845000D01*
X124072000Y-69105000D02*
X124872000Y-69105000D01*
X120506000Y-69105000D02*
X124072000Y-69105000D01*
X119761000Y-69850000D02*
X120506000Y-69105000D01*
X119761000Y-72517000D02*
X119761000Y-69850000D01*
X118963000Y-73315000D02*
X119761000Y-72517000D01*
X113707500Y-73315000D02*
X118963000Y-73315000D01*
X126872000Y-71255000D02*
X126872000Y-70055000D01*
X127359500Y-71742500D02*
X126872000Y-71255000D01*
X127359500Y-73315000D02*
X127359500Y-71742500D01*
X110710000Y-62323000D02*
X110710000Y-60685000D01*
X111252000Y-62865000D02*
X110710000Y-62323000D01*
X118618000Y-62865000D02*
X111252000Y-62865000D01*
X120798000Y-60685000D02*
X118618000Y-62865000D01*
X124384500Y-60685000D02*
X120798000Y-60685000D01*
D22*
G36*
X127559593Y-50749181D02*
G01*
X127809940Y-50842556D01*
X128044445Y-50970605D01*
X128091992Y-51006199D01*
X128037871Y-51028612D01*
X127788421Y-51178684D01*
X127573042Y-51374538D01*
X127400011Y-51608647D01*
X127275977Y-51872014D01*
X127374049Y-52097000D01*
X128402000Y-52097000D01*
X128402000Y-52077000D01*
X128841565Y-52077000D01*
X128885615Y-52279496D01*
X128905000Y-52550530D01*
X128905000Y-55863000D01*
X128402000Y-55863000D01*
X128402000Y-55843000D01*
X127405708Y-55843000D01*
X127275959Y-56065496D01*
X127360490Y-56332757D01*
X127495536Y-56578392D01*
X127659129Y-56773000D01*
X107739469Y-56773000D01*
X107696000Y-56768719D01*
X107652531Y-56773000D01*
X107652523Y-56773000D01*
X107537306Y-56784348D01*
X107522509Y-56785805D01*
X107498920Y-56792961D01*
X107355687Y-56836411D01*
X107201941Y-56918589D01*
X107131555Y-56976354D01*
X107100953Y-57001468D01*
X107100951Y-57001470D01*
X107067183Y-57029183D01*
X107039470Y-57062951D01*
X104281422Y-59821000D01*
X80561466Y-59821000D01*
X80517999Y-59816719D01*
X80474533Y-59821000D01*
X80474523Y-59821000D01*
X80344510Y-59833805D01*
X80177687Y-59884411D01*
X80023941Y-59966589D01*
X80023939Y-59966590D01*
X80023940Y-59966590D01*
X79922953Y-60049468D01*
X79922951Y-60049470D01*
X79889183Y-60077183D01*
X79861470Y-60110951D01*
X77763956Y-62208466D01*
X77730183Y-62236183D01*
X77619589Y-62370942D01*
X77537411Y-62524688D01*
X77486805Y-62691511D01*
X77474000Y-62821524D01*
X77474000Y-62821531D01*
X77469719Y-62865000D01*
X77470042Y-62868284D01*
X74259072Y-62865978D01*
X74259072Y-62755000D01*
X74238645Y-62547605D01*
X74178150Y-62348180D01*
X74079912Y-62164389D01*
X73947705Y-62003295D01*
X73786611Y-61871088D01*
X73602820Y-61772850D01*
X73403395Y-61712355D01*
X73196000Y-61691928D01*
X72346000Y-61691928D01*
X72138605Y-61712355D01*
X71939180Y-61772850D01*
X71755389Y-61871088D01*
X71594295Y-62003295D01*
X71462088Y-62164389D01*
X71363850Y-62348180D01*
X71303355Y-62547605D01*
X71282928Y-62755000D01*
X71282928Y-63605000D01*
X71303355Y-63812395D01*
X71363850Y-64011820D01*
X71462088Y-64195611D01*
X71594295Y-64356705D01*
X71755389Y-64488912D01*
X71858245Y-64543889D01*
X71824368Y-64566525D01*
X71617525Y-64773368D01*
X71455010Y-65016589D01*
X71343068Y-65286842D01*
X71286000Y-65573740D01*
X71286000Y-65866260D01*
X71343068Y-66153158D01*
X71455010Y-66423411D01*
X71617525Y-66666632D01*
X71824368Y-66873475D01*
X71998760Y-66990000D01*
X71824368Y-67106525D01*
X71617525Y-67313368D01*
X71455010Y-67556589D01*
X71343068Y-67826842D01*
X71286000Y-68113740D01*
X71286000Y-68406260D01*
X71343068Y-68693158D01*
X71455010Y-68963411D01*
X71617525Y-69206632D01*
X71824368Y-69413475D01*
X71998760Y-69530000D01*
X71824368Y-69646525D01*
X71617525Y-69853368D01*
X71455010Y-70096589D01*
X71343068Y-70366842D01*
X71286000Y-70653740D01*
X71286000Y-70946260D01*
X71343068Y-71233158D01*
X71455010Y-71503411D01*
X71617525Y-71746632D01*
X71824368Y-71953475D01*
X72067589Y-72115990D01*
X72337842Y-72227932D01*
X72624740Y-72285000D01*
X72917260Y-72285000D01*
X73204158Y-72227932D01*
X73474411Y-72115990D01*
X73717632Y-71953475D01*
X73789107Y-71882000D01*
X86741000Y-71882000D01*
X86760908Y-71880430D01*
X86784996Y-71874136D01*
X86807393Y-71863263D01*
X86827238Y-71848231D01*
X89063163Y-69780000D01*
X109336928Y-69780000D01*
X109349188Y-69904482D01*
X109385498Y-70024180D01*
X109444463Y-70134494D01*
X109523815Y-70231185D01*
X109620506Y-70310537D01*
X109730820Y-70369502D01*
X109850518Y-70405812D01*
X109975000Y-70418072D01*
X110330750Y-70415000D01*
X110489500Y-70256250D01*
X110489500Y-69378000D01*
X109498750Y-69378000D01*
X109340000Y-69536750D01*
X109336928Y-69780000D01*
X89063163Y-69780000D01*
X89330731Y-69532500D01*
X89918425Y-69532500D01*
X89975000Y-69538072D01*
X90543250Y-69535000D01*
X90702000Y-69376250D01*
X90702000Y-67273000D01*
X91248000Y-67273000D01*
X91248000Y-69376250D01*
X91406750Y-69535000D01*
X91975000Y-69538072D01*
X92099482Y-69525812D01*
X92219180Y-69489502D01*
X92329494Y-69430537D01*
X92426185Y-69351185D01*
X92505537Y-69254494D01*
X92564502Y-69144180D01*
X92600812Y-69024482D01*
X92613072Y-68900000D01*
X92612089Y-68430000D01*
X109336928Y-68430000D01*
X109340000Y-68673250D01*
X109498750Y-68832000D01*
X110489500Y-68832000D01*
X110489500Y-67953750D01*
X110330750Y-67795000D01*
X109975000Y-67791928D01*
X109850518Y-67804188D01*
X109730820Y-67840498D01*
X109620506Y-67899463D01*
X109523815Y-67978815D01*
X109444463Y-68075506D01*
X109385498Y-68185820D01*
X109349188Y-68305518D01*
X109336928Y-68430000D01*
X92612089Y-68430000D01*
X92610000Y-67431750D01*
X92451250Y-67273000D01*
X91248000Y-67273000D01*
X90702000Y-67273000D01*
X90682000Y-67273000D01*
X90682000Y-66727000D01*
X90702000Y-66727000D01*
X90702000Y-65165216D01*
X90703400Y-65151000D01*
X90703400Y-64623750D01*
X91248000Y-64623750D01*
X91248000Y-66727000D01*
X92451250Y-66727000D01*
X92610000Y-66568250D01*
X92613072Y-65100000D01*
X92600812Y-64975518D01*
X92564502Y-64855820D01*
X92505537Y-64745506D01*
X92426185Y-64648815D01*
X92329494Y-64569463D01*
X92219180Y-64510498D01*
X92099482Y-64474188D01*
X91975000Y-64461928D01*
X91406750Y-64465000D01*
X91248000Y-64623750D01*
X90703400Y-64623750D01*
X90703400Y-64408000D01*
X104727290Y-64408000D01*
X105910197Y-65590908D01*
X105942604Y-65630396D01*
X105982092Y-65662803D01*
X106100202Y-65759734D01*
X106196309Y-65811104D01*
X106280007Y-65855841D01*
X106475105Y-65915024D01*
X106627162Y-65930000D01*
X106627171Y-65930000D01*
X106677999Y-65935006D01*
X106728827Y-65930000D01*
X109487024Y-65930000D01*
X109531595Y-66013386D01*
X109642038Y-66147962D01*
X109776614Y-66258405D01*
X109930150Y-66340472D01*
X110096746Y-66391008D01*
X110270000Y-66408072D01*
X110998000Y-66408072D01*
X110998000Y-73608000D01*
X110459500Y-73608000D01*
X110459500Y-73588000D01*
X109543750Y-73588000D01*
X109385000Y-73746750D01*
X109381928Y-74190000D01*
X109392269Y-74295000D01*
X70711530Y-74295000D01*
X70440496Y-74275615D01*
X70179407Y-74218819D01*
X69929060Y-74125444D01*
X69694555Y-73997395D01*
X69480662Y-73837276D01*
X69291724Y-73648338D01*
X69131605Y-73434445D01*
X69003556Y-73199940D01*
X68910181Y-72949593D01*
X68853385Y-72688504D01*
X68835612Y-72440000D01*
X109381928Y-72440000D01*
X109385000Y-72883250D01*
X109543750Y-73042000D01*
X110459500Y-73042000D01*
X110459500Y-71963750D01*
X110300750Y-71805000D01*
X110020000Y-71801928D01*
X109895518Y-71814188D01*
X109775820Y-71850498D01*
X109665506Y-71909463D01*
X109568815Y-71988815D01*
X109489463Y-72085506D01*
X109430498Y-72195820D01*
X109394188Y-72315518D01*
X109381928Y-72440000D01*
X68835612Y-72440000D01*
X68834000Y-72417470D01*
X68834000Y-58900530D01*
X68853385Y-58629496D01*
X68910181Y-58368407D01*
X69003556Y-58118060D01*
X69131605Y-57883555D01*
X69291724Y-57669662D01*
X69480662Y-57480724D01*
X69694555Y-57320605D01*
X69929060Y-57192556D01*
X70179407Y-57099181D01*
X70440496Y-57042385D01*
X70711530Y-57023000D01*
X101926149Y-57023000D01*
X101935988Y-57022618D01*
X102244944Y-56998610D01*
X102264385Y-56995571D01*
X102565925Y-56924125D01*
X102584665Y-56918118D01*
X102871548Y-56800947D01*
X102889133Y-56792118D01*
X103154472Y-56632037D01*
X103170483Y-56620597D01*
X103407907Y-56421449D01*
X103415200Y-56414833D01*
X104782335Y-55074504D01*
X127275959Y-55074504D01*
X127405708Y-55297000D01*
X128402000Y-55297000D01*
X128402000Y-54123290D01*
X128184977Y-54021259D01*
X128143430Y-54042572D01*
X127894676Y-54171782D01*
X127675909Y-54347039D01*
X127495536Y-54561608D01*
X127360490Y-54807243D01*
X127275959Y-55074504D01*
X104782335Y-55074504D01*
X107032983Y-52867986D01*
X127275977Y-52867986D01*
X127400011Y-53131353D01*
X127573042Y-53365462D01*
X127788421Y-53561316D01*
X128037871Y-53711388D01*
X128177015Y-53769012D01*
X128402000Y-53667848D01*
X128402000Y-52643000D01*
X127374049Y-52643000D01*
X127275977Y-52867986D01*
X107032983Y-52867986D01*
X108722096Y-51211994D01*
X108948188Y-51022351D01*
X109196627Y-50872466D01*
X109465239Y-50762758D01*
X109738587Y-50697991D01*
X127324260Y-50697988D01*
X127559593Y-50749181D01*
G37*
X127559593Y-50749181D02*
X127809940Y-50842556D01*
X128044445Y-50970605D01*
X128091992Y-51006199D01*
X128037871Y-51028612D01*
X127788421Y-51178684D01*
X127573042Y-51374538D01*
X127400011Y-51608647D01*
X127275977Y-51872014D01*
X127374049Y-52097000D01*
X128402000Y-52097000D01*
X128402000Y-52077000D01*
X128841565Y-52077000D01*
X128885615Y-52279496D01*
X128905000Y-52550530D01*
X128905000Y-55863000D01*
X128402000Y-55863000D01*
X128402000Y-55843000D01*
X127405708Y-55843000D01*
X127275959Y-56065496D01*
X127360490Y-56332757D01*
X127495536Y-56578392D01*
X127659129Y-56773000D01*
X107739469Y-56773000D01*
X107696000Y-56768719D01*
X107652531Y-56773000D01*
X107652523Y-56773000D01*
X107537306Y-56784348D01*
X107522509Y-56785805D01*
X107498920Y-56792961D01*
X107355687Y-56836411D01*
X107201941Y-56918589D01*
X107131555Y-56976354D01*
X107100953Y-57001468D01*
X107100951Y-57001470D01*
X107067183Y-57029183D01*
X107039470Y-57062951D01*
X104281422Y-59821000D01*
X80561466Y-59821000D01*
X80517999Y-59816719D01*
X80474533Y-59821000D01*
X80474523Y-59821000D01*
X80344510Y-59833805D01*
X80177687Y-59884411D01*
X80023941Y-59966589D01*
X80023939Y-59966590D01*
X80023940Y-59966590D01*
X79922953Y-60049468D01*
X79922951Y-60049470D01*
X79889183Y-60077183D01*
X79861470Y-60110951D01*
X77763956Y-62208466D01*
X77730183Y-62236183D01*
X77619589Y-62370942D01*
X77537411Y-62524688D01*
X77486805Y-62691511D01*
X77474000Y-62821524D01*
X77474000Y-62821531D01*
X77469719Y-62865000D01*
X77470042Y-62868284D01*
X74259072Y-62865978D01*
X74259072Y-62755000D01*
X74238645Y-62547605D01*
X74178150Y-62348180D01*
X74079912Y-62164389D01*
X73947705Y-62003295D01*
X73786611Y-61871088D01*
X73602820Y-61772850D01*
X73403395Y-61712355D01*
X73196000Y-61691928D01*
X72346000Y-61691928D01*
X72138605Y-61712355D01*
X71939180Y-61772850D01*
X71755389Y-61871088D01*
X71594295Y-62003295D01*
X71462088Y-62164389D01*
X71363850Y-62348180D01*
X71303355Y-62547605D01*
X71282928Y-62755000D01*
X71282928Y-63605000D01*
X71303355Y-63812395D01*
X71363850Y-64011820D01*
X71462088Y-64195611D01*
X71594295Y-64356705D01*
X71755389Y-64488912D01*
X71858245Y-64543889D01*
X71824368Y-64566525D01*
X71617525Y-64773368D01*
X71455010Y-65016589D01*
X71343068Y-65286842D01*
X71286000Y-65573740D01*
X71286000Y-65866260D01*
X71343068Y-66153158D01*
X71455010Y-66423411D01*
X71617525Y-66666632D01*
X71824368Y-66873475D01*
X71998760Y-66990000D01*
X71824368Y-67106525D01*
X71617525Y-67313368D01*
X71455010Y-67556589D01*
X71343068Y-67826842D01*
X71286000Y-68113740D01*
X71286000Y-68406260D01*
X71343068Y-68693158D01*
X71455010Y-68963411D01*
X71617525Y-69206632D01*
X71824368Y-69413475D01*
X71998760Y-69530000D01*
X71824368Y-69646525D01*
X71617525Y-69853368D01*
X71455010Y-70096589D01*
X71343068Y-70366842D01*
X71286000Y-70653740D01*
X71286000Y-70946260D01*
X71343068Y-71233158D01*
X71455010Y-71503411D01*
X71617525Y-71746632D01*
X71824368Y-71953475D01*
X72067589Y-72115990D01*
X72337842Y-72227932D01*
X72624740Y-72285000D01*
X72917260Y-72285000D01*
X73204158Y-72227932D01*
X73474411Y-72115990D01*
X73717632Y-71953475D01*
X73789107Y-71882000D01*
X86741000Y-71882000D01*
X86760908Y-71880430D01*
X86784996Y-71874136D01*
X86807393Y-71863263D01*
X86827238Y-71848231D01*
X89063163Y-69780000D01*
X109336928Y-69780000D01*
X109349188Y-69904482D01*
X109385498Y-70024180D01*
X109444463Y-70134494D01*
X109523815Y-70231185D01*
X109620506Y-70310537D01*
X109730820Y-70369502D01*
X109850518Y-70405812D01*
X109975000Y-70418072D01*
X110330750Y-70415000D01*
X110489500Y-70256250D01*
X110489500Y-69378000D01*
X109498750Y-69378000D01*
X109340000Y-69536750D01*
X109336928Y-69780000D01*
X89063163Y-69780000D01*
X89330731Y-69532500D01*
X89918425Y-69532500D01*
X89975000Y-69538072D01*
X90543250Y-69535000D01*
X90702000Y-69376250D01*
X90702000Y-67273000D01*
X91248000Y-67273000D01*
X91248000Y-69376250D01*
X91406750Y-69535000D01*
X91975000Y-69538072D01*
X92099482Y-69525812D01*
X92219180Y-69489502D01*
X92329494Y-69430537D01*
X92426185Y-69351185D01*
X92505537Y-69254494D01*
X92564502Y-69144180D01*
X92600812Y-69024482D01*
X92613072Y-68900000D01*
X92612089Y-68430000D01*
X109336928Y-68430000D01*
X109340000Y-68673250D01*
X109498750Y-68832000D01*
X110489500Y-68832000D01*
X110489500Y-67953750D01*
X110330750Y-67795000D01*
X109975000Y-67791928D01*
X109850518Y-67804188D01*
X109730820Y-67840498D01*
X109620506Y-67899463D01*
X109523815Y-67978815D01*
X109444463Y-68075506D01*
X109385498Y-68185820D01*
X109349188Y-68305518D01*
X109336928Y-68430000D01*
X92612089Y-68430000D01*
X92610000Y-67431750D01*
X92451250Y-67273000D01*
X91248000Y-67273000D01*
X90702000Y-67273000D01*
X90682000Y-67273000D01*
X90682000Y-66727000D01*
X90702000Y-66727000D01*
X90702000Y-65165216D01*
X90703400Y-65151000D01*
X90703400Y-64623750D01*
X91248000Y-64623750D01*
X91248000Y-66727000D01*
X92451250Y-66727000D01*
X92610000Y-66568250D01*
X92613072Y-65100000D01*
X92600812Y-64975518D01*
X92564502Y-64855820D01*
X92505537Y-64745506D01*
X92426185Y-64648815D01*
X92329494Y-64569463D01*
X92219180Y-64510498D01*
X92099482Y-64474188D01*
X91975000Y-64461928D01*
X91406750Y-64465000D01*
X91248000Y-64623750D01*
X90703400Y-64623750D01*
X90703400Y-64408000D01*
X104727290Y-64408000D01*
X105910197Y-65590908D01*
X105942604Y-65630396D01*
X105982092Y-65662803D01*
X106100202Y-65759734D01*
X106196309Y-65811104D01*
X106280007Y-65855841D01*
X106475105Y-65915024D01*
X106627162Y-65930000D01*
X106627171Y-65930000D01*
X106677999Y-65935006D01*
X106728827Y-65930000D01*
X109487024Y-65930000D01*
X109531595Y-66013386D01*
X109642038Y-66147962D01*
X109776614Y-66258405D01*
X109930150Y-66340472D01*
X110096746Y-66391008D01*
X110270000Y-66408072D01*
X110998000Y-66408072D01*
X110998000Y-73608000D01*
X110459500Y-73608000D01*
X110459500Y-73588000D01*
X109543750Y-73588000D01*
X109385000Y-73746750D01*
X109381928Y-74190000D01*
X109392269Y-74295000D01*
X70711530Y-74295000D01*
X70440496Y-74275615D01*
X70179407Y-74218819D01*
X69929060Y-74125444D01*
X69694555Y-73997395D01*
X69480662Y-73837276D01*
X69291724Y-73648338D01*
X69131605Y-73434445D01*
X69003556Y-73199940D01*
X68910181Y-72949593D01*
X68853385Y-72688504D01*
X68835612Y-72440000D01*
X109381928Y-72440000D01*
X109385000Y-72883250D01*
X109543750Y-73042000D01*
X110459500Y-73042000D01*
X110459500Y-71963750D01*
X110300750Y-71805000D01*
X110020000Y-71801928D01*
X109895518Y-71814188D01*
X109775820Y-71850498D01*
X109665506Y-71909463D01*
X109568815Y-71988815D01*
X109489463Y-72085506D01*
X109430498Y-72195820D01*
X109394188Y-72315518D01*
X109381928Y-72440000D01*
X68835612Y-72440000D01*
X68834000Y-72417470D01*
X68834000Y-58900530D01*
X68853385Y-58629496D01*
X68910181Y-58368407D01*
X69003556Y-58118060D01*
X69131605Y-57883555D01*
X69291724Y-57669662D01*
X69480662Y-57480724D01*
X69694555Y-57320605D01*
X69929060Y-57192556D01*
X70179407Y-57099181D01*
X70440496Y-57042385D01*
X70711530Y-57023000D01*
X101926149Y-57023000D01*
X101935988Y-57022618D01*
X102244944Y-56998610D01*
X102264385Y-56995571D01*
X102565925Y-56924125D01*
X102584665Y-56918118D01*
X102871548Y-56800947D01*
X102889133Y-56792118D01*
X103154472Y-56632037D01*
X103170483Y-56620597D01*
X103407907Y-56421449D01*
X103415200Y-56414833D01*
X104782335Y-55074504D01*
X127275959Y-55074504D01*
X127405708Y-55297000D01*
X128402000Y-55297000D01*
X128402000Y-54123290D01*
X128184977Y-54021259D01*
X128143430Y-54042572D01*
X127894676Y-54171782D01*
X127675909Y-54347039D01*
X127495536Y-54561608D01*
X127360490Y-54807243D01*
X127275959Y-55074504D01*
X104782335Y-55074504D01*
X107032983Y-52867986D01*
X127275977Y-52867986D01*
X127400011Y-53131353D01*
X127573042Y-53365462D01*
X127788421Y-53561316D01*
X128037871Y-53711388D01*
X128177015Y-53769012D01*
X128402000Y-53667848D01*
X128402000Y-52643000D01*
X127374049Y-52643000D01*
X127275977Y-52867986D01*
X107032983Y-52867986D01*
X108722096Y-51211994D01*
X108948188Y-51022351D01*
X109196627Y-50872466D01*
X109465239Y-50762758D01*
X109738587Y-50697991D01*
X127324260Y-50697988D01*
X127559593Y-50749181D01*
G36*
X102899341Y-55853460D02*
G01*
X102718591Y-56005071D01*
X102537752Y-56114172D01*
X102342228Y-56194029D01*
X102136712Y-56242724D01*
X101901520Y-56261000D01*
X70707000Y-56261000D01*
X70661700Y-56262618D01*
X70377070Y-56282975D01*
X70287391Y-56295869D01*
X70008556Y-56356526D01*
X69921625Y-56382051D01*
X69654260Y-56481773D01*
X69571847Y-56519410D01*
X69321395Y-56656167D01*
X69245176Y-56705150D01*
X69016737Y-56876158D01*
X68948266Y-56935488D01*
X68746488Y-57137266D01*
X68687158Y-57205737D01*
X68516150Y-57434176D01*
X68467167Y-57510395D01*
X68330410Y-57760847D01*
X68292773Y-57843260D01*
X68193051Y-58110625D01*
X68167526Y-58197556D01*
X68106869Y-58476391D01*
X68093975Y-58566070D01*
X68073618Y-58850700D01*
X68072000Y-58896000D01*
X68072000Y-72422000D01*
X68073618Y-72467300D01*
X68093975Y-72751930D01*
X68106869Y-72841609D01*
X68167526Y-73120444D01*
X68193051Y-73207375D01*
X68292773Y-73474740D01*
X68330410Y-73557153D01*
X68467167Y-73807605D01*
X68516150Y-73883824D01*
X68687158Y-74112263D01*
X68746488Y-74180734D01*
X68948266Y-74382512D01*
X69016737Y-74441842D01*
X69245176Y-74612850D01*
X69321395Y-74661833D01*
X69571847Y-74798590D01*
X69654260Y-74836227D01*
X69921625Y-74935949D01*
X70008556Y-74961474D01*
X70287391Y-75022131D01*
X70377070Y-75035025D01*
X70661700Y-75055382D01*
X70707000Y-75057000D01*
X123348778Y-75057000D01*
X123349500Y-75064328D01*
X123349500Y-75064337D01*
X123364476Y-75216394D01*
X123423659Y-75411492D01*
X123519766Y-75591297D01*
X123649104Y-75748896D01*
X123688597Y-75781307D01*
X124168193Y-76260903D01*
X124200604Y-76300396D01*
X124358203Y-76429734D01*
X124538007Y-76525841D01*
X124733105Y-76585024D01*
X124885162Y-76600000D01*
X124885165Y-76600000D01*
X124936000Y-76605007D01*
X124986835Y-76600000D01*
X126746000Y-76600000D01*
X126746000Y-83302006D01*
X56527102Y-83302019D01*
X55634409Y-83228626D01*
X54792058Y-83017042D01*
X53995579Y-82670724D01*
X53266360Y-82198972D01*
X52623977Y-81614447D01*
X52085694Y-80932863D01*
X51665953Y-80172505D01*
X51376038Y-79353811D01*
X51221772Y-78487765D01*
X51198001Y-77969859D01*
X51197981Y-56027101D01*
X51271374Y-55134409D01*
X51482958Y-54292058D01*
X51829276Y-53495579D01*
X52301028Y-52766360D01*
X52885550Y-52123979D01*
X53567137Y-51585694D01*
X54327495Y-51165953D01*
X55146188Y-50876039D01*
X56012235Y-50721772D01*
X56530140Y-50698001D01*
X108157919Y-50697991D01*
X102899341Y-55853460D01*
G37*
X102899341Y-55853460D02*
X102718591Y-56005071D01*
X102537752Y-56114172D01*
X102342228Y-56194029D01*
X102136712Y-56242724D01*
X101901520Y-56261000D01*
X70707000Y-56261000D01*
X70661700Y-56262618D01*
X70377070Y-56282975D01*
X70287391Y-56295869D01*
X70008556Y-56356526D01*
X69921625Y-56382051D01*
X69654260Y-56481773D01*
X69571847Y-56519410D01*
X69321395Y-56656167D01*
X69245176Y-56705150D01*
X69016737Y-56876158D01*
X68948266Y-56935488D01*
X68746488Y-57137266D01*
X68687158Y-57205737D01*
X68516150Y-57434176D01*
X68467167Y-57510395D01*
X68330410Y-57760847D01*
X68292773Y-57843260D01*
X68193051Y-58110625D01*
X68167526Y-58197556D01*
X68106869Y-58476391D01*
X68093975Y-58566070D01*
X68073618Y-58850700D01*
X68072000Y-58896000D01*
X68072000Y-72422000D01*
X68073618Y-72467300D01*
X68093975Y-72751930D01*
X68106869Y-72841609D01*
X68167526Y-73120444D01*
X68193051Y-73207375D01*
X68292773Y-73474740D01*
X68330410Y-73557153D01*
X68467167Y-73807605D01*
X68516150Y-73883824D01*
X68687158Y-74112263D01*
X68746488Y-74180734D01*
X68948266Y-74382512D01*
X69016737Y-74441842D01*
X69245176Y-74612850D01*
X69321395Y-74661833D01*
X69571847Y-74798590D01*
X69654260Y-74836227D01*
X69921625Y-74935949D01*
X70008556Y-74961474D01*
X70287391Y-75022131D01*
X70377070Y-75035025D01*
X70661700Y-75055382D01*
X70707000Y-75057000D01*
X123348778Y-75057000D01*
X123349500Y-75064328D01*
X123349500Y-75064337D01*
X123364476Y-75216394D01*
X123423659Y-75411492D01*
X123519766Y-75591297D01*
X123649104Y-75748896D01*
X123688597Y-75781307D01*
X124168193Y-76260903D01*
X124200604Y-76300396D01*
X124358203Y-76429734D01*
X124538007Y-76525841D01*
X124733105Y-76585024D01*
X124885162Y-76600000D01*
X124885165Y-76600000D01*
X124936000Y-76605007D01*
X124986835Y-76600000D01*
X126746000Y-76600000D01*
X126746000Y-83302006D01*
X56527102Y-83302019D01*
X55634409Y-83228626D01*
X54792058Y-83017042D01*
X53995579Y-82670724D01*
X53266360Y-82198972D01*
X52623977Y-81614447D01*
X52085694Y-80932863D01*
X51665953Y-80172505D01*
X51376038Y-79353811D01*
X51221772Y-78487765D01*
X51198001Y-77969859D01*
X51197981Y-56027101D01*
X51271374Y-55134409D01*
X51482958Y-54292058D01*
X51829276Y-53495579D01*
X52301028Y-52766360D01*
X52885550Y-52123979D01*
X53567137Y-51585694D01*
X54327495Y-51165953D01*
X55146188Y-50876039D01*
X56012235Y-50721772D01*
X56530140Y-50698001D01*
X108157919Y-50697991D01*
X102899341Y-55853460D01*
G36*
X164365591Y-50771374D02*
G01*
X165207942Y-50982958D01*
X166004421Y-51329276D01*
X166733640Y-51801028D01*
X167376021Y-52385550D01*
X167914306Y-53067137D01*
X168334047Y-53827495D01*
X168623961Y-54646188D01*
X168778228Y-55512235D01*
X168801999Y-56030141D01*
X168802019Y-77972899D01*
X168728626Y-78865591D01*
X168517042Y-79707942D01*
X168170724Y-80504421D01*
X167698972Y-81233640D01*
X167114447Y-81876023D01*
X166432863Y-82414306D01*
X165672505Y-82834047D01*
X164853811Y-83123962D01*
X163987765Y-83278228D01*
X163469860Y-83301999D01*
X148336000Y-83302002D01*
X148336000Y-76069000D01*
X150743531Y-76069000D01*
X150787000Y-76073281D01*
X150830469Y-76069000D01*
X150830477Y-76069000D01*
X150960490Y-76056195D01*
X151127313Y-76005589D01*
X151281059Y-75923411D01*
X151415817Y-75812817D01*
X151443534Y-75779044D01*
X151797545Y-75425033D01*
X151831317Y-75397317D01*
X151941911Y-75262559D01*
X152024089Y-75108813D01*
X152074695Y-74941990D01*
X152087500Y-74811977D01*
X152087500Y-74811969D01*
X152091781Y-74768500D01*
X152087500Y-74725031D01*
X152087500Y-74716294D01*
X152158386Y-74678405D01*
X152292962Y-74567962D01*
X152403405Y-74433386D01*
X152485472Y-74279850D01*
X152536008Y-74113254D01*
X152553072Y-73940000D01*
X152553072Y-72690000D01*
X152536008Y-72516746D01*
X152485472Y-72350150D01*
X152403405Y-72196614D01*
X152292962Y-72062038D01*
X152158386Y-71951595D01*
X152004850Y-71869528D01*
X151838254Y-71818992D01*
X151665000Y-71801928D01*
X151003000Y-71801928D01*
X151003000Y-69378000D01*
X151475500Y-69378000D01*
X151475500Y-70456250D01*
X151634250Y-70615000D01*
X151915000Y-70618072D01*
X152039482Y-70605812D01*
X152159180Y-70569502D01*
X152269494Y-70510537D01*
X152366185Y-70431185D01*
X152445537Y-70334494D01*
X152504502Y-70224180D01*
X152540812Y-70104482D01*
X152553072Y-69980000D01*
X152550000Y-69536750D01*
X152391250Y-69378000D01*
X151475500Y-69378000D01*
X151003000Y-69378000D01*
X151003000Y-68812000D01*
X151475500Y-68812000D01*
X151475500Y-68832000D01*
X152391250Y-68832000D01*
X152550000Y-68673250D01*
X152553072Y-68230000D01*
X152540812Y-68105518D01*
X152504502Y-67985820D01*
X152445537Y-67875506D01*
X152366185Y-67778815D01*
X152273000Y-67702340D01*
X152273000Y-66164344D01*
X152292962Y-66147962D01*
X152403405Y-66013386D01*
X152485472Y-65859850D01*
X152536008Y-65693254D01*
X152553072Y-65520000D01*
X152553072Y-64270000D01*
X152536008Y-64096746D01*
X152485472Y-63930150D01*
X152403405Y-63776614D01*
X152292962Y-63642038D01*
X152158386Y-63531595D01*
X152004850Y-63449528D01*
X151838254Y-63398992D01*
X151665000Y-63381928D01*
X151003000Y-63381928D01*
X151003000Y-60958000D01*
X151475500Y-60958000D01*
X151475500Y-62036250D01*
X151634250Y-62195000D01*
X151915000Y-62198072D01*
X152039482Y-62185812D01*
X152159180Y-62149502D01*
X152269494Y-62090537D01*
X152366185Y-62011185D01*
X152445537Y-61914494D01*
X152504502Y-61804180D01*
X152540812Y-61684482D01*
X152553072Y-61560000D01*
X152550000Y-61116750D01*
X152391250Y-60958000D01*
X151475500Y-60958000D01*
X151003000Y-60958000D01*
X151003000Y-59333750D01*
X151475500Y-59333750D01*
X151475500Y-60412000D01*
X152391250Y-60412000D01*
X152550000Y-60253250D01*
X152553072Y-59810000D01*
X152540812Y-59685518D01*
X152504502Y-59565820D01*
X152445537Y-59455506D01*
X152366185Y-59358815D01*
X152269494Y-59279463D01*
X152159180Y-59220498D01*
X152039482Y-59184188D01*
X151915000Y-59171928D01*
X151634250Y-59175000D01*
X151475500Y-59333750D01*
X151003000Y-59333750D01*
X151003000Y-59182000D01*
X151000560Y-59157224D01*
X150993333Y-59133399D01*
X150981597Y-59111443D01*
X150965803Y-59092197D01*
X150946557Y-59076403D01*
X150924601Y-59064667D01*
X150900776Y-59057440D01*
X150876000Y-59055000D01*
X148336000Y-59055000D01*
X148336000Y-50697984D01*
X163472898Y-50697981D01*
X164365591Y-50771374D01*
G37*
X164365591Y-50771374D02*
X165207942Y-50982958D01*
X166004421Y-51329276D01*
X166733640Y-51801028D01*
X167376021Y-52385550D01*
X167914306Y-53067137D01*
X168334047Y-53827495D01*
X168623961Y-54646188D01*
X168778228Y-55512235D01*
X168801999Y-56030141D01*
X168802019Y-77972899D01*
X168728626Y-78865591D01*
X168517042Y-79707942D01*
X168170724Y-80504421D01*
X167698972Y-81233640D01*
X167114447Y-81876023D01*
X166432863Y-82414306D01*
X165672505Y-82834047D01*
X164853811Y-83123962D01*
X163987765Y-83278228D01*
X163469860Y-83301999D01*
X148336000Y-83302002D01*
X148336000Y-76069000D01*
X150743531Y-76069000D01*
X150787000Y-76073281D01*
X150830469Y-76069000D01*
X150830477Y-76069000D01*
X150960490Y-76056195D01*
X151127313Y-76005589D01*
X151281059Y-75923411D01*
X151415817Y-75812817D01*
X151443534Y-75779044D01*
X151797545Y-75425033D01*
X151831317Y-75397317D01*
X151941911Y-75262559D01*
X152024089Y-75108813D01*
X152074695Y-74941990D01*
X152087500Y-74811977D01*
X152087500Y-74811969D01*
X152091781Y-74768500D01*
X152087500Y-74725031D01*
X152087500Y-74716294D01*
X152158386Y-74678405D01*
X152292962Y-74567962D01*
X152403405Y-74433386D01*
X152485472Y-74279850D01*
X152536008Y-74113254D01*
X152553072Y-73940000D01*
X152553072Y-72690000D01*
X152536008Y-72516746D01*
X152485472Y-72350150D01*
X152403405Y-72196614D01*
X152292962Y-72062038D01*
X152158386Y-71951595D01*
X152004850Y-71869528D01*
X151838254Y-71818992D01*
X151665000Y-71801928D01*
X151003000Y-71801928D01*
X151003000Y-69378000D01*
X151475500Y-69378000D01*
X151475500Y-70456250D01*
X151634250Y-70615000D01*
X151915000Y-70618072D01*
X152039482Y-70605812D01*
X152159180Y-70569502D01*
X152269494Y-70510537D01*
X152366185Y-70431185D01*
X152445537Y-70334494D01*
X152504502Y-70224180D01*
X152540812Y-70104482D01*
X152553072Y-69980000D01*
X152550000Y-69536750D01*
X152391250Y-69378000D01*
X151475500Y-69378000D01*
X151003000Y-69378000D01*
X151003000Y-68812000D01*
X151475500Y-68812000D01*
X151475500Y-68832000D01*
X152391250Y-68832000D01*
X152550000Y-68673250D01*
X152553072Y-68230000D01*
X152540812Y-68105518D01*
X152504502Y-67985820D01*
X152445537Y-67875506D01*
X152366185Y-67778815D01*
X152273000Y-67702340D01*
X152273000Y-66164344D01*
X152292962Y-66147962D01*
X152403405Y-66013386D01*
X152485472Y-65859850D01*
X152536008Y-65693254D01*
X152553072Y-65520000D01*
X152553072Y-64270000D01*
X152536008Y-64096746D01*
X152485472Y-63930150D01*
X152403405Y-63776614D01*
X152292962Y-63642038D01*
X152158386Y-63531595D01*
X152004850Y-63449528D01*
X151838254Y-63398992D01*
X151665000Y-63381928D01*
X151003000Y-63381928D01*
X151003000Y-60958000D01*
X151475500Y-60958000D01*
X151475500Y-62036250D01*
X151634250Y-62195000D01*
X151915000Y-62198072D01*
X152039482Y-62185812D01*
X152159180Y-62149502D01*
X152269494Y-62090537D01*
X152366185Y-62011185D01*
X152445537Y-61914494D01*
X152504502Y-61804180D01*
X152540812Y-61684482D01*
X152553072Y-61560000D01*
X152550000Y-61116750D01*
X152391250Y-60958000D01*
X151475500Y-60958000D01*
X151003000Y-60958000D01*
X151003000Y-59333750D01*
X151475500Y-59333750D01*
X151475500Y-60412000D01*
X152391250Y-60412000D01*
X152550000Y-60253250D01*
X152553072Y-59810000D01*
X152540812Y-59685518D01*
X152504502Y-59565820D01*
X152445537Y-59455506D01*
X152366185Y-59358815D01*
X152269494Y-59279463D01*
X152159180Y-59220498D01*
X152039482Y-59184188D01*
X151915000Y-59171928D01*
X151634250Y-59175000D01*
X151475500Y-59333750D01*
X151003000Y-59333750D01*
X151003000Y-59182000D01*
X151000560Y-59157224D01*
X150993333Y-59133399D01*
X150981597Y-59111443D01*
X150965803Y-59092197D01*
X150946557Y-59076403D01*
X150924601Y-59064667D01*
X150900776Y-59057440D01*
X150876000Y-59055000D01*
X148336000Y-59055000D01*
X148336000Y-50697984D01*
X163472898Y-50697981D01*
X164365591Y-50771374D01*
M02*
