G04 #@! TF.GenerationSoftware,KiCad,Pcbnew,5.1.5+dfsg1-2build2*
G04 #@! TF.CreationDate,2020-06-04T15:42:09+02:00*
G04 #@! TF.ProjectId,termint-wifi,7465726d-696e-4742-9d77-6966692e6b69,rev?*
G04 #@! TF.SameCoordinates,Original*
G04 #@! TF.FileFunction,Copper,L2,Bot*
G04 #@! TF.FilePolarity,Positive*
%FSLAX46Y46*%
G04 Gerber Fmt 4.6, Leading zero omitted, Abs format (unit mm)*
G04 Created by KiCad (PCBNEW 5.1.5+dfsg1-2build2) date 2020-06-04 15:42:09*
%MOMM*%
%LPD*%
G04 APERTURE LIST*
%ADD10O,1.600000X2.000000*%
%ADD11C,0.100000*%
%ADD12O,1.700000X1.700000*%
%ADD13C,1.700000*%
%ADD14C,5.700000*%
%ADD15O,2.400000X1.600000*%
%ADD16C,1.000000*%
%ADD17C,0.800000*%
%ADD18C,0.254000*%
G04 APERTURE END LIST*
D10*
X121455000Y-78430000D03*
X118915000Y-78430000D03*
X116375000Y-78430000D03*
X113835000Y-78430000D03*
X111295000Y-78430000D03*
X108755000Y-78430000D03*
G04 #@! TA.AperFunction,ComponentPad*
D11*
G36*
X106654207Y-77431926D02*
G01*
X106693036Y-77437686D01*
X106731114Y-77447224D01*
X106768073Y-77460448D01*
X106803559Y-77477231D01*
X106837228Y-77497412D01*
X106868757Y-77520796D01*
X106897843Y-77547157D01*
X106924204Y-77576243D01*
X106947588Y-77607772D01*
X106967769Y-77641441D01*
X106984552Y-77676927D01*
X106997776Y-77713886D01*
X107007314Y-77751964D01*
X107013074Y-77790793D01*
X107015000Y-77830000D01*
X107015000Y-79030000D01*
X107013074Y-79069207D01*
X107007314Y-79108036D01*
X106997776Y-79146114D01*
X106984552Y-79183073D01*
X106967769Y-79218559D01*
X106947588Y-79252228D01*
X106924204Y-79283757D01*
X106897843Y-79312843D01*
X106868757Y-79339204D01*
X106837228Y-79362588D01*
X106803559Y-79382769D01*
X106768073Y-79399552D01*
X106731114Y-79412776D01*
X106693036Y-79422314D01*
X106654207Y-79428074D01*
X106615000Y-79430000D01*
X105815000Y-79430000D01*
X105775793Y-79428074D01*
X105736964Y-79422314D01*
X105698886Y-79412776D01*
X105661927Y-79399552D01*
X105626441Y-79382769D01*
X105592772Y-79362588D01*
X105561243Y-79339204D01*
X105532157Y-79312843D01*
X105505796Y-79283757D01*
X105482412Y-79252228D01*
X105462231Y-79218559D01*
X105445448Y-79183073D01*
X105432224Y-79146114D01*
X105422686Y-79108036D01*
X105416926Y-79069207D01*
X105415000Y-79030000D01*
X105415000Y-77830000D01*
X105416926Y-77790793D01*
X105422686Y-77751964D01*
X105432224Y-77713886D01*
X105445448Y-77676927D01*
X105462231Y-77641441D01*
X105482412Y-77607772D01*
X105505796Y-77576243D01*
X105532157Y-77547157D01*
X105561243Y-77520796D01*
X105592772Y-77497412D01*
X105626441Y-77477231D01*
X105661927Y-77460448D01*
X105698886Y-77447224D01*
X105736964Y-77437686D01*
X105775793Y-77431926D01*
X105815000Y-77430000D01*
X106615000Y-77430000D01*
X106654207Y-77431926D01*
G37*
G04 #@! TD.AperFunction*
D10*
X103675000Y-78430000D03*
X103675000Y-55570000D03*
X106215000Y-55570000D03*
X108755000Y-55570000D03*
X111295000Y-55570000D03*
X113835000Y-55570000D03*
X116375000Y-55570000D03*
X121455000Y-55570000D03*
X118915000Y-55570000D03*
G04 #@! TA.AperFunction,ComponentPad*
D11*
G36*
X73237657Y-62332046D02*
G01*
X73278913Y-62338166D01*
X73319371Y-62348300D01*
X73358640Y-62362351D01*
X73396344Y-62380183D01*
X73432117Y-62401625D01*
X73465617Y-62426471D01*
X73496520Y-62454480D01*
X73524529Y-62485383D01*
X73549375Y-62518883D01*
X73570817Y-62554656D01*
X73588649Y-62592360D01*
X73602700Y-62631629D01*
X73612834Y-62672087D01*
X73618954Y-62713343D01*
X73621000Y-62755000D01*
X73621000Y-63605000D01*
X73618954Y-63646657D01*
X73612834Y-63687913D01*
X73602700Y-63728371D01*
X73588649Y-63767640D01*
X73570817Y-63805344D01*
X73549375Y-63841117D01*
X73524529Y-63874617D01*
X73496520Y-63905520D01*
X73465617Y-63933529D01*
X73432117Y-63958375D01*
X73396344Y-63979817D01*
X73358640Y-63997649D01*
X73319371Y-64011700D01*
X73278913Y-64021834D01*
X73237657Y-64027954D01*
X73196000Y-64030000D01*
X72346000Y-64030000D01*
X72304343Y-64027954D01*
X72263087Y-64021834D01*
X72222629Y-64011700D01*
X72183360Y-63997649D01*
X72145656Y-63979817D01*
X72109883Y-63958375D01*
X72076383Y-63933529D01*
X72045480Y-63905520D01*
X72017471Y-63874617D01*
X71992625Y-63841117D01*
X71971183Y-63805344D01*
X71953351Y-63767640D01*
X71939300Y-63728371D01*
X71929166Y-63687913D01*
X71923046Y-63646657D01*
X71921000Y-63605000D01*
X71921000Y-62755000D01*
X71923046Y-62713343D01*
X71929166Y-62672087D01*
X71939300Y-62631629D01*
X71953351Y-62592360D01*
X71971183Y-62554656D01*
X71992625Y-62518883D01*
X72017471Y-62485383D01*
X72045480Y-62454480D01*
X72076383Y-62426471D01*
X72109883Y-62401625D01*
X72145656Y-62380183D01*
X72183360Y-62362351D01*
X72222629Y-62348300D01*
X72263087Y-62338166D01*
X72304343Y-62332046D01*
X72346000Y-62330000D01*
X73196000Y-62330000D01*
X73237657Y-62332046D01*
G37*
G04 #@! TD.AperFunction*
D12*
X72771000Y-65720000D03*
X72771000Y-68260000D03*
D13*
X72771000Y-70800000D03*
D12*
X121455000Y-81630000D03*
X118915000Y-81630000D03*
X116375000Y-81630000D03*
X113835000Y-81630000D03*
X111295000Y-81630000D03*
X108755000Y-81630000D03*
G04 #@! TA.AperFunction,ComponentPad*
D11*
G36*
X106681657Y-80782046D02*
G01*
X106722913Y-80788166D01*
X106763371Y-80798300D01*
X106802640Y-80812351D01*
X106840344Y-80830183D01*
X106876117Y-80851625D01*
X106909617Y-80876471D01*
X106940520Y-80904480D01*
X106968529Y-80935383D01*
X106993375Y-80968883D01*
X107014817Y-81004656D01*
X107032649Y-81042360D01*
X107046700Y-81081629D01*
X107056834Y-81122087D01*
X107062954Y-81163343D01*
X107065000Y-81205000D01*
X107065000Y-82055000D01*
X107062954Y-82096657D01*
X107056834Y-82137913D01*
X107046700Y-82178371D01*
X107032649Y-82217640D01*
X107014817Y-82255344D01*
X106993375Y-82291117D01*
X106968529Y-82324617D01*
X106940520Y-82355520D01*
X106909617Y-82383529D01*
X106876117Y-82408375D01*
X106840344Y-82429817D01*
X106802640Y-82447649D01*
X106763371Y-82461700D01*
X106722913Y-82471834D01*
X106681657Y-82477954D01*
X106640000Y-82480000D01*
X105790000Y-82480000D01*
X105748343Y-82477954D01*
X105707087Y-82471834D01*
X105666629Y-82461700D01*
X105627360Y-82447649D01*
X105589656Y-82429817D01*
X105553883Y-82408375D01*
X105520383Y-82383529D01*
X105489480Y-82355520D01*
X105461471Y-82324617D01*
X105436625Y-82291117D01*
X105415183Y-82255344D01*
X105397351Y-82217640D01*
X105383300Y-82178371D01*
X105373166Y-82137913D01*
X105367046Y-82096657D01*
X105365000Y-82055000D01*
X105365000Y-81205000D01*
X105367046Y-81163343D01*
X105373166Y-81122087D01*
X105383300Y-81081629D01*
X105397351Y-81042360D01*
X105415183Y-81004656D01*
X105436625Y-80968883D01*
X105461471Y-80935383D01*
X105489480Y-80904480D01*
X105520383Y-80876471D01*
X105553883Y-80851625D01*
X105589656Y-80830183D01*
X105627360Y-80812351D01*
X105666629Y-80798300D01*
X105707087Y-80788166D01*
X105748343Y-80782046D01*
X105790000Y-80780000D01*
X106640000Y-80780000D01*
X106681657Y-80782046D01*
G37*
G04 #@! TD.AperFunction*
D13*
X103675000Y-81630000D03*
D12*
X103675000Y-52370000D03*
X106215000Y-52370000D03*
X108755000Y-52370000D03*
X111295000Y-52370000D03*
X113835000Y-52370000D03*
X116375000Y-52370000D03*
X118915000Y-52370000D03*
D13*
X121455000Y-52370000D03*
D14*
X162500000Y-57000000D03*
X162500000Y-77000000D03*
X57500000Y-77000000D03*
X57500000Y-57000000D03*
D15*
X134795000Y-75875000D03*
X144955000Y-58095000D03*
G04 #@! TA.AperFunction,ComponentPad*
D11*
G36*
X135634207Y-72536926D02*
G01*
X135673036Y-72542686D01*
X135711114Y-72552224D01*
X135748073Y-72565448D01*
X135783559Y-72582231D01*
X135817228Y-72602412D01*
X135848757Y-72625796D01*
X135877843Y-72652157D01*
X135904204Y-72681243D01*
X135927588Y-72712772D01*
X135947769Y-72746441D01*
X135964552Y-72781927D01*
X135977776Y-72818886D01*
X135987314Y-72856964D01*
X135993074Y-72895793D01*
X135995000Y-72935000D01*
X135995000Y-73735000D01*
X135993074Y-73774207D01*
X135987314Y-73813036D01*
X135977776Y-73851114D01*
X135964552Y-73888073D01*
X135947769Y-73923559D01*
X135927588Y-73957228D01*
X135904204Y-73988757D01*
X135877843Y-74017843D01*
X135848757Y-74044204D01*
X135817228Y-74067588D01*
X135783559Y-74087769D01*
X135748073Y-74104552D01*
X135711114Y-74117776D01*
X135673036Y-74127314D01*
X135634207Y-74133074D01*
X135595000Y-74135000D01*
X133995000Y-74135000D01*
X133955793Y-74133074D01*
X133916964Y-74127314D01*
X133878886Y-74117776D01*
X133841927Y-74104552D01*
X133806441Y-74087769D01*
X133772772Y-74067588D01*
X133741243Y-74044204D01*
X133712157Y-74017843D01*
X133685796Y-73988757D01*
X133662412Y-73957228D01*
X133642231Y-73923559D01*
X133625448Y-73888073D01*
X133612224Y-73851114D01*
X133602686Y-73813036D01*
X133596926Y-73774207D01*
X133595000Y-73735000D01*
X133595000Y-72935000D01*
X133596926Y-72895793D01*
X133602686Y-72856964D01*
X133612224Y-72818886D01*
X133625448Y-72781927D01*
X133642231Y-72746441D01*
X133662412Y-72712772D01*
X133685796Y-72681243D01*
X133712157Y-72652157D01*
X133741243Y-72625796D01*
X133772772Y-72602412D01*
X133806441Y-72582231D01*
X133841927Y-72565448D01*
X133878886Y-72552224D01*
X133916964Y-72542686D01*
X133955793Y-72536926D01*
X133995000Y-72535000D01*
X135595000Y-72535000D01*
X135634207Y-72536926D01*
G37*
G04 #@! TD.AperFunction*
D15*
X144955000Y-60635000D03*
X134795000Y-70795000D03*
X144955000Y-63175000D03*
X134795000Y-68255000D03*
X144955000Y-65715000D03*
X134795000Y-65715000D03*
X144955000Y-68255000D03*
X134795000Y-63175000D03*
X144955000Y-70795000D03*
X134795000Y-60635000D03*
X144955000Y-73335000D03*
X134795000Y-58095000D03*
X144955000Y-75875000D03*
D16*
X100908000Y-67000000D03*
X121455000Y-71798000D03*
X116375000Y-71798000D03*
X157567000Y-69525000D03*
X157567000Y-59365000D03*
X100908000Y-64700000D03*
D17*
X103675000Y-55570000D02*
X103675000Y-65575000D01*
X100908000Y-67000000D02*
X102926000Y-67000000D01*
X103675000Y-66251000D02*
X103675000Y-65575000D01*
X102926000Y-67000000D02*
X103675000Y-66251000D01*
D18*
G36*
X164365591Y-50771374D02*
G01*
X165207942Y-50982958D01*
X166004421Y-51329276D01*
X166733640Y-51801028D01*
X167376021Y-52385550D01*
X167914306Y-53067137D01*
X168334047Y-53827495D01*
X168623961Y-54646188D01*
X168778228Y-55512235D01*
X168801999Y-56030141D01*
X168802019Y-77972899D01*
X168728626Y-78865591D01*
X168517042Y-79707942D01*
X168170724Y-80504421D01*
X167698972Y-81233640D01*
X167114447Y-81876023D01*
X166432863Y-82414306D01*
X165672505Y-82834047D01*
X164853811Y-83123962D01*
X163987765Y-83278228D01*
X163469860Y-83301999D01*
X56527102Y-83302019D01*
X55634409Y-83228626D01*
X54792058Y-83017042D01*
X53995579Y-82670724D01*
X53266360Y-82198972D01*
X52623977Y-81614447D01*
X52520751Y-81483740D01*
X102190000Y-81483740D01*
X102190000Y-81776260D01*
X102247068Y-82063158D01*
X102359010Y-82333411D01*
X102521525Y-82576632D01*
X102728368Y-82783475D01*
X102971589Y-82945990D01*
X103241842Y-83057932D01*
X103528740Y-83115000D01*
X103821260Y-83115000D01*
X104108158Y-83057932D01*
X104378411Y-82945990D01*
X104621632Y-82783475D01*
X104753487Y-82651620D01*
X104775498Y-82724180D01*
X104834463Y-82834494D01*
X104913815Y-82931185D01*
X105010506Y-83010537D01*
X105120820Y-83069502D01*
X105240518Y-83105812D01*
X105365000Y-83118072D01*
X105929250Y-83115000D01*
X106088000Y-82956250D01*
X106088000Y-81757000D01*
X106068000Y-81757000D01*
X106068000Y-81503000D01*
X106088000Y-81503000D01*
X106088000Y-80303750D01*
X106342000Y-80303750D01*
X106342000Y-81503000D01*
X106362000Y-81503000D01*
X106362000Y-81757000D01*
X106342000Y-81757000D01*
X106342000Y-82956250D01*
X106500750Y-83115000D01*
X107065000Y-83118072D01*
X107189482Y-83105812D01*
X107309180Y-83069502D01*
X107419494Y-83010537D01*
X107516185Y-82931185D01*
X107595537Y-82834494D01*
X107654502Y-82724180D01*
X107676513Y-82651620D01*
X107808368Y-82783475D01*
X108051589Y-82945990D01*
X108321842Y-83057932D01*
X108608740Y-83115000D01*
X108901260Y-83115000D01*
X109188158Y-83057932D01*
X109458411Y-82945990D01*
X109701632Y-82783475D01*
X109908475Y-82576632D01*
X110025000Y-82402240D01*
X110141525Y-82576632D01*
X110348368Y-82783475D01*
X110591589Y-82945990D01*
X110861842Y-83057932D01*
X111148740Y-83115000D01*
X111441260Y-83115000D01*
X111728158Y-83057932D01*
X111998411Y-82945990D01*
X112241632Y-82783475D01*
X112448475Y-82576632D01*
X112565000Y-82402240D01*
X112681525Y-82576632D01*
X112888368Y-82783475D01*
X113131589Y-82945990D01*
X113401842Y-83057932D01*
X113688740Y-83115000D01*
X113981260Y-83115000D01*
X114268158Y-83057932D01*
X114538411Y-82945990D01*
X114781632Y-82783475D01*
X114988475Y-82576632D01*
X115105000Y-82402240D01*
X115221525Y-82576632D01*
X115428368Y-82783475D01*
X115671589Y-82945990D01*
X115941842Y-83057932D01*
X116228740Y-83115000D01*
X116521260Y-83115000D01*
X116808158Y-83057932D01*
X117078411Y-82945990D01*
X117321632Y-82783475D01*
X117528475Y-82576632D01*
X117645000Y-82402240D01*
X117761525Y-82576632D01*
X117968368Y-82783475D01*
X118211589Y-82945990D01*
X118481842Y-83057932D01*
X118768740Y-83115000D01*
X119061260Y-83115000D01*
X119348158Y-83057932D01*
X119618411Y-82945990D01*
X119861632Y-82783475D01*
X120068475Y-82576632D01*
X120185000Y-82402240D01*
X120301525Y-82576632D01*
X120508368Y-82783475D01*
X120751589Y-82945990D01*
X121021842Y-83057932D01*
X121308740Y-83115000D01*
X121601260Y-83115000D01*
X121888158Y-83057932D01*
X122158411Y-82945990D01*
X122401632Y-82783475D01*
X122608475Y-82576632D01*
X122770990Y-82333411D01*
X122882932Y-82063158D01*
X122940000Y-81776260D01*
X122940000Y-81483740D01*
X122882932Y-81196842D01*
X122770990Y-80926589D01*
X122608475Y-80683368D01*
X122401632Y-80476525D01*
X122158411Y-80314010D01*
X121888158Y-80202068D01*
X121601260Y-80145000D01*
X121308740Y-80145000D01*
X121021842Y-80202068D01*
X120751589Y-80314010D01*
X120508368Y-80476525D01*
X120301525Y-80683368D01*
X120185000Y-80857760D01*
X120068475Y-80683368D01*
X119861632Y-80476525D01*
X119618411Y-80314010D01*
X119348158Y-80202068D01*
X119061260Y-80145000D01*
X118768740Y-80145000D01*
X118481842Y-80202068D01*
X118211589Y-80314010D01*
X117968368Y-80476525D01*
X117761525Y-80683368D01*
X117645000Y-80857760D01*
X117528475Y-80683368D01*
X117321632Y-80476525D01*
X117078411Y-80314010D01*
X116808158Y-80202068D01*
X116521260Y-80145000D01*
X116228740Y-80145000D01*
X115941842Y-80202068D01*
X115671589Y-80314010D01*
X115428368Y-80476525D01*
X115221525Y-80683368D01*
X115105000Y-80857760D01*
X114988475Y-80683368D01*
X114781632Y-80476525D01*
X114538411Y-80314010D01*
X114268158Y-80202068D01*
X113981260Y-80145000D01*
X113688740Y-80145000D01*
X113401842Y-80202068D01*
X113131589Y-80314010D01*
X112888368Y-80476525D01*
X112681525Y-80683368D01*
X112565000Y-80857760D01*
X112448475Y-80683368D01*
X112241632Y-80476525D01*
X111998411Y-80314010D01*
X111728158Y-80202068D01*
X111441260Y-80145000D01*
X111148740Y-80145000D01*
X110861842Y-80202068D01*
X110591589Y-80314010D01*
X110348368Y-80476525D01*
X110141525Y-80683368D01*
X110025000Y-80857760D01*
X109908475Y-80683368D01*
X109701632Y-80476525D01*
X109458411Y-80314010D01*
X109188158Y-80202068D01*
X108901260Y-80145000D01*
X108608740Y-80145000D01*
X108321842Y-80202068D01*
X108051589Y-80314010D01*
X107808368Y-80476525D01*
X107676513Y-80608380D01*
X107654502Y-80535820D01*
X107595537Y-80425506D01*
X107516185Y-80328815D01*
X107419494Y-80249463D01*
X107309180Y-80190498D01*
X107189482Y-80154188D01*
X107065000Y-80141928D01*
X106500750Y-80145000D01*
X106342000Y-80303750D01*
X106088000Y-80303750D01*
X105929250Y-80145000D01*
X105365000Y-80141928D01*
X105240518Y-80154188D01*
X105120820Y-80190498D01*
X105010506Y-80249463D01*
X104913815Y-80328815D01*
X104834463Y-80425506D01*
X104775498Y-80535820D01*
X104753487Y-80608380D01*
X104621632Y-80476525D01*
X104378411Y-80314010D01*
X104108158Y-80202068D01*
X103821260Y-80145000D01*
X103528740Y-80145000D01*
X103241842Y-80202068D01*
X102971589Y-80314010D01*
X102728368Y-80476525D01*
X102521525Y-80683368D01*
X102359010Y-80926589D01*
X102247068Y-81196842D01*
X102190000Y-81483740D01*
X52520751Y-81483740D01*
X52085694Y-80932863D01*
X51665953Y-80172505D01*
X51376038Y-79353811D01*
X51221772Y-78487765D01*
X51206706Y-78159508D01*
X102240000Y-78159508D01*
X102240000Y-78700491D01*
X102260764Y-78911308D01*
X102342818Y-79181807D01*
X102476068Y-79431100D01*
X102655392Y-79649607D01*
X102873899Y-79828932D01*
X103123192Y-79962182D01*
X103393691Y-80044236D01*
X103675000Y-80071943D01*
X103956308Y-80044236D01*
X104226807Y-79962182D01*
X104476100Y-79828932D01*
X104694607Y-79649608D01*
X104787419Y-79536517D01*
X104789188Y-79554482D01*
X104825498Y-79674180D01*
X104884463Y-79784494D01*
X104963815Y-79881185D01*
X105060506Y-79960537D01*
X105170820Y-80019502D01*
X105290518Y-80055812D01*
X105415000Y-80068072D01*
X105929250Y-80065000D01*
X106088000Y-79906250D01*
X106088000Y-78557000D01*
X106068000Y-78557000D01*
X106068000Y-78303000D01*
X106088000Y-78303000D01*
X106088000Y-76953750D01*
X106342000Y-76953750D01*
X106342000Y-78303000D01*
X106362000Y-78303000D01*
X106362000Y-78557000D01*
X106342000Y-78557000D01*
X106342000Y-79906250D01*
X106500750Y-80065000D01*
X107015000Y-80068072D01*
X107139482Y-80055812D01*
X107259180Y-80019502D01*
X107369494Y-79960537D01*
X107466185Y-79881185D01*
X107545537Y-79784494D01*
X107604502Y-79674180D01*
X107640812Y-79554482D01*
X107642581Y-79536517D01*
X107735392Y-79649607D01*
X107953899Y-79828932D01*
X108203192Y-79962182D01*
X108473691Y-80044236D01*
X108755000Y-80071943D01*
X109036308Y-80044236D01*
X109306807Y-79962182D01*
X109556100Y-79828932D01*
X109774607Y-79649608D01*
X109953932Y-79431101D01*
X110025000Y-79298142D01*
X110096068Y-79431100D01*
X110275392Y-79649607D01*
X110493899Y-79828932D01*
X110743192Y-79962182D01*
X111013691Y-80044236D01*
X111295000Y-80071943D01*
X111576308Y-80044236D01*
X111846807Y-79962182D01*
X112096100Y-79828932D01*
X112314607Y-79649608D01*
X112493932Y-79431101D01*
X112565000Y-79298142D01*
X112636068Y-79431100D01*
X112815392Y-79649607D01*
X113033899Y-79828932D01*
X113283192Y-79962182D01*
X113553691Y-80044236D01*
X113835000Y-80071943D01*
X114116308Y-80044236D01*
X114386807Y-79962182D01*
X114636100Y-79828932D01*
X114854607Y-79649608D01*
X115033932Y-79431101D01*
X115105000Y-79298142D01*
X115176068Y-79431100D01*
X115355392Y-79649607D01*
X115573899Y-79828932D01*
X115823192Y-79962182D01*
X116093691Y-80044236D01*
X116375000Y-80071943D01*
X116656308Y-80044236D01*
X116926807Y-79962182D01*
X117176100Y-79828932D01*
X117394607Y-79649608D01*
X117573932Y-79431101D01*
X117645000Y-79298142D01*
X117716068Y-79431100D01*
X117895392Y-79649607D01*
X118113899Y-79828932D01*
X118363192Y-79962182D01*
X118633691Y-80044236D01*
X118915000Y-80071943D01*
X119196308Y-80044236D01*
X119466807Y-79962182D01*
X119716100Y-79828932D01*
X119934607Y-79649608D01*
X120113932Y-79431101D01*
X120185000Y-79298142D01*
X120256068Y-79431100D01*
X120435392Y-79649607D01*
X120653899Y-79828932D01*
X120903192Y-79962182D01*
X121173691Y-80044236D01*
X121455000Y-80071943D01*
X121736308Y-80044236D01*
X122006807Y-79962182D01*
X122256100Y-79828932D01*
X122474607Y-79649608D01*
X122653932Y-79431101D01*
X122787182Y-79181808D01*
X122869236Y-78911309D01*
X122890000Y-78700492D01*
X122890000Y-78159509D01*
X122869236Y-77948692D01*
X122787182Y-77678193D01*
X122653932Y-77428899D01*
X122474608Y-77210392D01*
X122256101Y-77031068D01*
X122006808Y-76897818D01*
X121736309Y-76815764D01*
X121455000Y-76788057D01*
X121173692Y-76815764D01*
X120903193Y-76897818D01*
X120653900Y-77031068D01*
X120435393Y-77210392D01*
X120256068Y-77428899D01*
X120185000Y-77561858D01*
X120113932Y-77428899D01*
X119934608Y-77210392D01*
X119716101Y-77031068D01*
X119466808Y-76897818D01*
X119196309Y-76815764D01*
X118915000Y-76788057D01*
X118633692Y-76815764D01*
X118363193Y-76897818D01*
X118113900Y-77031068D01*
X117895393Y-77210392D01*
X117716068Y-77428899D01*
X117645000Y-77561858D01*
X117573932Y-77428899D01*
X117394608Y-77210392D01*
X117176101Y-77031068D01*
X116926808Y-76897818D01*
X116656309Y-76815764D01*
X116375000Y-76788057D01*
X116093692Y-76815764D01*
X115823193Y-76897818D01*
X115573900Y-77031068D01*
X115355393Y-77210392D01*
X115176068Y-77428899D01*
X115105000Y-77561858D01*
X115033932Y-77428899D01*
X114854608Y-77210392D01*
X114636101Y-77031068D01*
X114386808Y-76897818D01*
X114116309Y-76815764D01*
X113835000Y-76788057D01*
X113553692Y-76815764D01*
X113283193Y-76897818D01*
X113033900Y-77031068D01*
X112815393Y-77210392D01*
X112636068Y-77428899D01*
X112565000Y-77561858D01*
X112493932Y-77428899D01*
X112314608Y-77210392D01*
X112096101Y-77031068D01*
X111846808Y-76897818D01*
X111576309Y-76815764D01*
X111295000Y-76788057D01*
X111013692Y-76815764D01*
X110743193Y-76897818D01*
X110493900Y-77031068D01*
X110275393Y-77210392D01*
X110096068Y-77428899D01*
X110025000Y-77561858D01*
X109953932Y-77428899D01*
X109774608Y-77210392D01*
X109556101Y-77031068D01*
X109306808Y-76897818D01*
X109036309Y-76815764D01*
X108755000Y-76788057D01*
X108473692Y-76815764D01*
X108203193Y-76897818D01*
X107953900Y-77031068D01*
X107735393Y-77210392D01*
X107642581Y-77323483D01*
X107640812Y-77305518D01*
X107604502Y-77185820D01*
X107545537Y-77075506D01*
X107466185Y-76978815D01*
X107369494Y-76899463D01*
X107259180Y-76840498D01*
X107139482Y-76804188D01*
X107015000Y-76791928D01*
X106500750Y-76795000D01*
X106342000Y-76953750D01*
X106088000Y-76953750D01*
X105929250Y-76795000D01*
X105415000Y-76791928D01*
X105290518Y-76804188D01*
X105170820Y-76840498D01*
X105060506Y-76899463D01*
X104963815Y-76978815D01*
X104884463Y-77075506D01*
X104825498Y-77185820D01*
X104789188Y-77305518D01*
X104787419Y-77323482D01*
X104694608Y-77210392D01*
X104476101Y-77031068D01*
X104226808Y-76897818D01*
X103956309Y-76815764D01*
X103675000Y-76788057D01*
X103393692Y-76815764D01*
X103123193Y-76897818D01*
X102873900Y-77031068D01*
X102655393Y-77210392D01*
X102476068Y-77428899D01*
X102342818Y-77678192D01*
X102260764Y-77948691D01*
X102240000Y-78159508D01*
X51206706Y-78159508D01*
X51198001Y-77969859D01*
X51198000Y-75875000D01*
X132953057Y-75875000D01*
X132980764Y-76156309D01*
X133062818Y-76426808D01*
X133196068Y-76676101D01*
X133375392Y-76894608D01*
X133593899Y-77073932D01*
X133843192Y-77207182D01*
X134113691Y-77289236D01*
X134324508Y-77310000D01*
X135265492Y-77310000D01*
X135476309Y-77289236D01*
X135746808Y-77207182D01*
X135996101Y-77073932D01*
X136214608Y-76894608D01*
X136393932Y-76676101D01*
X136527182Y-76426808D01*
X136609236Y-76156309D01*
X136636943Y-75875000D01*
X136609236Y-75593691D01*
X136527182Y-75323192D01*
X136393932Y-75073899D01*
X136214608Y-74855392D01*
X136101518Y-74762581D01*
X136119482Y-74760812D01*
X136239180Y-74724502D01*
X136349494Y-74665537D01*
X136446185Y-74586185D01*
X136525537Y-74489494D01*
X136584502Y-74379180D01*
X136620812Y-74259482D01*
X136633072Y-74135000D01*
X136630000Y-73620750D01*
X136471250Y-73462000D01*
X134922000Y-73462000D01*
X134922000Y-73482000D01*
X134668000Y-73482000D01*
X134668000Y-73462000D01*
X133118750Y-73462000D01*
X132960000Y-73620750D01*
X132956928Y-74135000D01*
X132969188Y-74259482D01*
X133005498Y-74379180D01*
X133064463Y-74489494D01*
X133143815Y-74586185D01*
X133240506Y-74665537D01*
X133350820Y-74724502D01*
X133470518Y-74760812D01*
X133488482Y-74762581D01*
X133375392Y-74855392D01*
X133196068Y-75073899D01*
X133062818Y-75323192D01*
X132980764Y-75593691D01*
X132953057Y-75875000D01*
X51198000Y-75875000D01*
X51197989Y-64030000D01*
X71282928Y-64030000D01*
X71295188Y-64154482D01*
X71331498Y-64274180D01*
X71390463Y-64384494D01*
X71469815Y-64481185D01*
X71566506Y-64560537D01*
X71676820Y-64619502D01*
X71749380Y-64641513D01*
X71617525Y-64773368D01*
X71455010Y-65016589D01*
X71343068Y-65286842D01*
X71286000Y-65573740D01*
X71286000Y-65866260D01*
X71343068Y-66153158D01*
X71455010Y-66423411D01*
X71617525Y-66666632D01*
X71824368Y-66873475D01*
X71998760Y-66990000D01*
X71824368Y-67106525D01*
X71617525Y-67313368D01*
X71455010Y-67556589D01*
X71343068Y-67826842D01*
X71286000Y-68113740D01*
X71286000Y-68406260D01*
X71343068Y-68693158D01*
X71455010Y-68963411D01*
X71617525Y-69206632D01*
X71824368Y-69413475D01*
X71998760Y-69530000D01*
X71824368Y-69646525D01*
X71617525Y-69853368D01*
X71455010Y-70096589D01*
X71343068Y-70366842D01*
X71286000Y-70653740D01*
X71286000Y-70946260D01*
X71343068Y-71233158D01*
X71455010Y-71503411D01*
X71617525Y-71746632D01*
X71824368Y-71953475D01*
X72067589Y-72115990D01*
X72337842Y-72227932D01*
X72624740Y-72285000D01*
X72917260Y-72285000D01*
X73204158Y-72227932D01*
X73474411Y-72115990D01*
X73717632Y-71953475D01*
X73924475Y-71746632D01*
X74086990Y-71503411D01*
X74198932Y-71233158D01*
X74256000Y-70946260D01*
X74256000Y-70653740D01*
X74198932Y-70366842D01*
X74086990Y-70096589D01*
X73924475Y-69853368D01*
X73717632Y-69646525D01*
X73543240Y-69530000D01*
X73717632Y-69413475D01*
X73924475Y-69206632D01*
X74086990Y-68963411D01*
X74198932Y-68693158D01*
X74256000Y-68406260D01*
X74256000Y-68113740D01*
X74198932Y-67826842D01*
X74086990Y-67556589D01*
X73924475Y-67313368D01*
X73717632Y-67106525D01*
X73543240Y-66990000D01*
X73695576Y-66888212D01*
X99773000Y-66888212D01*
X99773000Y-67111788D01*
X99816617Y-67331067D01*
X99902176Y-67537624D01*
X100026388Y-67723520D01*
X100184480Y-67881612D01*
X100370376Y-68005824D01*
X100576933Y-68091383D01*
X100796212Y-68135000D01*
X101019788Y-68135000D01*
X101239067Y-68091383D01*
X101375187Y-68035000D01*
X102875172Y-68035000D01*
X102926000Y-68040006D01*
X102976828Y-68035000D01*
X102976838Y-68035000D01*
X103128895Y-68020024D01*
X103323993Y-67960841D01*
X103503797Y-67864734D01*
X103661396Y-67735396D01*
X103693807Y-67695903D01*
X104370908Y-67018803D01*
X104410396Y-66986396D01*
X104469866Y-66913932D01*
X104539734Y-66828798D01*
X104625183Y-66668933D01*
X104635841Y-66648993D01*
X104695024Y-66453895D01*
X104710000Y-66301838D01*
X104710000Y-66301836D01*
X104715007Y-66251000D01*
X104710000Y-66200165D01*
X104710000Y-58095000D01*
X132953057Y-58095000D01*
X132980764Y-58376309D01*
X133062818Y-58646808D01*
X133196068Y-58896101D01*
X133375392Y-59114608D01*
X133593899Y-59293932D01*
X133726858Y-59365000D01*
X133593899Y-59436068D01*
X133375392Y-59615392D01*
X133196068Y-59833899D01*
X133062818Y-60083192D01*
X132980764Y-60353691D01*
X132953057Y-60635000D01*
X132980764Y-60916309D01*
X133062818Y-61186808D01*
X133196068Y-61436101D01*
X133375392Y-61654608D01*
X133593899Y-61833932D01*
X133726858Y-61905000D01*
X133593899Y-61976068D01*
X133375392Y-62155392D01*
X133196068Y-62373899D01*
X133062818Y-62623192D01*
X132980764Y-62893691D01*
X132953057Y-63175000D01*
X132980764Y-63456309D01*
X133062818Y-63726808D01*
X133196068Y-63976101D01*
X133375392Y-64194608D01*
X133593899Y-64373932D01*
X133726858Y-64445000D01*
X133593899Y-64516068D01*
X133375392Y-64695392D01*
X133196068Y-64913899D01*
X133062818Y-65163192D01*
X132980764Y-65433691D01*
X132953057Y-65715000D01*
X132980764Y-65996309D01*
X133062818Y-66266808D01*
X133196068Y-66516101D01*
X133375392Y-66734608D01*
X133593899Y-66913932D01*
X133726858Y-66985000D01*
X133593899Y-67056068D01*
X133375392Y-67235392D01*
X133196068Y-67453899D01*
X133062818Y-67703192D01*
X132980764Y-67973691D01*
X132953057Y-68255000D01*
X132980764Y-68536309D01*
X133062818Y-68806808D01*
X133196068Y-69056101D01*
X133375392Y-69274608D01*
X133593899Y-69453932D01*
X133726858Y-69525000D01*
X133593899Y-69596068D01*
X133375392Y-69775392D01*
X133196068Y-69993899D01*
X133062818Y-70243192D01*
X132980764Y-70513691D01*
X132953057Y-70795000D01*
X132980764Y-71076309D01*
X133062818Y-71346808D01*
X133196068Y-71596101D01*
X133375392Y-71814608D01*
X133488482Y-71907419D01*
X133470518Y-71909188D01*
X133350820Y-71945498D01*
X133240506Y-72004463D01*
X133143815Y-72083815D01*
X133064463Y-72180506D01*
X133005498Y-72290820D01*
X132969188Y-72410518D01*
X132956928Y-72535000D01*
X132960000Y-73049250D01*
X133118750Y-73208000D01*
X134668000Y-73208000D01*
X134668000Y-73188000D01*
X134922000Y-73188000D01*
X134922000Y-73208000D01*
X136471250Y-73208000D01*
X136630000Y-73049250D01*
X136633072Y-72535000D01*
X136620812Y-72410518D01*
X136584502Y-72290820D01*
X136525537Y-72180506D01*
X136446185Y-72083815D01*
X136349494Y-72004463D01*
X136239180Y-71945498D01*
X136119482Y-71909188D01*
X136101518Y-71907419D01*
X136214608Y-71814608D01*
X136393932Y-71596101D01*
X136527182Y-71346808D01*
X136609236Y-71076309D01*
X136636943Y-70795000D01*
X136609236Y-70513691D01*
X136527182Y-70243192D01*
X136393932Y-69993899D01*
X136214608Y-69775392D01*
X135996101Y-69596068D01*
X135863142Y-69525000D01*
X135996101Y-69453932D01*
X136214608Y-69274608D01*
X136393932Y-69056101D01*
X136527182Y-68806808D01*
X136609236Y-68536309D01*
X136636943Y-68255000D01*
X136609236Y-67973691D01*
X136527182Y-67703192D01*
X136393932Y-67453899D01*
X136214608Y-67235392D01*
X135996101Y-67056068D01*
X135863142Y-66985000D01*
X135996101Y-66913932D01*
X136214608Y-66734608D01*
X136393932Y-66516101D01*
X136527182Y-66266808D01*
X136609236Y-65996309D01*
X136636943Y-65715000D01*
X136609236Y-65433691D01*
X136527182Y-65163192D01*
X136393932Y-64913899D01*
X136214608Y-64695392D01*
X135996101Y-64516068D01*
X135863142Y-64445000D01*
X135996101Y-64373932D01*
X136214608Y-64194608D01*
X136393932Y-63976101D01*
X136527182Y-63726808D01*
X136609236Y-63456309D01*
X136636943Y-63175000D01*
X136609236Y-62893691D01*
X136527182Y-62623192D01*
X136393932Y-62373899D01*
X136214608Y-62155392D01*
X135996101Y-61976068D01*
X135863142Y-61905000D01*
X135996101Y-61833932D01*
X136214608Y-61654608D01*
X136393932Y-61436101D01*
X136527182Y-61186808D01*
X136609236Y-60916309D01*
X136636943Y-60635000D01*
X136609236Y-60353691D01*
X136527182Y-60083192D01*
X136393932Y-59833899D01*
X136214608Y-59615392D01*
X135996101Y-59436068D01*
X135863142Y-59365000D01*
X135996101Y-59293932D01*
X136214608Y-59114608D01*
X136393932Y-58896101D01*
X136527182Y-58646808D01*
X136609236Y-58376309D01*
X136636943Y-58095000D01*
X143113057Y-58095000D01*
X143140764Y-58376309D01*
X143222818Y-58646808D01*
X143356068Y-58896101D01*
X143535392Y-59114608D01*
X143753899Y-59293932D01*
X143886858Y-59365000D01*
X143753899Y-59436068D01*
X143535392Y-59615392D01*
X143356068Y-59833899D01*
X143222818Y-60083192D01*
X143140764Y-60353691D01*
X143113057Y-60635000D01*
X143140764Y-60916309D01*
X143222818Y-61186808D01*
X143356068Y-61436101D01*
X143535392Y-61654608D01*
X143753899Y-61833932D01*
X143886858Y-61905000D01*
X143753899Y-61976068D01*
X143535392Y-62155392D01*
X143356068Y-62373899D01*
X143222818Y-62623192D01*
X143140764Y-62893691D01*
X143113057Y-63175000D01*
X143140764Y-63456309D01*
X143222818Y-63726808D01*
X143356068Y-63976101D01*
X143535392Y-64194608D01*
X143753899Y-64373932D01*
X143886858Y-64445000D01*
X143753899Y-64516068D01*
X143535392Y-64695392D01*
X143356068Y-64913899D01*
X143222818Y-65163192D01*
X143140764Y-65433691D01*
X143113057Y-65715000D01*
X143140764Y-65996309D01*
X143222818Y-66266808D01*
X143356068Y-66516101D01*
X143535392Y-66734608D01*
X143753899Y-66913932D01*
X143886858Y-66985000D01*
X143753899Y-67056068D01*
X143535392Y-67235392D01*
X143356068Y-67453899D01*
X143222818Y-67703192D01*
X143140764Y-67973691D01*
X143113057Y-68255000D01*
X143140764Y-68536309D01*
X143222818Y-68806808D01*
X143356068Y-69056101D01*
X143535392Y-69274608D01*
X143753899Y-69453932D01*
X143886858Y-69525000D01*
X143753899Y-69596068D01*
X143535392Y-69775392D01*
X143356068Y-69993899D01*
X143222818Y-70243192D01*
X143140764Y-70513691D01*
X143113057Y-70795000D01*
X143140764Y-71076309D01*
X143222818Y-71346808D01*
X143356068Y-71596101D01*
X143535392Y-71814608D01*
X143753899Y-71993932D01*
X143886858Y-72065000D01*
X143753899Y-72136068D01*
X143535392Y-72315392D01*
X143356068Y-72533899D01*
X143222818Y-72783192D01*
X143140764Y-73053691D01*
X143113057Y-73335000D01*
X143140764Y-73616309D01*
X143222818Y-73886808D01*
X143356068Y-74136101D01*
X143535392Y-74354608D01*
X143753899Y-74533932D01*
X143886858Y-74605000D01*
X143753899Y-74676068D01*
X143535392Y-74855392D01*
X143356068Y-75073899D01*
X143222818Y-75323192D01*
X143140764Y-75593691D01*
X143113057Y-75875000D01*
X143140764Y-76156309D01*
X143222818Y-76426808D01*
X143356068Y-76676101D01*
X143535392Y-76894608D01*
X143753899Y-77073932D01*
X144003192Y-77207182D01*
X144273691Y-77289236D01*
X144484508Y-77310000D01*
X145425492Y-77310000D01*
X145636309Y-77289236D01*
X145906808Y-77207182D01*
X146156101Y-77073932D01*
X146374608Y-76894608D01*
X146553932Y-76676101D01*
X146687182Y-76426808D01*
X146769236Y-76156309D01*
X146796943Y-75875000D01*
X146769236Y-75593691D01*
X146687182Y-75323192D01*
X146553932Y-75073899D01*
X146374608Y-74855392D01*
X146156101Y-74676068D01*
X146023142Y-74605000D01*
X146156101Y-74533932D01*
X146374608Y-74354608D01*
X146553932Y-74136101D01*
X146687182Y-73886808D01*
X146769236Y-73616309D01*
X146796943Y-73335000D01*
X146769236Y-73053691D01*
X146687182Y-72783192D01*
X146553932Y-72533899D01*
X146374608Y-72315392D01*
X146156101Y-72136068D01*
X146023142Y-72065000D01*
X146156101Y-71993932D01*
X146374608Y-71814608D01*
X146553932Y-71596101D01*
X146687182Y-71346808D01*
X146769236Y-71076309D01*
X146796943Y-70795000D01*
X146769236Y-70513691D01*
X146687182Y-70243192D01*
X146553932Y-69993899D01*
X146374608Y-69775392D01*
X146156101Y-69596068D01*
X146023142Y-69525000D01*
X146156101Y-69453932D01*
X146374608Y-69274608D01*
X146553932Y-69056101D01*
X146687182Y-68806808D01*
X146769236Y-68536309D01*
X146796943Y-68255000D01*
X146769236Y-67973691D01*
X146687182Y-67703192D01*
X146553932Y-67453899D01*
X146374608Y-67235392D01*
X146156101Y-67056068D01*
X146023142Y-66985000D01*
X146156101Y-66913932D01*
X146374608Y-66734608D01*
X146553932Y-66516101D01*
X146687182Y-66266808D01*
X146769236Y-65996309D01*
X146796943Y-65715000D01*
X146769236Y-65433691D01*
X146687182Y-65163192D01*
X146553932Y-64913899D01*
X146374608Y-64695392D01*
X146156101Y-64516068D01*
X146023142Y-64445000D01*
X146156101Y-64373932D01*
X146374608Y-64194608D01*
X146553932Y-63976101D01*
X146687182Y-63726808D01*
X146769236Y-63456309D01*
X146796943Y-63175000D01*
X146769236Y-62893691D01*
X146687182Y-62623192D01*
X146553932Y-62373899D01*
X146374608Y-62155392D01*
X146156101Y-61976068D01*
X146023142Y-61905000D01*
X146156101Y-61833932D01*
X146374608Y-61654608D01*
X146553932Y-61436101D01*
X146687182Y-61186808D01*
X146769236Y-60916309D01*
X146796943Y-60635000D01*
X146769236Y-60353691D01*
X146687182Y-60083192D01*
X146553932Y-59833899D01*
X146374608Y-59615392D01*
X146156101Y-59436068D01*
X146023142Y-59365000D01*
X146156101Y-59293932D01*
X146374608Y-59114608D01*
X146553932Y-58896101D01*
X146687182Y-58646808D01*
X146769236Y-58376309D01*
X146796943Y-58095000D01*
X146769236Y-57813691D01*
X146687182Y-57543192D01*
X146553932Y-57293899D01*
X146374608Y-57075392D01*
X146156101Y-56896068D01*
X145906808Y-56762818D01*
X145636309Y-56680764D01*
X145425492Y-56660000D01*
X144484508Y-56660000D01*
X144273691Y-56680764D01*
X144003192Y-56762818D01*
X143753899Y-56896068D01*
X143535392Y-57075392D01*
X143356068Y-57293899D01*
X143222818Y-57543192D01*
X143140764Y-57813691D01*
X143113057Y-58095000D01*
X136636943Y-58095000D01*
X136609236Y-57813691D01*
X136527182Y-57543192D01*
X136393932Y-57293899D01*
X136214608Y-57075392D01*
X135996101Y-56896068D01*
X135746808Y-56762818D01*
X135476309Y-56680764D01*
X135265492Y-56660000D01*
X134324508Y-56660000D01*
X134113691Y-56680764D01*
X133843192Y-56762818D01*
X133593899Y-56896068D01*
X133375392Y-57075392D01*
X133196068Y-57293899D01*
X133062818Y-57543192D01*
X132980764Y-57813691D01*
X132953057Y-58095000D01*
X104710000Y-58095000D01*
X104710000Y-56770852D01*
X104873932Y-56571101D01*
X104945000Y-56438142D01*
X105016068Y-56571100D01*
X105195392Y-56789607D01*
X105413899Y-56968932D01*
X105663192Y-57102182D01*
X105933691Y-57184236D01*
X106215000Y-57211943D01*
X106496308Y-57184236D01*
X106766807Y-57102182D01*
X107016100Y-56968932D01*
X107234607Y-56789608D01*
X107413932Y-56571101D01*
X107485000Y-56438142D01*
X107556068Y-56571100D01*
X107735392Y-56789607D01*
X107953899Y-56968932D01*
X108203192Y-57102182D01*
X108473691Y-57184236D01*
X108755000Y-57211943D01*
X109036308Y-57184236D01*
X109306807Y-57102182D01*
X109556100Y-56968932D01*
X109774607Y-56789608D01*
X109953932Y-56571101D01*
X110025000Y-56438142D01*
X110096068Y-56571100D01*
X110275392Y-56789607D01*
X110493899Y-56968932D01*
X110743192Y-57102182D01*
X111013691Y-57184236D01*
X111295000Y-57211943D01*
X111576308Y-57184236D01*
X111846807Y-57102182D01*
X112096100Y-56968932D01*
X112314607Y-56789608D01*
X112493932Y-56571101D01*
X112565000Y-56438142D01*
X112636068Y-56571100D01*
X112815392Y-56789607D01*
X113033899Y-56968932D01*
X113283192Y-57102182D01*
X113553691Y-57184236D01*
X113835000Y-57211943D01*
X114116308Y-57184236D01*
X114386807Y-57102182D01*
X114636100Y-56968932D01*
X114854607Y-56789608D01*
X115033932Y-56571101D01*
X115105000Y-56438142D01*
X115176068Y-56571100D01*
X115355392Y-56789607D01*
X115573899Y-56968932D01*
X115823192Y-57102182D01*
X116093691Y-57184236D01*
X116375000Y-57211943D01*
X116656308Y-57184236D01*
X116926807Y-57102182D01*
X117176100Y-56968932D01*
X117394607Y-56789608D01*
X117573932Y-56571101D01*
X117645000Y-56438142D01*
X117716068Y-56571100D01*
X117895392Y-56789607D01*
X118113899Y-56968932D01*
X118363192Y-57102182D01*
X118633691Y-57184236D01*
X118915000Y-57211943D01*
X119196308Y-57184236D01*
X119466807Y-57102182D01*
X119716100Y-56968932D01*
X119934607Y-56789608D01*
X120113932Y-56571101D01*
X120185000Y-56438142D01*
X120256068Y-56571100D01*
X120435392Y-56789607D01*
X120653899Y-56968932D01*
X120903192Y-57102182D01*
X121173691Y-57184236D01*
X121455000Y-57211943D01*
X121736308Y-57184236D01*
X122006807Y-57102182D01*
X122256100Y-56968932D01*
X122474607Y-56789608D01*
X122653932Y-56571101D01*
X122787182Y-56321808D01*
X122869236Y-56051309D01*
X122890000Y-55840492D01*
X122890000Y-55299509D01*
X122869236Y-55088692D01*
X122787182Y-54818193D01*
X122653932Y-54568899D01*
X122474608Y-54350392D01*
X122256101Y-54171068D01*
X122006808Y-54037818D01*
X121736309Y-53955764D01*
X121455000Y-53928057D01*
X121173692Y-53955764D01*
X120903193Y-54037818D01*
X120653900Y-54171068D01*
X120435393Y-54350392D01*
X120256068Y-54568899D01*
X120185000Y-54701858D01*
X120113932Y-54568899D01*
X119934608Y-54350392D01*
X119716101Y-54171068D01*
X119466808Y-54037818D01*
X119196309Y-53955764D01*
X118915000Y-53928057D01*
X118633692Y-53955764D01*
X118363193Y-54037818D01*
X118113900Y-54171068D01*
X117895393Y-54350392D01*
X117716068Y-54568899D01*
X117645000Y-54701858D01*
X117573932Y-54568899D01*
X117394608Y-54350392D01*
X117176101Y-54171068D01*
X116926808Y-54037818D01*
X116656309Y-53955764D01*
X116375000Y-53928057D01*
X116093692Y-53955764D01*
X115823193Y-54037818D01*
X115573900Y-54171068D01*
X115355393Y-54350392D01*
X115176068Y-54568899D01*
X115105000Y-54701858D01*
X115033932Y-54568899D01*
X114854608Y-54350392D01*
X114636101Y-54171068D01*
X114386808Y-54037818D01*
X114116309Y-53955764D01*
X113835000Y-53928057D01*
X113553692Y-53955764D01*
X113283193Y-54037818D01*
X113033900Y-54171068D01*
X112815393Y-54350392D01*
X112636068Y-54568899D01*
X112565000Y-54701858D01*
X112493932Y-54568899D01*
X112314608Y-54350392D01*
X112096101Y-54171068D01*
X111846808Y-54037818D01*
X111576309Y-53955764D01*
X111295000Y-53928057D01*
X111013692Y-53955764D01*
X110743193Y-54037818D01*
X110493900Y-54171068D01*
X110275393Y-54350392D01*
X110096068Y-54568899D01*
X110025000Y-54701858D01*
X109953932Y-54568899D01*
X109774608Y-54350392D01*
X109556101Y-54171068D01*
X109306808Y-54037818D01*
X109036309Y-53955764D01*
X108755000Y-53928057D01*
X108473692Y-53955764D01*
X108203193Y-54037818D01*
X107953900Y-54171068D01*
X107735393Y-54350392D01*
X107556068Y-54568899D01*
X107485000Y-54701858D01*
X107413932Y-54568899D01*
X107234608Y-54350392D01*
X107016101Y-54171068D01*
X106766808Y-54037818D01*
X106496309Y-53955764D01*
X106215000Y-53928057D01*
X105933692Y-53955764D01*
X105663193Y-54037818D01*
X105413900Y-54171068D01*
X105195393Y-54350392D01*
X105016068Y-54568899D01*
X104945000Y-54701858D01*
X104873932Y-54568899D01*
X104694608Y-54350392D01*
X104476101Y-54171068D01*
X104226808Y-54037818D01*
X103956309Y-53955764D01*
X103675000Y-53928057D01*
X103393692Y-53955764D01*
X103123193Y-54037818D01*
X102873900Y-54171068D01*
X102655393Y-54350392D01*
X102476068Y-54568899D01*
X102342818Y-54818192D01*
X102260764Y-55088691D01*
X102240000Y-55299508D01*
X102240000Y-55840491D01*
X102260764Y-56051308D01*
X102342818Y-56321807D01*
X102476068Y-56571100D01*
X102640000Y-56770852D01*
X102640001Y-65524152D01*
X102640000Y-65524162D01*
X102640000Y-65822289D01*
X102497290Y-65965000D01*
X101375187Y-65965000D01*
X101239067Y-65908617D01*
X101019788Y-65865000D01*
X100796212Y-65865000D01*
X100576933Y-65908617D01*
X100370376Y-65994176D01*
X100184480Y-66118388D01*
X100026388Y-66276480D01*
X99902176Y-66462376D01*
X99816617Y-66668933D01*
X99773000Y-66888212D01*
X73695576Y-66888212D01*
X73717632Y-66873475D01*
X73924475Y-66666632D01*
X74086990Y-66423411D01*
X74198932Y-66153158D01*
X74256000Y-65866260D01*
X74256000Y-65573740D01*
X74198932Y-65286842D01*
X74086990Y-65016589D01*
X73924475Y-64773368D01*
X73792620Y-64641513D01*
X73865180Y-64619502D01*
X73975494Y-64560537D01*
X74072185Y-64481185D01*
X74151537Y-64384494D01*
X74210502Y-64274180D01*
X74246812Y-64154482D01*
X74259072Y-64030000D01*
X74256000Y-63465750D01*
X74097250Y-63307000D01*
X72898000Y-63307000D01*
X72898000Y-63327000D01*
X72644000Y-63327000D01*
X72644000Y-63307000D01*
X71444750Y-63307000D01*
X71286000Y-63465750D01*
X71282928Y-64030000D01*
X51197989Y-64030000D01*
X51197988Y-62330000D01*
X71282928Y-62330000D01*
X71286000Y-62894250D01*
X71444750Y-63053000D01*
X72644000Y-63053000D01*
X72644000Y-61853750D01*
X72898000Y-61853750D01*
X72898000Y-63053000D01*
X74097250Y-63053000D01*
X74256000Y-62894250D01*
X74259072Y-62330000D01*
X74246812Y-62205518D01*
X74210502Y-62085820D01*
X74151537Y-61975506D01*
X74072185Y-61878815D01*
X73975494Y-61799463D01*
X73865180Y-61740498D01*
X73745482Y-61704188D01*
X73621000Y-61691928D01*
X73056750Y-61695000D01*
X72898000Y-61853750D01*
X72644000Y-61853750D01*
X72485250Y-61695000D01*
X71921000Y-61691928D01*
X71796518Y-61704188D01*
X71676820Y-61740498D01*
X71566506Y-61799463D01*
X71469815Y-61878815D01*
X71390463Y-61975506D01*
X71331498Y-62085820D01*
X71295188Y-62205518D01*
X71282928Y-62330000D01*
X51197988Y-62330000D01*
X51197981Y-56027101D01*
X51271374Y-55134409D01*
X51482958Y-54292058D01*
X51829276Y-53495579D01*
X52301028Y-52766360D01*
X52794774Y-52223740D01*
X102190000Y-52223740D01*
X102190000Y-52516260D01*
X102247068Y-52803158D01*
X102359010Y-53073411D01*
X102521525Y-53316632D01*
X102728368Y-53523475D01*
X102971589Y-53685990D01*
X103241842Y-53797932D01*
X103528740Y-53855000D01*
X103821260Y-53855000D01*
X104108158Y-53797932D01*
X104378411Y-53685990D01*
X104621632Y-53523475D01*
X104828475Y-53316632D01*
X104945000Y-53142240D01*
X105061525Y-53316632D01*
X105268368Y-53523475D01*
X105511589Y-53685990D01*
X105781842Y-53797932D01*
X106068740Y-53855000D01*
X106361260Y-53855000D01*
X106648158Y-53797932D01*
X106918411Y-53685990D01*
X107161632Y-53523475D01*
X107368475Y-53316632D01*
X107485000Y-53142240D01*
X107601525Y-53316632D01*
X107808368Y-53523475D01*
X108051589Y-53685990D01*
X108321842Y-53797932D01*
X108608740Y-53855000D01*
X108901260Y-53855000D01*
X109188158Y-53797932D01*
X109458411Y-53685990D01*
X109701632Y-53523475D01*
X109908475Y-53316632D01*
X110025000Y-53142240D01*
X110141525Y-53316632D01*
X110348368Y-53523475D01*
X110591589Y-53685990D01*
X110861842Y-53797932D01*
X111148740Y-53855000D01*
X111441260Y-53855000D01*
X111728158Y-53797932D01*
X111998411Y-53685990D01*
X112241632Y-53523475D01*
X112448475Y-53316632D01*
X112565000Y-53142240D01*
X112681525Y-53316632D01*
X112888368Y-53523475D01*
X113131589Y-53685990D01*
X113401842Y-53797932D01*
X113688740Y-53855000D01*
X113981260Y-53855000D01*
X114268158Y-53797932D01*
X114538411Y-53685990D01*
X114781632Y-53523475D01*
X114988475Y-53316632D01*
X115105000Y-53142240D01*
X115221525Y-53316632D01*
X115428368Y-53523475D01*
X115671589Y-53685990D01*
X115941842Y-53797932D01*
X116228740Y-53855000D01*
X116521260Y-53855000D01*
X116808158Y-53797932D01*
X117078411Y-53685990D01*
X117321632Y-53523475D01*
X117528475Y-53316632D01*
X117645000Y-53142240D01*
X117761525Y-53316632D01*
X117968368Y-53523475D01*
X118211589Y-53685990D01*
X118481842Y-53797932D01*
X118768740Y-53855000D01*
X119061260Y-53855000D01*
X119348158Y-53797932D01*
X119618411Y-53685990D01*
X119861632Y-53523475D01*
X120068475Y-53316632D01*
X120185000Y-53142240D01*
X120301525Y-53316632D01*
X120508368Y-53523475D01*
X120751589Y-53685990D01*
X121021842Y-53797932D01*
X121308740Y-53855000D01*
X121601260Y-53855000D01*
X121888158Y-53797932D01*
X122158411Y-53685990D01*
X122401632Y-53523475D01*
X122608475Y-53316632D01*
X122770990Y-53073411D01*
X122882932Y-52803158D01*
X122940000Y-52516260D01*
X122940000Y-52223740D01*
X122882932Y-51936842D01*
X122770990Y-51666589D01*
X122608475Y-51423368D01*
X122401632Y-51216525D01*
X122158411Y-51054010D01*
X121888158Y-50942068D01*
X121601260Y-50885000D01*
X121308740Y-50885000D01*
X121021842Y-50942068D01*
X120751589Y-51054010D01*
X120508368Y-51216525D01*
X120301525Y-51423368D01*
X120185000Y-51597760D01*
X120068475Y-51423368D01*
X119861632Y-51216525D01*
X119618411Y-51054010D01*
X119348158Y-50942068D01*
X119061260Y-50885000D01*
X118768740Y-50885000D01*
X118481842Y-50942068D01*
X118211589Y-51054010D01*
X117968368Y-51216525D01*
X117761525Y-51423368D01*
X117645000Y-51597760D01*
X117528475Y-51423368D01*
X117321632Y-51216525D01*
X117078411Y-51054010D01*
X116808158Y-50942068D01*
X116521260Y-50885000D01*
X116228740Y-50885000D01*
X115941842Y-50942068D01*
X115671589Y-51054010D01*
X115428368Y-51216525D01*
X115221525Y-51423368D01*
X115105000Y-51597760D01*
X114988475Y-51423368D01*
X114781632Y-51216525D01*
X114538411Y-51054010D01*
X114268158Y-50942068D01*
X113981260Y-50885000D01*
X113688740Y-50885000D01*
X113401842Y-50942068D01*
X113131589Y-51054010D01*
X112888368Y-51216525D01*
X112681525Y-51423368D01*
X112565000Y-51597760D01*
X112448475Y-51423368D01*
X112241632Y-51216525D01*
X111998411Y-51054010D01*
X111728158Y-50942068D01*
X111441260Y-50885000D01*
X111148740Y-50885000D01*
X110861842Y-50942068D01*
X110591589Y-51054010D01*
X110348368Y-51216525D01*
X110141525Y-51423368D01*
X110025000Y-51597760D01*
X109908475Y-51423368D01*
X109701632Y-51216525D01*
X109458411Y-51054010D01*
X109188158Y-50942068D01*
X108901260Y-50885000D01*
X108608740Y-50885000D01*
X108321842Y-50942068D01*
X108051589Y-51054010D01*
X107808368Y-51216525D01*
X107601525Y-51423368D01*
X107485000Y-51597760D01*
X107368475Y-51423368D01*
X107161632Y-51216525D01*
X106918411Y-51054010D01*
X106648158Y-50942068D01*
X106361260Y-50885000D01*
X106068740Y-50885000D01*
X105781842Y-50942068D01*
X105511589Y-51054010D01*
X105268368Y-51216525D01*
X105061525Y-51423368D01*
X104945000Y-51597760D01*
X104828475Y-51423368D01*
X104621632Y-51216525D01*
X104378411Y-51054010D01*
X104108158Y-50942068D01*
X103821260Y-50885000D01*
X103528740Y-50885000D01*
X103241842Y-50942068D01*
X102971589Y-51054010D01*
X102728368Y-51216525D01*
X102521525Y-51423368D01*
X102359010Y-51666589D01*
X102247068Y-51936842D01*
X102190000Y-52223740D01*
X52794774Y-52223740D01*
X52885550Y-52123979D01*
X53567137Y-51585694D01*
X54327495Y-51165953D01*
X55146188Y-50876039D01*
X56012235Y-50721772D01*
X56530140Y-50698001D01*
X163472898Y-50697981D01*
X164365591Y-50771374D01*
G37*
X164365591Y-50771374D02*
X165207942Y-50982958D01*
X166004421Y-51329276D01*
X166733640Y-51801028D01*
X167376021Y-52385550D01*
X167914306Y-53067137D01*
X168334047Y-53827495D01*
X168623961Y-54646188D01*
X168778228Y-55512235D01*
X168801999Y-56030141D01*
X168802019Y-77972899D01*
X168728626Y-78865591D01*
X168517042Y-79707942D01*
X168170724Y-80504421D01*
X167698972Y-81233640D01*
X167114447Y-81876023D01*
X166432863Y-82414306D01*
X165672505Y-82834047D01*
X164853811Y-83123962D01*
X163987765Y-83278228D01*
X163469860Y-83301999D01*
X56527102Y-83302019D01*
X55634409Y-83228626D01*
X54792058Y-83017042D01*
X53995579Y-82670724D01*
X53266360Y-82198972D01*
X52623977Y-81614447D01*
X52520751Y-81483740D01*
X102190000Y-81483740D01*
X102190000Y-81776260D01*
X102247068Y-82063158D01*
X102359010Y-82333411D01*
X102521525Y-82576632D01*
X102728368Y-82783475D01*
X102971589Y-82945990D01*
X103241842Y-83057932D01*
X103528740Y-83115000D01*
X103821260Y-83115000D01*
X104108158Y-83057932D01*
X104378411Y-82945990D01*
X104621632Y-82783475D01*
X104753487Y-82651620D01*
X104775498Y-82724180D01*
X104834463Y-82834494D01*
X104913815Y-82931185D01*
X105010506Y-83010537D01*
X105120820Y-83069502D01*
X105240518Y-83105812D01*
X105365000Y-83118072D01*
X105929250Y-83115000D01*
X106088000Y-82956250D01*
X106088000Y-81757000D01*
X106068000Y-81757000D01*
X106068000Y-81503000D01*
X106088000Y-81503000D01*
X106088000Y-80303750D01*
X106342000Y-80303750D01*
X106342000Y-81503000D01*
X106362000Y-81503000D01*
X106362000Y-81757000D01*
X106342000Y-81757000D01*
X106342000Y-82956250D01*
X106500750Y-83115000D01*
X107065000Y-83118072D01*
X107189482Y-83105812D01*
X107309180Y-83069502D01*
X107419494Y-83010537D01*
X107516185Y-82931185D01*
X107595537Y-82834494D01*
X107654502Y-82724180D01*
X107676513Y-82651620D01*
X107808368Y-82783475D01*
X108051589Y-82945990D01*
X108321842Y-83057932D01*
X108608740Y-83115000D01*
X108901260Y-83115000D01*
X109188158Y-83057932D01*
X109458411Y-82945990D01*
X109701632Y-82783475D01*
X109908475Y-82576632D01*
X110025000Y-82402240D01*
X110141525Y-82576632D01*
X110348368Y-82783475D01*
X110591589Y-82945990D01*
X110861842Y-83057932D01*
X111148740Y-83115000D01*
X111441260Y-83115000D01*
X111728158Y-83057932D01*
X111998411Y-82945990D01*
X112241632Y-82783475D01*
X112448475Y-82576632D01*
X112565000Y-82402240D01*
X112681525Y-82576632D01*
X112888368Y-82783475D01*
X113131589Y-82945990D01*
X113401842Y-83057932D01*
X113688740Y-83115000D01*
X113981260Y-83115000D01*
X114268158Y-83057932D01*
X114538411Y-82945990D01*
X114781632Y-82783475D01*
X114988475Y-82576632D01*
X115105000Y-82402240D01*
X115221525Y-82576632D01*
X115428368Y-82783475D01*
X115671589Y-82945990D01*
X115941842Y-83057932D01*
X116228740Y-83115000D01*
X116521260Y-83115000D01*
X116808158Y-83057932D01*
X117078411Y-82945990D01*
X117321632Y-82783475D01*
X117528475Y-82576632D01*
X117645000Y-82402240D01*
X117761525Y-82576632D01*
X117968368Y-82783475D01*
X118211589Y-82945990D01*
X118481842Y-83057932D01*
X118768740Y-83115000D01*
X119061260Y-83115000D01*
X119348158Y-83057932D01*
X119618411Y-82945990D01*
X119861632Y-82783475D01*
X120068475Y-82576632D01*
X120185000Y-82402240D01*
X120301525Y-82576632D01*
X120508368Y-82783475D01*
X120751589Y-82945990D01*
X121021842Y-83057932D01*
X121308740Y-83115000D01*
X121601260Y-83115000D01*
X121888158Y-83057932D01*
X122158411Y-82945990D01*
X122401632Y-82783475D01*
X122608475Y-82576632D01*
X122770990Y-82333411D01*
X122882932Y-82063158D01*
X122940000Y-81776260D01*
X122940000Y-81483740D01*
X122882932Y-81196842D01*
X122770990Y-80926589D01*
X122608475Y-80683368D01*
X122401632Y-80476525D01*
X122158411Y-80314010D01*
X121888158Y-80202068D01*
X121601260Y-80145000D01*
X121308740Y-80145000D01*
X121021842Y-80202068D01*
X120751589Y-80314010D01*
X120508368Y-80476525D01*
X120301525Y-80683368D01*
X120185000Y-80857760D01*
X120068475Y-80683368D01*
X119861632Y-80476525D01*
X119618411Y-80314010D01*
X119348158Y-80202068D01*
X119061260Y-80145000D01*
X118768740Y-80145000D01*
X118481842Y-80202068D01*
X118211589Y-80314010D01*
X117968368Y-80476525D01*
X117761525Y-80683368D01*
X117645000Y-80857760D01*
X117528475Y-80683368D01*
X117321632Y-80476525D01*
X117078411Y-80314010D01*
X116808158Y-80202068D01*
X116521260Y-80145000D01*
X116228740Y-80145000D01*
X115941842Y-80202068D01*
X115671589Y-80314010D01*
X115428368Y-80476525D01*
X115221525Y-80683368D01*
X115105000Y-80857760D01*
X114988475Y-80683368D01*
X114781632Y-80476525D01*
X114538411Y-80314010D01*
X114268158Y-80202068D01*
X113981260Y-80145000D01*
X113688740Y-80145000D01*
X113401842Y-80202068D01*
X113131589Y-80314010D01*
X112888368Y-80476525D01*
X112681525Y-80683368D01*
X112565000Y-80857760D01*
X112448475Y-80683368D01*
X112241632Y-80476525D01*
X111998411Y-80314010D01*
X111728158Y-80202068D01*
X111441260Y-80145000D01*
X111148740Y-80145000D01*
X110861842Y-80202068D01*
X110591589Y-80314010D01*
X110348368Y-80476525D01*
X110141525Y-80683368D01*
X110025000Y-80857760D01*
X109908475Y-80683368D01*
X109701632Y-80476525D01*
X109458411Y-80314010D01*
X109188158Y-80202068D01*
X108901260Y-80145000D01*
X108608740Y-80145000D01*
X108321842Y-80202068D01*
X108051589Y-80314010D01*
X107808368Y-80476525D01*
X107676513Y-80608380D01*
X107654502Y-80535820D01*
X107595537Y-80425506D01*
X107516185Y-80328815D01*
X107419494Y-80249463D01*
X107309180Y-80190498D01*
X107189482Y-80154188D01*
X107065000Y-80141928D01*
X106500750Y-80145000D01*
X106342000Y-80303750D01*
X106088000Y-80303750D01*
X105929250Y-80145000D01*
X105365000Y-80141928D01*
X105240518Y-80154188D01*
X105120820Y-80190498D01*
X105010506Y-80249463D01*
X104913815Y-80328815D01*
X104834463Y-80425506D01*
X104775498Y-80535820D01*
X104753487Y-80608380D01*
X104621632Y-80476525D01*
X104378411Y-80314010D01*
X104108158Y-80202068D01*
X103821260Y-80145000D01*
X103528740Y-80145000D01*
X103241842Y-80202068D01*
X102971589Y-80314010D01*
X102728368Y-80476525D01*
X102521525Y-80683368D01*
X102359010Y-80926589D01*
X102247068Y-81196842D01*
X102190000Y-81483740D01*
X52520751Y-81483740D01*
X52085694Y-80932863D01*
X51665953Y-80172505D01*
X51376038Y-79353811D01*
X51221772Y-78487765D01*
X51206706Y-78159508D01*
X102240000Y-78159508D01*
X102240000Y-78700491D01*
X102260764Y-78911308D01*
X102342818Y-79181807D01*
X102476068Y-79431100D01*
X102655392Y-79649607D01*
X102873899Y-79828932D01*
X103123192Y-79962182D01*
X103393691Y-80044236D01*
X103675000Y-80071943D01*
X103956308Y-80044236D01*
X104226807Y-79962182D01*
X104476100Y-79828932D01*
X104694607Y-79649608D01*
X104787419Y-79536517D01*
X104789188Y-79554482D01*
X104825498Y-79674180D01*
X104884463Y-79784494D01*
X104963815Y-79881185D01*
X105060506Y-79960537D01*
X105170820Y-80019502D01*
X105290518Y-80055812D01*
X105415000Y-80068072D01*
X105929250Y-80065000D01*
X106088000Y-79906250D01*
X106088000Y-78557000D01*
X106068000Y-78557000D01*
X106068000Y-78303000D01*
X106088000Y-78303000D01*
X106088000Y-76953750D01*
X106342000Y-76953750D01*
X106342000Y-78303000D01*
X106362000Y-78303000D01*
X106362000Y-78557000D01*
X106342000Y-78557000D01*
X106342000Y-79906250D01*
X106500750Y-80065000D01*
X107015000Y-80068072D01*
X107139482Y-80055812D01*
X107259180Y-80019502D01*
X107369494Y-79960537D01*
X107466185Y-79881185D01*
X107545537Y-79784494D01*
X107604502Y-79674180D01*
X107640812Y-79554482D01*
X107642581Y-79536517D01*
X107735392Y-79649607D01*
X107953899Y-79828932D01*
X108203192Y-79962182D01*
X108473691Y-80044236D01*
X108755000Y-80071943D01*
X109036308Y-80044236D01*
X109306807Y-79962182D01*
X109556100Y-79828932D01*
X109774607Y-79649608D01*
X109953932Y-79431101D01*
X110025000Y-79298142D01*
X110096068Y-79431100D01*
X110275392Y-79649607D01*
X110493899Y-79828932D01*
X110743192Y-79962182D01*
X111013691Y-80044236D01*
X111295000Y-80071943D01*
X111576308Y-80044236D01*
X111846807Y-79962182D01*
X112096100Y-79828932D01*
X112314607Y-79649608D01*
X112493932Y-79431101D01*
X112565000Y-79298142D01*
X112636068Y-79431100D01*
X112815392Y-79649607D01*
X113033899Y-79828932D01*
X113283192Y-79962182D01*
X113553691Y-80044236D01*
X113835000Y-80071943D01*
X114116308Y-80044236D01*
X114386807Y-79962182D01*
X114636100Y-79828932D01*
X114854607Y-79649608D01*
X115033932Y-79431101D01*
X115105000Y-79298142D01*
X115176068Y-79431100D01*
X115355392Y-79649607D01*
X115573899Y-79828932D01*
X115823192Y-79962182D01*
X116093691Y-80044236D01*
X116375000Y-80071943D01*
X116656308Y-80044236D01*
X116926807Y-79962182D01*
X117176100Y-79828932D01*
X117394607Y-79649608D01*
X117573932Y-79431101D01*
X117645000Y-79298142D01*
X117716068Y-79431100D01*
X117895392Y-79649607D01*
X118113899Y-79828932D01*
X118363192Y-79962182D01*
X118633691Y-80044236D01*
X118915000Y-80071943D01*
X119196308Y-80044236D01*
X119466807Y-79962182D01*
X119716100Y-79828932D01*
X119934607Y-79649608D01*
X120113932Y-79431101D01*
X120185000Y-79298142D01*
X120256068Y-79431100D01*
X120435392Y-79649607D01*
X120653899Y-79828932D01*
X120903192Y-79962182D01*
X121173691Y-80044236D01*
X121455000Y-80071943D01*
X121736308Y-80044236D01*
X122006807Y-79962182D01*
X122256100Y-79828932D01*
X122474607Y-79649608D01*
X122653932Y-79431101D01*
X122787182Y-79181808D01*
X122869236Y-78911309D01*
X122890000Y-78700492D01*
X122890000Y-78159509D01*
X122869236Y-77948692D01*
X122787182Y-77678193D01*
X122653932Y-77428899D01*
X122474608Y-77210392D01*
X122256101Y-77031068D01*
X122006808Y-76897818D01*
X121736309Y-76815764D01*
X121455000Y-76788057D01*
X121173692Y-76815764D01*
X120903193Y-76897818D01*
X120653900Y-77031068D01*
X120435393Y-77210392D01*
X120256068Y-77428899D01*
X120185000Y-77561858D01*
X120113932Y-77428899D01*
X119934608Y-77210392D01*
X119716101Y-77031068D01*
X119466808Y-76897818D01*
X119196309Y-76815764D01*
X118915000Y-76788057D01*
X118633692Y-76815764D01*
X118363193Y-76897818D01*
X118113900Y-77031068D01*
X117895393Y-77210392D01*
X117716068Y-77428899D01*
X117645000Y-77561858D01*
X117573932Y-77428899D01*
X117394608Y-77210392D01*
X117176101Y-77031068D01*
X116926808Y-76897818D01*
X116656309Y-76815764D01*
X116375000Y-76788057D01*
X116093692Y-76815764D01*
X115823193Y-76897818D01*
X115573900Y-77031068D01*
X115355393Y-77210392D01*
X115176068Y-77428899D01*
X115105000Y-77561858D01*
X115033932Y-77428899D01*
X114854608Y-77210392D01*
X114636101Y-77031068D01*
X114386808Y-76897818D01*
X114116309Y-76815764D01*
X113835000Y-76788057D01*
X113553692Y-76815764D01*
X113283193Y-76897818D01*
X113033900Y-77031068D01*
X112815393Y-77210392D01*
X112636068Y-77428899D01*
X112565000Y-77561858D01*
X112493932Y-77428899D01*
X112314608Y-77210392D01*
X112096101Y-77031068D01*
X111846808Y-76897818D01*
X111576309Y-76815764D01*
X111295000Y-76788057D01*
X111013692Y-76815764D01*
X110743193Y-76897818D01*
X110493900Y-77031068D01*
X110275393Y-77210392D01*
X110096068Y-77428899D01*
X110025000Y-77561858D01*
X109953932Y-77428899D01*
X109774608Y-77210392D01*
X109556101Y-77031068D01*
X109306808Y-76897818D01*
X109036309Y-76815764D01*
X108755000Y-76788057D01*
X108473692Y-76815764D01*
X108203193Y-76897818D01*
X107953900Y-77031068D01*
X107735393Y-77210392D01*
X107642581Y-77323483D01*
X107640812Y-77305518D01*
X107604502Y-77185820D01*
X107545537Y-77075506D01*
X107466185Y-76978815D01*
X107369494Y-76899463D01*
X107259180Y-76840498D01*
X107139482Y-76804188D01*
X107015000Y-76791928D01*
X106500750Y-76795000D01*
X106342000Y-76953750D01*
X106088000Y-76953750D01*
X105929250Y-76795000D01*
X105415000Y-76791928D01*
X105290518Y-76804188D01*
X105170820Y-76840498D01*
X105060506Y-76899463D01*
X104963815Y-76978815D01*
X104884463Y-77075506D01*
X104825498Y-77185820D01*
X104789188Y-77305518D01*
X104787419Y-77323482D01*
X104694608Y-77210392D01*
X104476101Y-77031068D01*
X104226808Y-76897818D01*
X103956309Y-76815764D01*
X103675000Y-76788057D01*
X103393692Y-76815764D01*
X103123193Y-76897818D01*
X102873900Y-77031068D01*
X102655393Y-77210392D01*
X102476068Y-77428899D01*
X102342818Y-77678192D01*
X102260764Y-77948691D01*
X102240000Y-78159508D01*
X51206706Y-78159508D01*
X51198001Y-77969859D01*
X51198000Y-75875000D01*
X132953057Y-75875000D01*
X132980764Y-76156309D01*
X133062818Y-76426808D01*
X133196068Y-76676101D01*
X133375392Y-76894608D01*
X133593899Y-77073932D01*
X133843192Y-77207182D01*
X134113691Y-77289236D01*
X134324508Y-77310000D01*
X135265492Y-77310000D01*
X135476309Y-77289236D01*
X135746808Y-77207182D01*
X135996101Y-77073932D01*
X136214608Y-76894608D01*
X136393932Y-76676101D01*
X136527182Y-76426808D01*
X136609236Y-76156309D01*
X136636943Y-75875000D01*
X136609236Y-75593691D01*
X136527182Y-75323192D01*
X136393932Y-75073899D01*
X136214608Y-74855392D01*
X136101518Y-74762581D01*
X136119482Y-74760812D01*
X136239180Y-74724502D01*
X136349494Y-74665537D01*
X136446185Y-74586185D01*
X136525537Y-74489494D01*
X136584502Y-74379180D01*
X136620812Y-74259482D01*
X136633072Y-74135000D01*
X136630000Y-73620750D01*
X136471250Y-73462000D01*
X134922000Y-73462000D01*
X134922000Y-73482000D01*
X134668000Y-73482000D01*
X134668000Y-73462000D01*
X133118750Y-73462000D01*
X132960000Y-73620750D01*
X132956928Y-74135000D01*
X132969188Y-74259482D01*
X133005498Y-74379180D01*
X133064463Y-74489494D01*
X133143815Y-74586185D01*
X133240506Y-74665537D01*
X133350820Y-74724502D01*
X133470518Y-74760812D01*
X133488482Y-74762581D01*
X133375392Y-74855392D01*
X133196068Y-75073899D01*
X133062818Y-75323192D01*
X132980764Y-75593691D01*
X132953057Y-75875000D01*
X51198000Y-75875000D01*
X51197989Y-64030000D01*
X71282928Y-64030000D01*
X71295188Y-64154482D01*
X71331498Y-64274180D01*
X71390463Y-64384494D01*
X71469815Y-64481185D01*
X71566506Y-64560537D01*
X71676820Y-64619502D01*
X71749380Y-64641513D01*
X71617525Y-64773368D01*
X71455010Y-65016589D01*
X71343068Y-65286842D01*
X71286000Y-65573740D01*
X71286000Y-65866260D01*
X71343068Y-66153158D01*
X71455010Y-66423411D01*
X71617525Y-66666632D01*
X71824368Y-66873475D01*
X71998760Y-66990000D01*
X71824368Y-67106525D01*
X71617525Y-67313368D01*
X71455010Y-67556589D01*
X71343068Y-67826842D01*
X71286000Y-68113740D01*
X71286000Y-68406260D01*
X71343068Y-68693158D01*
X71455010Y-68963411D01*
X71617525Y-69206632D01*
X71824368Y-69413475D01*
X71998760Y-69530000D01*
X71824368Y-69646525D01*
X71617525Y-69853368D01*
X71455010Y-70096589D01*
X71343068Y-70366842D01*
X71286000Y-70653740D01*
X71286000Y-70946260D01*
X71343068Y-71233158D01*
X71455010Y-71503411D01*
X71617525Y-71746632D01*
X71824368Y-71953475D01*
X72067589Y-72115990D01*
X72337842Y-72227932D01*
X72624740Y-72285000D01*
X72917260Y-72285000D01*
X73204158Y-72227932D01*
X73474411Y-72115990D01*
X73717632Y-71953475D01*
X73924475Y-71746632D01*
X74086990Y-71503411D01*
X74198932Y-71233158D01*
X74256000Y-70946260D01*
X74256000Y-70653740D01*
X74198932Y-70366842D01*
X74086990Y-70096589D01*
X73924475Y-69853368D01*
X73717632Y-69646525D01*
X73543240Y-69530000D01*
X73717632Y-69413475D01*
X73924475Y-69206632D01*
X74086990Y-68963411D01*
X74198932Y-68693158D01*
X74256000Y-68406260D01*
X74256000Y-68113740D01*
X74198932Y-67826842D01*
X74086990Y-67556589D01*
X73924475Y-67313368D01*
X73717632Y-67106525D01*
X73543240Y-66990000D01*
X73695576Y-66888212D01*
X99773000Y-66888212D01*
X99773000Y-67111788D01*
X99816617Y-67331067D01*
X99902176Y-67537624D01*
X100026388Y-67723520D01*
X100184480Y-67881612D01*
X100370376Y-68005824D01*
X100576933Y-68091383D01*
X100796212Y-68135000D01*
X101019788Y-68135000D01*
X101239067Y-68091383D01*
X101375187Y-68035000D01*
X102875172Y-68035000D01*
X102926000Y-68040006D01*
X102976828Y-68035000D01*
X102976838Y-68035000D01*
X103128895Y-68020024D01*
X103323993Y-67960841D01*
X103503797Y-67864734D01*
X103661396Y-67735396D01*
X103693807Y-67695903D01*
X104370908Y-67018803D01*
X104410396Y-66986396D01*
X104469866Y-66913932D01*
X104539734Y-66828798D01*
X104625183Y-66668933D01*
X104635841Y-66648993D01*
X104695024Y-66453895D01*
X104710000Y-66301838D01*
X104710000Y-66301836D01*
X104715007Y-66251000D01*
X104710000Y-66200165D01*
X104710000Y-58095000D01*
X132953057Y-58095000D01*
X132980764Y-58376309D01*
X133062818Y-58646808D01*
X133196068Y-58896101D01*
X133375392Y-59114608D01*
X133593899Y-59293932D01*
X133726858Y-59365000D01*
X133593899Y-59436068D01*
X133375392Y-59615392D01*
X133196068Y-59833899D01*
X133062818Y-60083192D01*
X132980764Y-60353691D01*
X132953057Y-60635000D01*
X132980764Y-60916309D01*
X133062818Y-61186808D01*
X133196068Y-61436101D01*
X133375392Y-61654608D01*
X133593899Y-61833932D01*
X133726858Y-61905000D01*
X133593899Y-61976068D01*
X133375392Y-62155392D01*
X133196068Y-62373899D01*
X133062818Y-62623192D01*
X132980764Y-62893691D01*
X132953057Y-63175000D01*
X132980764Y-63456309D01*
X133062818Y-63726808D01*
X133196068Y-63976101D01*
X133375392Y-64194608D01*
X133593899Y-64373932D01*
X133726858Y-64445000D01*
X133593899Y-64516068D01*
X133375392Y-64695392D01*
X133196068Y-64913899D01*
X133062818Y-65163192D01*
X132980764Y-65433691D01*
X132953057Y-65715000D01*
X132980764Y-65996309D01*
X133062818Y-66266808D01*
X133196068Y-66516101D01*
X133375392Y-66734608D01*
X133593899Y-66913932D01*
X133726858Y-66985000D01*
X133593899Y-67056068D01*
X133375392Y-67235392D01*
X133196068Y-67453899D01*
X133062818Y-67703192D01*
X132980764Y-67973691D01*
X132953057Y-68255000D01*
X132980764Y-68536309D01*
X133062818Y-68806808D01*
X133196068Y-69056101D01*
X133375392Y-69274608D01*
X133593899Y-69453932D01*
X133726858Y-69525000D01*
X133593899Y-69596068D01*
X133375392Y-69775392D01*
X133196068Y-69993899D01*
X133062818Y-70243192D01*
X132980764Y-70513691D01*
X132953057Y-70795000D01*
X132980764Y-71076309D01*
X133062818Y-71346808D01*
X133196068Y-71596101D01*
X133375392Y-71814608D01*
X133488482Y-71907419D01*
X133470518Y-71909188D01*
X133350820Y-71945498D01*
X133240506Y-72004463D01*
X133143815Y-72083815D01*
X133064463Y-72180506D01*
X133005498Y-72290820D01*
X132969188Y-72410518D01*
X132956928Y-72535000D01*
X132960000Y-73049250D01*
X133118750Y-73208000D01*
X134668000Y-73208000D01*
X134668000Y-73188000D01*
X134922000Y-73188000D01*
X134922000Y-73208000D01*
X136471250Y-73208000D01*
X136630000Y-73049250D01*
X136633072Y-72535000D01*
X136620812Y-72410518D01*
X136584502Y-72290820D01*
X136525537Y-72180506D01*
X136446185Y-72083815D01*
X136349494Y-72004463D01*
X136239180Y-71945498D01*
X136119482Y-71909188D01*
X136101518Y-71907419D01*
X136214608Y-71814608D01*
X136393932Y-71596101D01*
X136527182Y-71346808D01*
X136609236Y-71076309D01*
X136636943Y-70795000D01*
X136609236Y-70513691D01*
X136527182Y-70243192D01*
X136393932Y-69993899D01*
X136214608Y-69775392D01*
X135996101Y-69596068D01*
X135863142Y-69525000D01*
X135996101Y-69453932D01*
X136214608Y-69274608D01*
X136393932Y-69056101D01*
X136527182Y-68806808D01*
X136609236Y-68536309D01*
X136636943Y-68255000D01*
X136609236Y-67973691D01*
X136527182Y-67703192D01*
X136393932Y-67453899D01*
X136214608Y-67235392D01*
X135996101Y-67056068D01*
X135863142Y-66985000D01*
X135996101Y-66913932D01*
X136214608Y-66734608D01*
X136393932Y-66516101D01*
X136527182Y-66266808D01*
X136609236Y-65996309D01*
X136636943Y-65715000D01*
X136609236Y-65433691D01*
X136527182Y-65163192D01*
X136393932Y-64913899D01*
X136214608Y-64695392D01*
X135996101Y-64516068D01*
X135863142Y-64445000D01*
X135996101Y-64373932D01*
X136214608Y-64194608D01*
X136393932Y-63976101D01*
X136527182Y-63726808D01*
X136609236Y-63456309D01*
X136636943Y-63175000D01*
X136609236Y-62893691D01*
X136527182Y-62623192D01*
X136393932Y-62373899D01*
X136214608Y-62155392D01*
X135996101Y-61976068D01*
X135863142Y-61905000D01*
X135996101Y-61833932D01*
X136214608Y-61654608D01*
X136393932Y-61436101D01*
X136527182Y-61186808D01*
X136609236Y-60916309D01*
X136636943Y-60635000D01*
X136609236Y-60353691D01*
X136527182Y-60083192D01*
X136393932Y-59833899D01*
X136214608Y-59615392D01*
X135996101Y-59436068D01*
X135863142Y-59365000D01*
X135996101Y-59293932D01*
X136214608Y-59114608D01*
X136393932Y-58896101D01*
X136527182Y-58646808D01*
X136609236Y-58376309D01*
X136636943Y-58095000D01*
X143113057Y-58095000D01*
X143140764Y-58376309D01*
X143222818Y-58646808D01*
X143356068Y-58896101D01*
X143535392Y-59114608D01*
X143753899Y-59293932D01*
X143886858Y-59365000D01*
X143753899Y-59436068D01*
X143535392Y-59615392D01*
X143356068Y-59833899D01*
X143222818Y-60083192D01*
X143140764Y-60353691D01*
X143113057Y-60635000D01*
X143140764Y-60916309D01*
X143222818Y-61186808D01*
X143356068Y-61436101D01*
X143535392Y-61654608D01*
X143753899Y-61833932D01*
X143886858Y-61905000D01*
X143753899Y-61976068D01*
X143535392Y-62155392D01*
X143356068Y-62373899D01*
X143222818Y-62623192D01*
X143140764Y-62893691D01*
X143113057Y-63175000D01*
X143140764Y-63456309D01*
X143222818Y-63726808D01*
X143356068Y-63976101D01*
X143535392Y-64194608D01*
X143753899Y-64373932D01*
X143886858Y-64445000D01*
X143753899Y-64516068D01*
X143535392Y-64695392D01*
X143356068Y-64913899D01*
X143222818Y-65163192D01*
X143140764Y-65433691D01*
X143113057Y-65715000D01*
X143140764Y-65996309D01*
X143222818Y-66266808D01*
X143356068Y-66516101D01*
X143535392Y-66734608D01*
X143753899Y-66913932D01*
X143886858Y-66985000D01*
X143753899Y-67056068D01*
X143535392Y-67235392D01*
X143356068Y-67453899D01*
X143222818Y-67703192D01*
X143140764Y-67973691D01*
X143113057Y-68255000D01*
X143140764Y-68536309D01*
X143222818Y-68806808D01*
X143356068Y-69056101D01*
X143535392Y-69274608D01*
X143753899Y-69453932D01*
X143886858Y-69525000D01*
X143753899Y-69596068D01*
X143535392Y-69775392D01*
X143356068Y-69993899D01*
X143222818Y-70243192D01*
X143140764Y-70513691D01*
X143113057Y-70795000D01*
X143140764Y-71076309D01*
X143222818Y-71346808D01*
X143356068Y-71596101D01*
X143535392Y-71814608D01*
X143753899Y-71993932D01*
X143886858Y-72065000D01*
X143753899Y-72136068D01*
X143535392Y-72315392D01*
X143356068Y-72533899D01*
X143222818Y-72783192D01*
X143140764Y-73053691D01*
X143113057Y-73335000D01*
X143140764Y-73616309D01*
X143222818Y-73886808D01*
X143356068Y-74136101D01*
X143535392Y-74354608D01*
X143753899Y-74533932D01*
X143886858Y-74605000D01*
X143753899Y-74676068D01*
X143535392Y-74855392D01*
X143356068Y-75073899D01*
X143222818Y-75323192D01*
X143140764Y-75593691D01*
X143113057Y-75875000D01*
X143140764Y-76156309D01*
X143222818Y-76426808D01*
X143356068Y-76676101D01*
X143535392Y-76894608D01*
X143753899Y-77073932D01*
X144003192Y-77207182D01*
X144273691Y-77289236D01*
X144484508Y-77310000D01*
X145425492Y-77310000D01*
X145636309Y-77289236D01*
X145906808Y-77207182D01*
X146156101Y-77073932D01*
X146374608Y-76894608D01*
X146553932Y-76676101D01*
X146687182Y-76426808D01*
X146769236Y-76156309D01*
X146796943Y-75875000D01*
X146769236Y-75593691D01*
X146687182Y-75323192D01*
X146553932Y-75073899D01*
X146374608Y-74855392D01*
X146156101Y-74676068D01*
X146023142Y-74605000D01*
X146156101Y-74533932D01*
X146374608Y-74354608D01*
X146553932Y-74136101D01*
X146687182Y-73886808D01*
X146769236Y-73616309D01*
X146796943Y-73335000D01*
X146769236Y-73053691D01*
X146687182Y-72783192D01*
X146553932Y-72533899D01*
X146374608Y-72315392D01*
X146156101Y-72136068D01*
X146023142Y-72065000D01*
X146156101Y-71993932D01*
X146374608Y-71814608D01*
X146553932Y-71596101D01*
X146687182Y-71346808D01*
X146769236Y-71076309D01*
X146796943Y-70795000D01*
X146769236Y-70513691D01*
X146687182Y-70243192D01*
X146553932Y-69993899D01*
X146374608Y-69775392D01*
X146156101Y-69596068D01*
X146023142Y-69525000D01*
X146156101Y-69453932D01*
X146374608Y-69274608D01*
X146553932Y-69056101D01*
X146687182Y-68806808D01*
X146769236Y-68536309D01*
X146796943Y-68255000D01*
X146769236Y-67973691D01*
X146687182Y-67703192D01*
X146553932Y-67453899D01*
X146374608Y-67235392D01*
X146156101Y-67056068D01*
X146023142Y-66985000D01*
X146156101Y-66913932D01*
X146374608Y-66734608D01*
X146553932Y-66516101D01*
X146687182Y-66266808D01*
X146769236Y-65996309D01*
X146796943Y-65715000D01*
X146769236Y-65433691D01*
X146687182Y-65163192D01*
X146553932Y-64913899D01*
X146374608Y-64695392D01*
X146156101Y-64516068D01*
X146023142Y-64445000D01*
X146156101Y-64373932D01*
X146374608Y-64194608D01*
X146553932Y-63976101D01*
X146687182Y-63726808D01*
X146769236Y-63456309D01*
X146796943Y-63175000D01*
X146769236Y-62893691D01*
X146687182Y-62623192D01*
X146553932Y-62373899D01*
X146374608Y-62155392D01*
X146156101Y-61976068D01*
X146023142Y-61905000D01*
X146156101Y-61833932D01*
X146374608Y-61654608D01*
X146553932Y-61436101D01*
X146687182Y-61186808D01*
X146769236Y-60916309D01*
X146796943Y-60635000D01*
X146769236Y-60353691D01*
X146687182Y-60083192D01*
X146553932Y-59833899D01*
X146374608Y-59615392D01*
X146156101Y-59436068D01*
X146023142Y-59365000D01*
X146156101Y-59293932D01*
X146374608Y-59114608D01*
X146553932Y-58896101D01*
X146687182Y-58646808D01*
X146769236Y-58376309D01*
X146796943Y-58095000D01*
X146769236Y-57813691D01*
X146687182Y-57543192D01*
X146553932Y-57293899D01*
X146374608Y-57075392D01*
X146156101Y-56896068D01*
X145906808Y-56762818D01*
X145636309Y-56680764D01*
X145425492Y-56660000D01*
X144484508Y-56660000D01*
X144273691Y-56680764D01*
X144003192Y-56762818D01*
X143753899Y-56896068D01*
X143535392Y-57075392D01*
X143356068Y-57293899D01*
X143222818Y-57543192D01*
X143140764Y-57813691D01*
X143113057Y-58095000D01*
X136636943Y-58095000D01*
X136609236Y-57813691D01*
X136527182Y-57543192D01*
X136393932Y-57293899D01*
X136214608Y-57075392D01*
X135996101Y-56896068D01*
X135746808Y-56762818D01*
X135476309Y-56680764D01*
X135265492Y-56660000D01*
X134324508Y-56660000D01*
X134113691Y-56680764D01*
X133843192Y-56762818D01*
X133593899Y-56896068D01*
X133375392Y-57075392D01*
X133196068Y-57293899D01*
X133062818Y-57543192D01*
X132980764Y-57813691D01*
X132953057Y-58095000D01*
X104710000Y-58095000D01*
X104710000Y-56770852D01*
X104873932Y-56571101D01*
X104945000Y-56438142D01*
X105016068Y-56571100D01*
X105195392Y-56789607D01*
X105413899Y-56968932D01*
X105663192Y-57102182D01*
X105933691Y-57184236D01*
X106215000Y-57211943D01*
X106496308Y-57184236D01*
X106766807Y-57102182D01*
X107016100Y-56968932D01*
X107234607Y-56789608D01*
X107413932Y-56571101D01*
X107485000Y-56438142D01*
X107556068Y-56571100D01*
X107735392Y-56789607D01*
X107953899Y-56968932D01*
X108203192Y-57102182D01*
X108473691Y-57184236D01*
X108755000Y-57211943D01*
X109036308Y-57184236D01*
X109306807Y-57102182D01*
X109556100Y-56968932D01*
X109774607Y-56789608D01*
X109953932Y-56571101D01*
X110025000Y-56438142D01*
X110096068Y-56571100D01*
X110275392Y-56789607D01*
X110493899Y-56968932D01*
X110743192Y-57102182D01*
X111013691Y-57184236D01*
X111295000Y-57211943D01*
X111576308Y-57184236D01*
X111846807Y-57102182D01*
X112096100Y-56968932D01*
X112314607Y-56789608D01*
X112493932Y-56571101D01*
X112565000Y-56438142D01*
X112636068Y-56571100D01*
X112815392Y-56789607D01*
X113033899Y-56968932D01*
X113283192Y-57102182D01*
X113553691Y-57184236D01*
X113835000Y-57211943D01*
X114116308Y-57184236D01*
X114386807Y-57102182D01*
X114636100Y-56968932D01*
X114854607Y-56789608D01*
X115033932Y-56571101D01*
X115105000Y-56438142D01*
X115176068Y-56571100D01*
X115355392Y-56789607D01*
X115573899Y-56968932D01*
X115823192Y-57102182D01*
X116093691Y-57184236D01*
X116375000Y-57211943D01*
X116656308Y-57184236D01*
X116926807Y-57102182D01*
X117176100Y-56968932D01*
X117394607Y-56789608D01*
X117573932Y-56571101D01*
X117645000Y-56438142D01*
X117716068Y-56571100D01*
X117895392Y-56789607D01*
X118113899Y-56968932D01*
X118363192Y-57102182D01*
X118633691Y-57184236D01*
X118915000Y-57211943D01*
X119196308Y-57184236D01*
X119466807Y-57102182D01*
X119716100Y-56968932D01*
X119934607Y-56789608D01*
X120113932Y-56571101D01*
X120185000Y-56438142D01*
X120256068Y-56571100D01*
X120435392Y-56789607D01*
X120653899Y-56968932D01*
X120903192Y-57102182D01*
X121173691Y-57184236D01*
X121455000Y-57211943D01*
X121736308Y-57184236D01*
X122006807Y-57102182D01*
X122256100Y-56968932D01*
X122474607Y-56789608D01*
X122653932Y-56571101D01*
X122787182Y-56321808D01*
X122869236Y-56051309D01*
X122890000Y-55840492D01*
X122890000Y-55299509D01*
X122869236Y-55088692D01*
X122787182Y-54818193D01*
X122653932Y-54568899D01*
X122474608Y-54350392D01*
X122256101Y-54171068D01*
X122006808Y-54037818D01*
X121736309Y-53955764D01*
X121455000Y-53928057D01*
X121173692Y-53955764D01*
X120903193Y-54037818D01*
X120653900Y-54171068D01*
X120435393Y-54350392D01*
X120256068Y-54568899D01*
X120185000Y-54701858D01*
X120113932Y-54568899D01*
X119934608Y-54350392D01*
X119716101Y-54171068D01*
X119466808Y-54037818D01*
X119196309Y-53955764D01*
X118915000Y-53928057D01*
X118633692Y-53955764D01*
X118363193Y-54037818D01*
X118113900Y-54171068D01*
X117895393Y-54350392D01*
X117716068Y-54568899D01*
X117645000Y-54701858D01*
X117573932Y-54568899D01*
X117394608Y-54350392D01*
X117176101Y-54171068D01*
X116926808Y-54037818D01*
X116656309Y-53955764D01*
X116375000Y-53928057D01*
X116093692Y-53955764D01*
X115823193Y-54037818D01*
X115573900Y-54171068D01*
X115355393Y-54350392D01*
X115176068Y-54568899D01*
X115105000Y-54701858D01*
X115033932Y-54568899D01*
X114854608Y-54350392D01*
X114636101Y-54171068D01*
X114386808Y-54037818D01*
X114116309Y-53955764D01*
X113835000Y-53928057D01*
X113553692Y-53955764D01*
X113283193Y-54037818D01*
X113033900Y-54171068D01*
X112815393Y-54350392D01*
X112636068Y-54568899D01*
X112565000Y-54701858D01*
X112493932Y-54568899D01*
X112314608Y-54350392D01*
X112096101Y-54171068D01*
X111846808Y-54037818D01*
X111576309Y-53955764D01*
X111295000Y-53928057D01*
X111013692Y-53955764D01*
X110743193Y-54037818D01*
X110493900Y-54171068D01*
X110275393Y-54350392D01*
X110096068Y-54568899D01*
X110025000Y-54701858D01*
X109953932Y-54568899D01*
X109774608Y-54350392D01*
X109556101Y-54171068D01*
X109306808Y-54037818D01*
X109036309Y-53955764D01*
X108755000Y-53928057D01*
X108473692Y-53955764D01*
X108203193Y-54037818D01*
X107953900Y-54171068D01*
X107735393Y-54350392D01*
X107556068Y-54568899D01*
X107485000Y-54701858D01*
X107413932Y-54568899D01*
X107234608Y-54350392D01*
X107016101Y-54171068D01*
X106766808Y-54037818D01*
X106496309Y-53955764D01*
X106215000Y-53928057D01*
X105933692Y-53955764D01*
X105663193Y-54037818D01*
X105413900Y-54171068D01*
X105195393Y-54350392D01*
X105016068Y-54568899D01*
X104945000Y-54701858D01*
X104873932Y-54568899D01*
X104694608Y-54350392D01*
X104476101Y-54171068D01*
X104226808Y-54037818D01*
X103956309Y-53955764D01*
X103675000Y-53928057D01*
X103393692Y-53955764D01*
X103123193Y-54037818D01*
X102873900Y-54171068D01*
X102655393Y-54350392D01*
X102476068Y-54568899D01*
X102342818Y-54818192D01*
X102260764Y-55088691D01*
X102240000Y-55299508D01*
X102240000Y-55840491D01*
X102260764Y-56051308D01*
X102342818Y-56321807D01*
X102476068Y-56571100D01*
X102640000Y-56770852D01*
X102640001Y-65524152D01*
X102640000Y-65524162D01*
X102640000Y-65822289D01*
X102497290Y-65965000D01*
X101375187Y-65965000D01*
X101239067Y-65908617D01*
X101019788Y-65865000D01*
X100796212Y-65865000D01*
X100576933Y-65908617D01*
X100370376Y-65994176D01*
X100184480Y-66118388D01*
X100026388Y-66276480D01*
X99902176Y-66462376D01*
X99816617Y-66668933D01*
X99773000Y-66888212D01*
X73695576Y-66888212D01*
X73717632Y-66873475D01*
X73924475Y-66666632D01*
X74086990Y-66423411D01*
X74198932Y-66153158D01*
X74256000Y-65866260D01*
X74256000Y-65573740D01*
X74198932Y-65286842D01*
X74086990Y-65016589D01*
X73924475Y-64773368D01*
X73792620Y-64641513D01*
X73865180Y-64619502D01*
X73975494Y-64560537D01*
X74072185Y-64481185D01*
X74151537Y-64384494D01*
X74210502Y-64274180D01*
X74246812Y-64154482D01*
X74259072Y-64030000D01*
X74256000Y-63465750D01*
X74097250Y-63307000D01*
X72898000Y-63307000D01*
X72898000Y-63327000D01*
X72644000Y-63327000D01*
X72644000Y-63307000D01*
X71444750Y-63307000D01*
X71286000Y-63465750D01*
X71282928Y-64030000D01*
X51197989Y-64030000D01*
X51197988Y-62330000D01*
X71282928Y-62330000D01*
X71286000Y-62894250D01*
X71444750Y-63053000D01*
X72644000Y-63053000D01*
X72644000Y-61853750D01*
X72898000Y-61853750D01*
X72898000Y-63053000D01*
X74097250Y-63053000D01*
X74256000Y-62894250D01*
X74259072Y-62330000D01*
X74246812Y-62205518D01*
X74210502Y-62085820D01*
X74151537Y-61975506D01*
X74072185Y-61878815D01*
X73975494Y-61799463D01*
X73865180Y-61740498D01*
X73745482Y-61704188D01*
X73621000Y-61691928D01*
X73056750Y-61695000D01*
X72898000Y-61853750D01*
X72644000Y-61853750D01*
X72485250Y-61695000D01*
X71921000Y-61691928D01*
X71796518Y-61704188D01*
X71676820Y-61740498D01*
X71566506Y-61799463D01*
X71469815Y-61878815D01*
X71390463Y-61975506D01*
X71331498Y-62085820D01*
X71295188Y-62205518D01*
X71282928Y-62330000D01*
X51197988Y-62330000D01*
X51197981Y-56027101D01*
X51271374Y-55134409D01*
X51482958Y-54292058D01*
X51829276Y-53495579D01*
X52301028Y-52766360D01*
X52794774Y-52223740D01*
X102190000Y-52223740D01*
X102190000Y-52516260D01*
X102247068Y-52803158D01*
X102359010Y-53073411D01*
X102521525Y-53316632D01*
X102728368Y-53523475D01*
X102971589Y-53685990D01*
X103241842Y-53797932D01*
X103528740Y-53855000D01*
X103821260Y-53855000D01*
X104108158Y-53797932D01*
X104378411Y-53685990D01*
X104621632Y-53523475D01*
X104828475Y-53316632D01*
X104945000Y-53142240D01*
X105061525Y-53316632D01*
X105268368Y-53523475D01*
X105511589Y-53685990D01*
X105781842Y-53797932D01*
X106068740Y-53855000D01*
X106361260Y-53855000D01*
X106648158Y-53797932D01*
X106918411Y-53685990D01*
X107161632Y-53523475D01*
X107368475Y-53316632D01*
X107485000Y-53142240D01*
X107601525Y-53316632D01*
X107808368Y-53523475D01*
X108051589Y-53685990D01*
X108321842Y-53797932D01*
X108608740Y-53855000D01*
X108901260Y-53855000D01*
X109188158Y-53797932D01*
X109458411Y-53685990D01*
X109701632Y-53523475D01*
X109908475Y-53316632D01*
X110025000Y-53142240D01*
X110141525Y-53316632D01*
X110348368Y-53523475D01*
X110591589Y-53685990D01*
X110861842Y-53797932D01*
X111148740Y-53855000D01*
X111441260Y-53855000D01*
X111728158Y-53797932D01*
X111998411Y-53685990D01*
X112241632Y-53523475D01*
X112448475Y-53316632D01*
X112565000Y-53142240D01*
X112681525Y-53316632D01*
X112888368Y-53523475D01*
X113131589Y-53685990D01*
X113401842Y-53797932D01*
X113688740Y-53855000D01*
X113981260Y-53855000D01*
X114268158Y-53797932D01*
X114538411Y-53685990D01*
X114781632Y-53523475D01*
X114988475Y-53316632D01*
X115105000Y-53142240D01*
X115221525Y-53316632D01*
X115428368Y-53523475D01*
X115671589Y-53685990D01*
X115941842Y-53797932D01*
X116228740Y-53855000D01*
X116521260Y-53855000D01*
X116808158Y-53797932D01*
X117078411Y-53685990D01*
X117321632Y-53523475D01*
X117528475Y-53316632D01*
X117645000Y-53142240D01*
X117761525Y-53316632D01*
X117968368Y-53523475D01*
X118211589Y-53685990D01*
X118481842Y-53797932D01*
X118768740Y-53855000D01*
X119061260Y-53855000D01*
X119348158Y-53797932D01*
X119618411Y-53685990D01*
X119861632Y-53523475D01*
X120068475Y-53316632D01*
X120185000Y-53142240D01*
X120301525Y-53316632D01*
X120508368Y-53523475D01*
X120751589Y-53685990D01*
X121021842Y-53797932D01*
X121308740Y-53855000D01*
X121601260Y-53855000D01*
X121888158Y-53797932D01*
X122158411Y-53685990D01*
X122401632Y-53523475D01*
X122608475Y-53316632D01*
X122770990Y-53073411D01*
X122882932Y-52803158D01*
X122940000Y-52516260D01*
X122940000Y-52223740D01*
X122882932Y-51936842D01*
X122770990Y-51666589D01*
X122608475Y-51423368D01*
X122401632Y-51216525D01*
X122158411Y-51054010D01*
X121888158Y-50942068D01*
X121601260Y-50885000D01*
X121308740Y-50885000D01*
X121021842Y-50942068D01*
X120751589Y-51054010D01*
X120508368Y-51216525D01*
X120301525Y-51423368D01*
X120185000Y-51597760D01*
X120068475Y-51423368D01*
X119861632Y-51216525D01*
X119618411Y-51054010D01*
X119348158Y-50942068D01*
X119061260Y-50885000D01*
X118768740Y-50885000D01*
X118481842Y-50942068D01*
X118211589Y-51054010D01*
X117968368Y-51216525D01*
X117761525Y-51423368D01*
X117645000Y-51597760D01*
X117528475Y-51423368D01*
X117321632Y-51216525D01*
X117078411Y-51054010D01*
X116808158Y-50942068D01*
X116521260Y-50885000D01*
X116228740Y-50885000D01*
X115941842Y-50942068D01*
X115671589Y-51054010D01*
X115428368Y-51216525D01*
X115221525Y-51423368D01*
X115105000Y-51597760D01*
X114988475Y-51423368D01*
X114781632Y-51216525D01*
X114538411Y-51054010D01*
X114268158Y-50942068D01*
X113981260Y-50885000D01*
X113688740Y-50885000D01*
X113401842Y-50942068D01*
X113131589Y-51054010D01*
X112888368Y-51216525D01*
X112681525Y-51423368D01*
X112565000Y-51597760D01*
X112448475Y-51423368D01*
X112241632Y-51216525D01*
X111998411Y-51054010D01*
X111728158Y-50942068D01*
X111441260Y-50885000D01*
X111148740Y-50885000D01*
X110861842Y-50942068D01*
X110591589Y-51054010D01*
X110348368Y-51216525D01*
X110141525Y-51423368D01*
X110025000Y-51597760D01*
X109908475Y-51423368D01*
X109701632Y-51216525D01*
X109458411Y-51054010D01*
X109188158Y-50942068D01*
X108901260Y-50885000D01*
X108608740Y-50885000D01*
X108321842Y-50942068D01*
X108051589Y-51054010D01*
X107808368Y-51216525D01*
X107601525Y-51423368D01*
X107485000Y-51597760D01*
X107368475Y-51423368D01*
X107161632Y-51216525D01*
X106918411Y-51054010D01*
X106648158Y-50942068D01*
X106361260Y-50885000D01*
X106068740Y-50885000D01*
X105781842Y-50942068D01*
X105511589Y-51054010D01*
X105268368Y-51216525D01*
X105061525Y-51423368D01*
X104945000Y-51597760D01*
X104828475Y-51423368D01*
X104621632Y-51216525D01*
X104378411Y-51054010D01*
X104108158Y-50942068D01*
X103821260Y-50885000D01*
X103528740Y-50885000D01*
X103241842Y-50942068D01*
X102971589Y-51054010D01*
X102728368Y-51216525D01*
X102521525Y-51423368D01*
X102359010Y-51666589D01*
X102247068Y-51936842D01*
X102190000Y-52223740D01*
X52794774Y-52223740D01*
X52885550Y-52123979D01*
X53567137Y-51585694D01*
X54327495Y-51165953D01*
X55146188Y-50876039D01*
X56012235Y-50721772D01*
X56530140Y-50698001D01*
X163472898Y-50697981D01*
X164365591Y-50771374D01*
M02*
