G04 #@! TF.GenerationSoftware,KiCad,Pcbnew,5.1.5+dfsg1-2build2*
G04 #@! TF.CreationDate,2020-06-04T15:42:09+02:00*
G04 #@! TF.ProjectId,termint-wifi,7465726d-696e-4742-9d77-6966692e6b69,rev?*
G04 #@! TF.SameCoordinates,Original*
G04 #@! TF.FileFunction,Soldermask,Bot*
G04 #@! TF.FilePolarity,Negative*
%FSLAX46Y46*%
G04 Gerber Fmt 4.6, Leading zero omitted, Abs format (unit mm)*
G04 Created by KiCad (PCBNEW 5.1.5+dfsg1-2build2) date 2020-06-04 15:42:09*
%MOMM*%
%LPD*%
G04 APERTURE LIST*
%ADD10C,0.100000*%
G04 APERTURE END LIST*
D10*
G36*
X121568512Y-80733927D02*
G01*
X121717812Y-80763624D01*
X121881784Y-80831544D01*
X122029354Y-80930147D01*
X122154853Y-81055646D01*
X122253456Y-81203216D01*
X122321376Y-81367188D01*
X122356000Y-81541259D01*
X122356000Y-81718741D01*
X122321376Y-81892812D01*
X122253456Y-82056784D01*
X122154853Y-82204354D01*
X122029354Y-82329853D01*
X121881784Y-82428456D01*
X121717812Y-82496376D01*
X121568512Y-82526073D01*
X121543742Y-82531000D01*
X121366258Y-82531000D01*
X121341488Y-82526073D01*
X121192188Y-82496376D01*
X121028216Y-82428456D01*
X120880646Y-82329853D01*
X120755147Y-82204354D01*
X120656544Y-82056784D01*
X120588624Y-81892812D01*
X120554000Y-81718741D01*
X120554000Y-81541259D01*
X120588624Y-81367188D01*
X120656544Y-81203216D01*
X120755147Y-81055646D01*
X120880646Y-80930147D01*
X121028216Y-80831544D01*
X121192188Y-80763624D01*
X121341488Y-80733927D01*
X121366258Y-80729000D01*
X121543742Y-80729000D01*
X121568512Y-80733927D01*
G37*
G36*
X106803578Y-80737048D02*
G01*
X106876249Y-80759093D01*
X106943225Y-80794892D01*
X107001930Y-80843070D01*
X107050108Y-80901775D01*
X107085907Y-80968751D01*
X107107952Y-81041422D01*
X107116000Y-81123140D01*
X107116000Y-82136860D01*
X107107952Y-82218578D01*
X107085907Y-82291249D01*
X107050108Y-82358225D01*
X107001930Y-82416930D01*
X106943225Y-82465108D01*
X106876249Y-82500907D01*
X106803578Y-82522952D01*
X106721860Y-82531000D01*
X105708140Y-82531000D01*
X105626422Y-82522952D01*
X105553751Y-82500907D01*
X105486775Y-82465108D01*
X105428070Y-82416930D01*
X105379892Y-82358225D01*
X105344093Y-82291249D01*
X105322048Y-82218578D01*
X105314000Y-82136860D01*
X105314000Y-81123140D01*
X105322048Y-81041422D01*
X105344093Y-80968751D01*
X105379892Y-80901775D01*
X105428070Y-80843070D01*
X105486775Y-80794892D01*
X105553751Y-80759093D01*
X105626422Y-80737048D01*
X105708140Y-80729000D01*
X106721860Y-80729000D01*
X106803578Y-80737048D01*
G37*
G36*
X103788512Y-80733927D02*
G01*
X103937812Y-80763624D01*
X104101784Y-80831544D01*
X104249354Y-80930147D01*
X104374853Y-81055646D01*
X104473456Y-81203216D01*
X104541376Y-81367188D01*
X104576000Y-81541259D01*
X104576000Y-81718741D01*
X104541376Y-81892812D01*
X104473456Y-82056784D01*
X104374853Y-82204354D01*
X104249354Y-82329853D01*
X104101784Y-82428456D01*
X103937812Y-82496376D01*
X103788512Y-82526073D01*
X103763742Y-82531000D01*
X103586258Y-82531000D01*
X103561488Y-82526073D01*
X103412188Y-82496376D01*
X103248216Y-82428456D01*
X103100646Y-82329853D01*
X102975147Y-82204354D01*
X102876544Y-82056784D01*
X102808624Y-81892812D01*
X102774000Y-81718741D01*
X102774000Y-81541259D01*
X102808624Y-81367188D01*
X102876544Y-81203216D01*
X102975147Y-81055646D01*
X103100646Y-80930147D01*
X103248216Y-80831544D01*
X103412188Y-80763624D01*
X103561488Y-80733927D01*
X103586258Y-80729000D01*
X103763742Y-80729000D01*
X103788512Y-80733927D01*
G37*
G36*
X108868512Y-80733927D02*
G01*
X109017812Y-80763624D01*
X109181784Y-80831544D01*
X109329354Y-80930147D01*
X109454853Y-81055646D01*
X109553456Y-81203216D01*
X109621376Y-81367188D01*
X109656000Y-81541259D01*
X109656000Y-81718741D01*
X109621376Y-81892812D01*
X109553456Y-82056784D01*
X109454853Y-82204354D01*
X109329354Y-82329853D01*
X109181784Y-82428456D01*
X109017812Y-82496376D01*
X108868512Y-82526073D01*
X108843742Y-82531000D01*
X108666258Y-82531000D01*
X108641488Y-82526073D01*
X108492188Y-82496376D01*
X108328216Y-82428456D01*
X108180646Y-82329853D01*
X108055147Y-82204354D01*
X107956544Y-82056784D01*
X107888624Y-81892812D01*
X107854000Y-81718741D01*
X107854000Y-81541259D01*
X107888624Y-81367188D01*
X107956544Y-81203216D01*
X108055147Y-81055646D01*
X108180646Y-80930147D01*
X108328216Y-80831544D01*
X108492188Y-80763624D01*
X108641488Y-80733927D01*
X108666258Y-80729000D01*
X108843742Y-80729000D01*
X108868512Y-80733927D01*
G37*
G36*
X111408512Y-80733927D02*
G01*
X111557812Y-80763624D01*
X111721784Y-80831544D01*
X111869354Y-80930147D01*
X111994853Y-81055646D01*
X112093456Y-81203216D01*
X112161376Y-81367188D01*
X112196000Y-81541259D01*
X112196000Y-81718741D01*
X112161376Y-81892812D01*
X112093456Y-82056784D01*
X111994853Y-82204354D01*
X111869354Y-82329853D01*
X111721784Y-82428456D01*
X111557812Y-82496376D01*
X111408512Y-82526073D01*
X111383742Y-82531000D01*
X111206258Y-82531000D01*
X111181488Y-82526073D01*
X111032188Y-82496376D01*
X110868216Y-82428456D01*
X110720646Y-82329853D01*
X110595147Y-82204354D01*
X110496544Y-82056784D01*
X110428624Y-81892812D01*
X110394000Y-81718741D01*
X110394000Y-81541259D01*
X110428624Y-81367188D01*
X110496544Y-81203216D01*
X110595147Y-81055646D01*
X110720646Y-80930147D01*
X110868216Y-80831544D01*
X111032188Y-80763624D01*
X111181488Y-80733927D01*
X111206258Y-80729000D01*
X111383742Y-80729000D01*
X111408512Y-80733927D01*
G37*
G36*
X116488512Y-80733927D02*
G01*
X116637812Y-80763624D01*
X116801784Y-80831544D01*
X116949354Y-80930147D01*
X117074853Y-81055646D01*
X117173456Y-81203216D01*
X117241376Y-81367188D01*
X117276000Y-81541259D01*
X117276000Y-81718741D01*
X117241376Y-81892812D01*
X117173456Y-82056784D01*
X117074853Y-82204354D01*
X116949354Y-82329853D01*
X116801784Y-82428456D01*
X116637812Y-82496376D01*
X116488512Y-82526073D01*
X116463742Y-82531000D01*
X116286258Y-82531000D01*
X116261488Y-82526073D01*
X116112188Y-82496376D01*
X115948216Y-82428456D01*
X115800646Y-82329853D01*
X115675147Y-82204354D01*
X115576544Y-82056784D01*
X115508624Y-81892812D01*
X115474000Y-81718741D01*
X115474000Y-81541259D01*
X115508624Y-81367188D01*
X115576544Y-81203216D01*
X115675147Y-81055646D01*
X115800646Y-80930147D01*
X115948216Y-80831544D01*
X116112188Y-80763624D01*
X116261488Y-80733927D01*
X116286258Y-80729000D01*
X116463742Y-80729000D01*
X116488512Y-80733927D01*
G37*
G36*
X119028512Y-80733927D02*
G01*
X119177812Y-80763624D01*
X119341784Y-80831544D01*
X119489354Y-80930147D01*
X119614853Y-81055646D01*
X119713456Y-81203216D01*
X119781376Y-81367188D01*
X119816000Y-81541259D01*
X119816000Y-81718741D01*
X119781376Y-81892812D01*
X119713456Y-82056784D01*
X119614853Y-82204354D01*
X119489354Y-82329853D01*
X119341784Y-82428456D01*
X119177812Y-82496376D01*
X119028512Y-82526073D01*
X119003742Y-82531000D01*
X118826258Y-82531000D01*
X118801488Y-82526073D01*
X118652188Y-82496376D01*
X118488216Y-82428456D01*
X118340646Y-82329853D01*
X118215147Y-82204354D01*
X118116544Y-82056784D01*
X118048624Y-81892812D01*
X118014000Y-81718741D01*
X118014000Y-81541259D01*
X118048624Y-81367188D01*
X118116544Y-81203216D01*
X118215147Y-81055646D01*
X118340646Y-80930147D01*
X118488216Y-80831544D01*
X118652188Y-80763624D01*
X118801488Y-80733927D01*
X118826258Y-80729000D01*
X119003742Y-80729000D01*
X119028512Y-80733927D01*
G37*
G36*
X113948512Y-80733927D02*
G01*
X114097812Y-80763624D01*
X114261784Y-80831544D01*
X114409354Y-80930147D01*
X114534853Y-81055646D01*
X114633456Y-81203216D01*
X114701376Y-81367188D01*
X114736000Y-81541259D01*
X114736000Y-81718741D01*
X114701376Y-81892812D01*
X114633456Y-82056784D01*
X114534853Y-82204354D01*
X114409354Y-82329853D01*
X114261784Y-82428456D01*
X114097812Y-82496376D01*
X113948512Y-82526073D01*
X113923742Y-82531000D01*
X113746258Y-82531000D01*
X113721488Y-82526073D01*
X113572188Y-82496376D01*
X113408216Y-82428456D01*
X113260646Y-82329853D01*
X113135147Y-82204354D01*
X113036544Y-82056784D01*
X112968624Y-81892812D01*
X112934000Y-81718741D01*
X112934000Y-81541259D01*
X112968624Y-81367188D01*
X113036544Y-81203216D01*
X113135147Y-81055646D01*
X113260646Y-80930147D01*
X113408216Y-80831544D01*
X113572188Y-80763624D01*
X113721488Y-80733927D01*
X113746258Y-80729000D01*
X113923742Y-80729000D01*
X113948512Y-80733927D01*
G37*
G36*
X163346189Y-74210483D02*
G01*
X163346192Y-74210484D01*
X163346191Y-74210484D01*
X163874139Y-74429167D01*
X164349280Y-74746646D01*
X164753354Y-75150720D01*
X165018646Y-75547758D01*
X165070834Y-75625863D01*
X165289517Y-76153811D01*
X165401000Y-76714275D01*
X165401000Y-77285725D01*
X165289517Y-77846189D01*
X165147851Y-78188201D01*
X165070833Y-78374139D01*
X164753354Y-78849280D01*
X164349280Y-79253354D01*
X163874139Y-79570833D01*
X163874138Y-79570834D01*
X163874137Y-79570834D01*
X163346189Y-79789517D01*
X162785725Y-79901000D01*
X162214275Y-79901000D01*
X161653811Y-79789517D01*
X161125863Y-79570834D01*
X161125862Y-79570834D01*
X161125861Y-79570833D01*
X160650720Y-79253354D01*
X160246646Y-78849280D01*
X159929167Y-78374139D01*
X159852149Y-78188201D01*
X159710483Y-77846189D01*
X159599000Y-77285725D01*
X159599000Y-76714275D01*
X159710483Y-76153811D01*
X159929166Y-75625863D01*
X159981354Y-75547758D01*
X160246646Y-75150720D01*
X160650720Y-74746646D01*
X161125861Y-74429167D01*
X161653809Y-74210484D01*
X161653808Y-74210484D01*
X161653811Y-74210483D01*
X162214275Y-74099000D01*
X162785725Y-74099000D01*
X163346189Y-74210483D01*
G37*
G36*
X58346189Y-74210483D02*
G01*
X58346192Y-74210484D01*
X58346191Y-74210484D01*
X58874139Y-74429167D01*
X59349280Y-74746646D01*
X59753354Y-75150720D01*
X60018646Y-75547758D01*
X60070834Y-75625863D01*
X60289517Y-76153811D01*
X60401000Y-76714275D01*
X60401000Y-77285725D01*
X60289517Y-77846189D01*
X60147851Y-78188201D01*
X60070833Y-78374139D01*
X59753354Y-78849280D01*
X59349280Y-79253354D01*
X58874139Y-79570833D01*
X58874138Y-79570834D01*
X58874137Y-79570834D01*
X58346189Y-79789517D01*
X57785725Y-79901000D01*
X57214275Y-79901000D01*
X56653811Y-79789517D01*
X56125863Y-79570834D01*
X56125862Y-79570834D01*
X56125861Y-79570833D01*
X55650720Y-79253354D01*
X55246646Y-78849280D01*
X54929167Y-78374139D01*
X54852149Y-78188201D01*
X54710483Y-77846189D01*
X54599000Y-77285725D01*
X54599000Y-76714275D01*
X54710483Y-76153811D01*
X54929166Y-75625863D01*
X54981354Y-75547758D01*
X55246646Y-75150720D01*
X55650720Y-74746646D01*
X56125861Y-74429167D01*
X56653809Y-74210484D01*
X56653808Y-74210484D01*
X56653811Y-74210483D01*
X57214275Y-74099000D01*
X57785725Y-74099000D01*
X58346189Y-74210483D01*
G37*
G36*
X121621823Y-77391313D02*
G01*
X121782242Y-77439976D01*
X121867875Y-77485748D01*
X121930078Y-77518996D01*
X122059659Y-77625341D01*
X122166004Y-77754922D01*
X122166005Y-77754924D01*
X122245024Y-77902758D01*
X122293687Y-78063178D01*
X122306000Y-78188197D01*
X122306000Y-78671804D01*
X122293687Y-78796823D01*
X122245024Y-78957242D01*
X122192504Y-79055500D01*
X122166004Y-79105078D01*
X122160438Y-79111860D01*
X122059659Y-79234659D01*
X121930077Y-79341005D01*
X121782241Y-79420024D01*
X121621822Y-79468687D01*
X121455000Y-79485117D01*
X121288177Y-79468687D01*
X121127758Y-79420024D01*
X120979924Y-79341005D01*
X120979922Y-79341004D01*
X120850341Y-79234659D01*
X120836942Y-79218332D01*
X120743995Y-79105077D01*
X120664976Y-78957241D01*
X120616313Y-78796822D01*
X120604000Y-78671803D01*
X120604000Y-78188196D01*
X120616313Y-78063177D01*
X120664976Y-77902758D01*
X120743995Y-77754924D01*
X120743996Y-77754922D01*
X120850342Y-77625341D01*
X120979923Y-77518996D01*
X121042126Y-77485748D01*
X121127759Y-77439976D01*
X121288178Y-77391313D01*
X121455000Y-77374883D01*
X121621823Y-77391313D01*
G37*
G36*
X103841823Y-77391313D02*
G01*
X104002242Y-77439976D01*
X104087875Y-77485748D01*
X104150078Y-77518996D01*
X104279659Y-77625341D01*
X104386004Y-77754922D01*
X104386005Y-77754924D01*
X104465024Y-77902758D01*
X104513687Y-78063178D01*
X104526000Y-78188197D01*
X104526000Y-78671804D01*
X104513687Y-78796823D01*
X104465024Y-78957242D01*
X104412504Y-79055500D01*
X104386004Y-79105078D01*
X104380438Y-79111860D01*
X104279659Y-79234659D01*
X104150077Y-79341005D01*
X104002241Y-79420024D01*
X103841822Y-79468687D01*
X103675000Y-79485117D01*
X103508177Y-79468687D01*
X103347758Y-79420024D01*
X103199924Y-79341005D01*
X103199922Y-79341004D01*
X103070341Y-79234659D01*
X103056942Y-79218332D01*
X102963995Y-79105077D01*
X102884976Y-78957241D01*
X102836313Y-78796822D01*
X102824000Y-78671803D01*
X102824000Y-78188196D01*
X102836313Y-78063177D01*
X102884976Y-77902758D01*
X102963995Y-77754924D01*
X102963996Y-77754922D01*
X103070342Y-77625341D01*
X103199923Y-77518996D01*
X103262126Y-77485748D01*
X103347759Y-77439976D01*
X103508178Y-77391313D01*
X103675000Y-77374883D01*
X103841823Y-77391313D01*
G37*
G36*
X108921823Y-77391313D02*
G01*
X109082242Y-77439976D01*
X109167875Y-77485748D01*
X109230078Y-77518996D01*
X109359659Y-77625341D01*
X109466004Y-77754922D01*
X109466005Y-77754924D01*
X109545024Y-77902758D01*
X109593687Y-78063178D01*
X109606000Y-78188197D01*
X109606000Y-78671804D01*
X109593687Y-78796823D01*
X109545024Y-78957242D01*
X109492504Y-79055500D01*
X109466004Y-79105078D01*
X109460438Y-79111860D01*
X109359659Y-79234659D01*
X109230077Y-79341005D01*
X109082241Y-79420024D01*
X108921822Y-79468687D01*
X108755000Y-79485117D01*
X108588177Y-79468687D01*
X108427758Y-79420024D01*
X108279924Y-79341005D01*
X108279922Y-79341004D01*
X108150341Y-79234659D01*
X108136942Y-79218332D01*
X108043995Y-79105077D01*
X107964976Y-78957241D01*
X107916313Y-78796822D01*
X107904000Y-78671803D01*
X107904000Y-78188196D01*
X107916313Y-78063177D01*
X107964976Y-77902758D01*
X108043995Y-77754924D01*
X108043996Y-77754922D01*
X108150342Y-77625341D01*
X108279923Y-77518996D01*
X108342126Y-77485748D01*
X108427759Y-77439976D01*
X108588178Y-77391313D01*
X108755000Y-77374883D01*
X108921823Y-77391313D01*
G37*
G36*
X111461823Y-77391313D02*
G01*
X111622242Y-77439976D01*
X111707875Y-77485748D01*
X111770078Y-77518996D01*
X111899659Y-77625341D01*
X112006004Y-77754922D01*
X112006005Y-77754924D01*
X112085024Y-77902758D01*
X112133687Y-78063178D01*
X112146000Y-78188197D01*
X112146000Y-78671804D01*
X112133687Y-78796823D01*
X112085024Y-78957242D01*
X112032504Y-79055500D01*
X112006004Y-79105078D01*
X112000438Y-79111860D01*
X111899659Y-79234659D01*
X111770077Y-79341005D01*
X111622241Y-79420024D01*
X111461822Y-79468687D01*
X111295000Y-79485117D01*
X111128177Y-79468687D01*
X110967758Y-79420024D01*
X110819924Y-79341005D01*
X110819922Y-79341004D01*
X110690341Y-79234659D01*
X110676942Y-79218332D01*
X110583995Y-79105077D01*
X110504976Y-78957241D01*
X110456313Y-78796822D01*
X110444000Y-78671803D01*
X110444000Y-78188196D01*
X110456313Y-78063177D01*
X110504976Y-77902758D01*
X110583995Y-77754924D01*
X110583996Y-77754922D01*
X110690342Y-77625341D01*
X110819923Y-77518996D01*
X110882126Y-77485748D01*
X110967759Y-77439976D01*
X111128178Y-77391313D01*
X111295000Y-77374883D01*
X111461823Y-77391313D01*
G37*
G36*
X114001823Y-77391313D02*
G01*
X114162242Y-77439976D01*
X114247875Y-77485748D01*
X114310078Y-77518996D01*
X114439659Y-77625341D01*
X114546004Y-77754922D01*
X114546005Y-77754924D01*
X114625024Y-77902758D01*
X114673687Y-78063178D01*
X114686000Y-78188197D01*
X114686000Y-78671804D01*
X114673687Y-78796823D01*
X114625024Y-78957242D01*
X114572504Y-79055500D01*
X114546004Y-79105078D01*
X114540438Y-79111860D01*
X114439659Y-79234659D01*
X114310077Y-79341005D01*
X114162241Y-79420024D01*
X114001822Y-79468687D01*
X113835000Y-79485117D01*
X113668177Y-79468687D01*
X113507758Y-79420024D01*
X113359924Y-79341005D01*
X113359922Y-79341004D01*
X113230341Y-79234659D01*
X113216942Y-79218332D01*
X113123995Y-79105077D01*
X113044976Y-78957241D01*
X112996313Y-78796822D01*
X112984000Y-78671803D01*
X112984000Y-78188196D01*
X112996313Y-78063177D01*
X113044976Y-77902758D01*
X113123995Y-77754924D01*
X113123996Y-77754922D01*
X113230342Y-77625341D01*
X113359923Y-77518996D01*
X113422126Y-77485748D01*
X113507759Y-77439976D01*
X113668178Y-77391313D01*
X113835000Y-77374883D01*
X114001823Y-77391313D01*
G37*
G36*
X116541823Y-77391313D02*
G01*
X116702242Y-77439976D01*
X116787875Y-77485748D01*
X116850078Y-77518996D01*
X116979659Y-77625341D01*
X117086004Y-77754922D01*
X117086005Y-77754924D01*
X117165024Y-77902758D01*
X117213687Y-78063178D01*
X117226000Y-78188197D01*
X117226000Y-78671804D01*
X117213687Y-78796823D01*
X117165024Y-78957242D01*
X117112504Y-79055500D01*
X117086004Y-79105078D01*
X117080438Y-79111860D01*
X116979659Y-79234659D01*
X116850077Y-79341005D01*
X116702241Y-79420024D01*
X116541822Y-79468687D01*
X116375000Y-79485117D01*
X116208177Y-79468687D01*
X116047758Y-79420024D01*
X115899924Y-79341005D01*
X115899922Y-79341004D01*
X115770341Y-79234659D01*
X115756942Y-79218332D01*
X115663995Y-79105077D01*
X115584976Y-78957241D01*
X115536313Y-78796822D01*
X115524000Y-78671803D01*
X115524000Y-78188196D01*
X115536313Y-78063177D01*
X115584976Y-77902758D01*
X115663995Y-77754924D01*
X115663996Y-77754922D01*
X115770342Y-77625341D01*
X115899923Y-77518996D01*
X115962126Y-77485748D01*
X116047759Y-77439976D01*
X116208178Y-77391313D01*
X116375000Y-77374883D01*
X116541823Y-77391313D01*
G37*
G36*
X119081823Y-77391313D02*
G01*
X119242242Y-77439976D01*
X119327875Y-77485748D01*
X119390078Y-77518996D01*
X119519659Y-77625341D01*
X119626004Y-77754922D01*
X119626005Y-77754924D01*
X119705024Y-77902758D01*
X119753687Y-78063178D01*
X119766000Y-78188197D01*
X119766000Y-78671804D01*
X119753687Y-78796823D01*
X119705024Y-78957242D01*
X119652504Y-79055500D01*
X119626004Y-79105078D01*
X119620438Y-79111860D01*
X119519659Y-79234659D01*
X119390077Y-79341005D01*
X119242241Y-79420024D01*
X119081822Y-79468687D01*
X118915000Y-79485117D01*
X118748177Y-79468687D01*
X118587758Y-79420024D01*
X118439924Y-79341005D01*
X118439922Y-79341004D01*
X118310341Y-79234659D01*
X118296942Y-79218332D01*
X118203995Y-79105077D01*
X118124976Y-78957241D01*
X118076313Y-78796822D01*
X118064000Y-78671803D01*
X118064000Y-78188196D01*
X118076313Y-78063177D01*
X118124976Y-77902758D01*
X118203995Y-77754924D01*
X118203996Y-77754922D01*
X118310342Y-77625341D01*
X118439923Y-77518996D01*
X118502126Y-77485748D01*
X118587759Y-77439976D01*
X118748178Y-77391313D01*
X118915000Y-77374883D01*
X119081823Y-77391313D01*
G37*
G36*
X106773698Y-77386568D02*
G01*
X106841685Y-77407192D01*
X106904335Y-77440679D01*
X106959252Y-77485748D01*
X107004321Y-77540665D01*
X107037808Y-77603315D01*
X107058432Y-77671302D01*
X107066000Y-77748140D01*
X107066000Y-79111860D01*
X107058432Y-79188698D01*
X107037808Y-79256685D01*
X107004321Y-79319335D01*
X106959252Y-79374252D01*
X106904335Y-79419321D01*
X106841685Y-79452808D01*
X106773698Y-79473432D01*
X106696860Y-79481000D01*
X105733140Y-79481000D01*
X105656302Y-79473432D01*
X105588315Y-79452808D01*
X105525665Y-79419321D01*
X105470748Y-79374252D01*
X105425679Y-79319335D01*
X105392192Y-79256685D01*
X105371568Y-79188698D01*
X105364000Y-79111860D01*
X105364000Y-77748140D01*
X105371568Y-77671302D01*
X105392192Y-77603315D01*
X105425679Y-77540665D01*
X105470748Y-77485748D01*
X105525665Y-77440679D01*
X105588315Y-77407192D01*
X105656302Y-77386568D01*
X105733140Y-77379000D01*
X106696860Y-77379000D01*
X106773698Y-77386568D01*
G37*
G36*
X145521823Y-75036313D02*
G01*
X145682242Y-75084976D01*
X145805240Y-75150720D01*
X145830078Y-75163996D01*
X145959659Y-75270341D01*
X146066004Y-75399922D01*
X146066005Y-75399924D01*
X146145024Y-75547758D01*
X146193687Y-75708177D01*
X146210117Y-75875000D01*
X146193687Y-76041823D01*
X146145024Y-76202242D01*
X146074114Y-76334906D01*
X146066004Y-76350078D01*
X145959659Y-76479659D01*
X145830078Y-76586004D01*
X145830076Y-76586005D01*
X145682242Y-76665024D01*
X145521823Y-76713687D01*
X145396804Y-76726000D01*
X144513196Y-76726000D01*
X144388177Y-76713687D01*
X144227758Y-76665024D01*
X144079924Y-76586005D01*
X144079922Y-76586004D01*
X143950341Y-76479659D01*
X143843996Y-76350078D01*
X143835886Y-76334906D01*
X143764976Y-76202242D01*
X143716313Y-76041823D01*
X143699883Y-75875000D01*
X143716313Y-75708177D01*
X143764976Y-75547758D01*
X143843995Y-75399924D01*
X143843996Y-75399922D01*
X143950341Y-75270341D01*
X144079922Y-75163996D01*
X144104760Y-75150720D01*
X144227758Y-75084976D01*
X144388177Y-75036313D01*
X144513196Y-75024000D01*
X145396804Y-75024000D01*
X145521823Y-75036313D01*
G37*
G36*
X135361823Y-75036313D02*
G01*
X135522242Y-75084976D01*
X135645240Y-75150720D01*
X135670078Y-75163996D01*
X135799659Y-75270341D01*
X135906004Y-75399922D01*
X135906005Y-75399924D01*
X135985024Y-75547758D01*
X136033687Y-75708177D01*
X136050117Y-75875000D01*
X136033687Y-76041823D01*
X135985024Y-76202242D01*
X135914114Y-76334906D01*
X135906004Y-76350078D01*
X135799659Y-76479659D01*
X135670078Y-76586004D01*
X135670076Y-76586005D01*
X135522242Y-76665024D01*
X135361823Y-76713687D01*
X135236804Y-76726000D01*
X134353196Y-76726000D01*
X134228177Y-76713687D01*
X134067758Y-76665024D01*
X133919924Y-76586005D01*
X133919922Y-76586004D01*
X133790341Y-76479659D01*
X133683996Y-76350078D01*
X133675886Y-76334906D01*
X133604976Y-76202242D01*
X133556313Y-76041823D01*
X133539883Y-75875000D01*
X133556313Y-75708177D01*
X133604976Y-75547758D01*
X133683995Y-75399924D01*
X133683996Y-75399922D01*
X133790341Y-75270341D01*
X133919922Y-75163996D01*
X133944760Y-75150720D01*
X134067758Y-75084976D01*
X134228177Y-75036313D01*
X134353196Y-75024000D01*
X135236804Y-75024000D01*
X135361823Y-75036313D01*
G37*
G36*
X145521823Y-72496313D02*
G01*
X145682242Y-72544976D01*
X145767875Y-72590748D01*
X145830078Y-72623996D01*
X145959659Y-72730341D01*
X146066004Y-72859922D01*
X146066005Y-72859924D01*
X146145024Y-73007758D01*
X146193687Y-73168177D01*
X146210117Y-73335000D01*
X146193687Y-73501823D01*
X146145024Y-73662242D01*
X146092504Y-73760500D01*
X146066004Y-73810078D01*
X145959659Y-73939659D01*
X145830078Y-74046004D01*
X145830076Y-74046005D01*
X145682242Y-74125024D01*
X145521823Y-74173687D01*
X145396804Y-74186000D01*
X144513196Y-74186000D01*
X144388177Y-74173687D01*
X144227758Y-74125024D01*
X144079924Y-74046005D01*
X144079922Y-74046004D01*
X143950341Y-73939659D01*
X143843996Y-73810078D01*
X143817496Y-73760500D01*
X143764976Y-73662242D01*
X143716313Y-73501823D01*
X143699883Y-73335000D01*
X143716313Y-73168177D01*
X143764976Y-73007758D01*
X143843995Y-72859924D01*
X143843996Y-72859922D01*
X143950341Y-72730341D01*
X144079922Y-72623996D01*
X144142125Y-72590748D01*
X144227758Y-72544976D01*
X144388177Y-72496313D01*
X144513196Y-72484000D01*
X145396804Y-72484000D01*
X145521823Y-72496313D01*
G37*
G36*
X135753698Y-72491568D02*
G01*
X135821685Y-72512192D01*
X135884335Y-72545679D01*
X135939252Y-72590748D01*
X135984321Y-72645665D01*
X136017808Y-72708315D01*
X136038432Y-72776302D01*
X136046000Y-72853140D01*
X136046000Y-73816860D01*
X136038432Y-73893698D01*
X136017808Y-73961685D01*
X135984321Y-74024335D01*
X135939252Y-74079252D01*
X135884335Y-74124321D01*
X135821685Y-74157808D01*
X135753698Y-74178432D01*
X135676860Y-74186000D01*
X133913140Y-74186000D01*
X133836302Y-74178432D01*
X133768315Y-74157808D01*
X133705665Y-74124321D01*
X133650748Y-74079252D01*
X133605679Y-74024335D01*
X133572192Y-73961685D01*
X133551568Y-73893698D01*
X133544000Y-73816860D01*
X133544000Y-72853140D01*
X133551568Y-72776302D01*
X133572192Y-72708315D01*
X133605679Y-72645665D01*
X133650748Y-72590748D01*
X133705665Y-72545679D01*
X133768315Y-72512192D01*
X133836302Y-72491568D01*
X133913140Y-72484000D01*
X135676860Y-72484000D01*
X135753698Y-72491568D01*
G37*
G36*
X72884512Y-69903927D02*
G01*
X73033812Y-69933624D01*
X73197784Y-70001544D01*
X73345354Y-70100147D01*
X73470853Y-70225646D01*
X73569456Y-70373216D01*
X73637376Y-70537188D01*
X73672000Y-70711259D01*
X73672000Y-70888741D01*
X73637376Y-71062812D01*
X73569456Y-71226784D01*
X73470853Y-71374354D01*
X73345354Y-71499853D01*
X73197784Y-71598456D01*
X73033812Y-71666376D01*
X72884512Y-71696073D01*
X72859742Y-71701000D01*
X72682258Y-71701000D01*
X72657488Y-71696073D01*
X72508188Y-71666376D01*
X72344216Y-71598456D01*
X72196646Y-71499853D01*
X72071147Y-71374354D01*
X71972544Y-71226784D01*
X71904624Y-71062812D01*
X71870000Y-70888741D01*
X71870000Y-70711259D01*
X71904624Y-70537188D01*
X71972544Y-70373216D01*
X72071147Y-70225646D01*
X72196646Y-70100147D01*
X72344216Y-70001544D01*
X72508188Y-69933624D01*
X72657488Y-69903927D01*
X72682258Y-69899000D01*
X72859742Y-69899000D01*
X72884512Y-69903927D01*
G37*
G36*
X135361823Y-69956313D02*
G01*
X135522242Y-70004976D01*
X135654906Y-70075886D01*
X135670078Y-70083996D01*
X135799659Y-70190341D01*
X135906004Y-70319922D01*
X135906005Y-70319924D01*
X135985024Y-70467758D01*
X136033687Y-70628177D01*
X136050117Y-70795000D01*
X136033687Y-70961823D01*
X135985024Y-71122242D01*
X135929146Y-71226782D01*
X135906004Y-71270078D01*
X135799659Y-71399659D01*
X135670078Y-71506004D01*
X135670076Y-71506005D01*
X135522242Y-71585024D01*
X135361823Y-71633687D01*
X135236804Y-71646000D01*
X134353196Y-71646000D01*
X134228177Y-71633687D01*
X134067758Y-71585024D01*
X133919924Y-71506005D01*
X133919922Y-71506004D01*
X133790341Y-71399659D01*
X133683996Y-71270078D01*
X133660854Y-71226782D01*
X133604976Y-71122242D01*
X133556313Y-70961823D01*
X133539883Y-70795000D01*
X133556313Y-70628177D01*
X133604976Y-70467758D01*
X133683995Y-70319924D01*
X133683996Y-70319922D01*
X133790341Y-70190341D01*
X133919922Y-70083996D01*
X133935094Y-70075886D01*
X134067758Y-70004976D01*
X134228177Y-69956313D01*
X134353196Y-69944000D01*
X135236804Y-69944000D01*
X135361823Y-69956313D01*
G37*
G36*
X145521823Y-69956313D02*
G01*
X145682242Y-70004976D01*
X145814906Y-70075886D01*
X145830078Y-70083996D01*
X145959659Y-70190341D01*
X146066004Y-70319922D01*
X146066005Y-70319924D01*
X146145024Y-70467758D01*
X146193687Y-70628177D01*
X146210117Y-70795000D01*
X146193687Y-70961823D01*
X146145024Y-71122242D01*
X146089146Y-71226782D01*
X146066004Y-71270078D01*
X145959659Y-71399659D01*
X145830078Y-71506004D01*
X145830076Y-71506005D01*
X145682242Y-71585024D01*
X145521823Y-71633687D01*
X145396804Y-71646000D01*
X144513196Y-71646000D01*
X144388177Y-71633687D01*
X144227758Y-71585024D01*
X144079924Y-71506005D01*
X144079922Y-71506004D01*
X143950341Y-71399659D01*
X143843996Y-71270078D01*
X143820854Y-71226782D01*
X143764976Y-71122242D01*
X143716313Y-70961823D01*
X143699883Y-70795000D01*
X143716313Y-70628177D01*
X143764976Y-70467758D01*
X143843995Y-70319924D01*
X143843996Y-70319922D01*
X143950341Y-70190341D01*
X144079922Y-70083996D01*
X144095094Y-70075886D01*
X144227758Y-70004976D01*
X144388177Y-69956313D01*
X144513196Y-69944000D01*
X145396804Y-69944000D01*
X145521823Y-69956313D01*
G37*
G36*
X72884512Y-67363927D02*
G01*
X73033812Y-67393624D01*
X73197784Y-67461544D01*
X73345354Y-67560147D01*
X73470853Y-67685646D01*
X73569456Y-67833216D01*
X73637376Y-67997188D01*
X73672000Y-68171259D01*
X73672000Y-68348741D01*
X73637376Y-68522812D01*
X73569456Y-68686784D01*
X73470853Y-68834354D01*
X73345354Y-68959853D01*
X73197784Y-69058456D01*
X73033812Y-69126376D01*
X72884512Y-69156073D01*
X72859742Y-69161000D01*
X72682258Y-69161000D01*
X72657488Y-69156073D01*
X72508188Y-69126376D01*
X72344216Y-69058456D01*
X72196646Y-68959853D01*
X72071147Y-68834354D01*
X71972544Y-68686784D01*
X71904624Y-68522812D01*
X71870000Y-68348741D01*
X71870000Y-68171259D01*
X71904624Y-67997188D01*
X71972544Y-67833216D01*
X72071147Y-67685646D01*
X72196646Y-67560147D01*
X72344216Y-67461544D01*
X72508188Y-67393624D01*
X72657488Y-67363927D01*
X72682258Y-67359000D01*
X72859742Y-67359000D01*
X72884512Y-67363927D01*
G37*
G36*
X135361823Y-67416313D02*
G01*
X135522242Y-67464976D01*
X135654906Y-67535886D01*
X135670078Y-67543996D01*
X135799659Y-67650341D01*
X135906004Y-67779922D01*
X135906005Y-67779924D01*
X135985024Y-67927758D01*
X136033687Y-68088177D01*
X136050117Y-68255000D01*
X136033687Y-68421823D01*
X135985024Y-68582242D01*
X135929146Y-68686782D01*
X135906004Y-68730078D01*
X135799659Y-68859659D01*
X135670078Y-68966004D01*
X135670076Y-68966005D01*
X135522242Y-69045024D01*
X135361823Y-69093687D01*
X135236804Y-69106000D01*
X134353196Y-69106000D01*
X134228177Y-69093687D01*
X134067758Y-69045024D01*
X133919924Y-68966005D01*
X133919922Y-68966004D01*
X133790341Y-68859659D01*
X133683996Y-68730078D01*
X133660854Y-68686782D01*
X133604976Y-68582242D01*
X133556313Y-68421823D01*
X133539883Y-68255000D01*
X133556313Y-68088177D01*
X133604976Y-67927758D01*
X133683995Y-67779924D01*
X133683996Y-67779922D01*
X133790341Y-67650341D01*
X133919922Y-67543996D01*
X133935094Y-67535886D01*
X134067758Y-67464976D01*
X134228177Y-67416313D01*
X134353196Y-67404000D01*
X135236804Y-67404000D01*
X135361823Y-67416313D01*
G37*
G36*
X145521823Y-67416313D02*
G01*
X145682242Y-67464976D01*
X145814906Y-67535886D01*
X145830078Y-67543996D01*
X145959659Y-67650341D01*
X146066004Y-67779922D01*
X146066005Y-67779924D01*
X146145024Y-67927758D01*
X146193687Y-68088177D01*
X146210117Y-68255000D01*
X146193687Y-68421823D01*
X146145024Y-68582242D01*
X146089146Y-68686782D01*
X146066004Y-68730078D01*
X145959659Y-68859659D01*
X145830078Y-68966004D01*
X145830076Y-68966005D01*
X145682242Y-69045024D01*
X145521823Y-69093687D01*
X145396804Y-69106000D01*
X144513196Y-69106000D01*
X144388177Y-69093687D01*
X144227758Y-69045024D01*
X144079924Y-68966005D01*
X144079922Y-68966004D01*
X143950341Y-68859659D01*
X143843996Y-68730078D01*
X143820854Y-68686782D01*
X143764976Y-68582242D01*
X143716313Y-68421823D01*
X143699883Y-68255000D01*
X143716313Y-68088177D01*
X143764976Y-67927758D01*
X143843995Y-67779924D01*
X143843996Y-67779922D01*
X143950341Y-67650341D01*
X144079922Y-67543996D01*
X144095094Y-67535886D01*
X144227758Y-67464976D01*
X144388177Y-67416313D01*
X144513196Y-67404000D01*
X145396804Y-67404000D01*
X145521823Y-67416313D01*
G37*
G36*
X72884512Y-64823927D02*
G01*
X73033812Y-64853624D01*
X73197784Y-64921544D01*
X73345354Y-65020147D01*
X73470853Y-65145646D01*
X73569456Y-65293216D01*
X73637376Y-65457188D01*
X73672000Y-65631259D01*
X73672000Y-65808741D01*
X73637376Y-65982812D01*
X73569456Y-66146784D01*
X73470853Y-66294354D01*
X73345354Y-66419853D01*
X73197784Y-66518456D01*
X73033812Y-66586376D01*
X72884512Y-66616073D01*
X72859742Y-66621000D01*
X72682258Y-66621000D01*
X72657488Y-66616073D01*
X72508188Y-66586376D01*
X72344216Y-66518456D01*
X72196646Y-66419853D01*
X72071147Y-66294354D01*
X71972544Y-66146784D01*
X71904624Y-65982812D01*
X71870000Y-65808741D01*
X71870000Y-65631259D01*
X71904624Y-65457188D01*
X71972544Y-65293216D01*
X72071147Y-65145646D01*
X72196646Y-65020147D01*
X72344216Y-64921544D01*
X72508188Y-64853624D01*
X72657488Y-64823927D01*
X72682258Y-64819000D01*
X72859742Y-64819000D01*
X72884512Y-64823927D01*
G37*
G36*
X135361823Y-64876313D02*
G01*
X135522242Y-64924976D01*
X135654906Y-64995886D01*
X135670078Y-65003996D01*
X135799659Y-65110341D01*
X135906004Y-65239922D01*
X135906005Y-65239924D01*
X135985024Y-65387758D01*
X136033687Y-65548177D01*
X136050117Y-65715000D01*
X136033687Y-65881823D01*
X135985024Y-66042242D01*
X135929146Y-66146782D01*
X135906004Y-66190078D01*
X135799659Y-66319659D01*
X135670078Y-66426004D01*
X135670076Y-66426005D01*
X135522242Y-66505024D01*
X135361823Y-66553687D01*
X135236804Y-66566000D01*
X134353196Y-66566000D01*
X134228177Y-66553687D01*
X134067758Y-66505024D01*
X133919924Y-66426005D01*
X133919922Y-66426004D01*
X133790341Y-66319659D01*
X133683996Y-66190078D01*
X133660854Y-66146782D01*
X133604976Y-66042242D01*
X133556313Y-65881823D01*
X133539883Y-65715000D01*
X133556313Y-65548177D01*
X133604976Y-65387758D01*
X133683995Y-65239924D01*
X133683996Y-65239922D01*
X133790341Y-65110341D01*
X133919922Y-65003996D01*
X133935094Y-64995886D01*
X134067758Y-64924976D01*
X134228177Y-64876313D01*
X134353196Y-64864000D01*
X135236804Y-64864000D01*
X135361823Y-64876313D01*
G37*
G36*
X145521823Y-64876313D02*
G01*
X145682242Y-64924976D01*
X145814906Y-64995886D01*
X145830078Y-65003996D01*
X145959659Y-65110341D01*
X146066004Y-65239922D01*
X146066005Y-65239924D01*
X146145024Y-65387758D01*
X146193687Y-65548177D01*
X146210117Y-65715000D01*
X146193687Y-65881823D01*
X146145024Y-66042242D01*
X146089146Y-66146782D01*
X146066004Y-66190078D01*
X145959659Y-66319659D01*
X145830078Y-66426004D01*
X145830076Y-66426005D01*
X145682242Y-66505024D01*
X145521823Y-66553687D01*
X145396804Y-66566000D01*
X144513196Y-66566000D01*
X144388177Y-66553687D01*
X144227758Y-66505024D01*
X144079924Y-66426005D01*
X144079922Y-66426004D01*
X143950341Y-66319659D01*
X143843996Y-66190078D01*
X143820854Y-66146782D01*
X143764976Y-66042242D01*
X143716313Y-65881823D01*
X143699883Y-65715000D01*
X143716313Y-65548177D01*
X143764976Y-65387758D01*
X143843995Y-65239924D01*
X143843996Y-65239922D01*
X143950341Y-65110341D01*
X144079922Y-65003996D01*
X144095094Y-64995886D01*
X144227758Y-64924976D01*
X144388177Y-64876313D01*
X144513196Y-64864000D01*
X145396804Y-64864000D01*
X145521823Y-64876313D01*
G37*
G36*
X73359578Y-62287048D02*
G01*
X73432249Y-62309093D01*
X73499225Y-62344892D01*
X73557930Y-62393070D01*
X73606108Y-62451775D01*
X73641907Y-62518751D01*
X73663952Y-62591422D01*
X73672000Y-62673140D01*
X73672000Y-63686860D01*
X73663952Y-63768578D01*
X73641907Y-63841249D01*
X73606108Y-63908225D01*
X73557930Y-63966930D01*
X73499225Y-64015108D01*
X73432249Y-64050907D01*
X73359578Y-64072952D01*
X73277860Y-64081000D01*
X72264140Y-64081000D01*
X72182422Y-64072952D01*
X72109751Y-64050907D01*
X72042775Y-64015108D01*
X71984070Y-63966930D01*
X71935892Y-63908225D01*
X71900093Y-63841249D01*
X71878048Y-63768578D01*
X71870000Y-63686860D01*
X71870000Y-62673140D01*
X71878048Y-62591422D01*
X71900093Y-62518751D01*
X71935892Y-62451775D01*
X71984070Y-62393070D01*
X72042775Y-62344892D01*
X72109751Y-62309093D01*
X72182422Y-62287048D01*
X72264140Y-62279000D01*
X73277860Y-62279000D01*
X73359578Y-62287048D01*
G37*
G36*
X145521823Y-62336313D02*
G01*
X145682242Y-62384976D01*
X145807214Y-62451775D01*
X145830078Y-62463996D01*
X145959659Y-62570341D01*
X146066004Y-62699922D01*
X146066005Y-62699924D01*
X146145024Y-62847758D01*
X146193687Y-63008177D01*
X146210117Y-63175000D01*
X146193687Y-63341823D01*
X146145024Y-63502242D01*
X146076469Y-63630500D01*
X146066004Y-63650078D01*
X145959659Y-63779659D01*
X145830078Y-63886004D01*
X145830076Y-63886005D01*
X145682242Y-63965024D01*
X145521823Y-64013687D01*
X145396804Y-64026000D01*
X144513196Y-64026000D01*
X144388177Y-64013687D01*
X144227758Y-63965024D01*
X144079924Y-63886005D01*
X144079922Y-63886004D01*
X143950341Y-63779659D01*
X143843996Y-63650078D01*
X143833531Y-63630500D01*
X143764976Y-63502242D01*
X143716313Y-63341823D01*
X143699883Y-63175000D01*
X143716313Y-63008177D01*
X143764976Y-62847758D01*
X143843995Y-62699924D01*
X143843996Y-62699922D01*
X143950341Y-62570341D01*
X144079922Y-62463996D01*
X144102786Y-62451775D01*
X144227758Y-62384976D01*
X144388177Y-62336313D01*
X144513196Y-62324000D01*
X145396804Y-62324000D01*
X145521823Y-62336313D01*
G37*
G36*
X135361823Y-62336313D02*
G01*
X135522242Y-62384976D01*
X135647214Y-62451775D01*
X135670078Y-62463996D01*
X135799659Y-62570341D01*
X135906004Y-62699922D01*
X135906005Y-62699924D01*
X135985024Y-62847758D01*
X136033687Y-63008177D01*
X136050117Y-63175000D01*
X136033687Y-63341823D01*
X135985024Y-63502242D01*
X135916469Y-63630500D01*
X135906004Y-63650078D01*
X135799659Y-63779659D01*
X135670078Y-63886004D01*
X135670076Y-63886005D01*
X135522242Y-63965024D01*
X135361823Y-64013687D01*
X135236804Y-64026000D01*
X134353196Y-64026000D01*
X134228177Y-64013687D01*
X134067758Y-63965024D01*
X133919924Y-63886005D01*
X133919922Y-63886004D01*
X133790341Y-63779659D01*
X133683996Y-63650078D01*
X133673531Y-63630500D01*
X133604976Y-63502242D01*
X133556313Y-63341823D01*
X133539883Y-63175000D01*
X133556313Y-63008177D01*
X133604976Y-62847758D01*
X133683995Y-62699924D01*
X133683996Y-62699922D01*
X133790341Y-62570341D01*
X133919922Y-62463996D01*
X133942786Y-62451775D01*
X134067758Y-62384976D01*
X134228177Y-62336313D01*
X134353196Y-62324000D01*
X135236804Y-62324000D01*
X135361823Y-62336313D01*
G37*
G36*
X135361823Y-59796313D02*
G01*
X135522242Y-59844976D01*
X135627055Y-59901000D01*
X135670078Y-59923996D01*
X135799659Y-60030341D01*
X135906004Y-60159922D01*
X135906005Y-60159924D01*
X135985024Y-60307758D01*
X136033687Y-60468177D01*
X136050117Y-60635000D01*
X136033687Y-60801823D01*
X135985024Y-60962242D01*
X135914114Y-61094906D01*
X135906004Y-61110078D01*
X135799659Y-61239659D01*
X135670078Y-61346004D01*
X135670076Y-61346005D01*
X135522242Y-61425024D01*
X135361823Y-61473687D01*
X135236804Y-61486000D01*
X134353196Y-61486000D01*
X134228177Y-61473687D01*
X134067758Y-61425024D01*
X133919924Y-61346005D01*
X133919922Y-61346004D01*
X133790341Y-61239659D01*
X133683996Y-61110078D01*
X133675886Y-61094906D01*
X133604976Y-60962242D01*
X133556313Y-60801823D01*
X133539883Y-60635000D01*
X133556313Y-60468177D01*
X133604976Y-60307758D01*
X133683995Y-60159924D01*
X133683996Y-60159922D01*
X133790341Y-60030341D01*
X133919922Y-59923996D01*
X133962945Y-59901000D01*
X134067758Y-59844976D01*
X134228177Y-59796313D01*
X134353196Y-59784000D01*
X135236804Y-59784000D01*
X135361823Y-59796313D01*
G37*
G36*
X145521823Y-59796313D02*
G01*
X145682242Y-59844976D01*
X145787055Y-59901000D01*
X145830078Y-59923996D01*
X145959659Y-60030341D01*
X146066004Y-60159922D01*
X146066005Y-60159924D01*
X146145024Y-60307758D01*
X146193687Y-60468177D01*
X146210117Y-60635000D01*
X146193687Y-60801823D01*
X146145024Y-60962242D01*
X146074114Y-61094906D01*
X146066004Y-61110078D01*
X145959659Y-61239659D01*
X145830078Y-61346004D01*
X145830076Y-61346005D01*
X145682242Y-61425024D01*
X145521823Y-61473687D01*
X145396804Y-61486000D01*
X144513196Y-61486000D01*
X144388177Y-61473687D01*
X144227758Y-61425024D01*
X144079924Y-61346005D01*
X144079922Y-61346004D01*
X143950341Y-61239659D01*
X143843996Y-61110078D01*
X143835886Y-61094906D01*
X143764976Y-60962242D01*
X143716313Y-60801823D01*
X143699883Y-60635000D01*
X143716313Y-60468177D01*
X143764976Y-60307758D01*
X143843995Y-60159924D01*
X143843996Y-60159922D01*
X143950341Y-60030341D01*
X144079922Y-59923996D01*
X144122945Y-59901000D01*
X144227758Y-59844976D01*
X144388177Y-59796313D01*
X144513196Y-59784000D01*
X145396804Y-59784000D01*
X145521823Y-59796313D01*
G37*
G36*
X58346189Y-54210483D02*
G01*
X58346192Y-54210484D01*
X58346191Y-54210484D01*
X58874139Y-54429167D01*
X59349280Y-54746646D01*
X59753354Y-55150720D01*
X60070833Y-55625861D01*
X60070834Y-55625863D01*
X60289517Y-56153811D01*
X60401000Y-56714275D01*
X60401000Y-57285725D01*
X60289517Y-57846189D01*
X60289516Y-57846191D01*
X60070833Y-58374139D01*
X59753354Y-58849280D01*
X59349280Y-59253354D01*
X58874139Y-59570833D01*
X58874138Y-59570834D01*
X58874137Y-59570834D01*
X58346189Y-59789517D01*
X57785725Y-59901000D01*
X57214275Y-59901000D01*
X56653811Y-59789517D01*
X56125863Y-59570834D01*
X56125862Y-59570834D01*
X56125861Y-59570833D01*
X55650720Y-59253354D01*
X55246646Y-58849280D01*
X54929167Y-58374139D01*
X54710484Y-57846191D01*
X54710483Y-57846189D01*
X54599000Y-57285725D01*
X54599000Y-56714275D01*
X54710483Y-56153811D01*
X54929166Y-55625863D01*
X54929167Y-55625861D01*
X55246646Y-55150720D01*
X55650720Y-54746646D01*
X56125861Y-54429167D01*
X56653809Y-54210484D01*
X56653808Y-54210484D01*
X56653811Y-54210483D01*
X57214275Y-54099000D01*
X57785725Y-54099000D01*
X58346189Y-54210483D01*
G37*
G36*
X163346189Y-54210483D02*
G01*
X163346192Y-54210484D01*
X163346191Y-54210484D01*
X163874139Y-54429167D01*
X164349280Y-54746646D01*
X164753354Y-55150720D01*
X165070833Y-55625861D01*
X165070834Y-55625863D01*
X165289517Y-56153811D01*
X165401000Y-56714275D01*
X165401000Y-57285725D01*
X165289517Y-57846189D01*
X165289516Y-57846191D01*
X165070833Y-58374139D01*
X164753354Y-58849280D01*
X164349280Y-59253354D01*
X163874139Y-59570833D01*
X163874138Y-59570834D01*
X163874137Y-59570834D01*
X163346189Y-59789517D01*
X162785725Y-59901000D01*
X162214275Y-59901000D01*
X161653811Y-59789517D01*
X161125863Y-59570834D01*
X161125862Y-59570834D01*
X161125861Y-59570833D01*
X160650720Y-59253354D01*
X160246646Y-58849280D01*
X159929167Y-58374139D01*
X159710484Y-57846191D01*
X159710483Y-57846189D01*
X159599000Y-57285725D01*
X159599000Y-56714275D01*
X159710483Y-56153811D01*
X159929166Y-55625863D01*
X159929167Y-55625861D01*
X160246646Y-55150720D01*
X160650720Y-54746646D01*
X161125861Y-54429167D01*
X161653809Y-54210484D01*
X161653808Y-54210484D01*
X161653811Y-54210483D01*
X162214275Y-54099000D01*
X162785725Y-54099000D01*
X163346189Y-54210483D01*
G37*
G36*
X135361823Y-57256313D02*
G01*
X135522242Y-57304976D01*
X135654906Y-57375886D01*
X135670078Y-57383996D01*
X135799659Y-57490341D01*
X135906004Y-57619922D01*
X135906005Y-57619924D01*
X135985024Y-57767758D01*
X136033687Y-57928177D01*
X136050117Y-58095000D01*
X136033687Y-58261823D01*
X135985024Y-58422242D01*
X135914114Y-58554906D01*
X135906004Y-58570078D01*
X135799659Y-58699659D01*
X135670078Y-58806004D01*
X135670076Y-58806005D01*
X135522242Y-58885024D01*
X135361823Y-58933687D01*
X135236804Y-58946000D01*
X134353196Y-58946000D01*
X134228177Y-58933687D01*
X134067758Y-58885024D01*
X133919924Y-58806005D01*
X133919922Y-58806004D01*
X133790341Y-58699659D01*
X133683996Y-58570078D01*
X133675886Y-58554906D01*
X133604976Y-58422242D01*
X133556313Y-58261823D01*
X133539883Y-58095000D01*
X133556313Y-57928177D01*
X133604976Y-57767758D01*
X133683995Y-57619924D01*
X133683996Y-57619922D01*
X133790341Y-57490341D01*
X133919922Y-57383996D01*
X133935094Y-57375886D01*
X134067758Y-57304976D01*
X134228177Y-57256313D01*
X134353196Y-57244000D01*
X135236804Y-57244000D01*
X135361823Y-57256313D01*
G37*
G36*
X145521823Y-57256313D02*
G01*
X145682242Y-57304976D01*
X145814906Y-57375886D01*
X145830078Y-57383996D01*
X145959659Y-57490341D01*
X146066004Y-57619922D01*
X146066005Y-57619924D01*
X146145024Y-57767758D01*
X146193687Y-57928177D01*
X146210117Y-58095000D01*
X146193687Y-58261823D01*
X146145024Y-58422242D01*
X146074114Y-58554906D01*
X146066004Y-58570078D01*
X145959659Y-58699659D01*
X145830078Y-58806004D01*
X145830076Y-58806005D01*
X145682242Y-58885024D01*
X145521823Y-58933687D01*
X145396804Y-58946000D01*
X144513196Y-58946000D01*
X144388177Y-58933687D01*
X144227758Y-58885024D01*
X144079924Y-58806005D01*
X144079922Y-58806004D01*
X143950341Y-58699659D01*
X143843996Y-58570078D01*
X143835886Y-58554906D01*
X143764976Y-58422242D01*
X143716313Y-58261823D01*
X143699883Y-58095000D01*
X143716313Y-57928177D01*
X143764976Y-57767758D01*
X143843995Y-57619924D01*
X143843996Y-57619922D01*
X143950341Y-57490341D01*
X144079922Y-57383996D01*
X144095094Y-57375886D01*
X144227758Y-57304976D01*
X144388177Y-57256313D01*
X144513196Y-57244000D01*
X145396804Y-57244000D01*
X145521823Y-57256313D01*
G37*
G36*
X106381823Y-54531313D02*
G01*
X106542242Y-54579976D01*
X106674906Y-54650886D01*
X106690078Y-54658996D01*
X106819659Y-54765341D01*
X106926004Y-54894922D01*
X106926005Y-54894924D01*
X107005024Y-55042758D01*
X107053687Y-55203178D01*
X107066000Y-55328197D01*
X107066000Y-55811804D01*
X107053687Y-55936823D01*
X107005024Y-56097242D01*
X106974788Y-56153809D01*
X106926004Y-56245078D01*
X106819659Y-56374659D01*
X106690077Y-56481005D01*
X106542241Y-56560024D01*
X106381822Y-56608687D01*
X106215000Y-56625117D01*
X106048177Y-56608687D01*
X105887758Y-56560024D01*
X105739924Y-56481005D01*
X105739922Y-56481004D01*
X105610341Y-56374659D01*
X105503995Y-56245077D01*
X105424976Y-56097241D01*
X105376313Y-55936822D01*
X105364000Y-55811803D01*
X105364000Y-55328196D01*
X105376313Y-55203177D01*
X105424976Y-55042758D01*
X105503995Y-54894924D01*
X105503996Y-54894922D01*
X105610342Y-54765341D01*
X105739923Y-54658996D01*
X105755095Y-54650886D01*
X105887759Y-54579976D01*
X106048178Y-54531313D01*
X106215000Y-54514883D01*
X106381823Y-54531313D01*
G37*
G36*
X119081823Y-54531313D02*
G01*
X119242242Y-54579976D01*
X119374906Y-54650886D01*
X119390078Y-54658996D01*
X119519659Y-54765341D01*
X119626004Y-54894922D01*
X119626005Y-54894924D01*
X119705024Y-55042758D01*
X119753687Y-55203178D01*
X119766000Y-55328197D01*
X119766000Y-55811804D01*
X119753687Y-55936823D01*
X119705024Y-56097242D01*
X119674788Y-56153809D01*
X119626004Y-56245078D01*
X119519659Y-56374659D01*
X119390077Y-56481005D01*
X119242241Y-56560024D01*
X119081822Y-56608687D01*
X118915000Y-56625117D01*
X118748177Y-56608687D01*
X118587758Y-56560024D01*
X118439924Y-56481005D01*
X118439922Y-56481004D01*
X118310341Y-56374659D01*
X118203995Y-56245077D01*
X118124976Y-56097241D01*
X118076313Y-55936822D01*
X118064000Y-55811803D01*
X118064000Y-55328196D01*
X118076313Y-55203177D01*
X118124976Y-55042758D01*
X118203995Y-54894924D01*
X118203996Y-54894922D01*
X118310342Y-54765341D01*
X118439923Y-54658996D01*
X118455095Y-54650886D01*
X118587759Y-54579976D01*
X118748178Y-54531313D01*
X118915000Y-54514883D01*
X119081823Y-54531313D01*
G37*
G36*
X121621823Y-54531313D02*
G01*
X121782242Y-54579976D01*
X121914906Y-54650886D01*
X121930078Y-54658996D01*
X122059659Y-54765341D01*
X122166004Y-54894922D01*
X122166005Y-54894924D01*
X122245024Y-55042758D01*
X122293687Y-55203178D01*
X122306000Y-55328197D01*
X122306000Y-55811804D01*
X122293687Y-55936823D01*
X122245024Y-56097242D01*
X122214788Y-56153809D01*
X122166004Y-56245078D01*
X122059659Y-56374659D01*
X121930077Y-56481005D01*
X121782241Y-56560024D01*
X121621822Y-56608687D01*
X121455000Y-56625117D01*
X121288177Y-56608687D01*
X121127758Y-56560024D01*
X120979924Y-56481005D01*
X120979922Y-56481004D01*
X120850341Y-56374659D01*
X120743995Y-56245077D01*
X120664976Y-56097241D01*
X120616313Y-55936822D01*
X120604000Y-55811803D01*
X120604000Y-55328196D01*
X120616313Y-55203177D01*
X120664976Y-55042758D01*
X120743995Y-54894924D01*
X120743996Y-54894922D01*
X120850342Y-54765341D01*
X120979923Y-54658996D01*
X120995095Y-54650886D01*
X121127759Y-54579976D01*
X121288178Y-54531313D01*
X121455000Y-54514883D01*
X121621823Y-54531313D01*
G37*
G36*
X114001823Y-54531313D02*
G01*
X114162242Y-54579976D01*
X114294906Y-54650886D01*
X114310078Y-54658996D01*
X114439659Y-54765341D01*
X114546004Y-54894922D01*
X114546005Y-54894924D01*
X114625024Y-55042758D01*
X114673687Y-55203178D01*
X114686000Y-55328197D01*
X114686000Y-55811804D01*
X114673687Y-55936823D01*
X114625024Y-56097242D01*
X114594788Y-56153809D01*
X114546004Y-56245078D01*
X114439659Y-56374659D01*
X114310077Y-56481005D01*
X114162241Y-56560024D01*
X114001822Y-56608687D01*
X113835000Y-56625117D01*
X113668177Y-56608687D01*
X113507758Y-56560024D01*
X113359924Y-56481005D01*
X113359922Y-56481004D01*
X113230341Y-56374659D01*
X113123995Y-56245077D01*
X113044976Y-56097241D01*
X112996313Y-55936822D01*
X112984000Y-55811803D01*
X112984000Y-55328196D01*
X112996313Y-55203177D01*
X113044976Y-55042758D01*
X113123995Y-54894924D01*
X113123996Y-54894922D01*
X113230342Y-54765341D01*
X113359923Y-54658996D01*
X113375095Y-54650886D01*
X113507759Y-54579976D01*
X113668178Y-54531313D01*
X113835000Y-54514883D01*
X114001823Y-54531313D01*
G37*
G36*
X111461823Y-54531313D02*
G01*
X111622242Y-54579976D01*
X111754906Y-54650886D01*
X111770078Y-54658996D01*
X111899659Y-54765341D01*
X112006004Y-54894922D01*
X112006005Y-54894924D01*
X112085024Y-55042758D01*
X112133687Y-55203178D01*
X112146000Y-55328197D01*
X112146000Y-55811804D01*
X112133687Y-55936823D01*
X112085024Y-56097242D01*
X112054788Y-56153809D01*
X112006004Y-56245078D01*
X111899659Y-56374659D01*
X111770077Y-56481005D01*
X111622241Y-56560024D01*
X111461822Y-56608687D01*
X111295000Y-56625117D01*
X111128177Y-56608687D01*
X110967758Y-56560024D01*
X110819924Y-56481005D01*
X110819922Y-56481004D01*
X110690341Y-56374659D01*
X110583995Y-56245077D01*
X110504976Y-56097241D01*
X110456313Y-55936822D01*
X110444000Y-55811803D01*
X110444000Y-55328196D01*
X110456313Y-55203177D01*
X110504976Y-55042758D01*
X110583995Y-54894924D01*
X110583996Y-54894922D01*
X110690342Y-54765341D01*
X110819923Y-54658996D01*
X110835095Y-54650886D01*
X110967759Y-54579976D01*
X111128178Y-54531313D01*
X111295000Y-54514883D01*
X111461823Y-54531313D01*
G37*
G36*
X108921823Y-54531313D02*
G01*
X109082242Y-54579976D01*
X109214906Y-54650886D01*
X109230078Y-54658996D01*
X109359659Y-54765341D01*
X109466004Y-54894922D01*
X109466005Y-54894924D01*
X109545024Y-55042758D01*
X109593687Y-55203178D01*
X109606000Y-55328197D01*
X109606000Y-55811804D01*
X109593687Y-55936823D01*
X109545024Y-56097242D01*
X109514788Y-56153809D01*
X109466004Y-56245078D01*
X109359659Y-56374659D01*
X109230077Y-56481005D01*
X109082241Y-56560024D01*
X108921822Y-56608687D01*
X108755000Y-56625117D01*
X108588177Y-56608687D01*
X108427758Y-56560024D01*
X108279924Y-56481005D01*
X108279922Y-56481004D01*
X108150341Y-56374659D01*
X108043995Y-56245077D01*
X107964976Y-56097241D01*
X107916313Y-55936822D01*
X107904000Y-55811803D01*
X107904000Y-55328196D01*
X107916313Y-55203177D01*
X107964976Y-55042758D01*
X108043995Y-54894924D01*
X108043996Y-54894922D01*
X108150342Y-54765341D01*
X108279923Y-54658996D01*
X108295095Y-54650886D01*
X108427759Y-54579976D01*
X108588178Y-54531313D01*
X108755000Y-54514883D01*
X108921823Y-54531313D01*
G37*
G36*
X103841823Y-54531313D02*
G01*
X104002242Y-54579976D01*
X104134906Y-54650886D01*
X104150078Y-54658996D01*
X104279659Y-54765341D01*
X104386004Y-54894922D01*
X104386005Y-54894924D01*
X104465024Y-55042758D01*
X104513687Y-55203178D01*
X104526000Y-55328197D01*
X104526000Y-55811804D01*
X104513687Y-55936823D01*
X104465024Y-56097242D01*
X104434788Y-56153809D01*
X104386004Y-56245078D01*
X104279659Y-56374659D01*
X104150077Y-56481005D01*
X104002241Y-56560024D01*
X103841822Y-56608687D01*
X103675000Y-56625117D01*
X103508177Y-56608687D01*
X103347758Y-56560024D01*
X103199924Y-56481005D01*
X103199922Y-56481004D01*
X103070341Y-56374659D01*
X102963995Y-56245077D01*
X102884976Y-56097241D01*
X102836313Y-55936822D01*
X102824000Y-55811803D01*
X102824000Y-55328196D01*
X102836313Y-55203177D01*
X102884976Y-55042758D01*
X102963995Y-54894924D01*
X102963996Y-54894922D01*
X103070342Y-54765341D01*
X103199923Y-54658996D01*
X103215095Y-54650886D01*
X103347759Y-54579976D01*
X103508178Y-54531313D01*
X103675000Y-54514883D01*
X103841823Y-54531313D01*
G37*
G36*
X116541823Y-54531313D02*
G01*
X116702242Y-54579976D01*
X116834906Y-54650886D01*
X116850078Y-54658996D01*
X116979659Y-54765341D01*
X117086004Y-54894922D01*
X117086005Y-54894924D01*
X117165024Y-55042758D01*
X117213687Y-55203178D01*
X117226000Y-55328197D01*
X117226000Y-55811804D01*
X117213687Y-55936823D01*
X117165024Y-56097242D01*
X117134788Y-56153809D01*
X117086004Y-56245078D01*
X116979659Y-56374659D01*
X116850077Y-56481005D01*
X116702241Y-56560024D01*
X116541822Y-56608687D01*
X116375000Y-56625117D01*
X116208177Y-56608687D01*
X116047758Y-56560024D01*
X115899924Y-56481005D01*
X115899922Y-56481004D01*
X115770341Y-56374659D01*
X115663995Y-56245077D01*
X115584976Y-56097241D01*
X115536313Y-55936822D01*
X115524000Y-55811803D01*
X115524000Y-55328196D01*
X115536313Y-55203177D01*
X115584976Y-55042758D01*
X115663995Y-54894924D01*
X115663996Y-54894922D01*
X115770342Y-54765341D01*
X115899923Y-54658996D01*
X115915095Y-54650886D01*
X116047759Y-54579976D01*
X116208178Y-54531313D01*
X116375000Y-54514883D01*
X116541823Y-54531313D01*
G37*
G36*
X106328512Y-51473927D02*
G01*
X106477812Y-51503624D01*
X106641784Y-51571544D01*
X106789354Y-51670147D01*
X106914853Y-51795646D01*
X107013456Y-51943216D01*
X107081376Y-52107188D01*
X107116000Y-52281259D01*
X107116000Y-52458741D01*
X107081376Y-52632812D01*
X107013456Y-52796784D01*
X106914853Y-52944354D01*
X106789354Y-53069853D01*
X106641784Y-53168456D01*
X106477812Y-53236376D01*
X106328512Y-53266073D01*
X106303742Y-53271000D01*
X106126258Y-53271000D01*
X106101488Y-53266073D01*
X105952188Y-53236376D01*
X105788216Y-53168456D01*
X105640646Y-53069853D01*
X105515147Y-52944354D01*
X105416544Y-52796784D01*
X105348624Y-52632812D01*
X105314000Y-52458741D01*
X105314000Y-52281259D01*
X105348624Y-52107188D01*
X105416544Y-51943216D01*
X105515147Y-51795646D01*
X105640646Y-51670147D01*
X105788216Y-51571544D01*
X105952188Y-51503624D01*
X106101488Y-51473927D01*
X106126258Y-51469000D01*
X106303742Y-51469000D01*
X106328512Y-51473927D01*
G37*
G36*
X121568512Y-51473927D02*
G01*
X121717812Y-51503624D01*
X121881784Y-51571544D01*
X122029354Y-51670147D01*
X122154853Y-51795646D01*
X122253456Y-51943216D01*
X122321376Y-52107188D01*
X122356000Y-52281259D01*
X122356000Y-52458741D01*
X122321376Y-52632812D01*
X122253456Y-52796784D01*
X122154853Y-52944354D01*
X122029354Y-53069853D01*
X121881784Y-53168456D01*
X121717812Y-53236376D01*
X121568512Y-53266073D01*
X121543742Y-53271000D01*
X121366258Y-53271000D01*
X121341488Y-53266073D01*
X121192188Y-53236376D01*
X121028216Y-53168456D01*
X120880646Y-53069853D01*
X120755147Y-52944354D01*
X120656544Y-52796784D01*
X120588624Y-52632812D01*
X120554000Y-52458741D01*
X120554000Y-52281259D01*
X120588624Y-52107188D01*
X120656544Y-51943216D01*
X120755147Y-51795646D01*
X120880646Y-51670147D01*
X121028216Y-51571544D01*
X121192188Y-51503624D01*
X121341488Y-51473927D01*
X121366258Y-51469000D01*
X121543742Y-51469000D01*
X121568512Y-51473927D01*
G37*
G36*
X119028512Y-51473927D02*
G01*
X119177812Y-51503624D01*
X119341784Y-51571544D01*
X119489354Y-51670147D01*
X119614853Y-51795646D01*
X119713456Y-51943216D01*
X119781376Y-52107188D01*
X119816000Y-52281259D01*
X119816000Y-52458741D01*
X119781376Y-52632812D01*
X119713456Y-52796784D01*
X119614853Y-52944354D01*
X119489354Y-53069853D01*
X119341784Y-53168456D01*
X119177812Y-53236376D01*
X119028512Y-53266073D01*
X119003742Y-53271000D01*
X118826258Y-53271000D01*
X118801488Y-53266073D01*
X118652188Y-53236376D01*
X118488216Y-53168456D01*
X118340646Y-53069853D01*
X118215147Y-52944354D01*
X118116544Y-52796784D01*
X118048624Y-52632812D01*
X118014000Y-52458741D01*
X118014000Y-52281259D01*
X118048624Y-52107188D01*
X118116544Y-51943216D01*
X118215147Y-51795646D01*
X118340646Y-51670147D01*
X118488216Y-51571544D01*
X118652188Y-51503624D01*
X118801488Y-51473927D01*
X118826258Y-51469000D01*
X119003742Y-51469000D01*
X119028512Y-51473927D01*
G37*
G36*
X116488512Y-51473927D02*
G01*
X116637812Y-51503624D01*
X116801784Y-51571544D01*
X116949354Y-51670147D01*
X117074853Y-51795646D01*
X117173456Y-51943216D01*
X117241376Y-52107188D01*
X117276000Y-52281259D01*
X117276000Y-52458741D01*
X117241376Y-52632812D01*
X117173456Y-52796784D01*
X117074853Y-52944354D01*
X116949354Y-53069853D01*
X116801784Y-53168456D01*
X116637812Y-53236376D01*
X116488512Y-53266073D01*
X116463742Y-53271000D01*
X116286258Y-53271000D01*
X116261488Y-53266073D01*
X116112188Y-53236376D01*
X115948216Y-53168456D01*
X115800646Y-53069853D01*
X115675147Y-52944354D01*
X115576544Y-52796784D01*
X115508624Y-52632812D01*
X115474000Y-52458741D01*
X115474000Y-52281259D01*
X115508624Y-52107188D01*
X115576544Y-51943216D01*
X115675147Y-51795646D01*
X115800646Y-51670147D01*
X115948216Y-51571544D01*
X116112188Y-51503624D01*
X116261488Y-51473927D01*
X116286258Y-51469000D01*
X116463742Y-51469000D01*
X116488512Y-51473927D01*
G37*
G36*
X113948512Y-51473927D02*
G01*
X114097812Y-51503624D01*
X114261784Y-51571544D01*
X114409354Y-51670147D01*
X114534853Y-51795646D01*
X114633456Y-51943216D01*
X114701376Y-52107188D01*
X114736000Y-52281259D01*
X114736000Y-52458741D01*
X114701376Y-52632812D01*
X114633456Y-52796784D01*
X114534853Y-52944354D01*
X114409354Y-53069853D01*
X114261784Y-53168456D01*
X114097812Y-53236376D01*
X113948512Y-53266073D01*
X113923742Y-53271000D01*
X113746258Y-53271000D01*
X113721488Y-53266073D01*
X113572188Y-53236376D01*
X113408216Y-53168456D01*
X113260646Y-53069853D01*
X113135147Y-52944354D01*
X113036544Y-52796784D01*
X112968624Y-52632812D01*
X112934000Y-52458741D01*
X112934000Y-52281259D01*
X112968624Y-52107188D01*
X113036544Y-51943216D01*
X113135147Y-51795646D01*
X113260646Y-51670147D01*
X113408216Y-51571544D01*
X113572188Y-51503624D01*
X113721488Y-51473927D01*
X113746258Y-51469000D01*
X113923742Y-51469000D01*
X113948512Y-51473927D01*
G37*
G36*
X111408512Y-51473927D02*
G01*
X111557812Y-51503624D01*
X111721784Y-51571544D01*
X111869354Y-51670147D01*
X111994853Y-51795646D01*
X112093456Y-51943216D01*
X112161376Y-52107188D01*
X112196000Y-52281259D01*
X112196000Y-52458741D01*
X112161376Y-52632812D01*
X112093456Y-52796784D01*
X111994853Y-52944354D01*
X111869354Y-53069853D01*
X111721784Y-53168456D01*
X111557812Y-53236376D01*
X111408512Y-53266073D01*
X111383742Y-53271000D01*
X111206258Y-53271000D01*
X111181488Y-53266073D01*
X111032188Y-53236376D01*
X110868216Y-53168456D01*
X110720646Y-53069853D01*
X110595147Y-52944354D01*
X110496544Y-52796784D01*
X110428624Y-52632812D01*
X110394000Y-52458741D01*
X110394000Y-52281259D01*
X110428624Y-52107188D01*
X110496544Y-51943216D01*
X110595147Y-51795646D01*
X110720646Y-51670147D01*
X110868216Y-51571544D01*
X111032188Y-51503624D01*
X111181488Y-51473927D01*
X111206258Y-51469000D01*
X111383742Y-51469000D01*
X111408512Y-51473927D01*
G37*
G36*
X108868512Y-51473927D02*
G01*
X109017812Y-51503624D01*
X109181784Y-51571544D01*
X109329354Y-51670147D01*
X109454853Y-51795646D01*
X109553456Y-51943216D01*
X109621376Y-52107188D01*
X109656000Y-52281259D01*
X109656000Y-52458741D01*
X109621376Y-52632812D01*
X109553456Y-52796784D01*
X109454853Y-52944354D01*
X109329354Y-53069853D01*
X109181784Y-53168456D01*
X109017812Y-53236376D01*
X108868512Y-53266073D01*
X108843742Y-53271000D01*
X108666258Y-53271000D01*
X108641488Y-53266073D01*
X108492188Y-53236376D01*
X108328216Y-53168456D01*
X108180646Y-53069853D01*
X108055147Y-52944354D01*
X107956544Y-52796784D01*
X107888624Y-52632812D01*
X107854000Y-52458741D01*
X107854000Y-52281259D01*
X107888624Y-52107188D01*
X107956544Y-51943216D01*
X108055147Y-51795646D01*
X108180646Y-51670147D01*
X108328216Y-51571544D01*
X108492188Y-51503624D01*
X108641488Y-51473927D01*
X108666258Y-51469000D01*
X108843742Y-51469000D01*
X108868512Y-51473927D01*
G37*
G36*
X103788512Y-51473927D02*
G01*
X103937812Y-51503624D01*
X104101784Y-51571544D01*
X104249354Y-51670147D01*
X104374853Y-51795646D01*
X104473456Y-51943216D01*
X104541376Y-52107188D01*
X104576000Y-52281259D01*
X104576000Y-52458741D01*
X104541376Y-52632812D01*
X104473456Y-52796784D01*
X104374853Y-52944354D01*
X104249354Y-53069853D01*
X104101784Y-53168456D01*
X103937812Y-53236376D01*
X103788512Y-53266073D01*
X103763742Y-53271000D01*
X103586258Y-53271000D01*
X103561488Y-53266073D01*
X103412188Y-53236376D01*
X103248216Y-53168456D01*
X103100646Y-53069853D01*
X102975147Y-52944354D01*
X102876544Y-52796784D01*
X102808624Y-52632812D01*
X102774000Y-52458741D01*
X102774000Y-52281259D01*
X102808624Y-52107188D01*
X102876544Y-51943216D01*
X102975147Y-51795646D01*
X103100646Y-51670147D01*
X103248216Y-51571544D01*
X103412188Y-51503624D01*
X103561488Y-51473927D01*
X103586258Y-51469000D01*
X103763742Y-51469000D01*
X103788512Y-51473927D01*
G37*
M02*
