G04 #@! TF.GenerationSoftware,KiCad,Pcbnew,5.1.5+dfsg1-2build2*
G04 #@! TF.CreationDate,2020-06-17T17:13:45+02:00*
G04 #@! TF.ProjectId,termint-wifi,7465726d-696e-4742-9d77-6966692e6b69,rev?*
G04 #@! TF.SameCoordinates,Original*
G04 #@! TF.FileFunction,Legend,Bot*
G04 #@! TF.FilePolarity,Positive*
%FSLAX46Y46*%
G04 Gerber Fmt 4.6, Leading zero omitted, Abs format (unit mm)*
G04 Created by KiCad (PCBNEW 5.1.5+dfsg1-2build2) date 2020-06-17 17:13:45*
%MOMM*%
%LPD*%
G04 APERTURE LIST*
%ADD10C,0.010000*%
G04 APERTURE END LIST*
D10*
G36*
X111754123Y-61724727D02*
G01*
X111596791Y-61738858D01*
X111470549Y-61762181D01*
X111242328Y-61838019D01*
X111042752Y-61940735D01*
X110873700Y-62068453D01*
X110737053Y-62219300D01*
X110634692Y-62391401D01*
X110568496Y-62582880D01*
X110550318Y-62679707D01*
X110540628Y-62890317D01*
X110570332Y-63090408D01*
X110637156Y-63276923D01*
X110738822Y-63446805D01*
X110873056Y-63596996D01*
X111037581Y-63724440D01*
X111230122Y-63826078D01*
X111448403Y-63898855D01*
X111459966Y-63901685D01*
X111551687Y-63918146D01*
X111669815Y-63931340D01*
X111802097Y-63940723D01*
X111936283Y-63945748D01*
X112060120Y-63945870D01*
X112161356Y-63940543D01*
X112204380Y-63934836D01*
X112431963Y-63879705D01*
X112628432Y-63802446D01*
X112800512Y-63699902D01*
X112926773Y-63596015D01*
X113063677Y-63440817D01*
X113164644Y-63268437D01*
X113229672Y-63084067D01*
X113258764Y-62892898D01*
X113251917Y-62700122D01*
X113209133Y-62510931D01*
X113130411Y-62330517D01*
X113015751Y-62164072D01*
X112926773Y-62070316D01*
X112782886Y-61953515D01*
X112624930Y-61862167D01*
X112441297Y-61789943D01*
X112376466Y-61770195D01*
X112248911Y-61743768D01*
X112093675Y-61727302D01*
X111924248Y-61720915D01*
X111754123Y-61724727D01*
G37*
X111754123Y-61724727D02*
X111596791Y-61738858D01*
X111470549Y-61762181D01*
X111242328Y-61838019D01*
X111042752Y-61940735D01*
X110873700Y-62068453D01*
X110737053Y-62219300D01*
X110634692Y-62391401D01*
X110568496Y-62582880D01*
X110550318Y-62679707D01*
X110540628Y-62890317D01*
X110570332Y-63090408D01*
X110637156Y-63276923D01*
X110738822Y-63446805D01*
X110873056Y-63596996D01*
X111037581Y-63724440D01*
X111230122Y-63826078D01*
X111448403Y-63898855D01*
X111459966Y-63901685D01*
X111551687Y-63918146D01*
X111669815Y-63931340D01*
X111802097Y-63940723D01*
X111936283Y-63945748D01*
X112060120Y-63945870D01*
X112161356Y-63940543D01*
X112204380Y-63934836D01*
X112431963Y-63879705D01*
X112628432Y-63802446D01*
X112800512Y-63699902D01*
X112926773Y-63596015D01*
X113063677Y-63440817D01*
X113164644Y-63268437D01*
X113229672Y-63084067D01*
X113258764Y-62892898D01*
X113251917Y-62700122D01*
X113209133Y-62510931D01*
X113130411Y-62330517D01*
X113015751Y-62164072D01*
X112926773Y-62070316D01*
X112782886Y-61953515D01*
X112624930Y-61862167D01*
X112441297Y-61789943D01*
X112376466Y-61770195D01*
X112248911Y-61743768D01*
X112093675Y-61727302D01*
X111924248Y-61720915D01*
X111754123Y-61724727D01*
G36*
X110761466Y-71278666D02*
G01*
X111926297Y-71278666D01*
X112189069Y-71278471D01*
X112412248Y-71277845D01*
X112598575Y-71276727D01*
X112750788Y-71275055D01*
X112871628Y-71272767D01*
X112963835Y-71269802D01*
X113030147Y-71266097D01*
X113073304Y-71261592D01*
X113096046Y-71256224D01*
X113101192Y-71252207D01*
X113102294Y-71228395D01*
X113103294Y-71164558D01*
X113104186Y-71063004D01*
X113104970Y-70926042D01*
X113105640Y-70755980D01*
X113106194Y-70555126D01*
X113106630Y-70325789D01*
X113106942Y-70070277D01*
X113107129Y-69790898D01*
X113107186Y-69489962D01*
X113107111Y-69169775D01*
X113106901Y-68832646D01*
X113106552Y-68480884D01*
X113106060Y-68116797D01*
X113105820Y-67966082D01*
X113100383Y-64706416D01*
X111930924Y-64700945D01*
X110761466Y-64695474D01*
X110761466Y-71278666D01*
G37*
X110761466Y-71278666D02*
X111926297Y-71278666D01*
X112189069Y-71278471D01*
X112412248Y-71277845D01*
X112598575Y-71276727D01*
X112750788Y-71275055D01*
X112871628Y-71272767D01*
X112963835Y-71269802D01*
X113030147Y-71266097D01*
X113073304Y-71261592D01*
X113096046Y-71256224D01*
X113101192Y-71252207D01*
X113102294Y-71228395D01*
X113103294Y-71164558D01*
X113104186Y-71063004D01*
X113104970Y-70926042D01*
X113105640Y-70755980D01*
X113106194Y-70555126D01*
X113106630Y-70325789D01*
X113106942Y-70070277D01*
X113107129Y-69790898D01*
X113107186Y-69489962D01*
X113107111Y-69169775D01*
X113106901Y-68832646D01*
X113106552Y-68480884D01*
X113106060Y-68116797D01*
X113105820Y-67966082D01*
X113100383Y-64706416D01*
X111930924Y-64700945D01*
X110761466Y-64695474D01*
X110761466Y-71278666D01*
G36*
X114550299Y-64335999D02*
G01*
X119884299Y-64335999D01*
X119884299Y-66367999D01*
X115079466Y-66367999D01*
X115079466Y-68505832D01*
X119884299Y-68505832D01*
X119884299Y-71278666D01*
X122403133Y-71278666D01*
X122403133Y-62198166D01*
X114550299Y-62198166D01*
X114550299Y-64335999D01*
G37*
X114550299Y-64335999D02*
X119884299Y-64335999D01*
X119884299Y-66367999D01*
X115079466Y-66367999D01*
X115079466Y-68505832D01*
X119884299Y-68505832D01*
X119884299Y-71278666D01*
X122403133Y-71278666D01*
X122403133Y-62198166D01*
X114550299Y-62198166D01*
X114550299Y-64335999D01*
G36*
X132381641Y-57925069D02*
G01*
X131619395Y-57925175D01*
X130818626Y-57925347D01*
X129978686Y-57925584D01*
X129098923Y-57925885D01*
X128178688Y-57926249D01*
X127217333Y-57926675D01*
X126350716Y-57927094D01*
X125420862Y-57927564D01*
X124532385Y-57928024D01*
X123684328Y-57928476D01*
X122875737Y-57928922D01*
X122105654Y-57929367D01*
X121373124Y-57929813D01*
X120677190Y-57930263D01*
X120016897Y-57930719D01*
X119391287Y-57931185D01*
X118799405Y-57931664D01*
X118240294Y-57932158D01*
X117713000Y-57932670D01*
X117216564Y-57933203D01*
X116750032Y-57933761D01*
X116312446Y-57934346D01*
X115902852Y-57934960D01*
X115520292Y-57935608D01*
X115163810Y-57936291D01*
X114832451Y-57937013D01*
X114525257Y-57937776D01*
X114241274Y-57938584D01*
X113979545Y-57939439D01*
X113739113Y-57940344D01*
X113519023Y-57941303D01*
X113318317Y-57942317D01*
X113136041Y-57943391D01*
X112971238Y-57944526D01*
X112822952Y-57945726D01*
X112690226Y-57946994D01*
X112572105Y-57948332D01*
X112467632Y-57949743D01*
X112375851Y-57951231D01*
X112295806Y-57952799D01*
X112226541Y-57954448D01*
X112167099Y-57956182D01*
X112116525Y-57958005D01*
X112073862Y-57959918D01*
X112038154Y-57961925D01*
X112008445Y-57964028D01*
X111983779Y-57966232D01*
X111963199Y-57968537D01*
X111946799Y-57970789D01*
X111752732Y-58002485D01*
X111548424Y-58040284D01*
X111346738Y-58081545D01*
X111160535Y-58123629D01*
X111002677Y-58163896D01*
X110993315Y-58166496D01*
X110471022Y-58334064D01*
X109967734Y-58539057D01*
X109484853Y-58780397D01*
X109023786Y-59057008D01*
X108585936Y-59367814D01*
X108172708Y-59711737D01*
X107785506Y-60087700D01*
X107425735Y-60494626D01*
X107094799Y-60931440D01*
X106806036Y-61377057D01*
X106737730Y-61497461D01*
X106659205Y-61646135D01*
X106575535Y-61812530D01*
X106491791Y-61986099D01*
X106413047Y-62156292D01*
X106344376Y-62312563D01*
X106290849Y-62444362D01*
X106283927Y-62462749D01*
X106127144Y-62930392D01*
X106005913Y-63395702D01*
X105918102Y-63868794D01*
X105861584Y-64359786D01*
X105849497Y-64526499D01*
X105845081Y-64623503D01*
X105841335Y-64762772D01*
X105838257Y-64944239D01*
X105835850Y-65167840D01*
X105834112Y-65433512D01*
X105833045Y-65741189D01*
X105832648Y-66090807D01*
X105832922Y-66482302D01*
X105833868Y-66915608D01*
X105835017Y-67267582D01*
X105836393Y-67636052D01*
X105837697Y-67964827D01*
X105838980Y-68256545D01*
X105840297Y-68513843D01*
X105841701Y-68739361D01*
X105843244Y-68935736D01*
X105844981Y-69105606D01*
X105846965Y-69251609D01*
X105849249Y-69376383D01*
X105851886Y-69482567D01*
X105854930Y-69572798D01*
X105858433Y-69649714D01*
X105862450Y-69715954D01*
X105867033Y-69774155D01*
X105872237Y-69826956D01*
X105878113Y-69876994D01*
X105884716Y-69926908D01*
X105889443Y-69960674D01*
X105910587Y-70100205D01*
X105935657Y-70250766D01*
X105961716Y-70395490D01*
X105985827Y-70517507D01*
X105988957Y-70532174D01*
X106123326Y-71055204D01*
X106296883Y-71564577D01*
X106508193Y-72058035D01*
X106755821Y-72533319D01*
X107038330Y-72988171D01*
X107354285Y-73420333D01*
X107702251Y-73827547D01*
X108080790Y-74207553D01*
X108488469Y-74558095D01*
X108606749Y-74649979D01*
X109047592Y-74960001D01*
X109504681Y-75232374D01*
X109979604Y-75467754D01*
X110473946Y-75666795D01*
X110989291Y-75830152D01*
X111527226Y-75958480D01*
X111957383Y-76033768D01*
X111975294Y-76036248D01*
X111995638Y-76038618D01*
X112019375Y-76040881D01*
X112047461Y-76043040D01*
X112080854Y-76045097D01*
X112120513Y-76047056D01*
X112167396Y-76048918D01*
X112222459Y-76050687D01*
X112286662Y-76052365D01*
X112360962Y-76053955D01*
X112446317Y-76055459D01*
X112543685Y-76056881D01*
X112654024Y-76058223D01*
X112778291Y-76059488D01*
X112917445Y-76060678D01*
X113072443Y-76061797D01*
X113244243Y-76062846D01*
X113433804Y-76063829D01*
X113642083Y-76064749D01*
X113870038Y-76065607D01*
X114118627Y-76066407D01*
X114388808Y-76067152D01*
X114681538Y-76067844D01*
X114997776Y-76068486D01*
X115338480Y-76069081D01*
X115704607Y-76069630D01*
X116097116Y-76070138D01*
X116516963Y-76070607D01*
X116965108Y-76071039D01*
X117442508Y-76071437D01*
X117950121Y-76071805D01*
X118488905Y-76072144D01*
X119059817Y-76072457D01*
X119663816Y-76072747D01*
X120301859Y-76073017D01*
X120974905Y-76073269D01*
X121683911Y-76073507D01*
X122429836Y-76073732D01*
X123213636Y-76073949D01*
X124036271Y-76074158D01*
X124898697Y-76074363D01*
X125801874Y-76074568D01*
X126414216Y-76074701D01*
X127189549Y-76074844D01*
X127954961Y-76074933D01*
X128709335Y-76074971D01*
X129451556Y-76074958D01*
X130180508Y-76074897D01*
X130895076Y-76074786D01*
X131594143Y-76074629D01*
X132276593Y-76074426D01*
X132941311Y-76074177D01*
X133587181Y-76073885D01*
X134213087Y-76073550D01*
X134817913Y-76073173D01*
X135400544Y-76072756D01*
X135959864Y-76072299D01*
X136494756Y-76071804D01*
X137004105Y-76071272D01*
X137486796Y-76070704D01*
X137941711Y-76070100D01*
X138367737Y-76069463D01*
X138763756Y-76068792D01*
X139128652Y-76068090D01*
X139461311Y-76067358D01*
X139760616Y-76066595D01*
X140025452Y-76065805D01*
X140254702Y-76064987D01*
X140447251Y-76064142D01*
X140601982Y-76063273D01*
X140717781Y-76062379D01*
X140793531Y-76061463D01*
X140828117Y-76060525D01*
X140828716Y-76060480D01*
X141141440Y-76025238D01*
X141475856Y-75970150D01*
X141818070Y-75898300D01*
X142154189Y-75812772D01*
X142470321Y-75716650D01*
X142630242Y-75660532D01*
X142818363Y-75585827D01*
X143028722Y-75493783D01*
X143249909Y-75389997D01*
X143470511Y-75280067D01*
X143679119Y-75169593D01*
X143864322Y-75064172D01*
X143940216Y-75017849D01*
X144344167Y-74742346D01*
X128476202Y-74742346D01*
X128456771Y-74743552D01*
X128396774Y-74744670D01*
X128297980Y-74745702D01*
X128162154Y-74746650D01*
X127991066Y-74747514D01*
X127786483Y-74748297D01*
X127550171Y-74749000D01*
X127283900Y-74749624D01*
X126989436Y-74750171D01*
X126668548Y-74750643D01*
X126323002Y-74751041D01*
X125954566Y-74751367D01*
X125565008Y-74751622D01*
X125156096Y-74751807D01*
X124729597Y-74751925D01*
X124287278Y-74751976D01*
X123830907Y-74751963D01*
X123362253Y-74751886D01*
X122883081Y-74751748D01*
X122395161Y-74751550D01*
X121900260Y-74751293D01*
X121400144Y-74750979D01*
X120896582Y-74750610D01*
X120391342Y-74750186D01*
X119886191Y-74749710D01*
X119382896Y-74749184D01*
X118883225Y-74748607D01*
X118388946Y-74747983D01*
X117901827Y-74747313D01*
X117423634Y-74746597D01*
X116956136Y-74745839D01*
X116501100Y-74745039D01*
X116060294Y-74744198D01*
X115635485Y-74743319D01*
X115228440Y-74742402D01*
X114840929Y-74741450D01*
X114474717Y-74740464D01*
X114131573Y-74739446D01*
X113813264Y-74738396D01*
X113521559Y-74737317D01*
X113258223Y-74736210D01*
X113025026Y-74735076D01*
X112823734Y-74733918D01*
X112656115Y-74732736D01*
X112523938Y-74731532D01*
X112428968Y-74730308D01*
X112372975Y-74729065D01*
X112359549Y-74728385D01*
X111871978Y-74662406D01*
X111397569Y-74556403D01*
X110937722Y-74411021D01*
X110493835Y-74226901D01*
X110067308Y-74004687D01*
X109659538Y-73745021D01*
X109271925Y-73448547D01*
X108954364Y-73163277D01*
X108634777Y-72826374D01*
X108341586Y-72459850D01*
X108077600Y-72068526D01*
X107845628Y-71657223D01*
X107648476Y-71230763D01*
X107488954Y-70793966D01*
X107406628Y-70506218D01*
X107380821Y-70404149D01*
X107357605Y-70309294D01*
X107336844Y-70218978D01*
X107318401Y-70130525D01*
X107302139Y-70041260D01*
X107287920Y-69948508D01*
X107275607Y-69849593D01*
X107265064Y-69741840D01*
X107256152Y-69622573D01*
X107248736Y-69489117D01*
X107242677Y-69338796D01*
X107237840Y-69168935D01*
X107234086Y-68976859D01*
X107231279Y-68759892D01*
X107229281Y-68515359D01*
X107227956Y-68240584D01*
X107227166Y-67932892D01*
X107226774Y-67589608D01*
X107226643Y-67208055D01*
X107226633Y-66993849D01*
X107226679Y-66605475D01*
X107226873Y-66256762D01*
X107227296Y-65945038D01*
X107228031Y-65667632D01*
X107229160Y-65421870D01*
X107230765Y-65205080D01*
X107232927Y-65014592D01*
X107235730Y-64847732D01*
X107239256Y-64701828D01*
X107243586Y-64574209D01*
X107248802Y-64462202D01*
X107254987Y-64363135D01*
X107262223Y-64274337D01*
X107270592Y-64193134D01*
X107280177Y-64116855D01*
X107291058Y-64042827D01*
X107303319Y-63968379D01*
X107317042Y-63890839D01*
X107323020Y-63858021D01*
X107431264Y-63381559D01*
X107578265Y-62921972D01*
X107763678Y-62479914D01*
X107987155Y-62056042D01*
X108248351Y-61651010D01*
X108546919Y-61265474D01*
X108882514Y-60900091D01*
X108887339Y-60895257D01*
X109246721Y-60563077D01*
X109623501Y-60268915D01*
X110018877Y-60012163D01*
X110434046Y-59792211D01*
X110870208Y-59608451D01*
X111328559Y-59460274D01*
X111810297Y-59347071D01*
X111999716Y-59313101D01*
X112033632Y-59307589D01*
X112066839Y-59302538D01*
X112101252Y-59297926D01*
X112138787Y-59293728D01*
X112181359Y-59289921D01*
X112230886Y-59286480D01*
X112289281Y-59283382D01*
X112358463Y-59280602D01*
X112440345Y-59278118D01*
X112536844Y-59275904D01*
X112649877Y-59273938D01*
X112781357Y-59272196D01*
X112933203Y-59270652D01*
X113107328Y-59269285D01*
X113305650Y-59268069D01*
X113530084Y-59266982D01*
X113782546Y-59265998D01*
X114064951Y-59265095D01*
X114379216Y-59264248D01*
X114727256Y-59263434D01*
X115110987Y-59262628D01*
X115532326Y-59261808D01*
X115993187Y-59260948D01*
X116222466Y-59260527D01*
X116760788Y-59259632D01*
X117257810Y-59259002D01*
X117714563Y-59258642D01*
X118132081Y-59258555D01*
X118511393Y-59258746D01*
X118853534Y-59259219D01*
X119159535Y-59259977D01*
X119430427Y-59261025D01*
X119667244Y-59262367D01*
X119871017Y-59264007D01*
X120042777Y-59265949D01*
X120183559Y-59268198D01*
X120294392Y-59270756D01*
X120376310Y-59273629D01*
X120430345Y-59276820D01*
X120434633Y-59277191D01*
X120922499Y-59342247D01*
X121399245Y-59447901D01*
X121863204Y-59593486D01*
X122312712Y-59778335D01*
X122746101Y-60001782D01*
X123161706Y-60263159D01*
X123471893Y-60492488D01*
X123600460Y-60600084D01*
X123745377Y-60731177D01*
X123897608Y-60876796D01*
X124048117Y-61027972D01*
X124187867Y-61175734D01*
X124307822Y-61311113D01*
X124358600Y-61372666D01*
X124630341Y-61744386D01*
X124873953Y-62142047D01*
X125086397Y-62559296D01*
X125264631Y-62989781D01*
X125405614Y-63427153D01*
X125473505Y-63701386D01*
X125489528Y-63774585D01*
X125503942Y-63841359D01*
X125516843Y-63904222D01*
X125528328Y-63965690D01*
X125538493Y-64028276D01*
X125547436Y-64094495D01*
X125555252Y-64166861D01*
X125562040Y-64247889D01*
X125567894Y-64340093D01*
X125572912Y-64445987D01*
X125577191Y-64568087D01*
X125580827Y-64708905D01*
X125583917Y-64870958D01*
X125586558Y-65056758D01*
X125588845Y-65268821D01*
X125590877Y-65509662D01*
X125592748Y-65781793D01*
X125594557Y-66087731D01*
X125596400Y-66429988D01*
X125598374Y-66811080D01*
X125599202Y-66971249D01*
X125601304Y-67375885D01*
X125603268Y-67740768D01*
X125605203Y-68068480D01*
X125607217Y-68361600D01*
X125609420Y-68622708D01*
X125611919Y-68854385D01*
X125614822Y-69059210D01*
X125618240Y-69239766D01*
X125622279Y-69398630D01*
X125627049Y-69538384D01*
X125632657Y-69661609D01*
X125639214Y-69770884D01*
X125646826Y-69868789D01*
X125655602Y-69957905D01*
X125665652Y-70040812D01*
X125677083Y-70120091D01*
X125690004Y-70198321D01*
X125704523Y-70278083D01*
X125720750Y-70361958D01*
X125738792Y-70452524D01*
X125747402Y-70495499D01*
X125871880Y-71010784D01*
X126035891Y-71514176D01*
X126237868Y-72003100D01*
X126476241Y-72474977D01*
X126749445Y-72927231D01*
X127055912Y-73357286D01*
X127394073Y-73762562D01*
X127762363Y-74140485D01*
X128159213Y-74488476D01*
X128192216Y-74515000D01*
X128284265Y-74588527D01*
X128364310Y-74652532D01*
X128426684Y-74702478D01*
X128465722Y-74733829D01*
X128476202Y-74742346D01*
X144344167Y-74742346D01*
X144388396Y-74712181D01*
X144809179Y-74375529D01*
X145201196Y-74009867D01*
X145563079Y-73617170D01*
X145893461Y-73199411D01*
X146190971Y-72758564D01*
X146454244Y-72296602D01*
X146681909Y-71815499D01*
X146872599Y-71317230D01*
X147024945Y-70803766D01*
X147104697Y-70453166D01*
X147124915Y-70351847D01*
X147142987Y-70259094D01*
X147159041Y-70172040D01*
X147173209Y-70087822D01*
X147185620Y-70003575D01*
X147196404Y-69916434D01*
X147205692Y-69823535D01*
X147213613Y-69722013D01*
X147220298Y-69609004D01*
X147225876Y-69481643D01*
X147230478Y-69337065D01*
X147234234Y-69172407D01*
X147237273Y-68984803D01*
X147239727Y-68771389D01*
X147241724Y-68529301D01*
X147243395Y-68255673D01*
X147244870Y-67947642D01*
X147246279Y-67602342D01*
X147247397Y-67310019D01*
X147248816Y-66892615D01*
X147249703Y-66514943D01*
X147249999Y-66174402D01*
X147249644Y-65868394D01*
X147248578Y-65594319D01*
X147246743Y-65349577D01*
X147244079Y-65131569D01*
X147240526Y-64937696D01*
X147236026Y-64765357D01*
X147230517Y-64611955D01*
X147223942Y-64474888D01*
X147216240Y-64351558D01*
X147207352Y-64239366D01*
X147197219Y-64135711D01*
X147185781Y-64037995D01*
X147172978Y-63943617D01*
X147169904Y-63922582D01*
X147069183Y-63382909D01*
X146929036Y-62858517D01*
X146749701Y-62349984D01*
X146682360Y-62198166D01*
X143659401Y-62198166D01*
X143650164Y-62245791D01*
X143644500Y-62270664D01*
X143629583Y-62334851D01*
X143605858Y-62436456D01*
X143573769Y-62573584D01*
X143533762Y-62744343D01*
X143486281Y-62946836D01*
X143431772Y-63179169D01*
X143370679Y-63439448D01*
X143303447Y-63725778D01*
X143230520Y-64036264D01*
X143152345Y-64369013D01*
X143069365Y-64722129D01*
X142982026Y-65093717D01*
X142890771Y-65481885D01*
X142796048Y-65884736D01*
X142698299Y-66300376D01*
X142597970Y-66726911D01*
X142584072Y-66785991D01*
X141527216Y-71278566D01*
X140379328Y-71278616D01*
X139231439Y-71278666D01*
X139219940Y-71231041D01*
X139206144Y-71171398D01*
X139184587Y-71074931D01*
X139156251Y-70946235D01*
X139122121Y-70789906D01*
X139083182Y-70610541D01*
X139040418Y-70412733D01*
X138994814Y-70201080D01*
X138947354Y-69980176D01*
X138899022Y-69754618D01*
X138850803Y-69529000D01*
X138803681Y-69307920D01*
X138758641Y-69095971D01*
X138716667Y-68897750D01*
X138678744Y-68717853D01*
X138645855Y-68560875D01*
X138618986Y-68431411D01*
X138599120Y-68334058D01*
X138595375Y-68315332D01*
X138531468Y-67984481D01*
X138467945Y-67637639D01*
X138406174Y-67283225D01*
X138347524Y-66929657D01*
X138293363Y-66585353D01*
X138245058Y-66258733D01*
X138203979Y-65958216D01*
X138177393Y-65743582D01*
X138160078Y-65595416D01*
X138133358Y-65828249D01*
X138111586Y-66005464D01*
X138083040Y-66218244D01*
X138048677Y-66460531D01*
X138009453Y-66726269D01*
X137966325Y-67009401D01*
X137920250Y-67303870D01*
X137872185Y-67603619D01*
X137823087Y-67902591D01*
X137773912Y-68194729D01*
X137725619Y-68473977D01*
X137679162Y-68734278D01*
X137645133Y-68918582D01*
X137627402Y-69009786D01*
X137601904Y-69136416D01*
X137569878Y-69292532D01*
X137532562Y-69472195D01*
X137491195Y-69669466D01*
X137447015Y-69878406D01*
X137401262Y-70093077D01*
X137363710Y-70267957D01*
X137145911Y-71278666D01*
X134793954Y-71278666D01*
X131525966Y-71278666D01*
X129176333Y-71278666D01*
X129187049Y-64706416D01*
X130356508Y-64700945D01*
X131525966Y-64695474D01*
X131525966Y-71278666D01*
X134793954Y-71278666D01*
X133730955Y-66754291D01*
X133630195Y-66325354D01*
X133532031Y-65907307D01*
X133436901Y-65502021D01*
X133345241Y-65111367D01*
X133257490Y-64737213D01*
X133174085Y-64381431D01*
X133095464Y-64045892D01*
X133022065Y-63732464D01*
X132954325Y-63443019D01*
X132892682Y-63179427D01*
X132837574Y-62943558D01*
X132811813Y-62833165D01*
X131695299Y-62833165D01*
X131675101Y-63039993D01*
X131616104Y-63233871D01*
X131520709Y-63411592D01*
X131391315Y-63569948D01*
X131230320Y-63705733D01*
X131040125Y-63815738D01*
X130924224Y-63863986D01*
X130759110Y-63909370D01*
X130567706Y-63937439D01*
X130362511Y-63947844D01*
X130156020Y-63940234D01*
X129960732Y-63914257D01*
X129868606Y-63893598D01*
X129667194Y-63824806D01*
X129482243Y-63730137D01*
X129320806Y-63614266D01*
X129189932Y-63481866D01*
X129136466Y-63408301D01*
X129062472Y-63275978D01*
X129014259Y-63144568D01*
X128988135Y-63000468D01*
X128980407Y-62833166D01*
X128988381Y-62663499D01*
X129014775Y-62519877D01*
X129063298Y-62388651D01*
X129136855Y-62257424D01*
X129243170Y-62125896D01*
X129383376Y-62004902D01*
X129549366Y-61899644D01*
X129733034Y-61815323D01*
X129911227Y-61760575D01*
X130036085Y-61739269D01*
X130185300Y-61726214D01*
X130346091Y-61721413D01*
X130505673Y-61724868D01*
X130651265Y-61736583D01*
X130770083Y-61756561D01*
X130785133Y-61760358D01*
X131006447Y-61837757D01*
X131201119Y-61943133D01*
X131366856Y-62073784D01*
X131501369Y-62227011D01*
X131602366Y-62400112D01*
X131667555Y-62590388D01*
X131694646Y-62795136D01*
X131695299Y-62833165D01*
X132811813Y-62833165D01*
X132789438Y-62737283D01*
X132748713Y-62562472D01*
X132715835Y-62420994D01*
X132691242Y-62314722D01*
X132675373Y-62245524D01*
X132668665Y-62215271D01*
X132668461Y-62214041D01*
X132689111Y-62211204D01*
X132748446Y-62208531D01*
X132842813Y-62206064D01*
X132968565Y-62203851D01*
X133122051Y-62201936D01*
X133299622Y-62200365D01*
X133497628Y-62199182D01*
X133712418Y-62198434D01*
X133940344Y-62198166D01*
X135223770Y-62198166D01*
X135312890Y-62849041D01*
X135334985Y-63005998D01*
X135362876Y-63197063D01*
X135395390Y-63414586D01*
X135431356Y-63650920D01*
X135469604Y-63898414D01*
X135508960Y-64149422D01*
X135548253Y-64396293D01*
X135579560Y-64589999D01*
X135641227Y-64970041D01*
X135696213Y-65312114D01*
X135745084Y-65619957D01*
X135788405Y-65897311D01*
X135826743Y-66147915D01*
X135860664Y-66375509D01*
X135890732Y-66583832D01*
X135917514Y-66776624D01*
X135941575Y-66957625D01*
X135961616Y-67115508D01*
X135977995Y-67246867D01*
X135992886Y-67365037D01*
X136005411Y-67463149D01*
X136014692Y-67534333D01*
X136019849Y-67571719D01*
X136020302Y-67574499D01*
X136024722Y-67567971D01*
X136032453Y-67526341D01*
X136042376Y-67456605D01*
X136052503Y-67373416D01*
X136084430Y-67112583D01*
X136124596Y-66816801D01*
X136172004Y-66492433D01*
X136225654Y-66145843D01*
X136284550Y-65783394D01*
X136347692Y-65411450D01*
X136414083Y-65036375D01*
X136449229Y-64843999D01*
X136468168Y-64743526D01*
X136493148Y-64614185D01*
X136523266Y-64460423D01*
X136557621Y-64286684D01*
X136595311Y-64097417D01*
X136635433Y-63897065D01*
X136677085Y-63690075D01*
X136719365Y-63480894D01*
X136761370Y-63273966D01*
X136802199Y-63073739D01*
X136840950Y-62884657D01*
X136876719Y-62711167D01*
X136908606Y-62557715D01*
X136935707Y-62428747D01*
X136957121Y-62328708D01*
X136971946Y-62262045D01*
X136978611Y-62235207D01*
X136983146Y-62227139D01*
X136993684Y-62220331D01*
X137013555Y-62214677D01*
X137046086Y-62210070D01*
X137094606Y-62206405D01*
X137162445Y-62203574D01*
X137252930Y-62201472D01*
X137369391Y-62199991D01*
X137515155Y-62199027D01*
X137693552Y-62198472D01*
X137907911Y-62198221D01*
X138138205Y-62198166D01*
X139286591Y-62198166D01*
X139397990Y-62743207D01*
X139449864Y-62995034D01*
X139500608Y-63237005D01*
X139552288Y-63478651D01*
X139606970Y-63729505D01*
X139666718Y-63999100D01*
X139733599Y-64296967D01*
X139759169Y-64410082D01*
X139840715Y-64786008D01*
X139921973Y-65190305D01*
X140000642Y-65610105D01*
X140074421Y-66032540D01*
X140141009Y-66444742D01*
X140198105Y-66833843D01*
X140215220Y-66960666D01*
X140233164Y-67097028D01*
X140250291Y-67227120D01*
X140265421Y-67341990D01*
X140277375Y-67432688D01*
X140284919Y-67489832D01*
X140290427Y-67525086D01*
X140295816Y-67540515D01*
X140301818Y-67532486D01*
X140309166Y-67497361D01*
X140318594Y-67431504D01*
X140330835Y-67331281D01*
X140346622Y-67193053D01*
X140348947Y-67172332D01*
X140413487Y-66626613D01*
X140488649Y-66045368D01*
X140573668Y-65433845D01*
X140667781Y-64797292D01*
X140770223Y-64140955D01*
X140880230Y-63470084D01*
X140934894Y-63147949D01*
X140967839Y-62955602D01*
X140998465Y-62776236D01*
X141026048Y-62614130D01*
X141049866Y-62473561D01*
X141069195Y-62358806D01*
X141083311Y-62274142D01*
X141091491Y-62223849D01*
X141093299Y-62211324D01*
X141113859Y-62208979D01*
X141173113Y-62206767D01*
X141267420Y-62204726D01*
X141393141Y-62202894D01*
X141546636Y-62201307D01*
X141724266Y-62200004D01*
X141922390Y-62199021D01*
X142137369Y-62198396D01*
X142365563Y-62198166D01*
X143659401Y-62198166D01*
X146682360Y-62198166D01*
X146531422Y-61857883D01*
X146274436Y-61382791D01*
X145978985Y-60925283D01*
X145836109Y-60728697D01*
X145491582Y-60305257D01*
X145119446Y-59912815D01*
X144721571Y-59552406D01*
X144299826Y-59225066D01*
X143856081Y-58931829D01*
X143392205Y-58673732D01*
X142910068Y-58451809D01*
X142411540Y-58267096D01*
X141898490Y-58120627D01*
X141372787Y-58013438D01*
X140836302Y-57946565D01*
X140807549Y-57944162D01*
X140774984Y-57942466D01*
X140719485Y-57940854D01*
X140640403Y-57939325D01*
X140537089Y-57937878D01*
X140408892Y-57936514D01*
X140255163Y-57935230D01*
X140075254Y-57934026D01*
X139868513Y-57932901D01*
X139634293Y-57931855D01*
X139371942Y-57930887D01*
X139080812Y-57929996D01*
X138760253Y-57929181D01*
X138409615Y-57928441D01*
X138028249Y-57927776D01*
X137615505Y-57927186D01*
X137170734Y-57926668D01*
X136693287Y-57926223D01*
X136182513Y-57925849D01*
X135637763Y-57925546D01*
X135058388Y-57925314D01*
X134443737Y-57925150D01*
X133793163Y-57925056D01*
X133106014Y-57925029D01*
X132381641Y-57925069D01*
G37*
X132381641Y-57925069D02*
X131619395Y-57925175D01*
X130818626Y-57925347D01*
X129978686Y-57925584D01*
X129098923Y-57925885D01*
X128178688Y-57926249D01*
X127217333Y-57926675D01*
X126350716Y-57927094D01*
X125420862Y-57927564D01*
X124532385Y-57928024D01*
X123684328Y-57928476D01*
X122875737Y-57928922D01*
X122105654Y-57929367D01*
X121373124Y-57929813D01*
X120677190Y-57930263D01*
X120016897Y-57930719D01*
X119391287Y-57931185D01*
X118799405Y-57931664D01*
X118240294Y-57932158D01*
X117713000Y-57932670D01*
X117216564Y-57933203D01*
X116750032Y-57933761D01*
X116312446Y-57934346D01*
X115902852Y-57934960D01*
X115520292Y-57935608D01*
X115163810Y-57936291D01*
X114832451Y-57937013D01*
X114525257Y-57937776D01*
X114241274Y-57938584D01*
X113979545Y-57939439D01*
X113739113Y-57940344D01*
X113519023Y-57941303D01*
X113318317Y-57942317D01*
X113136041Y-57943391D01*
X112971238Y-57944526D01*
X112822952Y-57945726D01*
X112690226Y-57946994D01*
X112572105Y-57948332D01*
X112467632Y-57949743D01*
X112375851Y-57951231D01*
X112295806Y-57952799D01*
X112226541Y-57954448D01*
X112167099Y-57956182D01*
X112116525Y-57958005D01*
X112073862Y-57959918D01*
X112038154Y-57961925D01*
X112008445Y-57964028D01*
X111983779Y-57966232D01*
X111963199Y-57968537D01*
X111946799Y-57970789D01*
X111752732Y-58002485D01*
X111548424Y-58040284D01*
X111346738Y-58081545D01*
X111160535Y-58123629D01*
X111002677Y-58163896D01*
X110993315Y-58166496D01*
X110471022Y-58334064D01*
X109967734Y-58539057D01*
X109484853Y-58780397D01*
X109023786Y-59057008D01*
X108585936Y-59367814D01*
X108172708Y-59711737D01*
X107785506Y-60087700D01*
X107425735Y-60494626D01*
X107094799Y-60931440D01*
X106806036Y-61377057D01*
X106737730Y-61497461D01*
X106659205Y-61646135D01*
X106575535Y-61812530D01*
X106491791Y-61986099D01*
X106413047Y-62156292D01*
X106344376Y-62312563D01*
X106290849Y-62444362D01*
X106283927Y-62462749D01*
X106127144Y-62930392D01*
X106005913Y-63395702D01*
X105918102Y-63868794D01*
X105861584Y-64359786D01*
X105849497Y-64526499D01*
X105845081Y-64623503D01*
X105841335Y-64762772D01*
X105838257Y-64944239D01*
X105835850Y-65167840D01*
X105834112Y-65433512D01*
X105833045Y-65741189D01*
X105832648Y-66090807D01*
X105832922Y-66482302D01*
X105833868Y-66915608D01*
X105835017Y-67267582D01*
X105836393Y-67636052D01*
X105837697Y-67964827D01*
X105838980Y-68256545D01*
X105840297Y-68513843D01*
X105841701Y-68739361D01*
X105843244Y-68935736D01*
X105844981Y-69105606D01*
X105846965Y-69251609D01*
X105849249Y-69376383D01*
X105851886Y-69482567D01*
X105854930Y-69572798D01*
X105858433Y-69649714D01*
X105862450Y-69715954D01*
X105867033Y-69774155D01*
X105872237Y-69826956D01*
X105878113Y-69876994D01*
X105884716Y-69926908D01*
X105889443Y-69960674D01*
X105910587Y-70100205D01*
X105935657Y-70250766D01*
X105961716Y-70395490D01*
X105985827Y-70517507D01*
X105988957Y-70532174D01*
X106123326Y-71055204D01*
X106296883Y-71564577D01*
X106508193Y-72058035D01*
X106755821Y-72533319D01*
X107038330Y-72988171D01*
X107354285Y-73420333D01*
X107702251Y-73827547D01*
X108080790Y-74207553D01*
X108488469Y-74558095D01*
X108606749Y-74649979D01*
X109047592Y-74960001D01*
X109504681Y-75232374D01*
X109979604Y-75467754D01*
X110473946Y-75666795D01*
X110989291Y-75830152D01*
X111527226Y-75958480D01*
X111957383Y-76033768D01*
X111975294Y-76036248D01*
X111995638Y-76038618D01*
X112019375Y-76040881D01*
X112047461Y-76043040D01*
X112080854Y-76045097D01*
X112120513Y-76047056D01*
X112167396Y-76048918D01*
X112222459Y-76050687D01*
X112286662Y-76052365D01*
X112360962Y-76053955D01*
X112446317Y-76055459D01*
X112543685Y-76056881D01*
X112654024Y-76058223D01*
X112778291Y-76059488D01*
X112917445Y-76060678D01*
X113072443Y-76061797D01*
X113244243Y-76062846D01*
X113433804Y-76063829D01*
X113642083Y-76064749D01*
X113870038Y-76065607D01*
X114118627Y-76066407D01*
X114388808Y-76067152D01*
X114681538Y-76067844D01*
X114997776Y-76068486D01*
X115338480Y-76069081D01*
X115704607Y-76069630D01*
X116097116Y-76070138D01*
X116516963Y-76070607D01*
X116965108Y-76071039D01*
X117442508Y-76071437D01*
X117950121Y-76071805D01*
X118488905Y-76072144D01*
X119059817Y-76072457D01*
X119663816Y-76072747D01*
X120301859Y-76073017D01*
X120974905Y-76073269D01*
X121683911Y-76073507D01*
X122429836Y-76073732D01*
X123213636Y-76073949D01*
X124036271Y-76074158D01*
X124898697Y-76074363D01*
X125801874Y-76074568D01*
X126414216Y-76074701D01*
X127189549Y-76074844D01*
X127954961Y-76074933D01*
X128709335Y-76074971D01*
X129451556Y-76074958D01*
X130180508Y-76074897D01*
X130895076Y-76074786D01*
X131594143Y-76074629D01*
X132276593Y-76074426D01*
X132941311Y-76074177D01*
X133587181Y-76073885D01*
X134213087Y-76073550D01*
X134817913Y-76073173D01*
X135400544Y-76072756D01*
X135959864Y-76072299D01*
X136494756Y-76071804D01*
X137004105Y-76071272D01*
X137486796Y-76070704D01*
X137941711Y-76070100D01*
X138367737Y-76069463D01*
X138763756Y-76068792D01*
X139128652Y-76068090D01*
X139461311Y-76067358D01*
X139760616Y-76066595D01*
X140025452Y-76065805D01*
X140254702Y-76064987D01*
X140447251Y-76064142D01*
X140601982Y-76063273D01*
X140717781Y-76062379D01*
X140793531Y-76061463D01*
X140828117Y-76060525D01*
X140828716Y-76060480D01*
X141141440Y-76025238D01*
X141475856Y-75970150D01*
X141818070Y-75898300D01*
X142154189Y-75812772D01*
X142470321Y-75716650D01*
X142630242Y-75660532D01*
X142818363Y-75585827D01*
X143028722Y-75493783D01*
X143249909Y-75389997D01*
X143470511Y-75280067D01*
X143679119Y-75169593D01*
X143864322Y-75064172D01*
X143940216Y-75017849D01*
X144344167Y-74742346D01*
X128476202Y-74742346D01*
X128456771Y-74743552D01*
X128396774Y-74744670D01*
X128297980Y-74745702D01*
X128162154Y-74746650D01*
X127991066Y-74747514D01*
X127786483Y-74748297D01*
X127550171Y-74749000D01*
X127283900Y-74749624D01*
X126989436Y-74750171D01*
X126668548Y-74750643D01*
X126323002Y-74751041D01*
X125954566Y-74751367D01*
X125565008Y-74751622D01*
X125156096Y-74751807D01*
X124729597Y-74751925D01*
X124287278Y-74751976D01*
X123830907Y-74751963D01*
X123362253Y-74751886D01*
X122883081Y-74751748D01*
X122395161Y-74751550D01*
X121900260Y-74751293D01*
X121400144Y-74750979D01*
X120896582Y-74750610D01*
X120391342Y-74750186D01*
X119886191Y-74749710D01*
X119382896Y-74749184D01*
X118883225Y-74748607D01*
X118388946Y-74747983D01*
X117901827Y-74747313D01*
X117423634Y-74746597D01*
X116956136Y-74745839D01*
X116501100Y-74745039D01*
X116060294Y-74744198D01*
X115635485Y-74743319D01*
X115228440Y-74742402D01*
X114840929Y-74741450D01*
X114474717Y-74740464D01*
X114131573Y-74739446D01*
X113813264Y-74738396D01*
X113521559Y-74737317D01*
X113258223Y-74736210D01*
X113025026Y-74735076D01*
X112823734Y-74733918D01*
X112656115Y-74732736D01*
X112523938Y-74731532D01*
X112428968Y-74730308D01*
X112372975Y-74729065D01*
X112359549Y-74728385D01*
X111871978Y-74662406D01*
X111397569Y-74556403D01*
X110937722Y-74411021D01*
X110493835Y-74226901D01*
X110067308Y-74004687D01*
X109659538Y-73745021D01*
X109271925Y-73448547D01*
X108954364Y-73163277D01*
X108634777Y-72826374D01*
X108341586Y-72459850D01*
X108077600Y-72068526D01*
X107845628Y-71657223D01*
X107648476Y-71230763D01*
X107488954Y-70793966D01*
X107406628Y-70506218D01*
X107380821Y-70404149D01*
X107357605Y-70309294D01*
X107336844Y-70218978D01*
X107318401Y-70130525D01*
X107302139Y-70041260D01*
X107287920Y-69948508D01*
X107275607Y-69849593D01*
X107265064Y-69741840D01*
X107256152Y-69622573D01*
X107248736Y-69489117D01*
X107242677Y-69338796D01*
X107237840Y-69168935D01*
X107234086Y-68976859D01*
X107231279Y-68759892D01*
X107229281Y-68515359D01*
X107227956Y-68240584D01*
X107227166Y-67932892D01*
X107226774Y-67589608D01*
X107226643Y-67208055D01*
X107226633Y-66993849D01*
X107226679Y-66605475D01*
X107226873Y-66256762D01*
X107227296Y-65945038D01*
X107228031Y-65667632D01*
X107229160Y-65421870D01*
X107230765Y-65205080D01*
X107232927Y-65014592D01*
X107235730Y-64847732D01*
X107239256Y-64701828D01*
X107243586Y-64574209D01*
X107248802Y-64462202D01*
X107254987Y-64363135D01*
X107262223Y-64274337D01*
X107270592Y-64193134D01*
X107280177Y-64116855D01*
X107291058Y-64042827D01*
X107303319Y-63968379D01*
X107317042Y-63890839D01*
X107323020Y-63858021D01*
X107431264Y-63381559D01*
X107578265Y-62921972D01*
X107763678Y-62479914D01*
X107987155Y-62056042D01*
X108248351Y-61651010D01*
X108546919Y-61265474D01*
X108882514Y-60900091D01*
X108887339Y-60895257D01*
X109246721Y-60563077D01*
X109623501Y-60268915D01*
X110018877Y-60012163D01*
X110434046Y-59792211D01*
X110870208Y-59608451D01*
X111328559Y-59460274D01*
X111810297Y-59347071D01*
X111999716Y-59313101D01*
X112033632Y-59307589D01*
X112066839Y-59302538D01*
X112101252Y-59297926D01*
X112138787Y-59293728D01*
X112181359Y-59289921D01*
X112230886Y-59286480D01*
X112289281Y-59283382D01*
X112358463Y-59280602D01*
X112440345Y-59278118D01*
X112536844Y-59275904D01*
X112649877Y-59273938D01*
X112781357Y-59272196D01*
X112933203Y-59270652D01*
X113107328Y-59269285D01*
X113305650Y-59268069D01*
X113530084Y-59266982D01*
X113782546Y-59265998D01*
X114064951Y-59265095D01*
X114379216Y-59264248D01*
X114727256Y-59263434D01*
X115110987Y-59262628D01*
X115532326Y-59261808D01*
X115993187Y-59260948D01*
X116222466Y-59260527D01*
X116760788Y-59259632D01*
X117257810Y-59259002D01*
X117714563Y-59258642D01*
X118132081Y-59258555D01*
X118511393Y-59258746D01*
X118853534Y-59259219D01*
X119159535Y-59259977D01*
X119430427Y-59261025D01*
X119667244Y-59262367D01*
X119871017Y-59264007D01*
X120042777Y-59265949D01*
X120183559Y-59268198D01*
X120294392Y-59270756D01*
X120376310Y-59273629D01*
X120430345Y-59276820D01*
X120434633Y-59277191D01*
X120922499Y-59342247D01*
X121399245Y-59447901D01*
X121863204Y-59593486D01*
X122312712Y-59778335D01*
X122746101Y-60001782D01*
X123161706Y-60263159D01*
X123471893Y-60492488D01*
X123600460Y-60600084D01*
X123745377Y-60731177D01*
X123897608Y-60876796D01*
X124048117Y-61027972D01*
X124187867Y-61175734D01*
X124307822Y-61311113D01*
X124358600Y-61372666D01*
X124630341Y-61744386D01*
X124873953Y-62142047D01*
X125086397Y-62559296D01*
X125264631Y-62989781D01*
X125405614Y-63427153D01*
X125473505Y-63701386D01*
X125489528Y-63774585D01*
X125503942Y-63841359D01*
X125516843Y-63904222D01*
X125528328Y-63965690D01*
X125538493Y-64028276D01*
X125547436Y-64094495D01*
X125555252Y-64166861D01*
X125562040Y-64247889D01*
X125567894Y-64340093D01*
X125572912Y-64445987D01*
X125577191Y-64568087D01*
X125580827Y-64708905D01*
X125583917Y-64870958D01*
X125586558Y-65056758D01*
X125588845Y-65268821D01*
X125590877Y-65509662D01*
X125592748Y-65781793D01*
X125594557Y-66087731D01*
X125596400Y-66429988D01*
X125598374Y-66811080D01*
X125599202Y-66971249D01*
X125601304Y-67375885D01*
X125603268Y-67740768D01*
X125605203Y-68068480D01*
X125607217Y-68361600D01*
X125609420Y-68622708D01*
X125611919Y-68854385D01*
X125614822Y-69059210D01*
X125618240Y-69239766D01*
X125622279Y-69398630D01*
X125627049Y-69538384D01*
X125632657Y-69661609D01*
X125639214Y-69770884D01*
X125646826Y-69868789D01*
X125655602Y-69957905D01*
X125665652Y-70040812D01*
X125677083Y-70120091D01*
X125690004Y-70198321D01*
X125704523Y-70278083D01*
X125720750Y-70361958D01*
X125738792Y-70452524D01*
X125747402Y-70495499D01*
X125871880Y-71010784D01*
X126035891Y-71514176D01*
X126237868Y-72003100D01*
X126476241Y-72474977D01*
X126749445Y-72927231D01*
X127055912Y-73357286D01*
X127394073Y-73762562D01*
X127762363Y-74140485D01*
X128159213Y-74488476D01*
X128192216Y-74515000D01*
X128284265Y-74588527D01*
X128364310Y-74652532D01*
X128426684Y-74702478D01*
X128465722Y-74733829D01*
X128476202Y-74742346D01*
X144344167Y-74742346D01*
X144388396Y-74712181D01*
X144809179Y-74375529D01*
X145201196Y-74009867D01*
X145563079Y-73617170D01*
X145893461Y-73199411D01*
X146190971Y-72758564D01*
X146454244Y-72296602D01*
X146681909Y-71815499D01*
X146872599Y-71317230D01*
X147024945Y-70803766D01*
X147104697Y-70453166D01*
X147124915Y-70351847D01*
X147142987Y-70259094D01*
X147159041Y-70172040D01*
X147173209Y-70087822D01*
X147185620Y-70003575D01*
X147196404Y-69916434D01*
X147205692Y-69823535D01*
X147213613Y-69722013D01*
X147220298Y-69609004D01*
X147225876Y-69481643D01*
X147230478Y-69337065D01*
X147234234Y-69172407D01*
X147237273Y-68984803D01*
X147239727Y-68771389D01*
X147241724Y-68529301D01*
X147243395Y-68255673D01*
X147244870Y-67947642D01*
X147246279Y-67602342D01*
X147247397Y-67310019D01*
X147248816Y-66892615D01*
X147249703Y-66514943D01*
X147249999Y-66174402D01*
X147249644Y-65868394D01*
X147248578Y-65594319D01*
X147246743Y-65349577D01*
X147244079Y-65131569D01*
X147240526Y-64937696D01*
X147236026Y-64765357D01*
X147230517Y-64611955D01*
X147223942Y-64474888D01*
X147216240Y-64351558D01*
X147207352Y-64239366D01*
X147197219Y-64135711D01*
X147185781Y-64037995D01*
X147172978Y-63943617D01*
X147169904Y-63922582D01*
X147069183Y-63382909D01*
X146929036Y-62858517D01*
X146749701Y-62349984D01*
X146682360Y-62198166D01*
X143659401Y-62198166D01*
X143650164Y-62245791D01*
X143644500Y-62270664D01*
X143629583Y-62334851D01*
X143605858Y-62436456D01*
X143573769Y-62573584D01*
X143533762Y-62744343D01*
X143486281Y-62946836D01*
X143431772Y-63179169D01*
X143370679Y-63439448D01*
X143303447Y-63725778D01*
X143230520Y-64036264D01*
X143152345Y-64369013D01*
X143069365Y-64722129D01*
X142982026Y-65093717D01*
X142890771Y-65481885D01*
X142796048Y-65884736D01*
X142698299Y-66300376D01*
X142597970Y-66726911D01*
X142584072Y-66785991D01*
X141527216Y-71278566D01*
X140379328Y-71278616D01*
X139231439Y-71278666D01*
X139219940Y-71231041D01*
X139206144Y-71171398D01*
X139184587Y-71074931D01*
X139156251Y-70946235D01*
X139122121Y-70789906D01*
X139083182Y-70610541D01*
X139040418Y-70412733D01*
X138994814Y-70201080D01*
X138947354Y-69980176D01*
X138899022Y-69754618D01*
X138850803Y-69529000D01*
X138803681Y-69307920D01*
X138758641Y-69095971D01*
X138716667Y-68897750D01*
X138678744Y-68717853D01*
X138645855Y-68560875D01*
X138618986Y-68431411D01*
X138599120Y-68334058D01*
X138595375Y-68315332D01*
X138531468Y-67984481D01*
X138467945Y-67637639D01*
X138406174Y-67283225D01*
X138347524Y-66929657D01*
X138293363Y-66585353D01*
X138245058Y-66258733D01*
X138203979Y-65958216D01*
X138177393Y-65743582D01*
X138160078Y-65595416D01*
X138133358Y-65828249D01*
X138111586Y-66005464D01*
X138083040Y-66218244D01*
X138048677Y-66460531D01*
X138009453Y-66726269D01*
X137966325Y-67009401D01*
X137920250Y-67303870D01*
X137872185Y-67603619D01*
X137823087Y-67902591D01*
X137773912Y-68194729D01*
X137725619Y-68473977D01*
X137679162Y-68734278D01*
X137645133Y-68918582D01*
X137627402Y-69009786D01*
X137601904Y-69136416D01*
X137569878Y-69292532D01*
X137532562Y-69472195D01*
X137491195Y-69669466D01*
X137447015Y-69878406D01*
X137401262Y-70093077D01*
X137363710Y-70267957D01*
X137145911Y-71278666D01*
X134793954Y-71278666D01*
X131525966Y-71278666D01*
X129176333Y-71278666D01*
X129187049Y-64706416D01*
X130356508Y-64700945D01*
X131525966Y-64695474D01*
X131525966Y-71278666D01*
X134793954Y-71278666D01*
X133730955Y-66754291D01*
X133630195Y-66325354D01*
X133532031Y-65907307D01*
X133436901Y-65502021D01*
X133345241Y-65111367D01*
X133257490Y-64737213D01*
X133174085Y-64381431D01*
X133095464Y-64045892D01*
X133022065Y-63732464D01*
X132954325Y-63443019D01*
X132892682Y-63179427D01*
X132837574Y-62943558D01*
X132811813Y-62833165D01*
X131695299Y-62833165D01*
X131675101Y-63039993D01*
X131616104Y-63233871D01*
X131520709Y-63411592D01*
X131391315Y-63569948D01*
X131230320Y-63705733D01*
X131040125Y-63815738D01*
X130924224Y-63863986D01*
X130759110Y-63909370D01*
X130567706Y-63937439D01*
X130362511Y-63947844D01*
X130156020Y-63940234D01*
X129960732Y-63914257D01*
X129868606Y-63893598D01*
X129667194Y-63824806D01*
X129482243Y-63730137D01*
X129320806Y-63614266D01*
X129189932Y-63481866D01*
X129136466Y-63408301D01*
X129062472Y-63275978D01*
X129014259Y-63144568D01*
X128988135Y-63000468D01*
X128980407Y-62833166D01*
X128988381Y-62663499D01*
X129014775Y-62519877D01*
X129063298Y-62388651D01*
X129136855Y-62257424D01*
X129243170Y-62125896D01*
X129383376Y-62004902D01*
X129549366Y-61899644D01*
X129733034Y-61815323D01*
X129911227Y-61760575D01*
X130036085Y-61739269D01*
X130185300Y-61726214D01*
X130346091Y-61721413D01*
X130505673Y-61724868D01*
X130651265Y-61736583D01*
X130770083Y-61756561D01*
X130785133Y-61760358D01*
X131006447Y-61837757D01*
X131201119Y-61943133D01*
X131366856Y-62073784D01*
X131501369Y-62227011D01*
X131602366Y-62400112D01*
X131667555Y-62590388D01*
X131694646Y-62795136D01*
X131695299Y-62833165D01*
X132811813Y-62833165D01*
X132789438Y-62737283D01*
X132748713Y-62562472D01*
X132715835Y-62420994D01*
X132691242Y-62314722D01*
X132675373Y-62245524D01*
X132668665Y-62215271D01*
X132668461Y-62214041D01*
X132689111Y-62211204D01*
X132748446Y-62208531D01*
X132842813Y-62206064D01*
X132968565Y-62203851D01*
X133122051Y-62201936D01*
X133299622Y-62200365D01*
X133497628Y-62199182D01*
X133712418Y-62198434D01*
X133940344Y-62198166D01*
X135223770Y-62198166D01*
X135312890Y-62849041D01*
X135334985Y-63005998D01*
X135362876Y-63197063D01*
X135395390Y-63414586D01*
X135431356Y-63650920D01*
X135469604Y-63898414D01*
X135508960Y-64149422D01*
X135548253Y-64396293D01*
X135579560Y-64589999D01*
X135641227Y-64970041D01*
X135696213Y-65312114D01*
X135745084Y-65619957D01*
X135788405Y-65897311D01*
X135826743Y-66147915D01*
X135860664Y-66375509D01*
X135890732Y-66583832D01*
X135917514Y-66776624D01*
X135941575Y-66957625D01*
X135961616Y-67115508D01*
X135977995Y-67246867D01*
X135992886Y-67365037D01*
X136005411Y-67463149D01*
X136014692Y-67534333D01*
X136019849Y-67571719D01*
X136020302Y-67574499D01*
X136024722Y-67567971D01*
X136032453Y-67526341D01*
X136042376Y-67456605D01*
X136052503Y-67373416D01*
X136084430Y-67112583D01*
X136124596Y-66816801D01*
X136172004Y-66492433D01*
X136225654Y-66145843D01*
X136284550Y-65783394D01*
X136347692Y-65411450D01*
X136414083Y-65036375D01*
X136449229Y-64843999D01*
X136468168Y-64743526D01*
X136493148Y-64614185D01*
X136523266Y-64460423D01*
X136557621Y-64286684D01*
X136595311Y-64097417D01*
X136635433Y-63897065D01*
X136677085Y-63690075D01*
X136719365Y-63480894D01*
X136761370Y-63273966D01*
X136802199Y-63073739D01*
X136840950Y-62884657D01*
X136876719Y-62711167D01*
X136908606Y-62557715D01*
X136935707Y-62428747D01*
X136957121Y-62328708D01*
X136971946Y-62262045D01*
X136978611Y-62235207D01*
X136983146Y-62227139D01*
X136993684Y-62220331D01*
X137013555Y-62214677D01*
X137046086Y-62210070D01*
X137094606Y-62206405D01*
X137162445Y-62203574D01*
X137252930Y-62201472D01*
X137369391Y-62199991D01*
X137515155Y-62199027D01*
X137693552Y-62198472D01*
X137907911Y-62198221D01*
X138138205Y-62198166D01*
X139286591Y-62198166D01*
X139397990Y-62743207D01*
X139449864Y-62995034D01*
X139500608Y-63237005D01*
X139552288Y-63478651D01*
X139606970Y-63729505D01*
X139666718Y-63999100D01*
X139733599Y-64296967D01*
X139759169Y-64410082D01*
X139840715Y-64786008D01*
X139921973Y-65190305D01*
X140000642Y-65610105D01*
X140074421Y-66032540D01*
X140141009Y-66444742D01*
X140198105Y-66833843D01*
X140215220Y-66960666D01*
X140233164Y-67097028D01*
X140250291Y-67227120D01*
X140265421Y-67341990D01*
X140277375Y-67432688D01*
X140284919Y-67489832D01*
X140290427Y-67525086D01*
X140295816Y-67540515D01*
X140301818Y-67532486D01*
X140309166Y-67497361D01*
X140318594Y-67431504D01*
X140330835Y-67331281D01*
X140346622Y-67193053D01*
X140348947Y-67172332D01*
X140413487Y-66626613D01*
X140488649Y-66045368D01*
X140573668Y-65433845D01*
X140667781Y-64797292D01*
X140770223Y-64140955D01*
X140880230Y-63470084D01*
X140934894Y-63147949D01*
X140967839Y-62955602D01*
X140998465Y-62776236D01*
X141026048Y-62614130D01*
X141049866Y-62473561D01*
X141069195Y-62358806D01*
X141083311Y-62274142D01*
X141091491Y-62223849D01*
X141093299Y-62211324D01*
X141113859Y-62208979D01*
X141173113Y-62206767D01*
X141267420Y-62204726D01*
X141393141Y-62202894D01*
X141546636Y-62201307D01*
X141724266Y-62200004D01*
X141922390Y-62199021D01*
X142137369Y-62198396D01*
X142365563Y-62198166D01*
X143659401Y-62198166D01*
X146682360Y-62198166D01*
X146531422Y-61857883D01*
X146274436Y-61382791D01*
X145978985Y-60925283D01*
X145836109Y-60728697D01*
X145491582Y-60305257D01*
X145119446Y-59912815D01*
X144721571Y-59552406D01*
X144299826Y-59225066D01*
X143856081Y-58931829D01*
X143392205Y-58673732D01*
X142910068Y-58451809D01*
X142411540Y-58267096D01*
X141898490Y-58120627D01*
X141372787Y-58013438D01*
X140836302Y-57946565D01*
X140807549Y-57944162D01*
X140774984Y-57942466D01*
X140719485Y-57940854D01*
X140640403Y-57939325D01*
X140537089Y-57937878D01*
X140408892Y-57936514D01*
X140255163Y-57935230D01*
X140075254Y-57934026D01*
X139868513Y-57932901D01*
X139634293Y-57931855D01*
X139371942Y-57930887D01*
X139080812Y-57929996D01*
X138760253Y-57929181D01*
X138409615Y-57928441D01*
X138028249Y-57927776D01*
X137615505Y-57927186D01*
X137170734Y-57926668D01*
X136693287Y-57926223D01*
X136182513Y-57925849D01*
X135637763Y-57925546D01*
X135058388Y-57925314D01*
X134443737Y-57925150D01*
X133793163Y-57925056D01*
X133106014Y-57925029D01*
X132381641Y-57925069D01*
G36*
X75449467Y-60776794D02*
G01*
X75427224Y-60745415D01*
X75399515Y-60717706D01*
X75090080Y-60717706D01*
X74998201Y-60717779D01*
X74926160Y-60718122D01*
X74871220Y-60718925D01*
X74830640Y-60720376D01*
X74801683Y-60722665D01*
X74781609Y-60725981D01*
X74767679Y-60730512D01*
X74757155Y-60736448D01*
X74750900Y-60741103D01*
X74726327Y-60771834D01*
X74723659Y-60807121D01*
X74738729Y-60839372D01*
X74747626Y-60850029D01*
X74759443Y-60857153D01*
X74778474Y-60861450D01*
X74809008Y-60863626D01*
X74855338Y-60864389D01*
X74891129Y-60864462D01*
X75025955Y-60864462D01*
X75025955Y-61361173D01*
X74903300Y-61361173D01*
X74847213Y-61361686D01*
X74808667Y-61363741D01*
X74782639Y-61368109D01*
X74764103Y-61375561D01*
X74750900Y-61384570D01*
X74726396Y-61415473D01*
X74723494Y-61450421D01*
X74740911Y-61483879D01*
X74750041Y-61493013D01*
X74762145Y-61499465D01*
X74780999Y-61503720D01*
X74810380Y-61506265D01*
X74854063Y-61507588D01*
X74915825Y-61508174D01*
X74930000Y-61508242D01*
X75046369Y-61508726D01*
X75142273Y-61508976D01*
X75219823Y-61508894D01*
X75281131Y-61508386D01*
X75328310Y-61507355D01*
X75363470Y-61505704D01*
X75388724Y-61503338D01*
X75406183Y-61500160D01*
X75417959Y-61496073D01*
X75426165Y-61490983D01*
X75432355Y-61485351D01*
X75452156Y-61453489D01*
X75449467Y-61420260D01*
X75427224Y-61388882D01*
X75412874Y-61376184D01*
X75397022Y-61368091D01*
X75374446Y-61363575D01*
X75339922Y-61361611D01*
X75288224Y-61361173D01*
X75172711Y-61361173D01*
X75172711Y-60864462D01*
X75291244Y-60864462D01*
X75345852Y-60863955D01*
X75382725Y-60861919D01*
X75406693Y-60857582D01*
X75422585Y-60850170D01*
X75432355Y-60841884D01*
X75452156Y-60810023D01*
X75449467Y-60776794D01*
G37*
X75449467Y-60776794D02*
X75427224Y-60745415D01*
X75399515Y-60717706D01*
X75090080Y-60717706D01*
X74998201Y-60717779D01*
X74926160Y-60718122D01*
X74871220Y-60718925D01*
X74830640Y-60720376D01*
X74801683Y-60722665D01*
X74781609Y-60725981D01*
X74767679Y-60730512D01*
X74757155Y-60736448D01*
X74750900Y-60741103D01*
X74726327Y-60771834D01*
X74723659Y-60807121D01*
X74738729Y-60839372D01*
X74747626Y-60850029D01*
X74759443Y-60857153D01*
X74778474Y-60861450D01*
X74809008Y-60863626D01*
X74855338Y-60864389D01*
X74891129Y-60864462D01*
X75025955Y-60864462D01*
X75025955Y-61361173D01*
X74903300Y-61361173D01*
X74847213Y-61361686D01*
X74808667Y-61363741D01*
X74782639Y-61368109D01*
X74764103Y-61375561D01*
X74750900Y-61384570D01*
X74726396Y-61415473D01*
X74723494Y-61450421D01*
X74740911Y-61483879D01*
X74750041Y-61493013D01*
X74762145Y-61499465D01*
X74780999Y-61503720D01*
X74810380Y-61506265D01*
X74854063Y-61507588D01*
X74915825Y-61508174D01*
X74930000Y-61508242D01*
X75046369Y-61508726D01*
X75142273Y-61508976D01*
X75219823Y-61508894D01*
X75281131Y-61508386D01*
X75328310Y-61507355D01*
X75363470Y-61505704D01*
X75388724Y-61503338D01*
X75406183Y-61500160D01*
X75417959Y-61496073D01*
X75426165Y-61490983D01*
X75432355Y-61485351D01*
X75452156Y-61453489D01*
X75449467Y-61420260D01*
X75427224Y-61388882D01*
X75412874Y-61376184D01*
X75397022Y-61368091D01*
X75374446Y-61363575D01*
X75339922Y-61361611D01*
X75288224Y-61361173D01*
X75172711Y-61361173D01*
X75172711Y-60864462D01*
X75291244Y-60864462D01*
X75345852Y-60863955D01*
X75382725Y-60861919D01*
X75406693Y-60857582D01*
X75422585Y-60850170D01*
X75432355Y-60841884D01*
X75452156Y-60810023D01*
X75449467Y-60776794D01*
G36*
X75454837Y-62042552D02*
G01*
X75454458Y-61963845D01*
X75453667Y-61902754D01*
X75452330Y-61856800D01*
X75450317Y-61823503D01*
X75447494Y-61800381D01*
X75443731Y-61784955D01*
X75438895Y-61774746D01*
X75435178Y-61769804D01*
X75402642Y-61744160D01*
X75368862Y-61741058D01*
X75338174Y-61756906D01*
X75325911Y-61767269D01*
X75317550Y-61778421D01*
X75312343Y-61794582D01*
X75309543Y-61819975D01*
X75308404Y-61858819D01*
X75308179Y-61915337D01*
X75308178Y-61926437D01*
X75308178Y-62072373D01*
X75037244Y-62072373D01*
X74951846Y-62072469D01*
X74886136Y-62072906D01*
X74837226Y-62073905D01*
X74802227Y-62075689D01*
X74778251Y-62078480D01*
X74762407Y-62082500D01*
X74751809Y-62087972D01*
X74743733Y-62094951D01*
X74723888Y-62127883D01*
X74725452Y-62162263D01*
X74748094Y-62193441D01*
X74750900Y-62195731D01*
X74761508Y-62203188D01*
X74773919Y-62208870D01*
X74791150Y-62213016D01*
X74816216Y-62215867D01*
X74852133Y-62217663D01*
X74901917Y-62218645D01*
X74968583Y-62219053D01*
X75044411Y-62219128D01*
X75308178Y-62219128D01*
X75308178Y-62358490D01*
X75308582Y-62418295D01*
X75310160Y-62459699D01*
X75313453Y-62486869D01*
X75319008Y-62503971D01*
X75327369Y-62515174D01*
X75328822Y-62516534D01*
X75362061Y-62532892D01*
X75399638Y-62531445D01*
X75432355Y-62512639D01*
X75438702Y-62505367D01*
X75443734Y-62495990D01*
X75447604Y-62482008D01*
X75450463Y-62460921D01*
X75452465Y-62430228D01*
X75453761Y-62387428D01*
X75454502Y-62330022D01*
X75454842Y-62255507D01*
X75454932Y-62161384D01*
X75454933Y-62141357D01*
X75454837Y-62042552D01*
G37*
X75454837Y-62042552D02*
X75454458Y-61963845D01*
X75453667Y-61902754D01*
X75452330Y-61856800D01*
X75450317Y-61823503D01*
X75447494Y-61800381D01*
X75443731Y-61784955D01*
X75438895Y-61774746D01*
X75435178Y-61769804D01*
X75402642Y-61744160D01*
X75368862Y-61741058D01*
X75338174Y-61756906D01*
X75325911Y-61767269D01*
X75317550Y-61778421D01*
X75312343Y-61794582D01*
X75309543Y-61819975D01*
X75308404Y-61858819D01*
X75308179Y-61915337D01*
X75308178Y-61926437D01*
X75308178Y-62072373D01*
X75037244Y-62072373D01*
X74951846Y-62072469D01*
X74886136Y-62072906D01*
X74837226Y-62073905D01*
X74802227Y-62075689D01*
X74778251Y-62078480D01*
X74762407Y-62082500D01*
X74751809Y-62087972D01*
X74743733Y-62094951D01*
X74723888Y-62127883D01*
X74725452Y-62162263D01*
X74748094Y-62193441D01*
X74750900Y-62195731D01*
X74761508Y-62203188D01*
X74773919Y-62208870D01*
X74791150Y-62213016D01*
X74816216Y-62215867D01*
X74852133Y-62217663D01*
X74901917Y-62218645D01*
X74968583Y-62219053D01*
X75044411Y-62219128D01*
X75308178Y-62219128D01*
X75308178Y-62358490D01*
X75308582Y-62418295D01*
X75310160Y-62459699D01*
X75313453Y-62486869D01*
X75319008Y-62503971D01*
X75327369Y-62515174D01*
X75328822Y-62516534D01*
X75362061Y-62532892D01*
X75399638Y-62531445D01*
X75432355Y-62512639D01*
X75438702Y-62505367D01*
X75443734Y-62495990D01*
X75447604Y-62482008D01*
X75450463Y-62460921D01*
X75452465Y-62430228D01*
X75453761Y-62387428D01*
X75454502Y-62330022D01*
X75454842Y-62255507D01*
X75454932Y-62161384D01*
X75454933Y-62141357D01*
X75454837Y-62042552D01*
G36*
X75448123Y-62817003D02*
G01*
X75433353Y-62793290D01*
X75411773Y-62766639D01*
X75090227Y-62766639D01*
X74996170Y-62766724D01*
X74922068Y-62767088D01*
X74865296Y-62767893D01*
X74823232Y-62769304D01*
X74793252Y-62771484D01*
X74772733Y-62774596D01*
X74759051Y-62778803D01*
X74749584Y-62784269D01*
X74744918Y-62788145D01*
X74724425Y-62819583D01*
X74725261Y-62855384D01*
X74742736Y-62886744D01*
X74764316Y-62913395D01*
X75411773Y-62913395D01*
X75433353Y-62886744D01*
X75449051Y-62861023D01*
X75454933Y-62840017D01*
X75448123Y-62817003D01*
G37*
X75448123Y-62817003D02*
X75433353Y-62793290D01*
X75411773Y-62766639D01*
X75090227Y-62766639D01*
X74996170Y-62766724D01*
X74922068Y-62767088D01*
X74865296Y-62767893D01*
X74823232Y-62769304D01*
X74793252Y-62771484D01*
X74772733Y-62774596D01*
X74759051Y-62778803D01*
X74749584Y-62784269D01*
X74744918Y-62788145D01*
X74724425Y-62819583D01*
X74725261Y-62855384D01*
X74742736Y-62886744D01*
X74764316Y-62913395D01*
X75411773Y-62913395D01*
X75433353Y-62886744D01*
X75449051Y-62861023D01*
X75454933Y-62840017D01*
X75448123Y-62817003D01*
G36*
X75452966Y-63260952D02*
G01*
X75445965Y-63241362D01*
X75445623Y-63240607D01*
X75425322Y-63214004D01*
X75404439Y-63199347D01*
X75394648Y-63196479D01*
X75381639Y-63196621D01*
X75363105Y-63200656D01*
X75336743Y-63209471D01*
X75300248Y-63223948D01*
X75251313Y-63244972D01*
X75187635Y-63273429D01*
X75106907Y-63310202D01*
X75062784Y-63330442D01*
X74984015Y-63366992D01*
X74911577Y-63401302D01*
X74848120Y-63432065D01*
X74796292Y-63457969D01*
X74758741Y-63477707D01*
X74738116Y-63489967D01*
X74735267Y-63492393D01*
X74722698Y-63523434D01*
X74724381Y-63558496D01*
X74739668Y-63586617D01*
X74740911Y-63587763D01*
X74757846Y-63598949D01*
X74790830Y-63617713D01*
X74835620Y-63641742D01*
X74887968Y-63668720D01*
X74907258Y-63678416D01*
X75053850Y-63751603D01*
X74894607Y-63831377D01*
X74839585Y-63859850D01*
X74791868Y-63886267D01*
X74755107Y-63908469D01*
X74732956Y-63924298D01*
X74728259Y-63929663D01*
X74721898Y-63971360D01*
X74735267Y-64005768D01*
X74749554Y-64015889D01*
X74781308Y-64033403D01*
X74827403Y-64056882D01*
X74884715Y-64084897D01*
X74950120Y-64116018D01*
X75020493Y-64148818D01*
X75092709Y-64181867D01*
X75163645Y-64213736D01*
X75230175Y-64242998D01*
X75289174Y-64268222D01*
X75337519Y-64287981D01*
X75372085Y-64300845D01*
X75389747Y-64305386D01*
X75390387Y-64305340D01*
X75412612Y-64294291D01*
X75435247Y-64272207D01*
X75436232Y-64270907D01*
X75451575Y-64243764D01*
X75451426Y-64218659D01*
X75448534Y-64209249D01*
X75442282Y-64197783D01*
X75429986Y-64185607D01*
X75409092Y-64171260D01*
X75377051Y-64153281D01*
X75331312Y-64130210D01*
X75269323Y-64100587D01*
X75212102Y-64073872D01*
X75145774Y-64043137D01*
X75086126Y-64015596D01*
X75036275Y-63992679D01*
X74999336Y-63975819D01*
X74978427Y-63966444D01*
X74975155Y-63965077D01*
X74980503Y-63958928D01*
X75002891Y-63944795D01*
X75039054Y-63924560D01*
X75085723Y-63900102D01*
X75104978Y-63890369D01*
X75169996Y-63857400D01*
X75217346Y-63831974D01*
X75249781Y-63812005D01*
X75270054Y-63795407D01*
X75280918Y-63780093D01*
X75285125Y-63763977D01*
X75285600Y-63753474D01*
X75283958Y-63734947D01*
X75277169Y-63718713D01*
X75262434Y-63702582D01*
X75236956Y-63684366D01*
X75197939Y-63661878D01*
X75142586Y-63632928D01*
X75111097Y-63616955D01*
X75060913Y-63591047D01*
X75019296Y-63568450D01*
X74989758Y-63551159D01*
X74975811Y-63541167D01*
X74975230Y-63539808D01*
X74986207Y-63533356D01*
X75014710Y-63518909D01*
X75057756Y-63497914D01*
X75112362Y-63471820D01*
X75175546Y-63442071D01*
X75206929Y-63427437D01*
X75287922Y-63389367D01*
X75350244Y-63358712D01*
X75395929Y-63333880D01*
X75427011Y-63313280D01*
X75445522Y-63295319D01*
X75453496Y-63278407D01*
X75452966Y-63260952D01*
G37*
X75452966Y-63260952D02*
X75445965Y-63241362D01*
X75445623Y-63240607D01*
X75425322Y-63214004D01*
X75404439Y-63199347D01*
X75394648Y-63196479D01*
X75381639Y-63196621D01*
X75363105Y-63200656D01*
X75336743Y-63209471D01*
X75300248Y-63223948D01*
X75251313Y-63244972D01*
X75187635Y-63273429D01*
X75106907Y-63310202D01*
X75062784Y-63330442D01*
X74984015Y-63366992D01*
X74911577Y-63401302D01*
X74848120Y-63432065D01*
X74796292Y-63457969D01*
X74758741Y-63477707D01*
X74738116Y-63489967D01*
X74735267Y-63492393D01*
X74722698Y-63523434D01*
X74724381Y-63558496D01*
X74739668Y-63586617D01*
X74740911Y-63587763D01*
X74757846Y-63598949D01*
X74790830Y-63617713D01*
X74835620Y-63641742D01*
X74887968Y-63668720D01*
X74907258Y-63678416D01*
X75053850Y-63751603D01*
X74894607Y-63831377D01*
X74839585Y-63859850D01*
X74791868Y-63886267D01*
X74755107Y-63908469D01*
X74732956Y-63924298D01*
X74728259Y-63929663D01*
X74721898Y-63971360D01*
X74735267Y-64005768D01*
X74749554Y-64015889D01*
X74781308Y-64033403D01*
X74827403Y-64056882D01*
X74884715Y-64084897D01*
X74950120Y-64116018D01*
X75020493Y-64148818D01*
X75092709Y-64181867D01*
X75163645Y-64213736D01*
X75230175Y-64242998D01*
X75289174Y-64268222D01*
X75337519Y-64287981D01*
X75372085Y-64300845D01*
X75389747Y-64305386D01*
X75390387Y-64305340D01*
X75412612Y-64294291D01*
X75435247Y-64272207D01*
X75436232Y-64270907D01*
X75451575Y-64243764D01*
X75451426Y-64218659D01*
X75448534Y-64209249D01*
X75442282Y-64197783D01*
X75429986Y-64185607D01*
X75409092Y-64171260D01*
X75377051Y-64153281D01*
X75331312Y-64130210D01*
X75269323Y-64100587D01*
X75212102Y-64073872D01*
X75145774Y-64043137D01*
X75086126Y-64015596D01*
X75036275Y-63992679D01*
X74999336Y-63975819D01*
X74978427Y-63966444D01*
X74975155Y-63965077D01*
X74980503Y-63958928D01*
X75002891Y-63944795D01*
X75039054Y-63924560D01*
X75085723Y-63900102D01*
X75104978Y-63890369D01*
X75169996Y-63857400D01*
X75217346Y-63831974D01*
X75249781Y-63812005D01*
X75270054Y-63795407D01*
X75280918Y-63780093D01*
X75285125Y-63763977D01*
X75285600Y-63753474D01*
X75283958Y-63734947D01*
X75277169Y-63718713D01*
X75262434Y-63702582D01*
X75236956Y-63684366D01*
X75197939Y-63661878D01*
X75142586Y-63632928D01*
X75111097Y-63616955D01*
X75060913Y-63591047D01*
X75019296Y-63568450D01*
X74989758Y-63551159D01*
X74975811Y-63541167D01*
X74975230Y-63539808D01*
X74986207Y-63533356D01*
X75014710Y-63518909D01*
X75057756Y-63497914D01*
X75112362Y-63471820D01*
X75175546Y-63442071D01*
X75206929Y-63427437D01*
X75287922Y-63389367D01*
X75350244Y-63358712D01*
X75395929Y-63333880D01*
X75427011Y-63313280D01*
X75445522Y-63295319D01*
X75453496Y-63278407D01*
X75452966Y-63260952D01*
G36*
X75454725Y-65987308D02*
G01*
X75450364Y-65858329D01*
X75437139Y-65748626D01*
X75414259Y-65656391D01*
X75380930Y-65579815D01*
X75336362Y-65517090D01*
X75279764Y-65466405D01*
X75210342Y-65425954D01*
X75208649Y-65425158D01*
X75146517Y-65401016D01*
X75091491Y-65392414D01*
X75036113Y-65399386D01*
X74972927Y-65421963D01*
X74963311Y-65426245D01*
X74907034Y-65455445D01*
X74863549Y-65488261D01*
X74826583Y-65530615D01*
X74789865Y-65588427D01*
X74787948Y-65591786D01*
X74763773Y-65642113D01*
X74745718Y-65698996D01*
X74733161Y-65766090D01*
X74725478Y-65847052D01*
X74722047Y-65945535D01*
X74721749Y-65980331D01*
X74721155Y-66146023D01*
X74750900Y-66169420D01*
X74760681Y-66176360D01*
X74772103Y-66181775D01*
X74787905Y-66185852D01*
X74810825Y-66188780D01*
X74843604Y-66190750D01*
X74867911Y-66191392D01*
X74867911Y-66034773D01*
X74867911Y-65940891D01*
X74869517Y-65885953D01*
X74873745Y-65829557D01*
X74879708Y-65783272D01*
X74880210Y-65780478D01*
X74902264Y-65698269D01*
X74935400Y-65634503D01*
X74981153Y-65587165D01*
X75041061Y-65554235D01*
X75056939Y-65548509D01*
X75081667Y-65542896D01*
X75106098Y-65545326D01*
X75138600Y-65557150D01*
X75154566Y-65564277D01*
X75196994Y-65587617D01*
X75226760Y-65615737D01*
X75247489Y-65646677D01*
X75274463Y-65708651D01*
X75294002Y-65787966D01*
X75305254Y-65880364D01*
X75307730Y-65947284D01*
X75308178Y-66034773D01*
X74867911Y-66034773D01*
X74867911Y-66191392D01*
X74888979Y-66191949D01*
X74949689Y-66192567D01*
X75028474Y-66192792D01*
X75090080Y-66192817D01*
X75399515Y-66192817D01*
X75427224Y-66165108D01*
X75438456Y-66152811D01*
X75446147Y-66139514D01*
X75450960Y-66120945D01*
X75453554Y-66092831D01*
X75454590Y-66050900D01*
X75454730Y-65990880D01*
X75454725Y-65987308D01*
G37*
X75454725Y-65987308D02*
X75450364Y-65858329D01*
X75437139Y-65748626D01*
X75414259Y-65656391D01*
X75380930Y-65579815D01*
X75336362Y-65517090D01*
X75279764Y-65466405D01*
X75210342Y-65425954D01*
X75208649Y-65425158D01*
X75146517Y-65401016D01*
X75091491Y-65392414D01*
X75036113Y-65399386D01*
X74972927Y-65421963D01*
X74963311Y-65426245D01*
X74907034Y-65455445D01*
X74863549Y-65488261D01*
X74826583Y-65530615D01*
X74789865Y-65588427D01*
X74787948Y-65591786D01*
X74763773Y-65642113D01*
X74745718Y-65698996D01*
X74733161Y-65766090D01*
X74725478Y-65847052D01*
X74722047Y-65945535D01*
X74721749Y-65980331D01*
X74721155Y-66146023D01*
X74750900Y-66169420D01*
X74760681Y-66176360D01*
X74772103Y-66181775D01*
X74787905Y-66185852D01*
X74810825Y-66188780D01*
X74843604Y-66190750D01*
X74867911Y-66191392D01*
X74867911Y-66034773D01*
X74867911Y-65940891D01*
X74869517Y-65885953D01*
X74873745Y-65829557D01*
X74879708Y-65783272D01*
X74880210Y-65780478D01*
X74902264Y-65698269D01*
X74935400Y-65634503D01*
X74981153Y-65587165D01*
X75041061Y-65554235D01*
X75056939Y-65548509D01*
X75081667Y-65542896D01*
X75106098Y-65545326D01*
X75138600Y-65557150D01*
X75154566Y-65564277D01*
X75196994Y-65587617D01*
X75226760Y-65615737D01*
X75247489Y-65646677D01*
X75274463Y-65708651D01*
X75294002Y-65787966D01*
X75305254Y-65880364D01*
X75307730Y-65947284D01*
X75308178Y-66034773D01*
X74867911Y-66034773D01*
X74867911Y-66191392D01*
X74888979Y-66191949D01*
X74949689Y-66192567D01*
X75028474Y-66192792D01*
X75090080Y-66192817D01*
X75399515Y-66192817D01*
X75427224Y-66165108D01*
X75438456Y-66152811D01*
X75446147Y-66139514D01*
X75450960Y-66120945D01*
X75453554Y-66092831D01*
X75454590Y-66050900D01*
X75454730Y-65990880D01*
X75454725Y-65987308D01*
G36*
X75454740Y-66775274D02*
G01*
X75453826Y-66698916D01*
X75451689Y-66640400D01*
X75447825Y-66597362D01*
X75441733Y-66567434D01*
X75432910Y-66548249D01*
X75420854Y-66537441D01*
X75405061Y-66532644D01*
X75385030Y-66531490D01*
X75382665Y-66531484D01*
X75360008Y-66532486D01*
X75342497Y-66537221D01*
X75329426Y-66548284D01*
X75320087Y-66568269D01*
X75313773Y-66599771D01*
X75309778Y-66645385D01*
X75307394Y-66707704D01*
X75305914Y-66789324D01*
X75305586Y-66814340D01*
X75302533Y-67056417D01*
X75237622Y-67059803D01*
X75172711Y-67063188D01*
X75172711Y-66895041D01*
X75172469Y-66829351D01*
X75171444Y-66782445D01*
X75169189Y-66750534D01*
X75165258Y-66729826D01*
X75159202Y-66716533D01*
X75150576Y-66706862D01*
X75150507Y-66706800D01*
X75116888Y-66689261D01*
X75080552Y-66689895D01*
X75049577Y-66708303D01*
X75046393Y-66711946D01*
X75038188Y-66724876D01*
X75032479Y-66742593D01*
X75028838Y-66769047D01*
X75026833Y-66808185D01*
X75026036Y-66863955D01*
X75025955Y-66899623D01*
X75025955Y-67062062D01*
X74867911Y-67062062D01*
X74867911Y-66815456D01*
X74867769Y-66734037D01*
X74867186Y-66672207D01*
X74865932Y-66626980D01*
X74863773Y-66595369D01*
X74860477Y-66574386D01*
X74855811Y-66561044D01*
X74849543Y-66552356D01*
X74847267Y-66550167D01*
X74815720Y-66534003D01*
X74779832Y-66532820D01*
X74748715Y-66546081D01*
X74738729Y-66556574D01*
X74733231Y-66567488D01*
X74728978Y-66584400D01*
X74725820Y-66609984D01*
X74723608Y-66646916D01*
X74722194Y-66697871D01*
X74721428Y-66765523D01*
X74721162Y-66852548D01*
X74721155Y-66872223D01*
X74721213Y-66960706D01*
X74721533Y-67029390D01*
X74722333Y-67081053D01*
X74723833Y-67118472D01*
X74726251Y-67144427D01*
X74729806Y-67161695D01*
X74734718Y-67173055D01*
X74741205Y-67181285D01*
X74745862Y-67185800D01*
X74754111Y-67192596D01*
X74764331Y-67197905D01*
X74779200Y-67201911D01*
X74801398Y-67204796D01*
X74833607Y-67206743D01*
X74878504Y-67207936D01*
X74938772Y-67208556D01*
X75017089Y-67208788D01*
X75083006Y-67208817D01*
X75175372Y-67208746D01*
X75247883Y-67208409D01*
X75303263Y-67207619D01*
X75344235Y-67206191D01*
X75373522Y-67203938D01*
X75393847Y-67200674D01*
X75407934Y-67196213D01*
X75418505Y-67190369D01*
X75425189Y-67185420D01*
X75454933Y-67162023D01*
X75454933Y-66871843D01*
X75454740Y-66775274D01*
G37*
X75454740Y-66775274D02*
X75453826Y-66698916D01*
X75451689Y-66640400D01*
X75447825Y-66597362D01*
X75441733Y-66567434D01*
X75432910Y-66548249D01*
X75420854Y-66537441D01*
X75405061Y-66532644D01*
X75385030Y-66531490D01*
X75382665Y-66531484D01*
X75360008Y-66532486D01*
X75342497Y-66537221D01*
X75329426Y-66548284D01*
X75320087Y-66568269D01*
X75313773Y-66599771D01*
X75309778Y-66645385D01*
X75307394Y-66707704D01*
X75305914Y-66789324D01*
X75305586Y-66814340D01*
X75302533Y-67056417D01*
X75237622Y-67059803D01*
X75172711Y-67063188D01*
X75172711Y-66895041D01*
X75172469Y-66829351D01*
X75171444Y-66782445D01*
X75169189Y-66750534D01*
X75165258Y-66729826D01*
X75159202Y-66716533D01*
X75150576Y-66706862D01*
X75150507Y-66706800D01*
X75116888Y-66689261D01*
X75080552Y-66689895D01*
X75049577Y-66708303D01*
X75046393Y-66711946D01*
X75038188Y-66724876D01*
X75032479Y-66742593D01*
X75028838Y-66769047D01*
X75026833Y-66808185D01*
X75026036Y-66863955D01*
X75025955Y-66899623D01*
X75025955Y-67062062D01*
X74867911Y-67062062D01*
X74867911Y-66815456D01*
X74867769Y-66734037D01*
X74867186Y-66672207D01*
X74865932Y-66626980D01*
X74863773Y-66595369D01*
X74860477Y-66574386D01*
X74855811Y-66561044D01*
X74849543Y-66552356D01*
X74847267Y-66550167D01*
X74815720Y-66534003D01*
X74779832Y-66532820D01*
X74748715Y-66546081D01*
X74738729Y-66556574D01*
X74733231Y-66567488D01*
X74728978Y-66584400D01*
X74725820Y-66609984D01*
X74723608Y-66646916D01*
X74722194Y-66697871D01*
X74721428Y-66765523D01*
X74721162Y-66852548D01*
X74721155Y-66872223D01*
X74721213Y-66960706D01*
X74721533Y-67029390D01*
X74722333Y-67081053D01*
X74723833Y-67118472D01*
X74726251Y-67144427D01*
X74729806Y-67161695D01*
X74734718Y-67173055D01*
X74741205Y-67181285D01*
X74745862Y-67185800D01*
X74754111Y-67192596D01*
X74764331Y-67197905D01*
X74779200Y-67201911D01*
X74801398Y-67204796D01*
X74833607Y-67206743D01*
X74878504Y-67207936D01*
X74938772Y-67208556D01*
X75017089Y-67208788D01*
X75083006Y-67208817D01*
X75175372Y-67208746D01*
X75247883Y-67208409D01*
X75303263Y-67207619D01*
X75344235Y-67206191D01*
X75373522Y-67203938D01*
X75393847Y-67200674D01*
X75407934Y-67196213D01*
X75418505Y-67190369D01*
X75425189Y-67185420D01*
X75454933Y-67162023D01*
X75454933Y-66871843D01*
X75454740Y-66775274D01*
G36*
X75450552Y-68305731D02*
G01*
X75436727Y-68282165D01*
X75414119Y-68251352D01*
X75381662Y-68211695D01*
X75338292Y-68161597D01*
X75282942Y-68099460D01*
X75214549Y-68023689D01*
X75135916Y-67936951D01*
X74972122Y-67756328D01*
X75191971Y-67750684D01*
X75267649Y-67748646D01*
X75324006Y-67746680D01*
X75364294Y-67744351D01*
X75391765Y-67741223D01*
X75409671Y-67736862D01*
X75421263Y-67730833D01*
X75429792Y-67722701D01*
X75433377Y-67718389D01*
X75452330Y-67683858D01*
X75449559Y-67651000D01*
X75433367Y-67624935D01*
X75411801Y-67598284D01*
X75096849Y-67594969D01*
X75004221Y-67594052D01*
X74931456Y-67593585D01*
X74875839Y-67593730D01*
X74834658Y-67594649D01*
X74805197Y-67596504D01*
X74784745Y-67599456D01*
X74770587Y-67603667D01*
X74760009Y-67609299D01*
X74751526Y-67615544D01*
X74735793Y-67629056D01*
X74725364Y-67642500D01*
X74721361Y-67657741D01*
X74724906Y-67676643D01*
X74737121Y-67701072D01*
X74759129Y-67732890D01*
X74792051Y-67773965D01*
X74837009Y-67826159D01*
X74895125Y-67891339D01*
X74961901Y-67965173D01*
X75202542Y-68230462D01*
X74983411Y-68236106D01*
X74907872Y-68238148D01*
X74851646Y-68240119D01*
X74811476Y-68242456D01*
X74784104Y-68245598D01*
X74766272Y-68249981D01*
X74754721Y-68256041D01*
X74746193Y-68264217D01*
X74742718Y-68268401D01*
X74723628Y-68305382D01*
X74726507Y-68340325D01*
X74750900Y-68370753D01*
X74760714Y-68377714D01*
X74772174Y-68383140D01*
X74788032Y-68387220D01*
X74811037Y-68390146D01*
X74843938Y-68392109D01*
X74889484Y-68393300D01*
X74950427Y-68393909D01*
X75029514Y-68394128D01*
X75088044Y-68394151D01*
X75179593Y-68394077D01*
X75251313Y-68393730D01*
X75305955Y-68392918D01*
X75346268Y-68391450D01*
X75375002Y-68389136D01*
X75394907Y-68385784D01*
X75408732Y-68381205D01*
X75419228Y-68375206D01*
X75425189Y-68370753D01*
X75439309Y-68359467D01*
X75449971Y-68348918D01*
X75456108Y-68337510D01*
X75456657Y-68323647D01*
X75450552Y-68305731D01*
G37*
X75450552Y-68305731D02*
X75436727Y-68282165D01*
X75414119Y-68251352D01*
X75381662Y-68211695D01*
X75338292Y-68161597D01*
X75282942Y-68099460D01*
X75214549Y-68023689D01*
X75135916Y-67936951D01*
X74972122Y-67756328D01*
X75191971Y-67750684D01*
X75267649Y-67748646D01*
X75324006Y-67746680D01*
X75364294Y-67744351D01*
X75391765Y-67741223D01*
X75409671Y-67736862D01*
X75421263Y-67730833D01*
X75429792Y-67722701D01*
X75433377Y-67718389D01*
X75452330Y-67683858D01*
X75449559Y-67651000D01*
X75433367Y-67624935D01*
X75411801Y-67598284D01*
X75096849Y-67594969D01*
X75004221Y-67594052D01*
X74931456Y-67593585D01*
X74875839Y-67593730D01*
X74834658Y-67594649D01*
X74805197Y-67596504D01*
X74784745Y-67599456D01*
X74770587Y-67603667D01*
X74760009Y-67609299D01*
X74751526Y-67615544D01*
X74735793Y-67629056D01*
X74725364Y-67642500D01*
X74721361Y-67657741D01*
X74724906Y-67676643D01*
X74737121Y-67701072D01*
X74759129Y-67732890D01*
X74792051Y-67773965D01*
X74837009Y-67826159D01*
X74895125Y-67891339D01*
X74961901Y-67965173D01*
X75202542Y-68230462D01*
X74983411Y-68236106D01*
X74907872Y-68238148D01*
X74851646Y-68240119D01*
X74811476Y-68242456D01*
X74784104Y-68245598D01*
X74766272Y-68249981D01*
X74754721Y-68256041D01*
X74746193Y-68264217D01*
X74742718Y-68268401D01*
X74723628Y-68305382D01*
X74726507Y-68340325D01*
X74750900Y-68370753D01*
X74760714Y-68377714D01*
X74772174Y-68383140D01*
X74788032Y-68387220D01*
X74811037Y-68390146D01*
X74843938Y-68392109D01*
X74889484Y-68393300D01*
X74950427Y-68393909D01*
X75029514Y-68394128D01*
X75088044Y-68394151D01*
X75179593Y-68394077D01*
X75251313Y-68393730D01*
X75305955Y-68392918D01*
X75346268Y-68391450D01*
X75375002Y-68389136D01*
X75394907Y-68385784D01*
X75408732Y-68381205D01*
X75419228Y-68375206D01*
X75425189Y-68370753D01*
X75439309Y-68359467D01*
X75449971Y-68348918D01*
X75456108Y-68337510D01*
X75456657Y-68323647D01*
X75450552Y-68305731D01*
G36*
X75449401Y-68955698D02*
G01*
X75437905Y-68887182D01*
X75420033Y-68834560D01*
X75396501Y-68800325D01*
X75383076Y-68790996D01*
X75351852Y-68781510D01*
X75323605Y-68787894D01*
X75296818Y-68808047D01*
X75284287Y-68839362D01*
X75285304Y-68884800D01*
X75292094Y-68919943D01*
X75305029Y-68998036D01*
X75306258Y-69077843D01*
X75295759Y-69167172D01*
X75291310Y-69191846D01*
X75267892Y-69274908D01*
X75233055Y-69339890D01*
X75187396Y-69386078D01*
X75131506Y-69412762D01*
X75102612Y-69418280D01*
X75043988Y-69414668D01*
X74992121Y-69391346D01*
X74948022Y-69350441D01*
X74912701Y-69294076D01*
X74887171Y-69224377D01*
X74872441Y-69143469D01*
X74869522Y-69053477D01*
X74879425Y-68956527D01*
X74880359Y-68951053D01*
X74887541Y-68912492D01*
X74894479Y-68891111D01*
X74904773Y-68881844D01*
X74922024Y-68879623D01*
X74931159Y-68879573D01*
X74969511Y-68879573D01*
X74969511Y-68948048D01*
X74973653Y-69008517D01*
X74986853Y-69049782D01*
X75010270Y-69073792D01*
X75045064Y-69082494D01*
X75049606Y-69082600D01*
X75079346Y-69077509D01*
X75100581Y-69060050D01*
X75114634Y-69027556D01*
X75122827Y-68977360D01*
X75125839Y-68928740D01*
X75127567Y-68858073D01*
X75124930Y-68806815D01*
X75115200Y-68771856D01*
X75095647Y-68750087D01*
X75063544Y-68738397D01*
X75016162Y-68733677D01*
X74953929Y-68732817D01*
X74884465Y-68734226D01*
X74837214Y-68738465D01*
X74811988Y-68745553D01*
X74810012Y-68746928D01*
X74778492Y-68785845D01*
X74753530Y-68842903D01*
X74735660Y-68914486D01*
X74725414Y-68996975D01*
X74723327Y-69086756D01*
X74729932Y-69180209D01*
X74738044Y-69235173D01*
X74762446Y-69321383D01*
X74802338Y-69401509D01*
X74854113Y-69468594D01*
X74864461Y-69478790D01*
X74907965Y-69511919D01*
X74961882Y-69541811D01*
X75018408Y-69564974D01*
X75069741Y-69577915D01*
X75089456Y-69579475D01*
X75130581Y-69572835D01*
X75181748Y-69555185D01*
X75235606Y-69529914D01*
X75284805Y-69500406D01*
X75317666Y-69474336D01*
X75366548Y-69413382D01*
X75405455Y-69334586D01*
X75433506Y-69240774D01*
X75449821Y-69134767D01*
X75453808Y-69037617D01*
X75449401Y-68955698D01*
G37*
X75449401Y-68955698D02*
X75437905Y-68887182D01*
X75420033Y-68834560D01*
X75396501Y-68800325D01*
X75383076Y-68790996D01*
X75351852Y-68781510D01*
X75323605Y-68787894D01*
X75296818Y-68808047D01*
X75284287Y-68839362D01*
X75285304Y-68884800D01*
X75292094Y-68919943D01*
X75305029Y-68998036D01*
X75306258Y-69077843D01*
X75295759Y-69167172D01*
X75291310Y-69191846D01*
X75267892Y-69274908D01*
X75233055Y-69339890D01*
X75187396Y-69386078D01*
X75131506Y-69412762D01*
X75102612Y-69418280D01*
X75043988Y-69414668D01*
X74992121Y-69391346D01*
X74948022Y-69350441D01*
X74912701Y-69294076D01*
X74887171Y-69224377D01*
X74872441Y-69143469D01*
X74869522Y-69053477D01*
X74879425Y-68956527D01*
X74880359Y-68951053D01*
X74887541Y-68912492D01*
X74894479Y-68891111D01*
X74904773Y-68881844D01*
X74922024Y-68879623D01*
X74931159Y-68879573D01*
X74969511Y-68879573D01*
X74969511Y-68948048D01*
X74973653Y-69008517D01*
X74986853Y-69049782D01*
X75010270Y-69073792D01*
X75045064Y-69082494D01*
X75049606Y-69082600D01*
X75079346Y-69077509D01*
X75100581Y-69060050D01*
X75114634Y-69027556D01*
X75122827Y-68977360D01*
X75125839Y-68928740D01*
X75127567Y-68858073D01*
X75124930Y-68806815D01*
X75115200Y-68771856D01*
X75095647Y-68750087D01*
X75063544Y-68738397D01*
X75016162Y-68733677D01*
X74953929Y-68732817D01*
X74884465Y-68734226D01*
X74837214Y-68738465D01*
X74811988Y-68745553D01*
X74810012Y-68746928D01*
X74778492Y-68785845D01*
X74753530Y-68842903D01*
X74735660Y-68914486D01*
X74725414Y-68996975D01*
X74723327Y-69086756D01*
X74729932Y-69180209D01*
X74738044Y-69235173D01*
X74762446Y-69321383D01*
X74802338Y-69401509D01*
X74854113Y-69468594D01*
X74864461Y-69478790D01*
X74907965Y-69511919D01*
X74961882Y-69541811D01*
X75018408Y-69564974D01*
X75069741Y-69577915D01*
X75089456Y-69579475D01*
X75130581Y-69572835D01*
X75181748Y-69555185D01*
X75235606Y-69529914D01*
X75284805Y-69500406D01*
X75317666Y-69474336D01*
X75366548Y-69413382D01*
X75405455Y-69334586D01*
X75433506Y-69240774D01*
X75449821Y-69134767D01*
X75453808Y-69037617D01*
X75449401Y-68955698D01*
G36*
X75432355Y-69929439D02*
G01*
X75424782Y-69922859D01*
X75415013Y-69917696D01*
X75400429Y-69913781D01*
X75378415Y-69910941D01*
X75346352Y-69909004D01*
X75301625Y-69907800D01*
X75241615Y-69907156D01*
X75163706Y-69906901D01*
X75088044Y-69906862D01*
X74994198Y-69906931D01*
X74920311Y-69907255D01*
X74863768Y-69908003D01*
X74821951Y-69909349D01*
X74792243Y-69911463D01*
X74772027Y-69914517D01*
X74758686Y-69918683D01*
X74749602Y-69924133D01*
X74743733Y-69929439D01*
X74724053Y-69962443D01*
X74725819Y-69997608D01*
X74747283Y-70029072D01*
X74755663Y-70036301D01*
X74765386Y-70041951D01*
X74779139Y-70046216D01*
X74799611Y-70049290D01*
X74829488Y-70051369D01*
X74871459Y-70052647D01*
X74928211Y-70053318D01*
X75002433Y-70053576D01*
X75086463Y-70053617D01*
X75399515Y-70053617D01*
X75427224Y-70025908D01*
X75450537Y-69991754D01*
X75451377Y-69958623D01*
X75432355Y-69929439D01*
G37*
X75432355Y-69929439D02*
X75424782Y-69922859D01*
X75415013Y-69917696D01*
X75400429Y-69913781D01*
X75378415Y-69910941D01*
X75346352Y-69909004D01*
X75301625Y-69907800D01*
X75241615Y-69907156D01*
X75163706Y-69906901D01*
X75088044Y-69906862D01*
X74994198Y-69906931D01*
X74920311Y-69907255D01*
X74863768Y-69908003D01*
X74821951Y-69909349D01*
X74792243Y-69911463D01*
X74772027Y-69914517D01*
X74758686Y-69918683D01*
X74749602Y-69924133D01*
X74743733Y-69929439D01*
X74724053Y-69962443D01*
X74725819Y-69997608D01*
X74747283Y-70029072D01*
X74755663Y-70036301D01*
X74765386Y-70041951D01*
X74779139Y-70046216D01*
X74799611Y-70049290D01*
X74829488Y-70051369D01*
X74871459Y-70052647D01*
X74928211Y-70053318D01*
X75002433Y-70053576D01*
X75086463Y-70053617D01*
X75399515Y-70053617D01*
X75427224Y-70025908D01*
X75450537Y-69991754D01*
X75451377Y-69958623D01*
X75432355Y-69929439D01*
G36*
X75453649Y-70697320D02*
G01*
X75448419Y-70622505D01*
X75440250Y-70552923D01*
X75429450Y-70492619D01*
X75416327Y-70445637D01*
X75401187Y-70416023D01*
X75396731Y-70411477D01*
X75362150Y-70395671D01*
X75326649Y-70400464D01*
X75296275Y-70424981D01*
X75295404Y-70426151D01*
X75286046Y-70440571D01*
X75281124Y-70455625D01*
X75280527Y-70476622D01*
X75284139Y-70508874D01*
X75291846Y-70557690D01*
X75292495Y-70561617D01*
X75301431Y-70634356D01*
X75305839Y-70712834D01*
X75305881Y-70791544D01*
X75301721Y-70864978D01*
X75293521Y-70927628D01*
X75281443Y-70973987D01*
X75280229Y-70977033D01*
X75261385Y-71010665D01*
X75242315Y-71022481D01*
X75223561Y-71013231D01*
X75205663Y-70983664D01*
X75189163Y-70934528D01*
X75174604Y-70866574D01*
X75167594Y-70821262D01*
X75154111Y-70727073D01*
X75141786Y-70652161D01*
X75129551Y-70593334D01*
X75116339Y-70547402D01*
X75101083Y-70511172D01*
X75082715Y-70481455D01*
X75060169Y-70455059D01*
X75038029Y-70433847D01*
X75007181Y-70408682D01*
X74980655Y-70396298D01*
X74947974Y-70392425D01*
X74936005Y-70392284D01*
X74896288Y-70395193D01*
X74866741Y-70406819D01*
X74840514Y-70426940D01*
X74800424Y-70467833D01*
X74769851Y-70513434D01*
X74747797Y-70567130D01*
X74733265Y-70632309D01*
X74725259Y-70712361D01*
X74722782Y-70810674D01*
X74722823Y-70826906D01*
X74724182Y-70892466D01*
X74727270Y-70957483D01*
X74731644Y-71014869D01*
X74736860Y-71057539D01*
X74737459Y-71060989D01*
X74747509Y-71103413D01*
X74760204Y-71139397D01*
X74771810Y-71159767D01*
X74802428Y-71178724D01*
X74838082Y-71180044D01*
X74869856Y-71163702D01*
X74873449Y-71160046D01*
X74884124Y-71144932D01*
X74888724Y-71126032D01*
X74887941Y-71096779D01*
X74883873Y-71061268D01*
X74880238Y-71021587D01*
X74877172Y-70965962D01*
X74874947Y-70901023D01*
X74873836Y-70833402D01*
X74873763Y-70815617D01*
X74874036Y-70747745D01*
X74875354Y-70698071D01*
X74878173Y-70662227D01*
X74882950Y-70635841D01*
X74890143Y-70614543D01*
X74896133Y-70601743D01*
X74912767Y-70573617D01*
X74927832Y-70555685D01*
X74932103Y-70553064D01*
X74949737Y-70558593D01*
X74966808Y-70584877D01*
X74982542Y-70630095D01*
X74996162Y-70692425D01*
X74999196Y-70710788D01*
X75014262Y-70806707D01*
X75026854Y-70883258D01*
X75037889Y-70943397D01*
X75048280Y-70990077D01*
X75058944Y-71026254D01*
X75070795Y-71054882D01*
X75084749Y-71078915D01*
X75101719Y-71101309D01*
X75122622Y-71125019D01*
X75129951Y-71132997D01*
X75157301Y-71160970D01*
X75178971Y-71175777D01*
X75203768Y-71181569D01*
X75235017Y-71182506D01*
X75296295Y-71172192D01*
X75348360Y-71141369D01*
X75391042Y-71090212D01*
X75424175Y-71018900D01*
X75439036Y-70968017D01*
X75448634Y-70912717D01*
X75454064Y-70846470D01*
X75455633Y-70773323D01*
X75453649Y-70697320D01*
G37*
X75453649Y-70697320D02*
X75448419Y-70622505D01*
X75440250Y-70552923D01*
X75429450Y-70492619D01*
X75416327Y-70445637D01*
X75401187Y-70416023D01*
X75396731Y-70411477D01*
X75362150Y-70395671D01*
X75326649Y-70400464D01*
X75296275Y-70424981D01*
X75295404Y-70426151D01*
X75286046Y-70440571D01*
X75281124Y-70455625D01*
X75280527Y-70476622D01*
X75284139Y-70508874D01*
X75291846Y-70557690D01*
X75292495Y-70561617D01*
X75301431Y-70634356D01*
X75305839Y-70712834D01*
X75305881Y-70791544D01*
X75301721Y-70864978D01*
X75293521Y-70927628D01*
X75281443Y-70973987D01*
X75280229Y-70977033D01*
X75261385Y-71010665D01*
X75242315Y-71022481D01*
X75223561Y-71013231D01*
X75205663Y-70983664D01*
X75189163Y-70934528D01*
X75174604Y-70866574D01*
X75167594Y-70821262D01*
X75154111Y-70727073D01*
X75141786Y-70652161D01*
X75129551Y-70593334D01*
X75116339Y-70547402D01*
X75101083Y-70511172D01*
X75082715Y-70481455D01*
X75060169Y-70455059D01*
X75038029Y-70433847D01*
X75007181Y-70408682D01*
X74980655Y-70396298D01*
X74947974Y-70392425D01*
X74936005Y-70392284D01*
X74896288Y-70395193D01*
X74866741Y-70406819D01*
X74840514Y-70426940D01*
X74800424Y-70467833D01*
X74769851Y-70513434D01*
X74747797Y-70567130D01*
X74733265Y-70632309D01*
X74725259Y-70712361D01*
X74722782Y-70810674D01*
X74722823Y-70826906D01*
X74724182Y-70892466D01*
X74727270Y-70957483D01*
X74731644Y-71014869D01*
X74736860Y-71057539D01*
X74737459Y-71060989D01*
X74747509Y-71103413D01*
X74760204Y-71139397D01*
X74771810Y-71159767D01*
X74802428Y-71178724D01*
X74838082Y-71180044D01*
X74869856Y-71163702D01*
X74873449Y-71160046D01*
X74884124Y-71144932D01*
X74888724Y-71126032D01*
X74887941Y-71096779D01*
X74883873Y-71061268D01*
X74880238Y-71021587D01*
X74877172Y-70965962D01*
X74874947Y-70901023D01*
X74873836Y-70833402D01*
X74873763Y-70815617D01*
X74874036Y-70747745D01*
X74875354Y-70698071D01*
X74878173Y-70662227D01*
X74882950Y-70635841D01*
X74890143Y-70614543D01*
X74896133Y-70601743D01*
X74912767Y-70573617D01*
X74927832Y-70555685D01*
X74932103Y-70553064D01*
X74949737Y-70558593D01*
X74966808Y-70584877D01*
X74982542Y-70630095D01*
X74996162Y-70692425D01*
X74999196Y-70710788D01*
X75014262Y-70806707D01*
X75026854Y-70883258D01*
X75037889Y-70943397D01*
X75048280Y-70990077D01*
X75058944Y-71026254D01*
X75070795Y-71054882D01*
X75084749Y-71078915D01*
X75101719Y-71101309D01*
X75122622Y-71125019D01*
X75129951Y-71132997D01*
X75157301Y-71160970D01*
X75178971Y-71175777D01*
X75203768Y-71181569D01*
X75235017Y-71182506D01*
X75296295Y-71172192D01*
X75348360Y-71141369D01*
X75391042Y-71090212D01*
X75424175Y-71018900D01*
X75439036Y-70968017D01*
X75448634Y-70912717D01*
X75454064Y-70846470D01*
X75455633Y-70773323D01*
X75453649Y-70697320D01*
G36*
X75454854Y-71718411D02*
G01*
X75454482Y-71649003D01*
X75453615Y-71596614D01*
X75452054Y-71558464D01*
X75449597Y-71531776D01*
X75446043Y-71513770D01*
X75441190Y-71501666D01*
X75434839Y-71492686D01*
X75431916Y-71489435D01*
X75400858Y-71469660D01*
X75365172Y-71466099D01*
X75333490Y-71479108D01*
X75327087Y-71485123D01*
X75320879Y-71494852D01*
X75316090Y-71510518D01*
X75312486Y-71535025D01*
X75309836Y-71571278D01*
X75307905Y-71622182D01*
X75306461Y-71690643D01*
X75305582Y-71753234D01*
X75302533Y-72000951D01*
X75237622Y-72004336D01*
X75172711Y-72007722D01*
X75172711Y-71839575D01*
X75172081Y-71766576D01*
X75169447Y-71713134D01*
X75163691Y-71676245D01*
X75153696Y-71652905D01*
X75138344Y-71640111D01*
X75116518Y-71634859D01*
X75096262Y-71634062D01*
X75071408Y-71636540D01*
X75053094Y-71645894D01*
X75040363Y-71665000D01*
X75032259Y-71696735D01*
X75027824Y-71743976D01*
X75026101Y-71809600D01*
X75025955Y-71845418D01*
X75025955Y-72006595D01*
X74867911Y-72006595D01*
X74867911Y-71758239D01*
X74867798Y-71676830D01*
X74867288Y-71614959D01*
X74866130Y-71569585D01*
X74864070Y-71537671D01*
X74860854Y-71516176D01*
X74856228Y-71502060D01*
X74849941Y-71492285D01*
X74845333Y-71487306D01*
X74818440Y-71470227D01*
X74794533Y-71464728D01*
X74765333Y-71472580D01*
X74743733Y-71487306D01*
X74736934Y-71495163D01*
X74731654Y-71505305D01*
X74727702Y-71520461D01*
X74724887Y-71543358D01*
X74723018Y-71576726D01*
X74721902Y-71623292D01*
X74721349Y-71685784D01*
X74721167Y-71766931D01*
X74721155Y-71809039D01*
X74721235Y-71899215D01*
X74721602Y-71969541D01*
X74722448Y-72022746D01*
X74723964Y-72061557D01*
X74726341Y-72088704D01*
X74729771Y-72106915D01*
X74734446Y-72118917D01*
X74740556Y-72127439D01*
X74743733Y-72130773D01*
X74751330Y-72137372D01*
X74761130Y-72142544D01*
X74775761Y-72146463D01*
X74797848Y-72149301D01*
X74830018Y-72151232D01*
X74874897Y-72152429D01*
X74935111Y-72153065D01*
X75013287Y-72153314D01*
X75086077Y-72153351D01*
X75179293Y-72153317D01*
X75252569Y-72153082D01*
X75308542Y-72152447D01*
X75349849Y-72151211D01*
X75379128Y-72149173D01*
X75399016Y-72146134D01*
X75412150Y-72141894D01*
X75421168Y-72136252D01*
X75428707Y-72129008D01*
X75430388Y-72127223D01*
X75437828Y-72118562D01*
X75443591Y-72108499D01*
X75447888Y-72094242D01*
X75450936Y-72073000D01*
X75452949Y-72041981D01*
X75454140Y-71998394D01*
X75454725Y-71939448D01*
X75454917Y-71862351D01*
X75454933Y-71807618D01*
X75454854Y-71718411D01*
G37*
X75454854Y-71718411D02*
X75454482Y-71649003D01*
X75453615Y-71596614D01*
X75452054Y-71558464D01*
X75449597Y-71531776D01*
X75446043Y-71513770D01*
X75441190Y-71501666D01*
X75434839Y-71492686D01*
X75431916Y-71489435D01*
X75400858Y-71469660D01*
X75365172Y-71466099D01*
X75333490Y-71479108D01*
X75327087Y-71485123D01*
X75320879Y-71494852D01*
X75316090Y-71510518D01*
X75312486Y-71535025D01*
X75309836Y-71571278D01*
X75307905Y-71622182D01*
X75306461Y-71690643D01*
X75305582Y-71753234D01*
X75302533Y-72000951D01*
X75237622Y-72004336D01*
X75172711Y-72007722D01*
X75172711Y-71839575D01*
X75172081Y-71766576D01*
X75169447Y-71713134D01*
X75163691Y-71676245D01*
X75153696Y-71652905D01*
X75138344Y-71640111D01*
X75116518Y-71634859D01*
X75096262Y-71634062D01*
X75071408Y-71636540D01*
X75053094Y-71645894D01*
X75040363Y-71665000D01*
X75032259Y-71696735D01*
X75027824Y-71743976D01*
X75026101Y-71809600D01*
X75025955Y-71845418D01*
X75025955Y-72006595D01*
X74867911Y-72006595D01*
X74867911Y-71758239D01*
X74867798Y-71676830D01*
X74867288Y-71614959D01*
X74866130Y-71569585D01*
X74864070Y-71537671D01*
X74860854Y-71516176D01*
X74856228Y-71502060D01*
X74849941Y-71492285D01*
X74845333Y-71487306D01*
X74818440Y-71470227D01*
X74794533Y-71464728D01*
X74765333Y-71472580D01*
X74743733Y-71487306D01*
X74736934Y-71495163D01*
X74731654Y-71505305D01*
X74727702Y-71520461D01*
X74724887Y-71543358D01*
X74723018Y-71576726D01*
X74721902Y-71623292D01*
X74721349Y-71685784D01*
X74721167Y-71766931D01*
X74721155Y-71809039D01*
X74721235Y-71899215D01*
X74721602Y-71969541D01*
X74722448Y-72022746D01*
X74723964Y-72061557D01*
X74726341Y-72088704D01*
X74729771Y-72106915D01*
X74734446Y-72118917D01*
X74740556Y-72127439D01*
X74743733Y-72130773D01*
X74751330Y-72137372D01*
X74761130Y-72142544D01*
X74775761Y-72146463D01*
X74797848Y-72149301D01*
X74830018Y-72151232D01*
X74874897Y-72152429D01*
X74935111Y-72153065D01*
X75013287Y-72153314D01*
X75086077Y-72153351D01*
X75179293Y-72153317D01*
X75252569Y-72153082D01*
X75308542Y-72152447D01*
X75349849Y-72151211D01*
X75379128Y-72149173D01*
X75399016Y-72146134D01*
X75412150Y-72141894D01*
X75421168Y-72136252D01*
X75428707Y-72129008D01*
X75430388Y-72127223D01*
X75437828Y-72118562D01*
X75443591Y-72108499D01*
X75447888Y-72094242D01*
X75450936Y-72073000D01*
X75452949Y-72041981D01*
X75454140Y-71998394D01*
X75454725Y-71939448D01*
X75454917Y-71862351D01*
X75454933Y-71807618D01*
X75454854Y-71718411D01*
G36*
X75454934Y-73126988D02*
G01*
X75454533Y-73087506D01*
X75451741Y-72971817D01*
X75443450Y-72874928D01*
X75428768Y-72793536D01*
X75406807Y-72724340D01*
X75376678Y-72664037D01*
X75337490Y-72609325D01*
X75320468Y-72589784D01*
X75280637Y-72557367D01*
X75226587Y-72528137D01*
X75166677Y-72505608D01*
X75109261Y-72493296D01*
X75088044Y-72492017D01*
X75029231Y-72500034D01*
X74964987Y-72521516D01*
X74904179Y-72552616D01*
X74855670Y-72589483D01*
X74849818Y-72595471D01*
X74808679Y-72646196D01*
X74776565Y-72701742D01*
X74752635Y-72765313D01*
X74736047Y-72840111D01*
X74725959Y-72929339D01*
X74721531Y-73036199D01*
X74721155Y-73085145D01*
X74721455Y-73147379D01*
X74722708Y-73191145D01*
X74725446Y-73220548D01*
X74730199Y-73239696D01*
X74737499Y-73252694D01*
X74743733Y-73259662D01*
X74751306Y-73266243D01*
X74761076Y-73271405D01*
X74775660Y-73275320D01*
X74797674Y-73278160D01*
X74829736Y-73280097D01*
X74874464Y-73281301D01*
X74934474Y-73281945D01*
X75012383Y-73282200D01*
X75088044Y-73282239D01*
X75188959Y-73282487D01*
X75269573Y-73282434D01*
X75308178Y-73281474D01*
X75308178Y-73135484D01*
X74867911Y-73135484D01*
X74867996Y-73042351D01*
X74869604Y-72986310D01*
X74873744Y-72927616D01*
X74879536Y-72878645D01*
X74879774Y-72877155D01*
X74898910Y-72798009D01*
X74928713Y-72736619D01*
X74971122Y-72689922D01*
X75017039Y-72660252D01*
X75067974Y-72641970D01*
X75115800Y-72643388D01*
X75167067Y-72664605D01*
X75220101Y-72706106D01*
X75259400Y-72763615D01*
X75285669Y-72838367D01*
X75294965Y-72888325D01*
X75301493Y-72945033D01*
X75306218Y-73005136D01*
X75308183Y-73056256D01*
X75308192Y-73059284D01*
X75308178Y-73135484D01*
X75308178Y-73281474D01*
X75332149Y-73280877D01*
X75378945Y-73276615D01*
X75412222Y-73268447D01*
X75434241Y-73255173D01*
X75447261Y-73235591D01*
X75453543Y-73208500D01*
X75455347Y-73172699D01*
X75454934Y-73126988D01*
G37*
X75454934Y-73126988D02*
X75454533Y-73087506D01*
X75451741Y-72971817D01*
X75443450Y-72874928D01*
X75428768Y-72793536D01*
X75406807Y-72724340D01*
X75376678Y-72664037D01*
X75337490Y-72609325D01*
X75320468Y-72589784D01*
X75280637Y-72557367D01*
X75226587Y-72528137D01*
X75166677Y-72505608D01*
X75109261Y-72493296D01*
X75088044Y-72492017D01*
X75029231Y-72500034D01*
X74964987Y-72521516D01*
X74904179Y-72552616D01*
X74855670Y-72589483D01*
X74849818Y-72595471D01*
X74808679Y-72646196D01*
X74776565Y-72701742D01*
X74752635Y-72765313D01*
X74736047Y-72840111D01*
X74725959Y-72929339D01*
X74721531Y-73036199D01*
X74721155Y-73085145D01*
X74721455Y-73147379D01*
X74722708Y-73191145D01*
X74725446Y-73220548D01*
X74730199Y-73239696D01*
X74737499Y-73252694D01*
X74743733Y-73259662D01*
X74751306Y-73266243D01*
X74761076Y-73271405D01*
X74775660Y-73275320D01*
X74797674Y-73278160D01*
X74829736Y-73280097D01*
X74874464Y-73281301D01*
X74934474Y-73281945D01*
X75012383Y-73282200D01*
X75088044Y-73282239D01*
X75188959Y-73282487D01*
X75269573Y-73282434D01*
X75308178Y-73281474D01*
X75308178Y-73135484D01*
X74867911Y-73135484D01*
X74867996Y-73042351D01*
X74869604Y-72986310D01*
X74873744Y-72927616D01*
X74879536Y-72878645D01*
X74879774Y-72877155D01*
X74898910Y-72798009D01*
X74928713Y-72736619D01*
X74971122Y-72689922D01*
X75017039Y-72660252D01*
X75067974Y-72641970D01*
X75115800Y-72643388D01*
X75167067Y-72664605D01*
X75220101Y-72706106D01*
X75259400Y-72763615D01*
X75285669Y-72838367D01*
X75294965Y-72888325D01*
X75301493Y-72945033D01*
X75306218Y-73005136D01*
X75308183Y-73056256D01*
X75308192Y-73059284D01*
X75308178Y-73135484D01*
X75308178Y-73281474D01*
X75332149Y-73280877D01*
X75378945Y-73276615D01*
X75412222Y-73268447D01*
X75434241Y-73255173D01*
X75447261Y-73235591D01*
X75453543Y-73208500D01*
X75455347Y-73172699D01*
X75454934Y-73126988D01*
G36*
X80697429Y-69278660D02*
G01*
X80673191Y-69182385D01*
X80630359Y-69095801D01*
X80570581Y-69020990D01*
X80495506Y-68960035D01*
X80406780Y-68915016D01*
X80310470Y-68888753D01*
X80213205Y-68882903D01*
X80119346Y-68897757D01*
X80031489Y-68931457D01*
X79952230Y-68982145D01*
X79884164Y-69047962D01*
X79829888Y-69127051D01*
X79791998Y-69217551D01*
X79779574Y-69268817D01*
X79772053Y-69313315D01*
X79769081Y-69347616D01*
X79770906Y-69380577D01*
X79777775Y-69421051D01*
X79784750Y-69454148D01*
X79816259Y-69547564D01*
X79867383Y-69631236D01*
X79936571Y-69703282D01*
X80022272Y-69761817D01*
X80049511Y-69775765D01*
X80085878Y-69792203D01*
X80116418Y-69802511D01*
X80148550Y-69808077D01*
X80189693Y-69810286D01*
X80235778Y-69810565D01*
X80320135Y-69806478D01*
X80389414Y-69793063D01*
X80450039Y-69767873D01*
X80508433Y-69728463D01*
X80552698Y-69689915D01*
X80618516Y-69618023D01*
X80663947Y-69542930D01*
X80691150Y-69460179D01*
X80701424Y-69382545D01*
X80697429Y-69278660D01*
G37*
X80697429Y-69278660D02*
X80673191Y-69182385D01*
X80630359Y-69095801D01*
X80570581Y-69020990D01*
X80495506Y-68960035D01*
X80406780Y-68915016D01*
X80310470Y-68888753D01*
X80213205Y-68882903D01*
X80119346Y-68897757D01*
X80031489Y-68931457D01*
X79952230Y-68982145D01*
X79884164Y-69047962D01*
X79829888Y-69127051D01*
X79791998Y-69217551D01*
X79779574Y-69268817D01*
X79772053Y-69313315D01*
X79769081Y-69347616D01*
X79770906Y-69380577D01*
X79777775Y-69421051D01*
X79784750Y-69454148D01*
X79816259Y-69547564D01*
X79867383Y-69631236D01*
X79936571Y-69703282D01*
X80022272Y-69761817D01*
X80049511Y-69775765D01*
X80085878Y-69792203D01*
X80116418Y-69802511D01*
X80148550Y-69808077D01*
X80189693Y-69810286D01*
X80235778Y-69810565D01*
X80320135Y-69806478D01*
X80389414Y-69793063D01*
X80450039Y-69767873D01*
X80508433Y-69728463D01*
X80552698Y-69689915D01*
X80618516Y-69618023D01*
X80663947Y-69542930D01*
X80691150Y-69460179D01*
X80701424Y-69382545D01*
X80697429Y-69278660D01*
G36*
X78251755Y-60819110D02*
G01*
X78017338Y-60819091D01*
X77804397Y-60819065D01*
X77611832Y-60818992D01*
X77438541Y-60818835D01*
X77283424Y-60818553D01*
X77145380Y-60818108D01*
X77023308Y-60817461D01*
X76916106Y-60816572D01*
X76822674Y-60815404D01*
X76741910Y-60813916D01*
X76672714Y-60812071D01*
X76613985Y-60809828D01*
X76564621Y-60807148D01*
X76523522Y-60803994D01*
X76489587Y-60800325D01*
X76461714Y-60796104D01*
X76438802Y-60791290D01*
X76419751Y-60785844D01*
X76403460Y-60779729D01*
X76388827Y-60772905D01*
X76374751Y-60765332D01*
X76360132Y-60756972D01*
X76351026Y-60751778D01*
X76290311Y-60717513D01*
X76290311Y-61575662D01*
X76386267Y-61575662D01*
X76429630Y-61576393D01*
X76462795Y-61578345D01*
X76480576Y-61581154D01*
X76482222Y-61582396D01*
X76475338Y-61593818D01*
X76457495Y-61616533D01*
X76438121Y-61639232D01*
X76397386Y-61693817D01*
X76356383Y-61763296D01*
X76318877Y-61840347D01*
X76288636Y-61917652D01*
X76278988Y-61948504D01*
X76264422Y-62017001D01*
X76254461Y-62099853D01*
X76249417Y-62189246D01*
X76249604Y-62277369D01*
X76255334Y-62356410D01*
X76261142Y-62394106D01*
X76299203Y-62532203D01*
X76356927Y-62659504D01*
X76433789Y-62775325D01*
X76529261Y-62878980D01*
X76642821Y-62969784D01*
X76753619Y-63036586D01*
X76870375Y-63091453D01*
X76989724Y-63133454D01*
X77115717Y-63163450D01*
X77252406Y-63182306D01*
X77403842Y-63190885D01*
X77481289Y-63191611D01*
X77538066Y-63189517D01*
X77538066Y-62360400D01*
X77444998Y-62360193D01*
X77357308Y-62357280D01*
X77280228Y-62351617D01*
X77218991Y-62343162D01*
X77206650Y-62340579D01*
X77099367Y-62308777D01*
X77012342Y-62267119D01*
X76945358Y-62215254D01*
X76898195Y-62152836D01*
X76870635Y-62079517D01*
X76862459Y-61994948D01*
X76873449Y-61898782D01*
X76889171Y-61835306D01*
X76907361Y-61786163D01*
X76933209Y-61732034D01*
X76956911Y-61691373D01*
X77003279Y-61620817D01*
X78153470Y-61620817D01*
X78197038Y-61688225D01*
X78237960Y-61766750D01*
X78264611Y-61850936D01*
X78276535Y-61936060D01*
X78273278Y-62017401D01*
X78254385Y-62090237D01*
X78238816Y-62122191D01*
X78195819Y-62180116D01*
X78139047Y-62229073D01*
X78066425Y-62270227D01*
X77975879Y-62304743D01*
X77865334Y-62333784D01*
X77859467Y-62335065D01*
X77797212Y-62345236D01*
X77719406Y-62352878D01*
X77631280Y-62357947D01*
X77538066Y-62360400D01*
X77538066Y-63189517D01*
X77694105Y-63183760D01*
X77889941Y-63161815D01*
X78068668Y-63125831D01*
X78230155Y-63075858D01*
X78374274Y-63011949D01*
X78500894Y-62934155D01*
X78609885Y-62842528D01*
X78701117Y-62737120D01*
X78732068Y-62691955D01*
X78788215Y-62591006D01*
X78827826Y-62487716D01*
X78851986Y-62377628D01*
X78861781Y-62256287D01*
X78860735Y-62163781D01*
X78849769Y-62034127D01*
X78827954Y-61921533D01*
X78794286Y-61822742D01*
X78747764Y-61734496D01*
X78713552Y-61685631D01*
X78691638Y-61656264D01*
X78676667Y-61634574D01*
X78672267Y-61626364D01*
X78683096Y-61624749D01*
X78713749Y-61623458D01*
X78761474Y-61622479D01*
X78823521Y-61621800D01*
X78897138Y-61621407D01*
X78979573Y-61621287D01*
X79068075Y-61621429D01*
X79159893Y-61621820D01*
X79252276Y-61622446D01*
X79342472Y-61623297D01*
X79427729Y-61624357D01*
X79505297Y-61625616D01*
X79572424Y-61627061D01*
X79626359Y-61628679D01*
X79664350Y-61630456D01*
X79671333Y-61630948D01*
X79741749Y-61638525D01*
X79796898Y-61650086D01*
X79844019Y-61667825D01*
X79890353Y-61693935D01*
X79899933Y-61700202D01*
X79936622Y-61724634D01*
X79936622Y-60819306D01*
X78251755Y-60819110D01*
G37*
X78251755Y-60819110D02*
X78017338Y-60819091D01*
X77804397Y-60819065D01*
X77611832Y-60818992D01*
X77438541Y-60818835D01*
X77283424Y-60818553D01*
X77145380Y-60818108D01*
X77023308Y-60817461D01*
X76916106Y-60816572D01*
X76822674Y-60815404D01*
X76741910Y-60813916D01*
X76672714Y-60812071D01*
X76613985Y-60809828D01*
X76564621Y-60807148D01*
X76523522Y-60803994D01*
X76489587Y-60800325D01*
X76461714Y-60796104D01*
X76438802Y-60791290D01*
X76419751Y-60785844D01*
X76403460Y-60779729D01*
X76388827Y-60772905D01*
X76374751Y-60765332D01*
X76360132Y-60756972D01*
X76351026Y-60751778D01*
X76290311Y-60717513D01*
X76290311Y-61575662D01*
X76386267Y-61575662D01*
X76429630Y-61576393D01*
X76462795Y-61578345D01*
X76480576Y-61581154D01*
X76482222Y-61582396D01*
X76475338Y-61593818D01*
X76457495Y-61616533D01*
X76438121Y-61639232D01*
X76397386Y-61693817D01*
X76356383Y-61763296D01*
X76318877Y-61840347D01*
X76288636Y-61917652D01*
X76278988Y-61948504D01*
X76264422Y-62017001D01*
X76254461Y-62099853D01*
X76249417Y-62189246D01*
X76249604Y-62277369D01*
X76255334Y-62356410D01*
X76261142Y-62394106D01*
X76299203Y-62532203D01*
X76356927Y-62659504D01*
X76433789Y-62775325D01*
X76529261Y-62878980D01*
X76642821Y-62969784D01*
X76753619Y-63036586D01*
X76870375Y-63091453D01*
X76989724Y-63133454D01*
X77115717Y-63163450D01*
X77252406Y-63182306D01*
X77403842Y-63190885D01*
X77481289Y-63191611D01*
X77538066Y-63189517D01*
X77538066Y-62360400D01*
X77444998Y-62360193D01*
X77357308Y-62357280D01*
X77280228Y-62351617D01*
X77218991Y-62343162D01*
X77206650Y-62340579D01*
X77099367Y-62308777D01*
X77012342Y-62267119D01*
X76945358Y-62215254D01*
X76898195Y-62152836D01*
X76870635Y-62079517D01*
X76862459Y-61994948D01*
X76873449Y-61898782D01*
X76889171Y-61835306D01*
X76907361Y-61786163D01*
X76933209Y-61732034D01*
X76956911Y-61691373D01*
X77003279Y-61620817D01*
X78153470Y-61620817D01*
X78197038Y-61688225D01*
X78237960Y-61766750D01*
X78264611Y-61850936D01*
X78276535Y-61936060D01*
X78273278Y-62017401D01*
X78254385Y-62090237D01*
X78238816Y-62122191D01*
X78195819Y-62180116D01*
X78139047Y-62229073D01*
X78066425Y-62270227D01*
X77975879Y-62304743D01*
X77865334Y-62333784D01*
X77859467Y-62335065D01*
X77797212Y-62345236D01*
X77719406Y-62352878D01*
X77631280Y-62357947D01*
X77538066Y-62360400D01*
X77538066Y-63189517D01*
X77694105Y-63183760D01*
X77889941Y-63161815D01*
X78068668Y-63125831D01*
X78230155Y-63075858D01*
X78374274Y-63011949D01*
X78500894Y-62934155D01*
X78609885Y-62842528D01*
X78701117Y-62737120D01*
X78732068Y-62691955D01*
X78788215Y-62591006D01*
X78827826Y-62487716D01*
X78851986Y-62377628D01*
X78861781Y-62256287D01*
X78860735Y-62163781D01*
X78849769Y-62034127D01*
X78827954Y-61921533D01*
X78794286Y-61822742D01*
X78747764Y-61734496D01*
X78713552Y-61685631D01*
X78691638Y-61656264D01*
X78676667Y-61634574D01*
X78672267Y-61626364D01*
X78683096Y-61624749D01*
X78713749Y-61623458D01*
X78761474Y-61622479D01*
X78823521Y-61621800D01*
X78897138Y-61621407D01*
X78979573Y-61621287D01*
X79068075Y-61621429D01*
X79159893Y-61621820D01*
X79252276Y-61622446D01*
X79342472Y-61623297D01*
X79427729Y-61624357D01*
X79505297Y-61625616D01*
X79572424Y-61627061D01*
X79626359Y-61628679D01*
X79664350Y-61630456D01*
X79671333Y-61630948D01*
X79741749Y-61638525D01*
X79796898Y-61650086D01*
X79844019Y-61667825D01*
X79890353Y-61693935D01*
X79899933Y-61700202D01*
X79936622Y-61724634D01*
X79936622Y-60819306D01*
X78251755Y-60819110D01*
G36*
X78857448Y-64332043D02*
G01*
X78837433Y-64180125D01*
X78803798Y-64044861D01*
X78756275Y-63925378D01*
X78694595Y-63820802D01*
X78631035Y-63743193D01*
X78556901Y-63674352D01*
X78477129Y-63620611D01*
X78384909Y-63577707D01*
X78341839Y-63562233D01*
X78302858Y-63549373D01*
X78266711Y-63538171D01*
X78231566Y-63528497D01*
X78195590Y-63520221D01*
X78156950Y-63513214D01*
X78113815Y-63507345D01*
X78064351Y-63502486D01*
X78006727Y-63498507D01*
X77939109Y-63495277D01*
X77859666Y-63492668D01*
X77766564Y-63490550D01*
X77657973Y-63488793D01*
X77532058Y-63487268D01*
X77386988Y-63485845D01*
X77244222Y-63484592D01*
X77088032Y-63483266D01*
X76952761Y-63482061D01*
X76836754Y-63480851D01*
X76738355Y-63479511D01*
X76655907Y-63477917D01*
X76587754Y-63475942D01*
X76532240Y-63473461D01*
X76487708Y-63470348D01*
X76452502Y-63466479D01*
X76424966Y-63461728D01*
X76403444Y-63455969D01*
X76386278Y-63449078D01*
X76371814Y-63440928D01*
X76358394Y-63431394D01*
X76344362Y-63420351D01*
X76338929Y-63416051D01*
X76316090Y-63400231D01*
X76300537Y-63393195D01*
X76300078Y-63393173D01*
X76297879Y-63404050D01*
X76295853Y-63435035D01*
X76294058Y-63483660D01*
X76292549Y-63547454D01*
X76291384Y-63623948D01*
X76290620Y-63710673D01*
X76290314Y-63805160D01*
X76290311Y-63816067D01*
X76290311Y-64238960D01*
X76386378Y-64242222D01*
X76482444Y-64245484D01*
X76431457Y-64307573D01*
X76363943Y-64404903D01*
X76309251Y-64514804D01*
X76279022Y-64601268D01*
X76264334Y-64670339D01*
X76254341Y-64753692D01*
X76249354Y-64843458D01*
X76249687Y-64931772D01*
X76255649Y-65010766D01*
X76261362Y-65046995D01*
X76299224Y-65187014D01*
X76354068Y-65313439D01*
X76425076Y-65425357D01*
X76511432Y-65521855D01*
X76612321Y-65602017D01*
X76726924Y-65664930D01*
X76853016Y-65709305D01*
X76909599Y-65721639D01*
X76971798Y-65729249D01*
X77046637Y-65732878D01*
X77080533Y-65733372D01*
X77083718Y-65733307D01*
X77083718Y-64973369D01*
X77008667Y-64964076D01*
X76944840Y-64935889D01*
X76889202Y-64887420D01*
X76884789Y-64882363D01*
X76849963Y-64834069D01*
X76827380Y-64782360D01*
X76815460Y-64721628D01*
X76812617Y-64646265D01*
X76813022Y-64628158D01*
X76815675Y-64574339D01*
X76821091Y-64534309D01*
X76831255Y-64499293D01*
X76848150Y-64460514D01*
X76853328Y-64449872D01*
X76889156Y-64389221D01*
X76931788Y-64342402D01*
X76947027Y-64329665D01*
X77003538Y-64284995D01*
X77199414Y-64284995D01*
X77278061Y-64285531D01*
X77336012Y-64287221D01*
X77375125Y-64290189D01*
X77397259Y-64294560D01*
X77403726Y-64298645D01*
X77406889Y-64314570D01*
X77409512Y-64348353D01*
X77411345Y-64395277D01*
X77412143Y-64450624D01*
X77412158Y-64459511D01*
X77406904Y-64580287D01*
X77390737Y-64682957D01*
X77363039Y-64769511D01*
X77323192Y-64841936D01*
X77276242Y-64896866D01*
X77218355Y-64941413D01*
X77155307Y-64966137D01*
X77083718Y-64973369D01*
X77083718Y-65733307D01*
X77174288Y-65731439D01*
X77253188Y-65723095D01*
X77324410Y-65706849D01*
X77395136Y-65681212D01*
X77447507Y-65657216D01*
X77542804Y-65598597D01*
X77630830Y-65520500D01*
X77709983Y-65425302D01*
X77778660Y-65315379D01*
X77835259Y-65193107D01*
X77878179Y-65060862D01*
X77893118Y-64996195D01*
X77915223Y-64860013D01*
X77929806Y-64711568D01*
X77936187Y-64560112D01*
X77934555Y-64433553D01*
X77927776Y-64271667D01*
X77986755Y-64279087D01*
X78085908Y-64298379D01*
X78166628Y-64329513D01*
X78229534Y-64373348D01*
X78275244Y-64430746D01*
X78304378Y-64502569D01*
X78317553Y-64589676D01*
X78315389Y-64692931D01*
X78311388Y-64730906D01*
X78286220Y-64872097D01*
X78245186Y-65008910D01*
X78207185Y-65103439D01*
X78187810Y-65148599D01*
X78172240Y-65187032D01*
X78162595Y-65213383D01*
X78160548Y-65221071D01*
X78169626Y-65230815D01*
X78198595Y-65247534D01*
X78247783Y-65271385D01*
X78317516Y-65302524D01*
X78408121Y-65341110D01*
X78423911Y-65347707D01*
X78496228Y-65377764D01*
X78561575Y-65404743D01*
X78617094Y-65427481D01*
X78659928Y-65444811D01*
X78687219Y-65455569D01*
X78696058Y-65458676D01*
X78700813Y-65448677D01*
X78706090Y-65422400D01*
X78709769Y-65394128D01*
X78714526Y-65363971D01*
X78723972Y-65316184D01*
X78737180Y-65255005D01*
X78753224Y-65184671D01*
X78771180Y-65109423D01*
X78778203Y-65080862D01*
X78803791Y-64975801D01*
X78823853Y-64888137D01*
X78839031Y-64813549D01*
X78849965Y-64747714D01*
X78857296Y-64686310D01*
X78861665Y-64625015D01*
X78863713Y-64559507D01*
X78864111Y-64501489D01*
X78857448Y-64332043D01*
G37*
X78857448Y-64332043D02*
X78837433Y-64180125D01*
X78803798Y-64044861D01*
X78756275Y-63925378D01*
X78694595Y-63820802D01*
X78631035Y-63743193D01*
X78556901Y-63674352D01*
X78477129Y-63620611D01*
X78384909Y-63577707D01*
X78341839Y-63562233D01*
X78302858Y-63549373D01*
X78266711Y-63538171D01*
X78231566Y-63528497D01*
X78195590Y-63520221D01*
X78156950Y-63513214D01*
X78113815Y-63507345D01*
X78064351Y-63502486D01*
X78006727Y-63498507D01*
X77939109Y-63495277D01*
X77859666Y-63492668D01*
X77766564Y-63490550D01*
X77657973Y-63488793D01*
X77532058Y-63487268D01*
X77386988Y-63485845D01*
X77244222Y-63484592D01*
X77088032Y-63483266D01*
X76952761Y-63482061D01*
X76836754Y-63480851D01*
X76738355Y-63479511D01*
X76655907Y-63477917D01*
X76587754Y-63475942D01*
X76532240Y-63473461D01*
X76487708Y-63470348D01*
X76452502Y-63466479D01*
X76424966Y-63461728D01*
X76403444Y-63455969D01*
X76386278Y-63449078D01*
X76371814Y-63440928D01*
X76358394Y-63431394D01*
X76344362Y-63420351D01*
X76338929Y-63416051D01*
X76316090Y-63400231D01*
X76300537Y-63393195D01*
X76300078Y-63393173D01*
X76297879Y-63404050D01*
X76295853Y-63435035D01*
X76294058Y-63483660D01*
X76292549Y-63547454D01*
X76291384Y-63623948D01*
X76290620Y-63710673D01*
X76290314Y-63805160D01*
X76290311Y-63816067D01*
X76290311Y-64238960D01*
X76386378Y-64242222D01*
X76482444Y-64245484D01*
X76431457Y-64307573D01*
X76363943Y-64404903D01*
X76309251Y-64514804D01*
X76279022Y-64601268D01*
X76264334Y-64670339D01*
X76254341Y-64753692D01*
X76249354Y-64843458D01*
X76249687Y-64931772D01*
X76255649Y-65010766D01*
X76261362Y-65046995D01*
X76299224Y-65187014D01*
X76354068Y-65313439D01*
X76425076Y-65425357D01*
X76511432Y-65521855D01*
X76612321Y-65602017D01*
X76726924Y-65664930D01*
X76853016Y-65709305D01*
X76909599Y-65721639D01*
X76971798Y-65729249D01*
X77046637Y-65732878D01*
X77080533Y-65733372D01*
X77083718Y-65733307D01*
X77083718Y-64973369D01*
X77008667Y-64964076D01*
X76944840Y-64935889D01*
X76889202Y-64887420D01*
X76884789Y-64882363D01*
X76849963Y-64834069D01*
X76827380Y-64782360D01*
X76815460Y-64721628D01*
X76812617Y-64646265D01*
X76813022Y-64628158D01*
X76815675Y-64574339D01*
X76821091Y-64534309D01*
X76831255Y-64499293D01*
X76848150Y-64460514D01*
X76853328Y-64449872D01*
X76889156Y-64389221D01*
X76931788Y-64342402D01*
X76947027Y-64329665D01*
X77003538Y-64284995D01*
X77199414Y-64284995D01*
X77278061Y-64285531D01*
X77336012Y-64287221D01*
X77375125Y-64290189D01*
X77397259Y-64294560D01*
X77403726Y-64298645D01*
X77406889Y-64314570D01*
X77409512Y-64348353D01*
X77411345Y-64395277D01*
X77412143Y-64450624D01*
X77412158Y-64459511D01*
X77406904Y-64580287D01*
X77390737Y-64682957D01*
X77363039Y-64769511D01*
X77323192Y-64841936D01*
X77276242Y-64896866D01*
X77218355Y-64941413D01*
X77155307Y-64966137D01*
X77083718Y-64973369D01*
X77083718Y-65733307D01*
X77174288Y-65731439D01*
X77253188Y-65723095D01*
X77324410Y-65706849D01*
X77395136Y-65681212D01*
X77447507Y-65657216D01*
X77542804Y-65598597D01*
X77630830Y-65520500D01*
X77709983Y-65425302D01*
X77778660Y-65315379D01*
X77835259Y-65193107D01*
X77878179Y-65060862D01*
X77893118Y-64996195D01*
X77915223Y-64860013D01*
X77929806Y-64711568D01*
X77936187Y-64560112D01*
X77934555Y-64433553D01*
X77927776Y-64271667D01*
X77986755Y-64279087D01*
X78085908Y-64298379D01*
X78166628Y-64329513D01*
X78229534Y-64373348D01*
X78275244Y-64430746D01*
X78304378Y-64502569D01*
X78317553Y-64589676D01*
X78315389Y-64692931D01*
X78311388Y-64730906D01*
X78286220Y-64872097D01*
X78245186Y-65008910D01*
X78207185Y-65103439D01*
X78187810Y-65148599D01*
X78172240Y-65187032D01*
X78162595Y-65213383D01*
X78160548Y-65221071D01*
X78169626Y-65230815D01*
X78198595Y-65247534D01*
X78247783Y-65271385D01*
X78317516Y-65302524D01*
X78408121Y-65341110D01*
X78423911Y-65347707D01*
X78496228Y-65377764D01*
X78561575Y-65404743D01*
X78617094Y-65427481D01*
X78659928Y-65444811D01*
X78687219Y-65455569D01*
X78696058Y-65458676D01*
X78700813Y-65448677D01*
X78706090Y-65422400D01*
X78709769Y-65394128D01*
X78714526Y-65363971D01*
X78723972Y-65316184D01*
X78737180Y-65255005D01*
X78753224Y-65184671D01*
X78771180Y-65109423D01*
X78778203Y-65080862D01*
X78803791Y-64975801D01*
X78823853Y-64888137D01*
X78839031Y-64813549D01*
X78849965Y-64747714D01*
X78857296Y-64686310D01*
X78861665Y-64625015D01*
X78863713Y-64559507D01*
X78864111Y-64501489D01*
X78857448Y-64332043D01*
G36*
X79774929Y-66677188D02*
G01*
X79753755Y-66517047D01*
X79713615Y-66353107D01*
X79654111Y-66183304D01*
X79574846Y-66005574D01*
X79569301Y-65994307D01*
X79541275Y-65936612D01*
X79517198Y-65885065D01*
X79498751Y-65843426D01*
X79487614Y-65815455D01*
X79485067Y-65805884D01*
X79480059Y-65786667D01*
X79475853Y-65782056D01*
X79465420Y-65787159D01*
X79439132Y-65803199D01*
X79399743Y-65828329D01*
X79350009Y-65860703D01*
X79292685Y-65898474D01*
X79230524Y-65939795D01*
X79166282Y-65982819D01*
X79102715Y-66025700D01*
X79042575Y-66066591D01*
X78988620Y-66103646D01*
X78943603Y-66135017D01*
X78910279Y-66158858D01*
X78891403Y-66173323D01*
X78889213Y-66175308D01*
X78893862Y-66185426D01*
X78911038Y-66207767D01*
X78937560Y-66238337D01*
X78952036Y-66254081D01*
X79027318Y-66350570D01*
X79082759Y-66457281D01*
X79117859Y-66572785D01*
X79132120Y-66695655D01*
X79130949Y-66765056D01*
X79113788Y-66886194D01*
X79077906Y-66995412D01*
X79023041Y-67093035D01*
X78948930Y-67179389D01*
X78855312Y-67254802D01*
X78741924Y-67319599D01*
X78655333Y-67357016D01*
X78519634Y-67400869D01*
X78372150Y-67433189D01*
X78216686Y-67454060D01*
X78057044Y-67463566D01*
X77897027Y-67461790D01*
X77740439Y-67448814D01*
X77591082Y-67424723D01*
X77452760Y-67389599D01*
X77329276Y-67343525D01*
X77295022Y-67327244D01*
X77180936Y-67258997D01*
X77084443Y-67178538D01*
X77006330Y-67087047D01*
X76947383Y-66985706D01*
X76908388Y-66875697D01*
X76890132Y-66758202D01*
X76888789Y-66716734D01*
X76899710Y-66595176D01*
X76932526Y-66474739D01*
X76986561Y-66356951D01*
X77061135Y-66243340D01*
X77139461Y-66151932D01*
X77183992Y-66105402D01*
X76886729Y-65924134D01*
X76812567Y-65879037D01*
X76744354Y-65837798D01*
X76684541Y-65801882D01*
X76635580Y-65772751D01*
X76599921Y-65751867D01*
X76580016Y-65740693D01*
X76576921Y-65739242D01*
X76567282Y-65747471D01*
X76550001Y-65773050D01*
X76526717Y-65812744D01*
X76499066Y-65863320D01*
X76468685Y-65921543D01*
X76437210Y-65984180D01*
X76406278Y-66047996D01*
X76377527Y-66109757D01*
X76352592Y-66166229D01*
X76333111Y-66214179D01*
X76324682Y-66237631D01*
X76286867Y-66371396D01*
X76261864Y-66509290D01*
X76248860Y-66656995D01*
X76246532Y-66783784D01*
X76247627Y-66851739D01*
X76249725Y-66917340D01*
X76252566Y-66974770D01*
X76255894Y-67018214D01*
X76257578Y-67032319D01*
X76286413Y-67171333D01*
X76331532Y-67312860D01*
X76390250Y-67450342D01*
X76459880Y-67577223D01*
X76512559Y-67654728D01*
X76620761Y-67782136D01*
X76747329Y-67900439D01*
X76889134Y-68007445D01*
X77043049Y-68100965D01*
X77205947Y-68178807D01*
X77323244Y-68222661D01*
X77506872Y-68272909D01*
X77701419Y-68306408D01*
X77902675Y-68323168D01*
X78106432Y-68323201D01*
X78308479Y-68306516D01*
X78504608Y-68273124D01*
X78690609Y-68223037D01*
X78702197Y-68219220D01*
X78864250Y-68156336D01*
X79012168Y-68079589D01*
X79150135Y-67986375D01*
X79282339Y-67874090D01*
X79327601Y-67830225D01*
X79451543Y-67694083D01*
X79554085Y-67554126D01*
X79636344Y-67408206D01*
X79699436Y-67254175D01*
X79744477Y-67089885D01*
X79761967Y-66994328D01*
X79777534Y-66835594D01*
X79774929Y-66677188D01*
G37*
X79774929Y-66677188D02*
X79753755Y-66517047D01*
X79713615Y-66353107D01*
X79654111Y-66183304D01*
X79574846Y-66005574D01*
X79569301Y-65994307D01*
X79541275Y-65936612D01*
X79517198Y-65885065D01*
X79498751Y-65843426D01*
X79487614Y-65815455D01*
X79485067Y-65805884D01*
X79480059Y-65786667D01*
X79475853Y-65782056D01*
X79465420Y-65787159D01*
X79439132Y-65803199D01*
X79399743Y-65828329D01*
X79350009Y-65860703D01*
X79292685Y-65898474D01*
X79230524Y-65939795D01*
X79166282Y-65982819D01*
X79102715Y-66025700D01*
X79042575Y-66066591D01*
X78988620Y-66103646D01*
X78943603Y-66135017D01*
X78910279Y-66158858D01*
X78891403Y-66173323D01*
X78889213Y-66175308D01*
X78893862Y-66185426D01*
X78911038Y-66207767D01*
X78937560Y-66238337D01*
X78952036Y-66254081D01*
X79027318Y-66350570D01*
X79082759Y-66457281D01*
X79117859Y-66572785D01*
X79132120Y-66695655D01*
X79130949Y-66765056D01*
X79113788Y-66886194D01*
X79077906Y-66995412D01*
X79023041Y-67093035D01*
X78948930Y-67179389D01*
X78855312Y-67254802D01*
X78741924Y-67319599D01*
X78655333Y-67357016D01*
X78519634Y-67400869D01*
X78372150Y-67433189D01*
X78216686Y-67454060D01*
X78057044Y-67463566D01*
X77897027Y-67461790D01*
X77740439Y-67448814D01*
X77591082Y-67424723D01*
X77452760Y-67389599D01*
X77329276Y-67343525D01*
X77295022Y-67327244D01*
X77180936Y-67258997D01*
X77084443Y-67178538D01*
X77006330Y-67087047D01*
X76947383Y-66985706D01*
X76908388Y-66875697D01*
X76890132Y-66758202D01*
X76888789Y-66716734D01*
X76899710Y-66595176D01*
X76932526Y-66474739D01*
X76986561Y-66356951D01*
X77061135Y-66243340D01*
X77139461Y-66151932D01*
X77183992Y-66105402D01*
X76886729Y-65924134D01*
X76812567Y-65879037D01*
X76744354Y-65837798D01*
X76684541Y-65801882D01*
X76635580Y-65772751D01*
X76599921Y-65751867D01*
X76580016Y-65740693D01*
X76576921Y-65739242D01*
X76567282Y-65747471D01*
X76550001Y-65773050D01*
X76526717Y-65812744D01*
X76499066Y-65863320D01*
X76468685Y-65921543D01*
X76437210Y-65984180D01*
X76406278Y-66047996D01*
X76377527Y-66109757D01*
X76352592Y-66166229D01*
X76333111Y-66214179D01*
X76324682Y-66237631D01*
X76286867Y-66371396D01*
X76261864Y-66509290D01*
X76248860Y-66656995D01*
X76246532Y-66783784D01*
X76247627Y-66851739D01*
X76249725Y-66917340D01*
X76252566Y-66974770D01*
X76255894Y-67018214D01*
X76257578Y-67032319D01*
X76286413Y-67171333D01*
X76331532Y-67312860D01*
X76390250Y-67450342D01*
X76459880Y-67577223D01*
X76512559Y-67654728D01*
X76620761Y-67782136D01*
X76747329Y-67900439D01*
X76889134Y-68007445D01*
X77043049Y-68100965D01*
X77205947Y-68178807D01*
X77323244Y-68222661D01*
X77506872Y-68272909D01*
X77701419Y-68306408D01*
X77902675Y-68323168D01*
X78106432Y-68323201D01*
X78308479Y-68306516D01*
X78504608Y-68273124D01*
X78690609Y-68223037D01*
X78702197Y-68219220D01*
X78864250Y-68156336D01*
X79012168Y-68079589D01*
X79150135Y-67986375D01*
X79282339Y-67874090D01*
X79327601Y-67830225D01*
X79451543Y-67694083D01*
X79554085Y-67554126D01*
X79636344Y-67408206D01*
X79699436Y-67254175D01*
X79744477Y-67089885D01*
X79761967Y-66994328D01*
X79777534Y-66835594D01*
X79774929Y-66677188D01*
G36*
X80234946Y-69952017D02*
G01*
X80121007Y-69941152D01*
X80013384Y-69909535D01*
X79914385Y-69858632D01*
X79826316Y-69789910D01*
X79751484Y-69704836D01*
X79693616Y-69607849D01*
X79653995Y-69501581D01*
X79635427Y-69394567D01*
X79636566Y-69288917D01*
X79656070Y-69186742D01*
X79692594Y-69090151D01*
X79744795Y-69001255D01*
X79811327Y-68922163D01*
X79890848Y-68854986D01*
X79982013Y-68801834D01*
X80083477Y-68764816D01*
X80193898Y-68746044D01*
X80243794Y-68744106D01*
X80331733Y-68744106D01*
X80331733Y-68692177D01*
X80328889Y-68655870D01*
X80317089Y-68628972D01*
X80293351Y-68601866D01*
X80254969Y-68563484D01*
X78063398Y-68563484D01*
X77801261Y-68563493D01*
X77560759Y-68563525D01*
X77340952Y-68563589D01*
X77140899Y-68563693D01*
X76959656Y-68563844D01*
X76796284Y-68564051D01*
X76649840Y-68564323D01*
X76519383Y-68564667D01*
X76403971Y-68565091D01*
X76302662Y-68565604D01*
X76214516Y-68566214D01*
X76138590Y-68566929D01*
X76073943Y-68567757D01*
X76019633Y-68568706D01*
X75974720Y-68569784D01*
X75938260Y-68571000D01*
X75909313Y-68572362D01*
X75886937Y-68573878D01*
X75870191Y-68575555D01*
X75858132Y-68577403D01*
X75849820Y-68579430D01*
X75844313Y-68581642D01*
X75842463Y-68582725D01*
X75835451Y-68586888D01*
X75829004Y-68590422D01*
X75823100Y-68594252D01*
X75817714Y-68599299D01*
X75812822Y-68606488D01*
X75808402Y-68616740D01*
X75804428Y-68630981D01*
X75800879Y-68650131D01*
X75797730Y-68675116D01*
X75794958Y-68706857D01*
X75792539Y-68746279D01*
X75790449Y-68794303D01*
X75788665Y-68851854D01*
X75787163Y-68919854D01*
X75785920Y-68999227D01*
X75784911Y-69090896D01*
X75784115Y-69195783D01*
X75783506Y-69314813D01*
X75783061Y-69448907D01*
X75782757Y-69598990D01*
X75782570Y-69765984D01*
X75782476Y-69950813D01*
X75782452Y-70154400D01*
X75782475Y-70377667D01*
X75782520Y-70621539D01*
X75782563Y-70886938D01*
X75782568Y-70925321D01*
X75782611Y-71192299D01*
X75782682Y-71437619D01*
X75782787Y-71662200D01*
X75782934Y-71866962D01*
X75783131Y-72052823D01*
X75783384Y-72220705D01*
X75783700Y-72371525D01*
X75784087Y-72506204D01*
X75784553Y-72625661D01*
X75785103Y-72730816D01*
X75785747Y-72822588D01*
X75786489Y-72901896D01*
X75787339Y-72969660D01*
X75788303Y-73026799D01*
X75789389Y-73074234D01*
X75790603Y-73112883D01*
X75791953Y-73143666D01*
X75793445Y-73167502D01*
X75795089Y-73185311D01*
X75796889Y-73198012D01*
X75798855Y-73206525D01*
X75800523Y-73210883D01*
X75804094Y-73219345D01*
X75806730Y-73227114D01*
X75809366Y-73234219D01*
X75812938Y-73240690D01*
X75818379Y-73246556D01*
X75826625Y-73251846D01*
X75838610Y-73256591D01*
X75855269Y-73260819D01*
X75877537Y-73264560D01*
X75906348Y-73267844D01*
X75942637Y-73270700D01*
X75987339Y-73273157D01*
X76041389Y-73275246D01*
X76105721Y-73276995D01*
X76181270Y-73278434D01*
X76268970Y-73279593D01*
X76369757Y-73280500D01*
X76484566Y-73281186D01*
X76614330Y-73281680D01*
X76759985Y-73282012D01*
X76922465Y-73282210D01*
X77102705Y-73282304D01*
X77301640Y-73282325D01*
X77520204Y-73282302D01*
X77759332Y-73282263D01*
X78019960Y-73282239D01*
X78062111Y-73282239D01*
X78325008Y-73282253D01*
X78566268Y-73282278D01*
X78786835Y-73282288D01*
X78987648Y-73282259D01*
X79169651Y-73282165D01*
X79333784Y-73281979D01*
X79480989Y-73281676D01*
X79612208Y-73281231D01*
X79722133Y-73280651D01*
X79722133Y-72977814D01*
X79664289Y-72938024D01*
X79648521Y-72926853D01*
X79634559Y-72916783D01*
X79621216Y-72907755D01*
X79607307Y-72899714D01*
X79591644Y-72892603D01*
X79573042Y-72886364D01*
X79550314Y-72880942D01*
X79522273Y-72876279D01*
X79487733Y-72872318D01*
X79445508Y-72869002D01*
X79394411Y-72866276D01*
X79333256Y-72864081D01*
X79260856Y-72862362D01*
X79176025Y-72861061D01*
X79077578Y-72860122D01*
X78964326Y-72859487D01*
X78835084Y-72859101D01*
X78688666Y-72858905D01*
X78523884Y-72858844D01*
X78339553Y-72858860D01*
X78134487Y-72858897D01*
X78011867Y-72858906D01*
X77794918Y-72858882D01*
X77599358Y-72858848D01*
X77424001Y-72858860D01*
X77267659Y-72858975D01*
X77129143Y-72859247D01*
X77007266Y-72859735D01*
X76900840Y-72860493D01*
X76808678Y-72861579D01*
X76729591Y-72863048D01*
X76662392Y-72864957D01*
X76605893Y-72867361D01*
X76558907Y-72870318D01*
X76520245Y-72873883D01*
X76488720Y-72878112D01*
X76463145Y-72883063D01*
X76442330Y-72888790D01*
X76425089Y-72895350D01*
X76410235Y-72902800D01*
X76396578Y-72911196D01*
X76382931Y-72920593D01*
X76368107Y-72931049D01*
X76359217Y-72937140D01*
X76301600Y-72975913D01*
X76301600Y-72444349D01*
X76301635Y-72321100D01*
X76301785Y-72218604D01*
X76302122Y-72135037D01*
X76302714Y-72068573D01*
X76303633Y-72017388D01*
X76304949Y-71979658D01*
X76306731Y-71953557D01*
X76309049Y-71937261D01*
X76311974Y-71928945D01*
X76315576Y-71926785D01*
X76319925Y-71928956D01*
X76321355Y-71930152D01*
X76358427Y-71955302D01*
X76411228Y-71981200D01*
X76473230Y-72004809D01*
X76499643Y-72013078D01*
X76517584Y-72017695D01*
X76538645Y-72021596D01*
X76564911Y-72024865D01*
X76598468Y-72027583D01*
X76641401Y-72029832D01*
X76695796Y-72031694D01*
X76763738Y-72033253D01*
X76847312Y-72034589D01*
X76948605Y-72035786D01*
X77069700Y-72036925D01*
X77114400Y-72037302D01*
X77239551Y-72038319D01*
X77343918Y-72039077D01*
X77429293Y-72039520D01*
X77497467Y-72039587D01*
X77550235Y-72039222D01*
X77589386Y-72038365D01*
X77616715Y-72036958D01*
X77634014Y-72034942D01*
X77643074Y-72032260D01*
X77645688Y-72028853D01*
X77643649Y-72024661D01*
X77639333Y-72020188D01*
X77626398Y-72009833D01*
X77597324Y-71987775D01*
X77554241Y-71955574D01*
X77499282Y-71914791D01*
X77434577Y-71866987D01*
X77362258Y-71813722D01*
X77284456Y-71756557D01*
X77203302Y-71697054D01*
X77120928Y-71636772D01*
X77039464Y-71577272D01*
X76961043Y-71520115D01*
X76887796Y-71466862D01*
X76821853Y-71419074D01*
X76765346Y-71378310D01*
X76720407Y-71346133D01*
X76689166Y-71324102D01*
X76682534Y-71319534D01*
X76645631Y-71296613D01*
X76597641Y-71269805D01*
X76548103Y-71244406D01*
X76541423Y-71241185D01*
X76493228Y-71219507D01*
X76455666Y-71206921D01*
X76419840Y-71201191D01*
X76377800Y-71200073D01*
X76301600Y-71200707D01*
X76301600Y-70046268D01*
X76395331Y-70137432D01*
X76445225Y-70184229D01*
X76501705Y-70234516D01*
X76555974Y-70280561D01*
X76581327Y-70300986D01*
X76620872Y-70331424D01*
X76674084Y-70371479D01*
X76739333Y-70419978D01*
X76814989Y-70475752D01*
X76899423Y-70537628D01*
X76991006Y-70604436D01*
X77088108Y-70675004D01*
X77189099Y-70748162D01*
X77292350Y-70822738D01*
X77396232Y-70897561D01*
X77499115Y-70971460D01*
X77599369Y-71043263D01*
X77695364Y-71111801D01*
X77785473Y-71175901D01*
X77868064Y-71234392D01*
X77941508Y-71286103D01*
X78004176Y-71329864D01*
X78054439Y-71364502D01*
X78090666Y-71388847D01*
X78111229Y-71401728D01*
X78115332Y-71403486D01*
X78126658Y-71395527D01*
X78153838Y-71374732D01*
X78195171Y-71342464D01*
X78248956Y-71300087D01*
X78313494Y-71248964D01*
X78387082Y-71190458D01*
X78468022Y-71125931D01*
X78554612Y-71056748D01*
X78645152Y-70984270D01*
X78737940Y-70909863D01*
X78812298Y-70850134D01*
X78812298Y-69839128D01*
X78799341Y-69833219D01*
X78777092Y-69818889D01*
X78775609Y-69817842D01*
X78745456Y-69799055D01*
X78708625Y-69779408D01*
X78700489Y-69775509D01*
X78692060Y-69771973D01*
X78681941Y-69768847D01*
X78668740Y-69766103D01*
X78651062Y-69763709D01*
X78627516Y-69761636D01*
X78596707Y-69759852D01*
X78557243Y-69758329D01*
X78507731Y-69757036D01*
X78446777Y-69755943D01*
X78372989Y-69755020D01*
X78284972Y-69754236D01*
X78181335Y-69753562D01*
X78060684Y-69752967D01*
X77921626Y-69752422D01*
X77762768Y-69751896D01*
X77583911Y-69751362D01*
X77398793Y-69750823D01*
X77234855Y-69750389D01*
X77090697Y-69750126D01*
X76964921Y-69750101D01*
X76856129Y-69750382D01*
X76762923Y-69751036D01*
X76683903Y-69752131D01*
X76617672Y-69753735D01*
X76562830Y-69755914D01*
X76517979Y-69758736D01*
X76481722Y-69762268D01*
X76452659Y-69766578D01*
X76429391Y-69771734D01*
X76410521Y-69777802D01*
X76394649Y-69784850D01*
X76380378Y-69792946D01*
X76366309Y-69802157D01*
X76353842Y-69810657D01*
X76327548Y-69827793D01*
X76309963Y-69837939D01*
X76306743Y-69839128D01*
X76305666Y-69828221D01*
X76304665Y-69797028D01*
X76303765Y-69747840D01*
X76302990Y-69682950D01*
X76302363Y-69604647D01*
X76301909Y-69515224D01*
X76301651Y-69416973D01*
X76301600Y-69348062D01*
X76301820Y-69243069D01*
X76302452Y-69146227D01*
X76303451Y-69059724D01*
X76304773Y-68985749D01*
X76306374Y-68926491D01*
X76308209Y-68884137D01*
X76310235Y-68860877D01*
X76311507Y-68856995D01*
X76326409Y-68864693D01*
X76334440Y-68872691D01*
X76351566Y-68885863D01*
X76381817Y-68903102D01*
X76406378Y-68915024D01*
X76465289Y-68941662D01*
X77642155Y-68944737D01*
X78819022Y-68947812D01*
X78819022Y-69393470D01*
X78818858Y-69491287D01*
X78818389Y-69581681D01*
X78817653Y-69662247D01*
X78816684Y-69730579D01*
X78815520Y-69784273D01*
X78814197Y-69820922D01*
X78812751Y-69838121D01*
X78812298Y-69839128D01*
X78812298Y-70850134D01*
X78831278Y-70834887D01*
X78923463Y-70760707D01*
X79012796Y-70688686D01*
X79097576Y-70620186D01*
X79176102Y-70556572D01*
X79246674Y-70499205D01*
X79307591Y-70449450D01*
X79357153Y-70408669D01*
X79377822Y-70391505D01*
X79478484Y-70305213D01*
X79561741Y-70228614D01*
X79629562Y-70159800D01*
X79683911Y-70096865D01*
X79691278Y-70087484D01*
X79721883Y-70047973D01*
X79722133Y-71179733D01*
X79674156Y-71174444D01*
X79616812Y-71177747D01*
X79548537Y-71199278D01*
X79468788Y-71239252D01*
X79396505Y-71284560D01*
X79373860Y-71300778D01*
X79336304Y-71328831D01*
X79285979Y-71367047D01*
X79225027Y-71413754D01*
X79155589Y-71467278D01*
X79079806Y-71525948D01*
X78999820Y-71588092D01*
X78917772Y-71652038D01*
X78835804Y-71716112D01*
X78756057Y-71778644D01*
X78680673Y-71837960D01*
X78611793Y-71892388D01*
X78551558Y-71940256D01*
X78502111Y-71979892D01*
X78465592Y-72009623D01*
X78444142Y-72027778D01*
X78440844Y-72030837D01*
X78448851Y-72033696D01*
X78479145Y-72035910D01*
X78531444Y-72037474D01*
X78605469Y-72038384D01*
X78700937Y-72038637D01*
X78817566Y-72038230D01*
X78937555Y-72037321D01*
X79069667Y-72035999D01*
X79181406Y-72034474D01*
X79274975Y-72032498D01*
X79352581Y-72029823D01*
X79416426Y-72026199D01*
X79468717Y-72021378D01*
X79511656Y-72015111D01*
X79547449Y-72007149D01*
X79578300Y-71997244D01*
X79606414Y-71985148D01*
X79633995Y-71970610D01*
X79659034Y-71955928D01*
X79722133Y-71917931D01*
X79722133Y-72977814D01*
X79722133Y-73280651D01*
X79728383Y-73280618D01*
X79830456Y-73279812D01*
X79919367Y-73278787D01*
X79996059Y-73277517D01*
X80061473Y-73275977D01*
X80116551Y-73274141D01*
X80162235Y-73271984D01*
X80199466Y-73269480D01*
X80229187Y-73266604D01*
X80252338Y-73263330D01*
X80269861Y-73259632D01*
X80282699Y-73255486D01*
X80291792Y-73250864D01*
X80298082Y-73245743D01*
X80302512Y-73240095D01*
X80306022Y-73233896D01*
X80309555Y-73227121D01*
X80313124Y-73221125D01*
X80315700Y-73215892D01*
X80318028Y-73207716D01*
X80320122Y-73195503D01*
X80321993Y-73178158D01*
X80323653Y-73154586D01*
X80325116Y-73123694D01*
X80326392Y-73084385D01*
X80327496Y-73035567D01*
X80328439Y-72976144D01*
X80329233Y-72905021D01*
X80329891Y-72821105D01*
X80330425Y-72723300D01*
X80330847Y-72610511D01*
X80331171Y-72481646D01*
X80331408Y-72335608D01*
X80331570Y-72171303D01*
X80331670Y-71987637D01*
X80331720Y-71783514D01*
X80331733Y-71572370D01*
X80331733Y-69952017D01*
X80234946Y-69952017D01*
G37*
X80234946Y-69952017D02*
X80121007Y-69941152D01*
X80013384Y-69909535D01*
X79914385Y-69858632D01*
X79826316Y-69789910D01*
X79751484Y-69704836D01*
X79693616Y-69607849D01*
X79653995Y-69501581D01*
X79635427Y-69394567D01*
X79636566Y-69288917D01*
X79656070Y-69186742D01*
X79692594Y-69090151D01*
X79744795Y-69001255D01*
X79811327Y-68922163D01*
X79890848Y-68854986D01*
X79982013Y-68801834D01*
X80083477Y-68764816D01*
X80193898Y-68746044D01*
X80243794Y-68744106D01*
X80331733Y-68744106D01*
X80331733Y-68692177D01*
X80328889Y-68655870D01*
X80317089Y-68628972D01*
X80293351Y-68601866D01*
X80254969Y-68563484D01*
X78063398Y-68563484D01*
X77801261Y-68563493D01*
X77560759Y-68563525D01*
X77340952Y-68563589D01*
X77140899Y-68563693D01*
X76959656Y-68563844D01*
X76796284Y-68564051D01*
X76649840Y-68564323D01*
X76519383Y-68564667D01*
X76403971Y-68565091D01*
X76302662Y-68565604D01*
X76214516Y-68566214D01*
X76138590Y-68566929D01*
X76073943Y-68567757D01*
X76019633Y-68568706D01*
X75974720Y-68569784D01*
X75938260Y-68571000D01*
X75909313Y-68572362D01*
X75886937Y-68573878D01*
X75870191Y-68575555D01*
X75858132Y-68577403D01*
X75849820Y-68579430D01*
X75844313Y-68581642D01*
X75842463Y-68582725D01*
X75835451Y-68586888D01*
X75829004Y-68590422D01*
X75823100Y-68594252D01*
X75817714Y-68599299D01*
X75812822Y-68606488D01*
X75808402Y-68616740D01*
X75804428Y-68630981D01*
X75800879Y-68650131D01*
X75797730Y-68675116D01*
X75794958Y-68706857D01*
X75792539Y-68746279D01*
X75790449Y-68794303D01*
X75788665Y-68851854D01*
X75787163Y-68919854D01*
X75785920Y-68999227D01*
X75784911Y-69090896D01*
X75784115Y-69195783D01*
X75783506Y-69314813D01*
X75783061Y-69448907D01*
X75782757Y-69598990D01*
X75782570Y-69765984D01*
X75782476Y-69950813D01*
X75782452Y-70154400D01*
X75782475Y-70377667D01*
X75782520Y-70621539D01*
X75782563Y-70886938D01*
X75782568Y-70925321D01*
X75782611Y-71192299D01*
X75782682Y-71437619D01*
X75782787Y-71662200D01*
X75782934Y-71866962D01*
X75783131Y-72052823D01*
X75783384Y-72220705D01*
X75783700Y-72371525D01*
X75784087Y-72506204D01*
X75784553Y-72625661D01*
X75785103Y-72730816D01*
X75785747Y-72822588D01*
X75786489Y-72901896D01*
X75787339Y-72969660D01*
X75788303Y-73026799D01*
X75789389Y-73074234D01*
X75790603Y-73112883D01*
X75791953Y-73143666D01*
X75793445Y-73167502D01*
X75795089Y-73185311D01*
X75796889Y-73198012D01*
X75798855Y-73206525D01*
X75800523Y-73210883D01*
X75804094Y-73219345D01*
X75806730Y-73227114D01*
X75809366Y-73234219D01*
X75812938Y-73240690D01*
X75818379Y-73246556D01*
X75826625Y-73251846D01*
X75838610Y-73256591D01*
X75855269Y-73260819D01*
X75877537Y-73264560D01*
X75906348Y-73267844D01*
X75942637Y-73270700D01*
X75987339Y-73273157D01*
X76041389Y-73275246D01*
X76105721Y-73276995D01*
X76181270Y-73278434D01*
X76268970Y-73279593D01*
X76369757Y-73280500D01*
X76484566Y-73281186D01*
X76614330Y-73281680D01*
X76759985Y-73282012D01*
X76922465Y-73282210D01*
X77102705Y-73282304D01*
X77301640Y-73282325D01*
X77520204Y-73282302D01*
X77759332Y-73282263D01*
X78019960Y-73282239D01*
X78062111Y-73282239D01*
X78325008Y-73282253D01*
X78566268Y-73282278D01*
X78786835Y-73282288D01*
X78987648Y-73282259D01*
X79169651Y-73282165D01*
X79333784Y-73281979D01*
X79480989Y-73281676D01*
X79612208Y-73281231D01*
X79722133Y-73280651D01*
X79722133Y-72977814D01*
X79664289Y-72938024D01*
X79648521Y-72926853D01*
X79634559Y-72916783D01*
X79621216Y-72907755D01*
X79607307Y-72899714D01*
X79591644Y-72892603D01*
X79573042Y-72886364D01*
X79550314Y-72880942D01*
X79522273Y-72876279D01*
X79487733Y-72872318D01*
X79445508Y-72869002D01*
X79394411Y-72866276D01*
X79333256Y-72864081D01*
X79260856Y-72862362D01*
X79176025Y-72861061D01*
X79077578Y-72860122D01*
X78964326Y-72859487D01*
X78835084Y-72859101D01*
X78688666Y-72858905D01*
X78523884Y-72858844D01*
X78339553Y-72858860D01*
X78134487Y-72858897D01*
X78011867Y-72858906D01*
X77794918Y-72858882D01*
X77599358Y-72858848D01*
X77424001Y-72858860D01*
X77267659Y-72858975D01*
X77129143Y-72859247D01*
X77007266Y-72859735D01*
X76900840Y-72860493D01*
X76808678Y-72861579D01*
X76729591Y-72863048D01*
X76662392Y-72864957D01*
X76605893Y-72867361D01*
X76558907Y-72870318D01*
X76520245Y-72873883D01*
X76488720Y-72878112D01*
X76463145Y-72883063D01*
X76442330Y-72888790D01*
X76425089Y-72895350D01*
X76410235Y-72902800D01*
X76396578Y-72911196D01*
X76382931Y-72920593D01*
X76368107Y-72931049D01*
X76359217Y-72937140D01*
X76301600Y-72975913D01*
X76301600Y-72444349D01*
X76301635Y-72321100D01*
X76301785Y-72218604D01*
X76302122Y-72135037D01*
X76302714Y-72068573D01*
X76303633Y-72017388D01*
X76304949Y-71979658D01*
X76306731Y-71953557D01*
X76309049Y-71937261D01*
X76311974Y-71928945D01*
X76315576Y-71926785D01*
X76319925Y-71928956D01*
X76321355Y-71930152D01*
X76358427Y-71955302D01*
X76411228Y-71981200D01*
X76473230Y-72004809D01*
X76499643Y-72013078D01*
X76517584Y-72017695D01*
X76538645Y-72021596D01*
X76564911Y-72024865D01*
X76598468Y-72027583D01*
X76641401Y-72029832D01*
X76695796Y-72031694D01*
X76763738Y-72033253D01*
X76847312Y-72034589D01*
X76948605Y-72035786D01*
X77069700Y-72036925D01*
X77114400Y-72037302D01*
X77239551Y-72038319D01*
X77343918Y-72039077D01*
X77429293Y-72039520D01*
X77497467Y-72039587D01*
X77550235Y-72039222D01*
X77589386Y-72038365D01*
X77616715Y-72036958D01*
X77634014Y-72034942D01*
X77643074Y-72032260D01*
X77645688Y-72028853D01*
X77643649Y-72024661D01*
X77639333Y-72020188D01*
X77626398Y-72009833D01*
X77597324Y-71987775D01*
X77554241Y-71955574D01*
X77499282Y-71914791D01*
X77434577Y-71866987D01*
X77362258Y-71813722D01*
X77284456Y-71756557D01*
X77203302Y-71697054D01*
X77120928Y-71636772D01*
X77039464Y-71577272D01*
X76961043Y-71520115D01*
X76887796Y-71466862D01*
X76821853Y-71419074D01*
X76765346Y-71378310D01*
X76720407Y-71346133D01*
X76689166Y-71324102D01*
X76682534Y-71319534D01*
X76645631Y-71296613D01*
X76597641Y-71269805D01*
X76548103Y-71244406D01*
X76541423Y-71241185D01*
X76493228Y-71219507D01*
X76455666Y-71206921D01*
X76419840Y-71201191D01*
X76377800Y-71200073D01*
X76301600Y-71200707D01*
X76301600Y-70046268D01*
X76395331Y-70137432D01*
X76445225Y-70184229D01*
X76501705Y-70234516D01*
X76555974Y-70280561D01*
X76581327Y-70300986D01*
X76620872Y-70331424D01*
X76674084Y-70371479D01*
X76739333Y-70419978D01*
X76814989Y-70475752D01*
X76899423Y-70537628D01*
X76991006Y-70604436D01*
X77088108Y-70675004D01*
X77189099Y-70748162D01*
X77292350Y-70822738D01*
X77396232Y-70897561D01*
X77499115Y-70971460D01*
X77599369Y-71043263D01*
X77695364Y-71111801D01*
X77785473Y-71175901D01*
X77868064Y-71234392D01*
X77941508Y-71286103D01*
X78004176Y-71329864D01*
X78054439Y-71364502D01*
X78090666Y-71388847D01*
X78111229Y-71401728D01*
X78115332Y-71403486D01*
X78126658Y-71395527D01*
X78153838Y-71374732D01*
X78195171Y-71342464D01*
X78248956Y-71300087D01*
X78313494Y-71248964D01*
X78387082Y-71190458D01*
X78468022Y-71125931D01*
X78554612Y-71056748D01*
X78645152Y-70984270D01*
X78737940Y-70909863D01*
X78812298Y-70850134D01*
X78812298Y-69839128D01*
X78799341Y-69833219D01*
X78777092Y-69818889D01*
X78775609Y-69817842D01*
X78745456Y-69799055D01*
X78708625Y-69779408D01*
X78700489Y-69775509D01*
X78692060Y-69771973D01*
X78681941Y-69768847D01*
X78668740Y-69766103D01*
X78651062Y-69763709D01*
X78627516Y-69761636D01*
X78596707Y-69759852D01*
X78557243Y-69758329D01*
X78507731Y-69757036D01*
X78446777Y-69755943D01*
X78372989Y-69755020D01*
X78284972Y-69754236D01*
X78181335Y-69753562D01*
X78060684Y-69752967D01*
X77921626Y-69752422D01*
X77762768Y-69751896D01*
X77583911Y-69751362D01*
X77398793Y-69750823D01*
X77234855Y-69750389D01*
X77090697Y-69750126D01*
X76964921Y-69750101D01*
X76856129Y-69750382D01*
X76762923Y-69751036D01*
X76683903Y-69752131D01*
X76617672Y-69753735D01*
X76562830Y-69755914D01*
X76517979Y-69758736D01*
X76481722Y-69762268D01*
X76452659Y-69766578D01*
X76429391Y-69771734D01*
X76410521Y-69777802D01*
X76394649Y-69784850D01*
X76380378Y-69792946D01*
X76366309Y-69802157D01*
X76353842Y-69810657D01*
X76327548Y-69827793D01*
X76309963Y-69837939D01*
X76306743Y-69839128D01*
X76305666Y-69828221D01*
X76304665Y-69797028D01*
X76303765Y-69747840D01*
X76302990Y-69682950D01*
X76302363Y-69604647D01*
X76301909Y-69515224D01*
X76301651Y-69416973D01*
X76301600Y-69348062D01*
X76301820Y-69243069D01*
X76302452Y-69146227D01*
X76303451Y-69059724D01*
X76304773Y-68985749D01*
X76306374Y-68926491D01*
X76308209Y-68884137D01*
X76310235Y-68860877D01*
X76311507Y-68856995D01*
X76326409Y-68864693D01*
X76334440Y-68872691D01*
X76351566Y-68885863D01*
X76381817Y-68903102D01*
X76406378Y-68915024D01*
X76465289Y-68941662D01*
X77642155Y-68944737D01*
X78819022Y-68947812D01*
X78819022Y-69393470D01*
X78818858Y-69491287D01*
X78818389Y-69581681D01*
X78817653Y-69662247D01*
X78816684Y-69730579D01*
X78815520Y-69784273D01*
X78814197Y-69820922D01*
X78812751Y-69838121D01*
X78812298Y-69839128D01*
X78812298Y-70850134D01*
X78831278Y-70834887D01*
X78923463Y-70760707D01*
X79012796Y-70688686D01*
X79097576Y-70620186D01*
X79176102Y-70556572D01*
X79246674Y-70499205D01*
X79307591Y-70449450D01*
X79357153Y-70408669D01*
X79377822Y-70391505D01*
X79478484Y-70305213D01*
X79561741Y-70228614D01*
X79629562Y-70159800D01*
X79683911Y-70096865D01*
X79691278Y-70087484D01*
X79721883Y-70047973D01*
X79722133Y-71179733D01*
X79674156Y-71174444D01*
X79616812Y-71177747D01*
X79548537Y-71199278D01*
X79468788Y-71239252D01*
X79396505Y-71284560D01*
X79373860Y-71300778D01*
X79336304Y-71328831D01*
X79285979Y-71367047D01*
X79225027Y-71413754D01*
X79155589Y-71467278D01*
X79079806Y-71525948D01*
X78999820Y-71588092D01*
X78917772Y-71652038D01*
X78835804Y-71716112D01*
X78756057Y-71778644D01*
X78680673Y-71837960D01*
X78611793Y-71892388D01*
X78551558Y-71940256D01*
X78502111Y-71979892D01*
X78465592Y-72009623D01*
X78444142Y-72027778D01*
X78440844Y-72030837D01*
X78448851Y-72033696D01*
X78479145Y-72035910D01*
X78531444Y-72037474D01*
X78605469Y-72038384D01*
X78700937Y-72038637D01*
X78817566Y-72038230D01*
X78937555Y-72037321D01*
X79069667Y-72035999D01*
X79181406Y-72034474D01*
X79274975Y-72032498D01*
X79352581Y-72029823D01*
X79416426Y-72026199D01*
X79468717Y-72021378D01*
X79511656Y-72015111D01*
X79547449Y-72007149D01*
X79578300Y-71997244D01*
X79606414Y-71985148D01*
X79633995Y-71970610D01*
X79659034Y-71955928D01*
X79722133Y-71917931D01*
X79722133Y-72977814D01*
X79722133Y-73280651D01*
X79728383Y-73280618D01*
X79830456Y-73279812D01*
X79919367Y-73278787D01*
X79996059Y-73277517D01*
X80061473Y-73275977D01*
X80116551Y-73274141D01*
X80162235Y-73271984D01*
X80199466Y-73269480D01*
X80229187Y-73266604D01*
X80252338Y-73263330D01*
X80269861Y-73259632D01*
X80282699Y-73255486D01*
X80291792Y-73250864D01*
X80298082Y-73245743D01*
X80302512Y-73240095D01*
X80306022Y-73233896D01*
X80309555Y-73227121D01*
X80313124Y-73221125D01*
X80315700Y-73215892D01*
X80318028Y-73207716D01*
X80320122Y-73195503D01*
X80321993Y-73178158D01*
X80323653Y-73154586D01*
X80325116Y-73123694D01*
X80326392Y-73084385D01*
X80327496Y-73035567D01*
X80328439Y-72976144D01*
X80329233Y-72905021D01*
X80329891Y-72821105D01*
X80330425Y-72723300D01*
X80330847Y-72610511D01*
X80331171Y-72481646D01*
X80331408Y-72335608D01*
X80331570Y-72171303D01*
X80331670Y-71987637D01*
X80331720Y-71783514D01*
X80331733Y-71572370D01*
X80331733Y-69952017D01*
X80234946Y-69952017D01*
M02*
