M48
; DRILL file {KiCad 5.1.5+dfsg1-2build2} date 2020. jún. 4., csütörtök, 15:46:06 CEST
; FORMAT={-:-/ absolute / metric / decimal}
; #@! TF.CreationDate,2020-06-04T15:46:06+02:00
; #@! TF.GenerationSoftware,Kicad,Pcbnew,5.1.5+dfsg1-2build2
FMAT,2
METRIC
T1C0.500
T2C0.800
T3C1.000
T4C3.200
%
G90
G05
T1
X100.908Y-64.7
X100.908Y-67.0
X116.375Y-71.798
X121.455Y-71.798
X157.567Y-59.365
X157.567Y-69.525
T2
X134.795Y-58.095
X134.795Y-60.635
X134.795Y-63.175
X134.795Y-65.715
X134.795Y-68.255
X134.795Y-70.795
X134.795Y-73.335
X134.795Y-75.875
X144.955Y-58.095
X144.955Y-60.635
X144.955Y-63.175
X144.955Y-65.715
X144.955Y-68.255
X144.955Y-70.795
X144.955Y-73.335
X144.955Y-75.875
T3
X103.675Y-81.63
X106.215Y-81.63
X108.755Y-81.63
X111.295Y-81.63
X113.835Y-81.63
X116.375Y-81.63
X118.915Y-81.63
X121.455Y-81.63
X103.675Y-55.57
X103.675Y-78.43
X106.215Y-55.57
X106.215Y-78.43
X108.755Y-55.57
X108.755Y-78.43
X111.295Y-55.57
X111.295Y-78.43
X113.835Y-55.57
X113.835Y-78.43
X116.375Y-55.57
X116.375Y-78.43
X118.915Y-55.57
X118.915Y-78.43
X121.455Y-55.57
X121.455Y-78.43
X103.675Y-52.37
X106.215Y-52.37
X108.755Y-52.37
X111.295Y-52.37
X113.835Y-52.37
X116.375Y-52.37
X118.915Y-52.37
X121.455Y-52.37
X72.771Y-63.18
X72.771Y-65.72
X72.771Y-68.26
X72.771Y-70.8
T4
X57.5Y-77.0
X162.5Y-77.0
X162.5Y-57.0
X57.5Y-57.0
T0
M30
